%
M48
M72
T01C0.0197
T02C0.0236
T03C0.0354
T04C0.0400
%
T01
X8087Y10678
X8697Y8827
X8697Y7154
X9874Y11493
X10292Y13040
X7477Y13335
X11296Y17134
X13304Y17311
X13697Y17843
X13725Y16792
X15670Y18213
X15894Y17056
X16630Y17091
X15843Y20284
X12776Y20410
X11571Y20622
X9662Y20737
X13658Y13178
T02
X7300Y8233
X7300Y9953
X8512Y9957
X8914Y10414
X10784Y10028
X12288Y11465
X12288Y13965
X11449Y17603
X12233Y18111
X11898Y18512
X11146Y18851
X10548Y19516
X9020Y18158
X8205Y19000
X7693Y18654
X6398Y18918
X6300Y21418
X7713Y23276
X7142Y24221
X6347Y24874
X7233Y27205
X7748Y27205
X6453Y29063
X8882Y29233
X9504Y26945
X10390Y25835
X11119Y25737
X12878Y26626
X14134Y29500
X16146Y25248
X17201Y22544
X16583Y21835
X17792Y20874
X18670Y20843
X19241Y19607
X20705Y20107
X21063Y18276
X19800Y14780
X18756Y13126
X18087Y10221
X19422Y8280
X19701Y5126
X16717Y4650
X15926Y7276
X16363Y9382
X15311Y13158
X16583Y15292
X14406Y21111
X13626Y21760
X14406Y22626
X12354Y20233
X11394Y21662
X12225Y22811
X9225Y16083
X9532Y15107
X8048Y14693
X8048Y16111
X6563Y14599
X6166Y10949
X7658Y5154
X10130Y3563
X10390Y6721
X12304Y7563
X20965Y22079
X20067Y24449
X19264Y28989
T03
X14910Y5552
X13532Y5552
T04
X13796Y12209
X14796Y12209
X15796Y12209
X12796Y12209
X11796Y12209
X10796Y12209
M30
