G75*
G70*
%OFA0B0*%
%FSLAX24Y24*%
%IPPOS*%
%LPD*%
%AMOC8*
5,1,8,0,0,1.08239X$1,22.5*
%
%ADD10C,0.0000*%
%ADD11C,0.1300*%
%ADD12R,0.0491X0.0257*%
%ADD13R,0.0257X0.0491*%
%ADD14R,0.0453X0.0257*%
%ADD15R,0.0394X0.0316*%
%ADD16R,0.0355X0.0749*%
%ADD17R,0.0316X0.0749*%
%ADD18R,0.0158X0.0512*%
%ADD19R,0.0512X0.0158*%
%ADD20R,0.0520X0.0920*%
%ADD21R,0.1457X0.0906*%
%ADD22R,0.0512X0.0257*%
%ADD23R,0.1024X0.0906*%
%ADD24R,0.0237X0.0827*%
%ADD25C,0.0394*%
%ADD26R,0.0138X0.0197*%
%ADD27R,0.0670X0.0670*%
%ADD28R,0.0197X0.0138*%
%ADD29C,0.0640*%
%ADD30R,0.0316X0.0394*%
%ADD31R,0.2140X0.0800*%
%ADD32R,0.0640X0.0340*%
%ADD33R,0.0591X0.0434*%
%ADD34R,0.0434X0.0591*%
%ADD35R,0.1064X0.0296*%
%ADD36R,0.0355X0.0355*%
%ADD37R,0.0512X0.0827*%
%ADD38R,0.0237X0.0571*%
%ADD39C,0.0050*%
%ADD40R,0.0355X0.1024*%
%ADD41R,0.0434X0.1024*%
D10*
X005729Y003024D02*
X005729Y030339D01*
X021839Y030339D01*
X021819Y003024D01*
X005729Y003024D01*
X006524Y008099D02*
X006526Y008149D01*
X006532Y008199D01*
X006542Y008248D01*
X006556Y008296D01*
X006573Y008343D01*
X006594Y008388D01*
X006619Y008432D01*
X006647Y008473D01*
X006679Y008512D01*
X006713Y008549D01*
X006750Y008583D01*
X006790Y008613D01*
X006832Y008640D01*
X006876Y008664D01*
X006922Y008685D01*
X006969Y008701D01*
X007017Y008714D01*
X007067Y008723D01*
X007116Y008728D01*
X007167Y008729D01*
X007217Y008726D01*
X007266Y008719D01*
X007315Y008708D01*
X007363Y008693D01*
X007409Y008675D01*
X007454Y008653D01*
X007497Y008627D01*
X007538Y008598D01*
X007577Y008566D01*
X007613Y008531D01*
X007645Y008493D01*
X007675Y008453D01*
X007702Y008410D01*
X007725Y008366D01*
X007744Y008320D01*
X007760Y008272D01*
X007772Y008223D01*
X007780Y008174D01*
X007784Y008124D01*
X007784Y008074D01*
X007780Y008024D01*
X007772Y007975D01*
X007760Y007926D01*
X007744Y007878D01*
X007725Y007832D01*
X007702Y007788D01*
X007675Y007745D01*
X007645Y007705D01*
X007613Y007667D01*
X007577Y007632D01*
X007538Y007600D01*
X007497Y007571D01*
X007454Y007545D01*
X007409Y007523D01*
X007363Y007505D01*
X007315Y007490D01*
X007266Y007479D01*
X007217Y007472D01*
X007167Y007469D01*
X007116Y007470D01*
X007067Y007475D01*
X007017Y007484D01*
X006969Y007497D01*
X006922Y007513D01*
X006876Y007534D01*
X006832Y007558D01*
X006790Y007585D01*
X006750Y007615D01*
X006713Y007649D01*
X006679Y007686D01*
X006647Y007725D01*
X006619Y007766D01*
X006594Y007810D01*
X006573Y007855D01*
X006556Y007902D01*
X006542Y007950D01*
X006532Y007999D01*
X006526Y008049D01*
X006524Y008099D01*
X013355Y005552D02*
X013357Y005578D01*
X013363Y005604D01*
X013373Y005629D01*
X013386Y005652D01*
X013402Y005672D01*
X013422Y005690D01*
X013444Y005705D01*
X013467Y005717D01*
X013493Y005725D01*
X013519Y005729D01*
X013545Y005729D01*
X013571Y005725D01*
X013597Y005717D01*
X013621Y005705D01*
X013642Y005690D01*
X013662Y005672D01*
X013678Y005652D01*
X013691Y005629D01*
X013701Y005604D01*
X013707Y005578D01*
X013709Y005552D01*
X013707Y005526D01*
X013701Y005500D01*
X013691Y005475D01*
X013678Y005452D01*
X013662Y005432D01*
X013642Y005414D01*
X013620Y005399D01*
X013597Y005387D01*
X013571Y005379D01*
X013545Y005375D01*
X013519Y005375D01*
X013493Y005379D01*
X013467Y005387D01*
X013443Y005399D01*
X013422Y005414D01*
X013402Y005432D01*
X013386Y005452D01*
X013373Y005475D01*
X013363Y005500D01*
X013357Y005526D01*
X013355Y005552D01*
X014733Y005552D02*
X014735Y005578D01*
X014741Y005604D01*
X014751Y005629D01*
X014764Y005652D01*
X014780Y005672D01*
X014800Y005690D01*
X014822Y005705D01*
X014845Y005717D01*
X014871Y005725D01*
X014897Y005729D01*
X014923Y005729D01*
X014949Y005725D01*
X014975Y005717D01*
X014999Y005705D01*
X015020Y005690D01*
X015040Y005672D01*
X015056Y005652D01*
X015069Y005629D01*
X015079Y005604D01*
X015085Y005578D01*
X015087Y005552D01*
X015085Y005526D01*
X015079Y005500D01*
X015069Y005475D01*
X015056Y005452D01*
X015040Y005432D01*
X015020Y005414D01*
X014998Y005399D01*
X014975Y005387D01*
X014949Y005379D01*
X014923Y005375D01*
X014897Y005375D01*
X014871Y005379D01*
X014845Y005387D01*
X014821Y005399D01*
X014800Y005414D01*
X014780Y005432D01*
X014764Y005452D01*
X014751Y005475D01*
X014741Y005500D01*
X014735Y005526D01*
X014733Y005552D01*
X017237Y008910D02*
X017239Y008960D01*
X017245Y009010D01*
X017255Y009059D01*
X017269Y009107D01*
X017286Y009154D01*
X017307Y009199D01*
X017332Y009243D01*
X017360Y009284D01*
X017392Y009323D01*
X017426Y009360D01*
X017463Y009394D01*
X017503Y009424D01*
X017545Y009451D01*
X017589Y009475D01*
X017635Y009496D01*
X017682Y009512D01*
X017730Y009525D01*
X017780Y009534D01*
X017829Y009539D01*
X017880Y009540D01*
X017930Y009537D01*
X017979Y009530D01*
X018028Y009519D01*
X018076Y009504D01*
X018122Y009486D01*
X018167Y009464D01*
X018210Y009438D01*
X018251Y009409D01*
X018290Y009377D01*
X018326Y009342D01*
X018358Y009304D01*
X018388Y009264D01*
X018415Y009221D01*
X018438Y009177D01*
X018457Y009131D01*
X018473Y009083D01*
X018485Y009034D01*
X018493Y008985D01*
X018497Y008935D01*
X018497Y008885D01*
X018493Y008835D01*
X018485Y008786D01*
X018473Y008737D01*
X018457Y008689D01*
X018438Y008643D01*
X018415Y008599D01*
X018388Y008556D01*
X018358Y008516D01*
X018326Y008478D01*
X018290Y008443D01*
X018251Y008411D01*
X018210Y008382D01*
X018167Y008356D01*
X018122Y008334D01*
X018076Y008316D01*
X018028Y008301D01*
X017979Y008290D01*
X017930Y008283D01*
X017880Y008280D01*
X017829Y008281D01*
X017780Y008286D01*
X017730Y008295D01*
X017682Y008308D01*
X017635Y008324D01*
X017589Y008345D01*
X017545Y008369D01*
X017503Y008396D01*
X017463Y008426D01*
X017426Y008460D01*
X017392Y008497D01*
X017360Y008536D01*
X017332Y008577D01*
X017307Y008621D01*
X017286Y008666D01*
X017269Y008713D01*
X017255Y008761D01*
X017245Y008810D01*
X017239Y008860D01*
X017237Y008910D01*
X018091Y028867D02*
X018093Y028917D01*
X018099Y028967D01*
X018109Y029016D01*
X018123Y029064D01*
X018140Y029111D01*
X018161Y029156D01*
X018186Y029200D01*
X018214Y029241D01*
X018246Y029280D01*
X018280Y029317D01*
X018317Y029351D01*
X018357Y029381D01*
X018399Y029408D01*
X018443Y029432D01*
X018489Y029453D01*
X018536Y029469D01*
X018584Y029482D01*
X018634Y029491D01*
X018683Y029496D01*
X018734Y029497D01*
X018784Y029494D01*
X018833Y029487D01*
X018882Y029476D01*
X018930Y029461D01*
X018976Y029443D01*
X019021Y029421D01*
X019064Y029395D01*
X019105Y029366D01*
X019144Y029334D01*
X019180Y029299D01*
X019212Y029261D01*
X019242Y029221D01*
X019269Y029178D01*
X019292Y029134D01*
X019311Y029088D01*
X019327Y029040D01*
X019339Y028991D01*
X019347Y028942D01*
X019351Y028892D01*
X019351Y028842D01*
X019347Y028792D01*
X019339Y028743D01*
X019327Y028694D01*
X019311Y028646D01*
X019292Y028600D01*
X019269Y028556D01*
X019242Y028513D01*
X019212Y028473D01*
X019180Y028435D01*
X019144Y028400D01*
X019105Y028368D01*
X019064Y028339D01*
X019021Y028313D01*
X018976Y028291D01*
X018930Y028273D01*
X018882Y028258D01*
X018833Y028247D01*
X018784Y028240D01*
X018734Y028237D01*
X018683Y028238D01*
X018634Y028243D01*
X018584Y028252D01*
X018536Y028265D01*
X018489Y028281D01*
X018443Y028302D01*
X018399Y028326D01*
X018357Y028353D01*
X018317Y028383D01*
X018280Y028417D01*
X018246Y028454D01*
X018214Y028493D01*
X018186Y028534D01*
X018161Y028578D01*
X018140Y028623D01*
X018123Y028670D01*
X018109Y028718D01*
X018099Y028767D01*
X018093Y028817D01*
X018091Y028867D01*
X006744Y028867D02*
X006746Y028917D01*
X006752Y028967D01*
X006762Y029016D01*
X006776Y029064D01*
X006793Y029111D01*
X006814Y029156D01*
X006839Y029200D01*
X006867Y029241D01*
X006899Y029280D01*
X006933Y029317D01*
X006970Y029351D01*
X007010Y029381D01*
X007052Y029408D01*
X007096Y029432D01*
X007142Y029453D01*
X007189Y029469D01*
X007237Y029482D01*
X007287Y029491D01*
X007336Y029496D01*
X007387Y029497D01*
X007437Y029494D01*
X007486Y029487D01*
X007535Y029476D01*
X007583Y029461D01*
X007629Y029443D01*
X007674Y029421D01*
X007717Y029395D01*
X007758Y029366D01*
X007797Y029334D01*
X007833Y029299D01*
X007865Y029261D01*
X007895Y029221D01*
X007922Y029178D01*
X007945Y029134D01*
X007964Y029088D01*
X007980Y029040D01*
X007992Y028991D01*
X008000Y028942D01*
X008004Y028892D01*
X008004Y028842D01*
X008000Y028792D01*
X007992Y028743D01*
X007980Y028694D01*
X007964Y028646D01*
X007945Y028600D01*
X007922Y028556D01*
X007895Y028513D01*
X007865Y028473D01*
X007833Y028435D01*
X007797Y028400D01*
X007758Y028368D01*
X007717Y028339D01*
X007674Y028313D01*
X007629Y028291D01*
X007583Y028273D01*
X007535Y028258D01*
X007486Y028247D01*
X007437Y028240D01*
X007387Y028237D01*
X007336Y028238D01*
X007287Y028243D01*
X007237Y028252D01*
X007189Y028265D01*
X007142Y028281D01*
X007096Y028302D01*
X007052Y028326D01*
X007010Y028353D01*
X006970Y028383D01*
X006933Y028417D01*
X006899Y028454D01*
X006867Y028493D01*
X006839Y028534D01*
X006814Y028578D01*
X006793Y028623D01*
X006776Y028670D01*
X006762Y028718D01*
X006752Y028767D01*
X006746Y028817D01*
X006744Y028867D01*
D11*
X007374Y028867D03*
X018721Y028867D03*
X017867Y008910D03*
X007154Y008099D03*
D12*
X006748Y016646D03*
X006748Y016961D03*
X006748Y017276D03*
X006748Y017591D03*
X006748Y017906D03*
X006748Y018221D03*
X007613Y018221D03*
X007615Y017906D03*
X007615Y017591D03*
X007615Y017276D03*
X007615Y016961D03*
X007615Y016646D03*
D13*
X007181Y016607D03*
X007181Y018260D03*
D14*
X008099Y012768D03*
X008099Y012276D03*
X008099Y011784D03*
X008099Y011292D03*
X008926Y011292D03*
X008926Y011784D03*
X008926Y012276D03*
X008926Y012768D03*
D15*
X007453Y012437D03*
X007453Y011926D03*
X006823Y012138D03*
X006823Y012650D03*
X008681Y015433D03*
X008681Y015945D03*
X009993Y019634D03*
X009993Y020146D03*
X010403Y023517D03*
X010403Y024029D03*
X013511Y024877D03*
X013511Y025389D03*
X016095Y018902D03*
X016095Y018390D03*
X016587Y018406D03*
X016587Y017894D03*
X017008Y011229D03*
X017008Y010717D03*
X016087Y010512D03*
X016087Y010000D03*
X015504Y010000D03*
X015504Y010512D03*
X014843Y010532D03*
X014843Y010020D03*
X014095Y010028D03*
X014095Y010540D03*
X013032Y010548D03*
X013032Y010036D03*
X012284Y010052D03*
X012284Y010563D03*
X011583Y007071D03*
X011583Y006559D03*
X008044Y006611D03*
X008044Y007122D03*
X008036Y008792D03*
X008036Y009304D03*
D16*
X009928Y024833D03*
X010361Y024833D03*
X010794Y024833D03*
X011227Y024833D03*
X011660Y024833D03*
X012093Y024833D03*
X012526Y024833D03*
X012526Y028573D03*
X012093Y028573D03*
X011660Y028573D03*
X011227Y028573D03*
X010794Y028573D03*
X010361Y028573D03*
X009928Y028573D03*
D17*
X009515Y028573D03*
X009515Y024833D03*
X012940Y024833D03*
X012940Y028573D03*
D18*
X013036Y019477D03*
X013233Y019477D03*
X013430Y019477D03*
X013626Y019477D03*
X013823Y019477D03*
X012839Y019477D03*
X012642Y019477D03*
X012445Y019477D03*
X012248Y019477D03*
X012052Y019477D03*
X011855Y019477D03*
X011658Y019477D03*
X011461Y019477D03*
X011264Y019477D03*
X011067Y019477D03*
X010870Y019477D03*
X010870Y014989D03*
X011067Y014989D03*
X011264Y014989D03*
X011461Y014989D03*
X011658Y014989D03*
X011855Y014989D03*
X012052Y014989D03*
X012248Y014989D03*
X012445Y014989D03*
X012642Y014989D03*
X012839Y014989D03*
X013036Y014989D03*
X013233Y014989D03*
X013430Y014989D03*
X013626Y014989D03*
X013823Y014989D03*
D19*
X014591Y015756D03*
X014591Y015953D03*
X014591Y016150D03*
X014591Y016347D03*
X014591Y016544D03*
X014591Y016741D03*
X014591Y016937D03*
X014591Y017134D03*
X014591Y017331D03*
X014591Y017528D03*
X014591Y017725D03*
X014591Y017922D03*
X014591Y018119D03*
X014591Y018315D03*
X014591Y018512D03*
X014591Y018709D03*
X010103Y018709D03*
X010103Y018512D03*
X010103Y018315D03*
X010103Y018119D03*
X010103Y017922D03*
X010103Y017725D03*
X010103Y017528D03*
X010103Y017331D03*
X010103Y017134D03*
X010103Y016937D03*
X010103Y016741D03*
X010103Y016544D03*
X010103Y016347D03*
X010103Y016150D03*
X010103Y015953D03*
X010103Y015756D03*
D20*
X009804Y005619D03*
X010714Y005619D03*
X008894Y005619D03*
D21*
X009804Y008059D03*
D22*
X010217Y009115D03*
X010217Y009489D03*
X010217Y009863D03*
X009193Y009863D03*
X009193Y009115D03*
D23*
X012567Y006339D03*
X012567Y004252D03*
X015874Y004252D03*
X015874Y006339D03*
D24*
X014851Y006437D03*
X014536Y006437D03*
X014221Y006437D03*
X013906Y006437D03*
X013591Y006437D03*
D25*
X013532Y005552D03*
X014910Y005552D03*
D26*
X012815Y020760D03*
X012619Y020760D03*
X012422Y020760D03*
X012225Y020760D03*
X012225Y021784D03*
X012422Y021784D03*
X012619Y021784D03*
X012815Y021784D03*
D27*
X012520Y021272D03*
D28*
X012008Y021174D03*
X012008Y021370D03*
X012008Y021567D03*
X012008Y020977D03*
X013032Y020977D03*
X013032Y021174D03*
X013032Y021370D03*
X013032Y021567D03*
D29*
X012796Y012509D02*
X012796Y011909D01*
X011796Y011909D02*
X011796Y012509D01*
X010796Y012509D02*
X010796Y011909D01*
X013796Y011909D02*
X013796Y012509D01*
X014796Y012509D02*
X014796Y011909D01*
X015796Y011909D02*
X015796Y012509D01*
D30*
X014059Y013890D03*
X013548Y013890D03*
X010792Y013548D03*
X010280Y013548D03*
X010012Y010453D03*
X009500Y010453D03*
X007197Y015689D03*
X006685Y015689D03*
X008819Y016520D03*
X009331Y016520D03*
X009296Y018599D03*
X008784Y018599D03*
X008079Y019965D03*
X007567Y019965D03*
X009284Y021540D03*
X009796Y021540D03*
X010666Y020890D03*
X011178Y020890D03*
X010957Y020193D03*
X011469Y020193D03*
X011272Y022122D03*
X010760Y022122D03*
X010752Y022811D03*
X011264Y022811D03*
X011621Y024163D03*
X012133Y024163D03*
X012516Y022142D03*
X013028Y022142D03*
X014213Y021804D03*
X014725Y021804D03*
X014914Y025063D03*
X014402Y025063D03*
X017315Y025032D03*
X017827Y025032D03*
D31*
X017853Y023339D03*
X014053Y023339D03*
D32*
X015134Y021424D03*
X015134Y019924D03*
X017134Y019924D03*
X017134Y021424D03*
X009707Y022402D03*
X009707Y023902D03*
X007707Y023902D03*
X007707Y022402D03*
D33*
X008406Y021548D03*
X008406Y020800D03*
X007540Y021174D03*
D34*
X012280Y009166D03*
X013028Y009166D03*
X012654Y008300D03*
X014095Y009126D03*
X014469Y008260D03*
X014843Y009126D03*
D35*
X018804Y015662D03*
X018804Y016162D03*
X018804Y016662D03*
X018804Y017162D03*
X018804Y017662D03*
X020260Y017662D03*
X020260Y017162D03*
X020260Y016662D03*
X020260Y016162D03*
X020260Y015662D03*
D36*
X009390Y019933D03*
X008800Y019933D03*
D37*
X008402Y004526D03*
X006985Y004526D03*
D38*
X007496Y005973D03*
X007890Y005973D03*
D39*
X010321Y030333D02*
X010323Y030281D01*
X010329Y030230D01*
X010338Y030179D01*
X010351Y030129D01*
X010368Y030080D01*
X010388Y030032D01*
X010412Y029986D01*
X010439Y029942D01*
X010469Y029900D01*
X010502Y029860D01*
X010538Y029823D01*
X010576Y029788D01*
X010617Y029756D01*
X010661Y029728D01*
X010706Y029702D01*
X010753Y029680D01*
X010801Y029662D01*
X010851Y029647D01*
X010901Y029636D01*
X010952Y029628D01*
X011004Y029624D01*
X011056Y029624D01*
X011108Y029628D01*
X011159Y029636D01*
X011209Y029647D01*
X011259Y029662D01*
X011307Y029680D01*
X011354Y029702D01*
X011399Y029728D01*
X011443Y029756D01*
X011484Y029788D01*
X011522Y029823D01*
X011558Y029860D01*
X011591Y029900D01*
X011621Y029942D01*
X011648Y029986D01*
X011672Y030032D01*
X011692Y030080D01*
X011709Y030129D01*
X011722Y030179D01*
X011731Y030230D01*
X011737Y030281D01*
X011739Y030333D01*
D40*
X012526Y029833D03*
D41*
X011975Y029833D03*
X013058Y029833D03*
M02*
