G75*
G70*
%OFA0B0*%
%FSLAX24Y24*%
%IPPOS*%
%LPD*%
%AMOC8*
5,1,8,0,0,1.08239X$1,22.5*
%
%ADD10C,0.0000*%
%ADD11R,0.0748X0.0551*%
%ADD12R,0.0551X0.0709*%
%ADD13R,0.0591X0.0276*%
%ADD14C,0.0600*%
%ADD15R,0.1102X0.0500*%
%ADD16C,0.0050*%
%ADD17OC8,0.0317*%
%ADD18C,0.0100*%
%ADD19C,0.0240*%
%ADD20C,0.0160*%
%ADD21OC8,0.0356*%
%ADD22C,0.0356*%
D10*
X005729Y003024D02*
X005729Y030339D01*
X021839Y030339D01*
X021819Y003024D01*
X005729Y003024D01*
X006524Y008099D02*
X006526Y008149D01*
X006532Y008199D01*
X006542Y008248D01*
X006556Y008296D01*
X006573Y008343D01*
X006594Y008388D01*
X006619Y008432D01*
X006647Y008473D01*
X006679Y008512D01*
X006713Y008549D01*
X006750Y008583D01*
X006790Y008613D01*
X006832Y008640D01*
X006876Y008664D01*
X006922Y008685D01*
X006969Y008701D01*
X007017Y008714D01*
X007067Y008723D01*
X007116Y008728D01*
X007167Y008729D01*
X007217Y008726D01*
X007266Y008719D01*
X007315Y008708D01*
X007363Y008693D01*
X007409Y008675D01*
X007454Y008653D01*
X007497Y008627D01*
X007538Y008598D01*
X007577Y008566D01*
X007613Y008531D01*
X007645Y008493D01*
X007675Y008453D01*
X007702Y008410D01*
X007725Y008366D01*
X007744Y008320D01*
X007760Y008272D01*
X007772Y008223D01*
X007780Y008174D01*
X007784Y008124D01*
X007784Y008074D01*
X007780Y008024D01*
X007772Y007975D01*
X007760Y007926D01*
X007744Y007878D01*
X007725Y007832D01*
X007702Y007788D01*
X007675Y007745D01*
X007645Y007705D01*
X007613Y007667D01*
X007577Y007632D01*
X007538Y007600D01*
X007497Y007571D01*
X007454Y007545D01*
X007409Y007523D01*
X007363Y007505D01*
X007315Y007490D01*
X007266Y007479D01*
X007217Y007472D01*
X007167Y007469D01*
X007116Y007470D01*
X007067Y007475D01*
X007017Y007484D01*
X006969Y007497D01*
X006922Y007513D01*
X006876Y007534D01*
X006832Y007558D01*
X006790Y007585D01*
X006750Y007615D01*
X006713Y007649D01*
X006679Y007686D01*
X006647Y007725D01*
X006619Y007766D01*
X006594Y007810D01*
X006573Y007855D01*
X006556Y007902D01*
X006542Y007950D01*
X006532Y007999D01*
X006526Y008049D01*
X006524Y008099D01*
X013355Y005552D02*
X013357Y005578D01*
X013363Y005604D01*
X013373Y005629D01*
X013386Y005652D01*
X013402Y005672D01*
X013422Y005690D01*
X013444Y005705D01*
X013467Y005717D01*
X013493Y005725D01*
X013519Y005729D01*
X013545Y005729D01*
X013571Y005725D01*
X013597Y005717D01*
X013621Y005705D01*
X013642Y005690D01*
X013662Y005672D01*
X013678Y005652D01*
X013691Y005629D01*
X013701Y005604D01*
X013707Y005578D01*
X013709Y005552D01*
X013707Y005526D01*
X013701Y005500D01*
X013691Y005475D01*
X013678Y005452D01*
X013662Y005432D01*
X013642Y005414D01*
X013620Y005399D01*
X013597Y005387D01*
X013571Y005379D01*
X013545Y005375D01*
X013519Y005375D01*
X013493Y005379D01*
X013467Y005387D01*
X013443Y005399D01*
X013422Y005414D01*
X013402Y005432D01*
X013386Y005452D01*
X013373Y005475D01*
X013363Y005500D01*
X013357Y005526D01*
X013355Y005552D01*
X014733Y005552D02*
X014735Y005578D01*
X014741Y005604D01*
X014751Y005629D01*
X014764Y005652D01*
X014780Y005672D01*
X014800Y005690D01*
X014822Y005705D01*
X014845Y005717D01*
X014871Y005725D01*
X014897Y005729D01*
X014923Y005729D01*
X014949Y005725D01*
X014975Y005717D01*
X014999Y005705D01*
X015020Y005690D01*
X015040Y005672D01*
X015056Y005652D01*
X015069Y005629D01*
X015079Y005604D01*
X015085Y005578D01*
X015087Y005552D01*
X015085Y005526D01*
X015079Y005500D01*
X015069Y005475D01*
X015056Y005452D01*
X015040Y005432D01*
X015020Y005414D01*
X014998Y005399D01*
X014975Y005387D01*
X014949Y005379D01*
X014923Y005375D01*
X014897Y005375D01*
X014871Y005379D01*
X014845Y005387D01*
X014821Y005399D01*
X014800Y005414D01*
X014780Y005432D01*
X014764Y005452D01*
X014751Y005475D01*
X014741Y005500D01*
X014735Y005526D01*
X014733Y005552D01*
X017237Y008910D02*
X017239Y008960D01*
X017245Y009010D01*
X017255Y009059D01*
X017269Y009107D01*
X017286Y009154D01*
X017307Y009199D01*
X017332Y009243D01*
X017360Y009284D01*
X017392Y009323D01*
X017426Y009360D01*
X017463Y009394D01*
X017503Y009424D01*
X017545Y009451D01*
X017589Y009475D01*
X017635Y009496D01*
X017682Y009512D01*
X017730Y009525D01*
X017780Y009534D01*
X017829Y009539D01*
X017880Y009540D01*
X017930Y009537D01*
X017979Y009530D01*
X018028Y009519D01*
X018076Y009504D01*
X018122Y009486D01*
X018167Y009464D01*
X018210Y009438D01*
X018251Y009409D01*
X018290Y009377D01*
X018326Y009342D01*
X018358Y009304D01*
X018388Y009264D01*
X018415Y009221D01*
X018438Y009177D01*
X018457Y009131D01*
X018473Y009083D01*
X018485Y009034D01*
X018493Y008985D01*
X018497Y008935D01*
X018497Y008885D01*
X018493Y008835D01*
X018485Y008786D01*
X018473Y008737D01*
X018457Y008689D01*
X018438Y008643D01*
X018415Y008599D01*
X018388Y008556D01*
X018358Y008516D01*
X018326Y008478D01*
X018290Y008443D01*
X018251Y008411D01*
X018210Y008382D01*
X018167Y008356D01*
X018122Y008334D01*
X018076Y008316D01*
X018028Y008301D01*
X017979Y008290D01*
X017930Y008283D01*
X017880Y008280D01*
X017829Y008281D01*
X017780Y008286D01*
X017730Y008295D01*
X017682Y008308D01*
X017635Y008324D01*
X017589Y008345D01*
X017545Y008369D01*
X017503Y008396D01*
X017463Y008426D01*
X017426Y008460D01*
X017392Y008497D01*
X017360Y008536D01*
X017332Y008577D01*
X017307Y008621D01*
X017286Y008666D01*
X017269Y008713D01*
X017255Y008761D01*
X017245Y008810D01*
X017239Y008860D01*
X017237Y008910D01*
X018091Y028867D02*
X018093Y028917D01*
X018099Y028967D01*
X018109Y029016D01*
X018123Y029064D01*
X018140Y029111D01*
X018161Y029156D01*
X018186Y029200D01*
X018214Y029241D01*
X018246Y029280D01*
X018280Y029317D01*
X018317Y029351D01*
X018357Y029381D01*
X018399Y029408D01*
X018443Y029432D01*
X018489Y029453D01*
X018536Y029469D01*
X018584Y029482D01*
X018634Y029491D01*
X018683Y029496D01*
X018734Y029497D01*
X018784Y029494D01*
X018833Y029487D01*
X018882Y029476D01*
X018930Y029461D01*
X018976Y029443D01*
X019021Y029421D01*
X019064Y029395D01*
X019105Y029366D01*
X019144Y029334D01*
X019180Y029299D01*
X019212Y029261D01*
X019242Y029221D01*
X019269Y029178D01*
X019292Y029134D01*
X019311Y029088D01*
X019327Y029040D01*
X019339Y028991D01*
X019347Y028942D01*
X019351Y028892D01*
X019351Y028842D01*
X019347Y028792D01*
X019339Y028743D01*
X019327Y028694D01*
X019311Y028646D01*
X019292Y028600D01*
X019269Y028556D01*
X019242Y028513D01*
X019212Y028473D01*
X019180Y028435D01*
X019144Y028400D01*
X019105Y028368D01*
X019064Y028339D01*
X019021Y028313D01*
X018976Y028291D01*
X018930Y028273D01*
X018882Y028258D01*
X018833Y028247D01*
X018784Y028240D01*
X018734Y028237D01*
X018683Y028238D01*
X018634Y028243D01*
X018584Y028252D01*
X018536Y028265D01*
X018489Y028281D01*
X018443Y028302D01*
X018399Y028326D01*
X018357Y028353D01*
X018317Y028383D01*
X018280Y028417D01*
X018246Y028454D01*
X018214Y028493D01*
X018186Y028534D01*
X018161Y028578D01*
X018140Y028623D01*
X018123Y028670D01*
X018109Y028718D01*
X018099Y028767D01*
X018093Y028817D01*
X018091Y028867D01*
X006744Y028867D02*
X006746Y028917D01*
X006752Y028967D01*
X006762Y029016D01*
X006776Y029064D01*
X006793Y029111D01*
X006814Y029156D01*
X006839Y029200D01*
X006867Y029241D01*
X006899Y029280D01*
X006933Y029317D01*
X006970Y029351D01*
X007010Y029381D01*
X007052Y029408D01*
X007096Y029432D01*
X007142Y029453D01*
X007189Y029469D01*
X007237Y029482D01*
X007287Y029491D01*
X007336Y029496D01*
X007387Y029497D01*
X007437Y029494D01*
X007486Y029487D01*
X007535Y029476D01*
X007583Y029461D01*
X007629Y029443D01*
X007674Y029421D01*
X007717Y029395D01*
X007758Y029366D01*
X007797Y029334D01*
X007833Y029299D01*
X007865Y029261D01*
X007895Y029221D01*
X007922Y029178D01*
X007945Y029134D01*
X007964Y029088D01*
X007980Y029040D01*
X007992Y028991D01*
X008000Y028942D01*
X008004Y028892D01*
X008004Y028842D01*
X008000Y028792D01*
X007992Y028743D01*
X007980Y028694D01*
X007964Y028646D01*
X007945Y028600D01*
X007922Y028556D01*
X007895Y028513D01*
X007865Y028473D01*
X007833Y028435D01*
X007797Y028400D01*
X007758Y028368D01*
X007717Y028339D01*
X007674Y028313D01*
X007629Y028291D01*
X007583Y028273D01*
X007535Y028258D01*
X007486Y028247D01*
X007437Y028240D01*
X007387Y028237D01*
X007336Y028238D01*
X007287Y028243D01*
X007237Y028252D01*
X007189Y028265D01*
X007142Y028281D01*
X007096Y028302D01*
X007052Y028326D01*
X007010Y028353D01*
X006970Y028383D01*
X006933Y028417D01*
X006899Y028454D01*
X006867Y028493D01*
X006839Y028534D01*
X006814Y028578D01*
X006793Y028623D01*
X006776Y028670D01*
X006762Y028718D01*
X006752Y028767D01*
X006746Y028817D01*
X006744Y028867D01*
D11*
X020248Y019264D03*
X020603Y014067D03*
D12*
X015091Y016272D03*
X015091Y018634D03*
D13*
X019107Y018477D03*
X019107Y018910D03*
X019264Y018044D03*
X019107Y017611D03*
X019264Y017178D03*
X019107Y016744D03*
X018949Y016311D03*
X019107Y015878D03*
D14*
X015796Y012509D02*
X015796Y011909D01*
X014796Y011909D02*
X014796Y012509D01*
X013796Y012509D02*
X013796Y011909D01*
X012796Y011909D02*
X012796Y012509D01*
X011796Y012509D02*
X011796Y011909D01*
X010796Y011909D02*
X010796Y012509D01*
D15*
X010726Y010642D03*
X010726Y009067D03*
X010726Y007493D03*
X010726Y005918D03*
X010726Y004343D03*
X012228Y005130D03*
X012228Y003556D03*
X012228Y006705D03*
X012228Y008280D03*
X012228Y009855D03*
X019387Y010642D03*
X019387Y009067D03*
X019387Y007493D03*
X019387Y005918D03*
X019387Y004343D03*
X020889Y005130D03*
X020889Y003556D03*
X020889Y006705D03*
X020889Y008280D03*
X020889Y009855D03*
D16*
X011739Y030333D02*
X011737Y030281D01*
X011731Y030230D01*
X011722Y030179D01*
X011709Y030129D01*
X011692Y030080D01*
X011672Y030032D01*
X011648Y029986D01*
X011621Y029942D01*
X011591Y029900D01*
X011558Y029860D01*
X011522Y029823D01*
X011484Y029788D01*
X011443Y029756D01*
X011399Y029728D01*
X011354Y029702D01*
X011307Y029680D01*
X011259Y029662D01*
X011209Y029647D01*
X011159Y029636D01*
X011108Y029628D01*
X011056Y029624D01*
X011004Y029624D01*
X010952Y029628D01*
X010901Y029636D01*
X010851Y029647D01*
X010801Y029662D01*
X010753Y029680D01*
X010706Y029702D01*
X010661Y029728D01*
X010617Y029756D01*
X010576Y029788D01*
X010538Y029823D01*
X010502Y029860D01*
X010469Y029900D01*
X010439Y029942D01*
X010412Y029986D01*
X010388Y030032D01*
X010368Y030080D01*
X010351Y030129D01*
X010338Y030179D01*
X010329Y030230D01*
X010323Y030281D01*
X010321Y030333D01*
D17*
X009662Y020737D03*
X011571Y020622D03*
X012776Y020410D03*
X013697Y017843D03*
X013304Y017311D03*
X013725Y016792D03*
X015670Y018213D03*
X015894Y017056D03*
X016630Y017091D03*
X015843Y020284D03*
X011296Y017134D03*
X010292Y013040D03*
X009874Y011493D03*
X008087Y010678D03*
X008697Y008827D03*
X008697Y007154D03*
X007477Y013335D03*
X013658Y013178D03*
D18*
X013658Y013197D01*
X014800Y013197D01*
X014800Y012209D01*
X014796Y012209D01*
X014796Y010642D01*
X010726Y010642D01*
X010776Y010609D02*
X018666Y010609D01*
X018666Y010707D02*
X011427Y010707D01*
X011427Y010692D02*
X011427Y010875D01*
X013418Y010875D01*
X013887Y011343D01*
X014016Y011472D01*
X014016Y011491D01*
X014062Y011511D01*
X014194Y011643D01*
X014266Y011816D01*
X014266Y012603D01*
X014194Y012775D01*
X014062Y012908D01*
X013889Y012979D01*
X013702Y012979D01*
X013529Y012908D01*
X013397Y012775D01*
X013326Y012603D01*
X013326Y011816D01*
X013397Y011643D01*
X013481Y011559D01*
X013236Y011315D01*
X012630Y011315D01*
X012636Y011321D01*
X012636Y011467D01*
X012702Y011439D01*
X012889Y011439D01*
X013062Y011511D01*
X013194Y011643D01*
X013266Y011816D01*
X013266Y012603D01*
X013194Y012775D01*
X013062Y012908D01*
X012889Y012979D01*
X012702Y012979D01*
X012529Y012908D01*
X012508Y012886D01*
X012508Y013693D01*
X012636Y013821D01*
X012636Y014109D01*
X012432Y014313D01*
X012144Y014313D01*
X011940Y014109D01*
X011940Y013821D01*
X012068Y013693D01*
X012068Y012902D01*
X012062Y012908D01*
X011889Y012979D01*
X011702Y012979D01*
X011529Y012908D01*
X011397Y012775D01*
X011326Y012603D01*
X011326Y011816D01*
X011397Y011643D01*
X011529Y011511D01*
X011702Y011439D01*
X011889Y011439D01*
X011940Y011460D01*
X011940Y011321D01*
X011946Y011315D01*
X010161Y011315D01*
X010203Y011356D01*
X010203Y011629D01*
X010094Y011737D01*
X010094Y012773D01*
X010156Y012711D01*
X010371Y012711D01*
X010326Y012603D01*
X010326Y011816D01*
X010397Y011643D01*
X010529Y011511D01*
X010702Y011439D01*
X010889Y011439D01*
X011062Y011511D01*
X011194Y011643D01*
X011266Y011816D01*
X011266Y012603D01*
X011194Y012775D01*
X011062Y012908D01*
X010889Y012979D01*
X010702Y012979D01*
X010620Y012945D01*
X010620Y013176D01*
X010512Y013284D01*
X010512Y016284D01*
X011717Y016284D01*
X011808Y016284D01*
X011899Y016284D01*
X011899Y016285D01*
X011899Y016285D01*
X011963Y016349D01*
X012027Y016413D01*
X012027Y016414D01*
X012028Y016414D01*
X012027Y016505D01*
X012027Y016595D01*
X012027Y016596D01*
X012024Y017525D01*
X012698Y017528D01*
X012739Y017528D01*
X012745Y015709D01*
X012745Y015619D01*
X012745Y015618D01*
X012745Y015617D01*
X012809Y015554D01*
X012873Y015490D01*
X012874Y015490D01*
X012875Y015489D01*
X012965Y015489D01*
X015091Y015478D01*
X015091Y013430D01*
X014963Y013302D01*
X014963Y013014D01*
X015167Y012810D01*
X015456Y012810D01*
X015660Y013014D01*
X015660Y013302D01*
X015531Y013430D01*
X015531Y015697D01*
X015532Y015787D01*
X015531Y015788D01*
X015531Y015788D01*
X015489Y015830D01*
X015506Y015860D01*
X015517Y015898D01*
X015517Y016222D01*
X015141Y016222D01*
X015141Y016322D01*
X015517Y016322D01*
X015517Y016568D01*
X015527Y016568D01*
X015990Y016180D01*
X016047Y016123D01*
X016058Y016123D01*
X016067Y016116D01*
X016148Y016123D01*
X018484Y016123D01*
X018484Y016103D01*
X018584Y016004D01*
X018641Y016004D01*
X018641Y015670D01*
X018741Y015571D01*
X018822Y015571D01*
X018764Y015512D01*
X016855Y015512D01*
X016727Y015640D01*
X016439Y015640D01*
X016235Y015436D01*
X016235Y015148D01*
X016439Y014944D01*
X016727Y014944D01*
X016855Y015072D01*
X018946Y015072D01*
X019327Y015453D01*
X019327Y015571D01*
X019472Y015571D01*
X019572Y015670D01*
X019572Y016087D01*
X019472Y016186D01*
X019414Y016186D01*
X019414Y016437D01*
X019472Y016437D01*
X019572Y016536D01*
X019572Y016870D01*
X019630Y016870D01*
X019648Y016888D01*
X019659Y016888D01*
X019659Y015128D01*
X019655Y015128D01*
X019451Y014924D01*
X019451Y014636D01*
X019655Y014432D01*
X019944Y014432D01*
X020002Y014490D01*
X020007Y014490D01*
X020113Y014534D01*
X020195Y014616D01*
X020239Y014722D01*
X020239Y017235D01*
X020195Y017342D01*
X020113Y017423D01*
X020007Y017468D01*
X019648Y017468D01*
X019630Y017485D01*
X019572Y017485D01*
X019572Y017756D01*
X019579Y017756D01*
X019617Y017766D01*
X019652Y017786D01*
X019679Y017814D01*
X019699Y017848D01*
X019709Y017886D01*
X019709Y018025D01*
X019283Y018025D01*
X019283Y018063D01*
X019709Y018063D01*
X019709Y018201D01*
X019699Y018239D01*
X019679Y018274D01*
X019652Y018302D01*
X019617Y018321D01*
X019579Y018331D01*
X019572Y018331D01*
X019572Y018685D01*
X019564Y018693D01*
X019572Y018702D01*
X019572Y019118D01*
X019472Y019218D01*
X019110Y019218D01*
X018509Y019819D01*
X016051Y019819D01*
X015922Y019690D01*
X015922Y018425D01*
X015806Y018541D01*
X015537Y018541D01*
X015537Y019059D01*
X015437Y019159D01*
X015374Y019159D01*
X015374Y020064D01*
X015598Y020064D01*
X015707Y019955D01*
X015979Y019955D01*
X016171Y020148D01*
X016171Y020420D01*
X015979Y020612D01*
X015707Y020612D01*
X015598Y020504D01*
X015092Y020504D01*
X015326Y020658D01*
X017515Y020658D01*
X017648Y020526D01*
X017936Y020526D01*
X018140Y020730D01*
X018140Y021019D01*
X017936Y021223D01*
X017648Y021223D01*
X017523Y021098D01*
X015282Y021098D01*
X015247Y021106D01*
X015757Y021615D01*
X016311Y021615D01*
X016439Y021487D01*
X016727Y021487D01*
X016931Y021691D01*
X016931Y021979D01*
X016727Y022183D01*
X016439Y022183D01*
X016311Y022055D01*
X015575Y022055D01*
X014754Y021234D01*
X014754Y021255D01*
X014626Y021383D01*
X014626Y022354D01*
X014754Y022482D01*
X014754Y022771D01*
X014550Y022974D01*
X014262Y022974D01*
X014058Y022771D01*
X014058Y022482D01*
X014186Y022354D01*
X014186Y021383D01*
X014058Y021255D01*
X014058Y020972D01*
X014002Y020972D01*
X013842Y021157D01*
X013842Y021484D01*
X013974Y021616D01*
X013974Y021904D01*
X013771Y022108D01*
X013482Y022108D01*
X013278Y021904D01*
X013278Y021616D01*
X013402Y021492D01*
X013402Y021083D01*
X013396Y021000D01*
X013402Y020993D01*
X013402Y020984D01*
X013461Y020925D01*
X013682Y020670D01*
X013682Y020661D01*
X013690Y020653D01*
X013014Y020636D01*
X012912Y020738D01*
X012640Y020738D01*
X012557Y020655D01*
X012554Y020654D01*
X012551Y020650D01*
X012483Y020582D01*
X012445Y020582D01*
X012445Y022538D01*
X012573Y022666D01*
X012573Y022955D01*
X012369Y023159D01*
X012084Y023159D01*
X012067Y025715D01*
X012069Y025802D01*
X012066Y025805D01*
X012066Y025810D01*
X012004Y025871D01*
X011944Y025934D01*
X011940Y025935D01*
X011937Y025938D01*
X011849Y025937D01*
X011398Y025949D01*
X011263Y026085D01*
X010974Y026085D01*
X010770Y025881D01*
X010770Y025592D01*
X010974Y025389D01*
X011263Y025389D01*
X011384Y025509D01*
X011628Y025503D01*
X011658Y020951D01*
X011530Y020951D01*
X011525Y020957D01*
X011513Y020957D01*
X011504Y020964D01*
X011423Y020957D01*
X009906Y020957D01*
X009798Y021065D01*
X009526Y021065D01*
X009333Y020873D01*
X009333Y020601D01*
X009526Y020408D01*
X009798Y020408D01*
X009906Y020517D01*
X011243Y020517D01*
X011243Y020486D01*
X011435Y020294D01*
X011663Y020294D01*
X011666Y019732D01*
X011666Y019642D01*
X011667Y019641D01*
X011667Y019640D01*
X011731Y019577D01*
X011795Y019513D01*
X011796Y019513D01*
X011797Y019512D01*
X011887Y019513D01*
X012001Y019513D01*
X012001Y018540D01*
X011998Y018537D01*
X012001Y018449D01*
X012001Y018371D01*
X011885Y018255D01*
X011885Y017966D01*
X011886Y017965D01*
X011883Y017965D01*
X011811Y018025D01*
X011811Y019273D01*
X011682Y019401D01*
X010896Y019401D01*
X010896Y019660D01*
X010692Y019864D01*
X010403Y019864D01*
X010200Y019660D01*
X010200Y019657D01*
X009311Y019657D01*
X009311Y025615D01*
X010118Y025615D01*
X010246Y025487D01*
X010534Y025487D01*
X010738Y025691D01*
X010738Y025979D01*
X010534Y026183D01*
X010246Y026183D01*
X010118Y026055D01*
X009000Y026055D01*
X008871Y025926D01*
X008871Y024634D01*
X008806Y024699D01*
X008518Y024699D01*
X008390Y024571D01*
X007236Y024571D01*
X007235Y024572D01*
X007145Y024571D01*
X007055Y024571D01*
X007054Y024570D01*
X007053Y024570D01*
X006990Y024506D01*
X006926Y024442D01*
X006926Y024441D01*
X006925Y024440D01*
X006926Y024350D01*
X006926Y024260D01*
X006927Y024259D01*
X006930Y023898D01*
X006903Y019088D01*
X006902Y019087D01*
X006902Y018997D01*
X006902Y018907D01*
X006903Y018906D01*
X006903Y018905D01*
X006967Y018841D01*
X007030Y018777D01*
X007031Y018777D01*
X007032Y018776D01*
X007122Y018776D01*
X007212Y018776D01*
X007213Y018777D01*
X007934Y018779D01*
X008061Y018652D01*
X008349Y018652D01*
X008497Y018800D01*
X008497Y010323D01*
X008626Y010194D01*
X008641Y010194D01*
X008770Y010066D01*
X009058Y010066D01*
X009262Y010270D01*
X009262Y010301D01*
X010239Y009487D01*
X010104Y009487D01*
X010004Y009388D01*
X010004Y008747D01*
X010104Y008647D01*
X011347Y008647D01*
X011447Y008747D01*
X011447Y009192D01*
X011933Y008706D01*
X012858Y008706D01*
X013280Y008283D01*
X013280Y008150D01*
X013280Y008059D01*
X013280Y007968D01*
X013281Y007968D01*
X013284Y006342D01*
X013051Y006342D01*
X012922Y006214D01*
X012922Y005478D01*
X012850Y005550D01*
X011606Y005550D01*
X011507Y005451D01*
X011507Y004990D01*
X011398Y005099D01*
X011269Y005228D01*
X010048Y005228D01*
X008846Y006431D01*
X010188Y006431D01*
X010246Y006373D01*
X010534Y006373D01*
X010738Y006577D01*
X010738Y006865D01*
X010534Y007069D01*
X010246Y007069D01*
X010188Y007011D01*
X009019Y007011D01*
X009026Y007018D01*
X009026Y007290D01*
X008987Y007328D01*
X008987Y008653D01*
X009026Y008691D01*
X009026Y008963D01*
X008833Y009156D01*
X008561Y009156D01*
X008377Y008971D01*
X008377Y010503D01*
X008415Y010542D01*
X008415Y010814D01*
X008223Y011006D01*
X007951Y011006D01*
X007873Y010928D01*
X007687Y010928D01*
X007687Y013081D01*
X007805Y013199D01*
X007805Y013471D01*
X007613Y013663D01*
X007341Y013663D01*
X007148Y013471D01*
X007148Y013199D01*
X007187Y013160D01*
X007187Y010628D01*
X007225Y010536D01*
X007296Y010466D01*
X007388Y010428D01*
X007797Y010428D01*
X007797Y008587D01*
X007607Y008777D01*
X007313Y008899D01*
X006995Y008899D01*
X006701Y008777D01*
X006476Y008552D01*
X006382Y008325D01*
X006382Y008871D01*
X006725Y008871D01*
X006816Y008871D01*
X006881Y008936D01*
X006945Y009000D01*
X006945Y009090D01*
X006949Y013913D01*
X007509Y014473D01*
X007775Y014473D01*
X007903Y014345D01*
X008192Y014345D01*
X008396Y014549D01*
X008396Y014837D01*
X008192Y015041D01*
X008497Y015041D01*
X008497Y014943D02*
X008291Y014943D01*
X008389Y014844D02*
X008497Y014844D01*
X008497Y014746D02*
X008396Y014746D01*
X008396Y014647D02*
X008497Y014647D01*
X008497Y014549D02*
X008395Y014549D01*
X008297Y014450D02*
X008497Y014450D01*
X008497Y014352D02*
X008198Y014352D01*
X007897Y014352D02*
X007387Y014352D01*
X007486Y014450D02*
X007799Y014450D01*
X008048Y014693D02*
X007418Y014693D01*
X006729Y014004D01*
X006725Y009091D01*
X006162Y009091D01*
X006162Y007181D01*
X006729Y007181D01*
X006729Y004831D01*
X007241Y004319D01*
X010702Y004319D01*
X010726Y004343D01*
X011112Y004763D02*
X010104Y004763D01*
X010004Y004663D01*
X010004Y004539D01*
X007332Y004539D01*
X006949Y004922D01*
X006949Y007273D01*
X006871Y007350D01*
X006995Y007299D01*
X007313Y007299D01*
X007607Y007421D01*
X007797Y007611D01*
X007797Y006703D01*
X007841Y006596D01*
X007962Y006475D01*
X008069Y006431D01*
X008223Y006431D01*
X009866Y004788D01*
X011086Y004788D01*
X011112Y004763D01*
X011178Y005008D02*
X009957Y005008D01*
X008244Y006721D01*
X008281Y006373D02*
X006949Y006373D01*
X006949Y006275D02*
X008380Y006275D01*
X008478Y006176D02*
X006949Y006176D01*
X006949Y006078D02*
X008577Y006078D01*
X008675Y005979D02*
X006949Y005979D01*
X006949Y005881D02*
X008774Y005881D01*
X008872Y005782D02*
X006949Y005782D01*
X006949Y005684D02*
X008971Y005684D01*
X009069Y005585D02*
X006949Y005585D01*
X006949Y005487D02*
X009168Y005487D01*
X009266Y005388D02*
X006949Y005388D01*
X006949Y005290D02*
X009365Y005290D01*
X009463Y005191D02*
X006949Y005191D01*
X006949Y005093D02*
X009562Y005093D01*
X009660Y004994D02*
X006949Y004994D01*
X006975Y004896D02*
X009759Y004896D01*
X009857Y004797D02*
X007074Y004797D01*
X007172Y004699D02*
X010040Y004699D01*
X010004Y004600D02*
X007271Y004600D01*
X007043Y004206D02*
X005899Y004206D01*
X005899Y004108D02*
X007141Y004108D01*
X007149Y004099D02*
X010004Y004099D01*
X010004Y004022D01*
X010104Y003923D01*
X011347Y003923D01*
X011447Y004022D01*
X011447Y004428D01*
X011899Y003976D01*
X011606Y003976D01*
X011507Y003876D01*
X011507Y003235D01*
X011548Y003194D01*
X005899Y003194D01*
X005899Y030169D01*
X010128Y030169D01*
X010236Y029874D01*
X010236Y029874D01*
X010440Y029630D01*
X010440Y029630D01*
X010440Y029630D01*
X010716Y029470D01*
X010716Y029470D01*
X011030Y029415D01*
X011030Y029415D01*
X011344Y029470D01*
X011344Y029470D01*
X011620Y029630D01*
X011620Y029630D01*
X011825Y029874D01*
X011932Y030169D01*
X021669Y030169D01*
X021649Y003194D01*
X021569Y003194D01*
X021611Y003235D01*
X021611Y003876D01*
X021511Y003976D01*
X020268Y003976D01*
X020168Y003876D01*
X020168Y003235D01*
X020209Y003194D01*
X012908Y003194D01*
X012949Y003235D01*
X012949Y003266D01*
X017082Y003266D01*
X017189Y003310D01*
X019377Y005498D01*
X020009Y005498D01*
X020108Y005597D01*
X020108Y006238D01*
X020009Y006338D01*
X018765Y006338D01*
X018666Y006238D01*
X018666Y005607D01*
X016905Y003846D01*
X012949Y003846D01*
X012949Y003876D01*
X012850Y003976D01*
X012448Y003976D01*
X012448Y004049D01*
X011787Y004710D01*
X012850Y004710D01*
X012949Y004810D01*
X012949Y004907D01*
X013130Y004906D01*
X013210Y004898D01*
X013219Y004905D01*
X013231Y004905D01*
X013289Y004962D01*
X013351Y005013D01*
X013352Y005025D01*
X013361Y005033D01*
X013361Y005041D01*
X013362Y005042D01*
X013362Y005122D01*
X013370Y005202D01*
X013362Y005212D01*
X013362Y005246D01*
X013463Y005204D01*
X013601Y005204D01*
X013729Y005257D01*
X013826Y005355D01*
X013879Y005483D01*
X013879Y005621D01*
X013826Y005748D01*
X013729Y005846D01*
X013601Y005899D01*
X013600Y005899D01*
X013660Y005959D01*
X013724Y006023D01*
X013724Y006024D01*
X013725Y006024D01*
X013724Y006115D01*
X013724Y006214D01*
X013720Y008060D01*
X013720Y008466D01*
X013169Y009017D01*
X013040Y009146D01*
X012115Y009146D01*
X011826Y009435D01*
X012850Y009435D01*
X012949Y009534D01*
X012949Y010175D01*
X012850Y010275D01*
X011606Y010275D01*
X011507Y010175D01*
X011507Y009754D01*
X011426Y009835D01*
X010509Y009835D01*
X009352Y010799D01*
X009355Y010961D01*
X009480Y010836D01*
X010024Y010836D01*
X010024Y010692D01*
X010676Y010692D01*
X010676Y010592D01*
X010776Y010592D01*
X010776Y010692D01*
X011427Y010692D01*
X011427Y010592D02*
X010776Y010592D01*
X010776Y010242D01*
X011297Y010242D01*
X011335Y010252D01*
X011369Y010272D01*
X011397Y010300D01*
X011417Y010334D01*
X011427Y010372D01*
X011427Y010592D01*
X011427Y010510D02*
X018666Y010510D01*
X018666Y010412D02*
X011427Y010412D01*
X011404Y010313D02*
X018675Y010313D01*
X018666Y010322D02*
X018765Y010222D01*
X020009Y010222D01*
X020108Y010322D01*
X020108Y010963D01*
X020009Y011062D01*
X018765Y011062D01*
X018666Y010963D01*
X018666Y010322D01*
X018666Y010806D02*
X011427Y010806D01*
X011546Y010215D02*
X010053Y010215D01*
X010082Y010272D02*
X010117Y010252D01*
X010155Y010242D01*
X010676Y010242D01*
X010676Y010592D01*
X010024Y010592D01*
X010024Y010372D01*
X010035Y010334D01*
X010054Y010300D01*
X010082Y010272D01*
X010047Y010313D02*
X009935Y010313D01*
X010024Y010412D02*
X009817Y010412D01*
X009699Y010510D02*
X010024Y010510D01*
X010024Y010707D02*
X009462Y010707D01*
X009352Y010806D02*
X010024Y010806D01*
X009985Y011056D02*
X010024Y011095D01*
X013327Y011095D01*
X013796Y011563D01*
X013796Y012209D01*
X014194Y012776D02*
X014433Y012776D01*
X014452Y012802D02*
X014411Y012745D01*
X014379Y012682D01*
X014357Y012614D01*
X014346Y012544D01*
X014346Y012259D01*
X014746Y012259D01*
X014746Y012957D01*
X014690Y012948D01*
X014623Y012926D01*
X014560Y012894D01*
X014503Y012852D01*
X014452Y012802D01*
X014532Y012874D02*
X014095Y012874D01*
X013905Y012973D02*
X015004Y012973D01*
X014968Y012926D02*
X014901Y012948D01*
X014846Y012957D01*
X014846Y012259D01*
X015246Y012259D01*
X015246Y012544D01*
X015235Y012614D01*
X015213Y012682D01*
X015181Y012745D01*
X015139Y012802D01*
X015089Y012852D01*
X015032Y012894D01*
X014968Y012926D01*
X015059Y012874D02*
X015103Y012874D01*
X015158Y012776D02*
X015433Y012776D01*
X015452Y012802D02*
X015411Y012745D01*
X015379Y012682D01*
X015357Y012614D01*
X015346Y012544D01*
X015346Y012259D01*
X015746Y012259D01*
X015746Y012957D01*
X015690Y012948D01*
X015623Y012926D01*
X015560Y012894D01*
X015503Y012852D01*
X015452Y012802D01*
X015520Y012874D02*
X015532Y012874D01*
X015618Y012973D02*
X021656Y012973D01*
X021657Y013071D02*
X015660Y013071D01*
X015660Y013170D02*
X021657Y013170D01*
X021657Y013268D02*
X015660Y013268D01*
X015595Y013367D02*
X021657Y013367D01*
X021657Y013465D02*
X015531Y013465D01*
X015531Y013564D02*
X021657Y013564D01*
X021657Y013662D02*
X021052Y013662D01*
X021069Y013672D02*
X021097Y013700D01*
X021117Y013734D01*
X021127Y013772D01*
X021127Y014017D01*
X020653Y014017D01*
X020653Y013642D01*
X020997Y013642D01*
X021035Y013652D01*
X021069Y013672D01*
X021124Y013761D02*
X021657Y013761D01*
X021657Y013859D02*
X021127Y013859D01*
X021127Y013958D02*
X021657Y013958D01*
X021657Y014056D02*
X020653Y014056D01*
X020653Y014017D02*
X020653Y014117D01*
X021127Y014117D01*
X021127Y014363D01*
X021117Y014401D01*
X021097Y014435D01*
X021069Y014463D01*
X021035Y014483D01*
X020997Y014493D01*
X020653Y014493D01*
X020653Y014117D01*
X020553Y014117D01*
X020553Y014017D01*
X020653Y014017D01*
X020653Y013958D02*
X020553Y013958D01*
X020553Y014017D02*
X020553Y013642D01*
X020209Y013642D01*
X020171Y013652D01*
X020137Y013672D01*
X020109Y013700D01*
X020089Y013734D01*
X020079Y013772D01*
X020079Y014017D01*
X020553Y014017D01*
X020553Y014056D02*
X015531Y014056D01*
X015531Y013958D02*
X020079Y013958D01*
X020079Y013859D02*
X015531Y013859D01*
X015531Y013761D02*
X020082Y013761D01*
X020153Y013662D02*
X015531Y013662D01*
X015091Y013662D02*
X012508Y013662D01*
X012508Y013564D02*
X015091Y013564D01*
X015091Y013465D02*
X012508Y013465D01*
X012508Y013367D02*
X015028Y013367D01*
X014963Y013268D02*
X012508Y013268D01*
X012508Y013170D02*
X014963Y013170D01*
X014963Y013071D02*
X012508Y013071D01*
X012508Y012973D02*
X012686Y012973D01*
X012905Y012973D02*
X013686Y012973D01*
X013496Y012874D02*
X013095Y012874D01*
X013194Y012776D02*
X013397Y012776D01*
X013357Y012677D02*
X013235Y012677D01*
X013266Y012579D02*
X013326Y012579D01*
X013326Y012480D02*
X013266Y012480D01*
X013266Y012382D02*
X013326Y012382D01*
X013326Y012283D02*
X013266Y012283D01*
X013266Y012185D02*
X013326Y012185D01*
X013326Y012086D02*
X013266Y012086D01*
X013266Y011988D02*
X013326Y011988D01*
X013326Y011889D02*
X013266Y011889D01*
X013255Y011791D02*
X013336Y011791D01*
X013377Y011692D02*
X013215Y011692D01*
X013145Y011594D02*
X013447Y011594D01*
X013416Y011495D02*
X013024Y011495D01*
X013318Y011397D02*
X012636Y011397D01*
X012288Y011465D02*
X012288Y013965D01*
X012636Y013958D02*
X015091Y013958D01*
X015091Y014056D02*
X012636Y014056D01*
X012591Y014155D02*
X015091Y014155D01*
X015091Y014253D02*
X012492Y014253D01*
X012084Y014253D02*
X010512Y014253D01*
X010512Y014155D02*
X011985Y014155D01*
X011940Y014056D02*
X010512Y014056D01*
X010512Y013958D02*
X011940Y013958D01*
X011940Y013859D02*
X010512Y013859D01*
X010512Y013761D02*
X012000Y013761D01*
X012068Y013662D02*
X010512Y013662D01*
X010512Y013564D02*
X012068Y013564D01*
X012068Y013465D02*
X010512Y013465D01*
X010512Y013367D02*
X012068Y013367D01*
X012068Y013268D02*
X010528Y013268D01*
X010620Y013170D02*
X012068Y013170D01*
X012068Y013071D02*
X010620Y013071D01*
X010620Y012973D02*
X010686Y012973D01*
X010905Y012973D02*
X011686Y012973D01*
X011496Y012874D02*
X011095Y012874D01*
X011194Y012776D02*
X011397Y012776D01*
X011357Y012677D02*
X011235Y012677D01*
X011266Y012579D02*
X011326Y012579D01*
X011326Y012480D02*
X011266Y012480D01*
X011266Y012382D02*
X011326Y012382D01*
X011326Y012283D02*
X011266Y012283D01*
X011266Y012185D02*
X011326Y012185D01*
X011326Y012086D02*
X011266Y012086D01*
X011266Y011988D02*
X011326Y011988D01*
X011326Y011889D02*
X011266Y011889D01*
X011255Y011791D02*
X011336Y011791D01*
X011377Y011692D02*
X011215Y011692D01*
X011145Y011594D02*
X011447Y011594D01*
X011567Y011495D02*
X011024Y011495D01*
X010567Y011495D02*
X010203Y011495D01*
X010203Y011397D02*
X011940Y011397D01*
X011507Y010116D02*
X010171Y010116D01*
X010290Y010018D02*
X011507Y010018D01*
X011507Y009919D02*
X010408Y009919D01*
X010430Y009615D02*
X009130Y010697D01*
X009225Y016083D01*
X009874Y017142D02*
X011296Y017134D01*
X011449Y017603D02*
X010697Y018154D01*
X009020Y018158D01*
X009650Y018158D01*
X009497Y015132D01*
X009473Y015108D01*
X009473Y011154D01*
X009571Y011056D01*
X009985Y011056D01*
X009874Y011493D02*
X009874Y017142D01*
X010292Y016504D02*
X011807Y016504D01*
X011804Y017744D01*
X011591Y017922D01*
X011591Y019181D01*
X008839Y019181D01*
X008839Y019528D01*
X007733Y019528D01*
X007713Y019528D01*
X007713Y023276D01*
X007150Y023898D02*
X007146Y024351D01*
X008662Y024351D01*
X008414Y024596D02*
X005899Y024596D01*
X005899Y024694D02*
X008513Y024694D01*
X008811Y024694D02*
X008871Y024694D01*
X008871Y024793D02*
X005899Y024793D01*
X005899Y024891D02*
X008871Y024891D01*
X008871Y024990D02*
X005899Y024990D01*
X005899Y025088D02*
X008871Y025088D01*
X008871Y025187D02*
X005899Y025187D01*
X005899Y025285D02*
X008871Y025285D01*
X008871Y025384D02*
X005899Y025384D01*
X005899Y025482D02*
X008871Y025482D01*
X008871Y025581D02*
X005899Y025581D01*
X005899Y025679D02*
X008871Y025679D01*
X008871Y025778D02*
X005899Y025778D01*
X005899Y025876D02*
X008871Y025876D01*
X008919Y025975D02*
X005899Y025975D01*
X005899Y026073D02*
X010136Y026073D01*
X010234Y026172D02*
X005899Y026172D01*
X005899Y026270D02*
X021666Y026270D01*
X021666Y026172D02*
X010546Y026172D01*
X010644Y026073D02*
X010963Y026073D01*
X010864Y025975D02*
X010738Y025975D01*
X010738Y025876D02*
X010770Y025876D01*
X010770Y025778D02*
X010738Y025778D01*
X010726Y025679D02*
X010770Y025679D01*
X010782Y025581D02*
X010628Y025581D01*
X010881Y025482D02*
X009311Y025482D01*
X009311Y025384D02*
X011629Y025384D01*
X011628Y025482D02*
X011356Y025482D01*
X011630Y025285D02*
X009311Y025285D01*
X009311Y025187D02*
X011630Y025187D01*
X011631Y025088D02*
X009311Y025088D01*
X009311Y024990D02*
X011632Y024990D01*
X011632Y024891D02*
X009311Y024891D01*
X009311Y024793D02*
X011633Y024793D01*
X011634Y024694D02*
X009311Y024694D01*
X009311Y024596D02*
X011634Y024596D01*
X011635Y024497D02*
X009311Y024497D01*
X009311Y024399D02*
X011636Y024399D01*
X011636Y024300D02*
X009311Y024300D01*
X009311Y024202D02*
X011637Y024202D01*
X011637Y024103D02*
X009311Y024103D01*
X009311Y024005D02*
X011638Y024005D01*
X011639Y023906D02*
X009311Y023906D01*
X009311Y023808D02*
X011639Y023808D01*
X011640Y023709D02*
X009311Y023709D01*
X009311Y023611D02*
X011641Y023611D01*
X011641Y023512D02*
X009311Y023512D01*
X009311Y023414D02*
X011642Y023414D01*
X011643Y023315D02*
X009311Y023315D01*
X009311Y023217D02*
X011643Y023217D01*
X011644Y023118D02*
X009311Y023118D01*
X009311Y023020D02*
X011645Y023020D01*
X011645Y022921D02*
X009311Y022921D01*
X009311Y022823D02*
X011646Y022823D01*
X011647Y022724D02*
X009311Y022724D01*
X009311Y022626D02*
X011647Y022626D01*
X011648Y022527D02*
X009311Y022527D01*
X009311Y022429D02*
X011648Y022429D01*
X011649Y022330D02*
X009311Y022330D01*
X009311Y022232D02*
X011650Y022232D01*
X011650Y022133D02*
X009311Y022133D01*
X009311Y022035D02*
X011651Y022035D01*
X011652Y021936D02*
X009311Y021936D01*
X009311Y021838D02*
X011652Y021838D01*
X011653Y021739D02*
X009311Y021739D01*
X009327Y021662D02*
X009327Y020185D01*
X011020Y020185D01*
X011020Y019477D01*
X011886Y019477D01*
X011898Y018512D01*
X011811Y018489D02*
X012000Y018489D01*
X012001Y018587D02*
X011811Y018587D01*
X011811Y018686D02*
X012001Y018686D01*
X012001Y018784D02*
X011811Y018784D01*
X011811Y018883D02*
X012001Y018883D01*
X012001Y018981D02*
X011811Y018981D01*
X011811Y019080D02*
X012001Y019080D01*
X012001Y019178D02*
X011811Y019178D01*
X011807Y019277D02*
X012001Y019277D01*
X012001Y019375D02*
X011709Y019375D01*
X011736Y019572D02*
X010896Y019572D01*
X010896Y019474D02*
X012001Y019474D01*
X011886Y019733D02*
X012221Y019733D01*
X012221Y018453D01*
X012233Y018111D01*
X011885Y018095D02*
X011811Y018095D01*
X011811Y018193D02*
X011885Y018193D01*
X011921Y018292D02*
X011811Y018292D01*
X011811Y018390D02*
X012001Y018390D01*
X011885Y017996D02*
X011845Y017996D01*
X011804Y017744D02*
X012697Y017748D01*
X012693Y020461D01*
X012776Y020410D01*
X014622Y020457D01*
X015260Y020878D01*
X017792Y020878D01*
X017792Y020874D01*
X018065Y020656D02*
X021662Y020656D01*
X021662Y020754D02*
X018140Y020754D01*
X018140Y020853D02*
X021662Y020853D01*
X021662Y020951D02*
X018140Y020951D01*
X018109Y021050D02*
X021662Y021050D01*
X021662Y021148D02*
X018010Y021148D01*
X017573Y021148D02*
X015290Y021148D01*
X015388Y021247D02*
X021662Y021247D01*
X021662Y021345D02*
X015487Y021345D01*
X015585Y021444D02*
X021663Y021444D01*
X021663Y021542D02*
X016782Y021542D01*
X016881Y021641D02*
X021663Y021641D01*
X021663Y021739D02*
X016931Y021739D01*
X016931Y021838D02*
X021663Y021838D01*
X021663Y021936D02*
X016931Y021936D01*
X016876Y022035D02*
X021663Y022035D01*
X021663Y022133D02*
X016777Y022133D01*
X016583Y021835D02*
X015666Y021835D01*
X014583Y020752D01*
X013902Y020752D01*
X013622Y021075D01*
X013622Y021760D01*
X013626Y021760D01*
X013278Y021739D02*
X012445Y021739D01*
X012445Y021641D02*
X013278Y021641D01*
X013352Y021542D02*
X012445Y021542D01*
X012445Y021444D02*
X013402Y021444D01*
X013402Y021345D02*
X012445Y021345D01*
X012445Y021247D02*
X013402Y021247D01*
X013402Y021148D02*
X012445Y021148D01*
X012445Y021050D02*
X013400Y021050D01*
X013435Y020951D02*
X012445Y020951D01*
X012445Y020853D02*
X013524Y020853D01*
X013609Y020754D02*
X012445Y020754D01*
X012445Y020656D02*
X012557Y020656D01*
X012995Y020656D02*
X013688Y020656D01*
X013936Y021050D02*
X014058Y021050D01*
X014058Y021148D02*
X013850Y021148D01*
X013842Y021247D02*
X014058Y021247D01*
X014148Y021345D02*
X013842Y021345D01*
X013842Y021444D02*
X014186Y021444D01*
X014186Y021542D02*
X013901Y021542D01*
X013974Y021641D02*
X014186Y021641D01*
X014186Y021739D02*
X013974Y021739D01*
X013974Y021838D02*
X014186Y021838D01*
X014186Y021936D02*
X013943Y021936D01*
X013844Y022035D02*
X014186Y022035D01*
X014186Y022133D02*
X012445Y022133D01*
X012445Y022035D02*
X013408Y022035D01*
X013310Y021936D02*
X012445Y021936D01*
X012445Y021838D02*
X013278Y021838D01*
X012532Y022626D02*
X014058Y022626D01*
X014058Y022724D02*
X012573Y022724D01*
X012573Y022823D02*
X014110Y022823D01*
X014208Y022921D02*
X012573Y022921D01*
X012508Y023020D02*
X021664Y023020D01*
X021664Y023118D02*
X012410Y023118D01*
X012083Y023217D02*
X021664Y023217D01*
X021664Y023315D02*
X012083Y023315D01*
X012082Y023414D02*
X021664Y023414D01*
X021664Y023512D02*
X012081Y023512D01*
X012081Y023611D02*
X021664Y023611D01*
X021664Y023709D02*
X012080Y023709D01*
X012079Y023808D02*
X021664Y023808D01*
X021664Y023906D02*
X012079Y023906D01*
X012078Y024005D02*
X021664Y024005D01*
X021664Y024103D02*
X012077Y024103D01*
X012077Y024202D02*
X021665Y024202D01*
X021665Y024300D02*
X012076Y024300D01*
X012076Y024399D02*
X021665Y024399D01*
X021665Y024497D02*
X012075Y024497D01*
X012074Y024596D02*
X021665Y024596D01*
X021665Y024694D02*
X012074Y024694D01*
X012073Y024793D02*
X021665Y024793D01*
X021665Y024891D02*
X012072Y024891D01*
X012072Y024990D02*
X021665Y024990D01*
X021665Y025088D02*
X012071Y025088D01*
X012070Y025187D02*
X021665Y025187D01*
X021665Y025285D02*
X012070Y025285D01*
X012069Y025384D02*
X021665Y025384D01*
X021665Y025482D02*
X012068Y025482D01*
X012068Y025581D02*
X021666Y025581D01*
X021666Y025679D02*
X012067Y025679D01*
X012069Y025778D02*
X021666Y025778D01*
X021666Y025876D02*
X011999Y025876D01*
X011847Y025717D02*
X011886Y019733D01*
X011666Y019769D02*
X010787Y019769D01*
X010886Y019671D02*
X011666Y019671D01*
X011665Y019868D02*
X009311Y019868D01*
X009311Y019966D02*
X011665Y019966D01*
X011664Y020065D02*
X009311Y020065D01*
X009311Y020163D02*
X011663Y020163D01*
X011663Y020262D02*
X009311Y020262D01*
X009311Y020360D02*
X011369Y020360D01*
X011271Y020459D02*
X009848Y020459D01*
X009662Y020737D02*
X011433Y020737D01*
X011571Y020622D01*
X011530Y020951D02*
X011658Y020951D01*
X011658Y021050D02*
X009813Y021050D01*
X009510Y021050D02*
X009311Y021050D01*
X009311Y021148D02*
X011657Y021148D01*
X011656Y021247D02*
X009311Y021247D01*
X009311Y021345D02*
X011656Y021345D01*
X011655Y021444D02*
X009311Y021444D01*
X009311Y021542D02*
X011654Y021542D01*
X011654Y021641D02*
X009311Y021641D01*
X009327Y021662D02*
X011394Y021662D01*
X012225Y022811D02*
X012225Y020095D01*
X012354Y020233D01*
X011146Y018851D02*
X009485Y018788D01*
X008717Y018788D01*
X008717Y010414D01*
X008914Y010414D01*
X009207Y010215D02*
X009366Y010215D01*
X009484Y010116D02*
X009108Y010116D01*
X008719Y010116D02*
X008377Y010116D01*
X008377Y010018D02*
X009602Y010018D01*
X009721Y009919D02*
X008377Y009919D01*
X008377Y009821D02*
X009839Y009821D01*
X009957Y009722D02*
X008377Y009722D01*
X008377Y009624D02*
X010075Y009624D01*
X010193Y009525D02*
X008377Y009525D01*
X008377Y009427D02*
X010043Y009427D01*
X010004Y009328D02*
X008377Y009328D01*
X008377Y009230D02*
X010004Y009230D01*
X010004Y009131D02*
X008858Y009131D01*
X008956Y009033D02*
X010004Y009033D01*
X010004Y008934D02*
X009026Y008934D01*
X009026Y008836D02*
X010004Y008836D01*
X010014Y008737D02*
X009026Y008737D01*
X008987Y008639D02*
X011545Y008639D01*
X011507Y008600D02*
X011606Y008700D01*
X012850Y008700D01*
X012949Y008600D01*
X012949Y007960D01*
X012850Y007860D01*
X011606Y007860D01*
X011507Y007960D01*
X011507Y008600D01*
X011507Y008540D02*
X008987Y008540D01*
X008987Y008442D02*
X011507Y008442D01*
X011507Y008343D02*
X008987Y008343D01*
X008987Y008245D02*
X011507Y008245D01*
X011507Y008146D02*
X008987Y008146D01*
X008987Y008048D02*
X011507Y008048D01*
X011517Y007949D02*
X008987Y007949D01*
X008987Y007851D02*
X010042Y007851D01*
X010004Y007813D02*
X010104Y007913D01*
X011347Y007913D01*
X011447Y007813D01*
X011447Y007172D01*
X011347Y007073D01*
X010104Y007073D01*
X010004Y007172D01*
X010004Y007813D01*
X010004Y007752D02*
X008987Y007752D01*
X008987Y007654D02*
X010004Y007654D01*
X010004Y007555D02*
X008987Y007555D01*
X008987Y007457D02*
X010004Y007457D01*
X010004Y007358D02*
X008987Y007358D01*
X009026Y007260D02*
X010004Y007260D01*
X010015Y007161D02*
X009026Y007161D01*
X009026Y007063D02*
X010240Y007063D01*
X010541Y007063D02*
X011544Y007063D01*
X011507Y007026D02*
X011606Y007125D01*
X012850Y007125D01*
X012949Y007026D01*
X012949Y006385D01*
X012850Y006285D01*
X011606Y006285D01*
X011507Y006385D01*
X011507Y007026D01*
X011507Y006964D02*
X010639Y006964D01*
X010738Y006866D02*
X011507Y006866D01*
X011507Y006767D02*
X010738Y006767D01*
X010738Y006669D02*
X011507Y006669D01*
X011507Y006570D02*
X010732Y006570D01*
X010633Y006472D02*
X011507Y006472D01*
X011518Y006373D02*
X010535Y006373D01*
X010246Y006373D02*
X008903Y006373D01*
X009002Y006275D02*
X010041Y006275D01*
X010004Y006238D02*
X010104Y006338D01*
X011347Y006338D01*
X011447Y006238D01*
X011447Y005597D01*
X011347Y005498D01*
X010104Y005498D01*
X010004Y005597D01*
X010004Y006238D01*
X010004Y006176D02*
X009100Y006176D01*
X009199Y006078D02*
X010004Y006078D01*
X010004Y005979D02*
X009297Y005979D01*
X009396Y005881D02*
X010004Y005881D01*
X010004Y005782D02*
X009494Y005782D01*
X009593Y005684D02*
X010004Y005684D01*
X010017Y005585D02*
X009691Y005585D01*
X009790Y005487D02*
X011543Y005487D01*
X011507Y005388D02*
X009888Y005388D01*
X009987Y005290D02*
X011507Y005290D01*
X011507Y005191D02*
X011306Y005191D01*
X011404Y005093D02*
X011507Y005093D01*
X011503Y004994D02*
X011507Y004994D01*
X011178Y005008D02*
X012228Y003958D01*
X012228Y003556D01*
X012448Y004009D02*
X017068Y004009D01*
X016970Y003911D02*
X012915Y003911D01*
X012935Y003221D02*
X020182Y003221D01*
X020168Y003320D02*
X017199Y003320D01*
X017297Y003418D02*
X020168Y003418D01*
X020168Y003517D02*
X017396Y003517D01*
X017494Y003615D02*
X020168Y003615D01*
X020168Y003714D02*
X017593Y003714D01*
X017691Y003812D02*
X020168Y003812D01*
X020203Y003911D02*
X017790Y003911D01*
X017888Y004009D02*
X018679Y004009D01*
X018666Y004022D02*
X018765Y003923D01*
X020009Y003923D01*
X020108Y004022D01*
X020108Y004663D01*
X020009Y004763D01*
X018765Y004763D01*
X018666Y004663D01*
X018666Y004022D01*
X018666Y004108D02*
X017987Y004108D01*
X018085Y004206D02*
X018666Y004206D01*
X018666Y004305D02*
X018184Y004305D01*
X018282Y004403D02*
X018666Y004403D01*
X018666Y004502D02*
X018381Y004502D01*
X018479Y004600D02*
X018666Y004600D01*
X018701Y004699D02*
X018578Y004699D01*
X018676Y004797D02*
X020181Y004797D01*
X020168Y004810D02*
X020268Y004710D01*
X021511Y004710D01*
X021611Y004810D01*
X021611Y005451D01*
X021511Y005550D01*
X020268Y005550D01*
X020168Y005451D01*
X020168Y004810D01*
X020168Y004896D02*
X018775Y004896D01*
X018873Y004994D02*
X020168Y004994D01*
X020168Y005093D02*
X018972Y005093D01*
X019070Y005191D02*
X020168Y005191D01*
X020168Y005290D02*
X019169Y005290D01*
X019267Y005388D02*
X020168Y005388D01*
X020204Y005487D02*
X019366Y005487D01*
X018666Y005684D02*
X015231Y005684D01*
X015257Y005621D02*
X015204Y005748D01*
X015106Y005846D01*
X014979Y005899D01*
X014841Y005899D01*
X014713Y005846D01*
X014616Y005748D01*
X014563Y005621D01*
X014563Y005483D01*
X014616Y005355D01*
X014713Y005257D01*
X014841Y005204D01*
X014979Y005204D01*
X015106Y005257D01*
X015204Y005355D01*
X015257Y005483D01*
X015257Y005621D01*
X015257Y005585D02*
X018644Y005585D01*
X018546Y005487D02*
X015257Y005487D01*
X015218Y005388D02*
X018447Y005388D01*
X018349Y005290D02*
X015139Y005290D01*
X015170Y005782D02*
X018666Y005782D01*
X018666Y005881D02*
X015023Y005881D01*
X014797Y005881D02*
X013645Y005881D01*
X013680Y005979D02*
X018666Y005979D01*
X018666Y006078D02*
X013724Y006078D01*
X013724Y006176D02*
X018666Y006176D01*
X018702Y006275D02*
X013724Y006275D01*
X013724Y006214D02*
X013724Y006214D01*
X013724Y006373D02*
X020180Y006373D01*
X020168Y006385D02*
X020268Y006285D01*
X021511Y006285D01*
X021611Y006385D01*
X021611Y007026D01*
X021511Y007125D01*
X020268Y007125D01*
X020168Y007026D01*
X020168Y006385D01*
X020168Y006472D02*
X013724Y006472D01*
X013723Y006570D02*
X020168Y006570D01*
X020168Y006669D02*
X013723Y006669D01*
X013723Y006767D02*
X020168Y006767D01*
X020168Y006866D02*
X013723Y006866D01*
X013723Y006964D02*
X020168Y006964D01*
X020205Y007063D02*
X013722Y007063D01*
X013722Y007161D02*
X018677Y007161D01*
X018666Y007172D02*
X018765Y007073D01*
X020009Y007073D01*
X020108Y007172D01*
X020108Y007813D01*
X020009Y007913D01*
X018765Y007913D01*
X018666Y007813D01*
X018666Y007172D01*
X018666Y007260D02*
X013722Y007260D01*
X013722Y007358D02*
X018666Y007358D01*
X018666Y007457D02*
X013722Y007457D01*
X013721Y007555D02*
X018666Y007555D01*
X018666Y007654D02*
X013721Y007654D01*
X013721Y007752D02*
X018666Y007752D01*
X018703Y007851D02*
X013721Y007851D01*
X013721Y007949D02*
X020179Y007949D01*
X020168Y007960D02*
X020268Y007860D01*
X021511Y007860D01*
X021611Y007960D01*
X021611Y008600D01*
X021511Y008700D01*
X020268Y008700D01*
X020168Y008600D01*
X020168Y007960D01*
X020168Y008048D02*
X013720Y008048D01*
X013720Y008146D02*
X017620Y008146D01*
X017707Y008110D02*
X018026Y008110D01*
X018320Y008232D01*
X018545Y008457D01*
X018666Y008749D01*
X018666Y008747D01*
X018765Y008647D01*
X020009Y008647D01*
X020108Y008747D01*
X020108Y009388D01*
X020009Y009487D01*
X018765Y009487D01*
X018666Y009388D01*
X018666Y009070D01*
X018545Y009363D01*
X018320Y009588D01*
X018026Y009710D01*
X017707Y009710D01*
X017413Y009588D01*
X017188Y009363D01*
X017067Y009069D01*
X017067Y008751D01*
X017188Y008457D01*
X017413Y008232D01*
X017707Y008110D01*
X017401Y008245D02*
X013720Y008245D01*
X013720Y008343D02*
X017302Y008343D01*
X017204Y008442D02*
X013720Y008442D01*
X013646Y008540D02*
X017154Y008540D01*
X017113Y008639D02*
X013547Y008639D01*
X013449Y008737D02*
X017072Y008737D01*
X017067Y008836D02*
X013350Y008836D01*
X013252Y008934D02*
X017067Y008934D01*
X017067Y009033D02*
X013153Y009033D01*
X013055Y009131D02*
X017092Y009131D01*
X017133Y009230D02*
X012031Y009230D01*
X011933Y009328D02*
X017174Y009328D01*
X017252Y009427D02*
X011834Y009427D01*
X011507Y009131D02*
X011447Y009131D01*
X011447Y009033D02*
X011606Y009033D01*
X011704Y008934D02*
X011447Y008934D01*
X011447Y008836D02*
X011803Y008836D01*
X011901Y008737D02*
X011437Y008737D01*
X012024Y008926D02*
X011335Y009615D01*
X010430Y009615D01*
X010676Y010313D02*
X010776Y010313D01*
X010776Y010412D02*
X010676Y010412D01*
X010676Y010510D02*
X010776Y010510D01*
X010676Y010609D02*
X009580Y010609D01*
X009412Y010904D02*
X009354Y010904D01*
X008497Y010904D02*
X008325Y010904D01*
X008415Y010806D02*
X008497Y010806D01*
X008497Y010707D02*
X008415Y010707D01*
X008415Y010609D02*
X008497Y010609D01*
X008497Y010510D02*
X008384Y010510D01*
X008377Y010412D02*
X008497Y010412D01*
X008507Y010313D02*
X008377Y010313D01*
X008377Y010215D02*
X008605Y010215D01*
X008497Y011003D02*
X008226Y011003D01*
X007948Y011003D02*
X007687Y011003D01*
X007687Y011101D02*
X008497Y011101D01*
X008497Y011200D02*
X007687Y011200D01*
X007687Y011298D02*
X008497Y011298D01*
X008497Y011397D02*
X007687Y011397D01*
X007687Y011495D02*
X008497Y011495D01*
X008497Y011594D02*
X007687Y011594D01*
X007687Y011692D02*
X008497Y011692D01*
X008497Y011791D02*
X007687Y011791D01*
X007687Y011889D02*
X008497Y011889D01*
X008497Y011988D02*
X007687Y011988D01*
X007687Y012086D02*
X008497Y012086D01*
X008497Y012185D02*
X007687Y012185D01*
X007687Y012283D02*
X008497Y012283D01*
X008497Y012382D02*
X007687Y012382D01*
X007687Y012480D02*
X008497Y012480D01*
X008497Y012579D02*
X007687Y012579D01*
X007687Y012677D02*
X008497Y012677D01*
X008497Y012776D02*
X007687Y012776D01*
X007687Y012874D02*
X008497Y012874D01*
X008497Y012973D02*
X007687Y012973D01*
X007687Y013071D02*
X008497Y013071D01*
X008497Y013170D02*
X007776Y013170D01*
X007805Y013268D02*
X008497Y013268D01*
X008497Y013367D02*
X007805Y013367D01*
X007805Y013465D02*
X008497Y013465D01*
X008497Y013564D02*
X007713Y013564D01*
X007614Y013662D02*
X008497Y013662D01*
X008497Y013761D02*
X006949Y013761D01*
X006949Y013859D02*
X008497Y013859D01*
X008497Y013958D02*
X006993Y013958D01*
X007092Y014056D02*
X008497Y014056D01*
X008497Y014155D02*
X007190Y014155D01*
X007289Y014253D02*
X008497Y014253D01*
X008192Y015041D02*
X007903Y015041D01*
X005899Y015041D01*
X005899Y014943D02*
X007805Y014943D01*
X007775Y014913D02*
X007903Y015041D01*
X007775Y014913D02*
X007327Y014913D01*
X007198Y014784D01*
X006573Y014160D01*
X006509Y014096D01*
X006509Y014096D01*
X006509Y014095D01*
X006509Y014005D01*
X006505Y009311D01*
X006071Y009311D01*
X005942Y009182D01*
X005942Y007090D01*
X006071Y006961D01*
X006509Y006961D01*
X006509Y004740D01*
X006638Y004611D01*
X007149Y004099D01*
X006944Y004305D02*
X005899Y004305D01*
X005899Y004403D02*
X006846Y004403D01*
X006747Y004502D02*
X005899Y004502D01*
X005899Y004600D02*
X006649Y004600D01*
X006550Y004699D02*
X005899Y004699D01*
X005899Y004797D02*
X006509Y004797D01*
X006509Y004896D02*
X005899Y004896D01*
X005899Y004994D02*
X006509Y004994D01*
X006509Y005093D02*
X005899Y005093D01*
X005899Y005191D02*
X006509Y005191D01*
X006509Y005290D02*
X005899Y005290D01*
X005899Y005388D02*
X006509Y005388D01*
X006509Y005487D02*
X005899Y005487D01*
X005899Y005585D02*
X006509Y005585D01*
X006509Y005684D02*
X005899Y005684D01*
X005899Y005782D02*
X006509Y005782D01*
X006509Y005881D02*
X005899Y005881D01*
X005899Y005979D02*
X006509Y005979D01*
X006509Y006078D02*
X005899Y006078D01*
X005899Y006176D02*
X006509Y006176D01*
X006509Y006275D02*
X005899Y006275D01*
X005899Y006373D02*
X006509Y006373D01*
X006509Y006472D02*
X005899Y006472D01*
X005899Y006570D02*
X006509Y006570D01*
X006509Y006669D02*
X005899Y006669D01*
X005899Y006767D02*
X006509Y006767D01*
X006509Y006866D02*
X005899Y006866D01*
X005899Y006964D02*
X006068Y006964D01*
X005970Y007063D02*
X005899Y007063D01*
X005899Y007161D02*
X005942Y007161D01*
X005942Y007260D02*
X005899Y007260D01*
X005899Y007358D02*
X005942Y007358D01*
X005942Y007457D02*
X005899Y007457D01*
X005899Y007555D02*
X005942Y007555D01*
X005942Y007654D02*
X005899Y007654D01*
X005899Y007752D02*
X005942Y007752D01*
X005942Y007851D02*
X005899Y007851D01*
X005899Y007949D02*
X005942Y007949D01*
X005942Y008048D02*
X005899Y008048D01*
X005899Y008146D02*
X005942Y008146D01*
X005942Y008245D02*
X005899Y008245D01*
X005899Y008343D02*
X005942Y008343D01*
X005942Y008442D02*
X005899Y008442D01*
X005899Y008540D02*
X005942Y008540D01*
X005942Y008639D02*
X005899Y008639D01*
X005899Y008737D02*
X005942Y008737D01*
X005942Y008836D02*
X005899Y008836D01*
X005899Y008934D02*
X005942Y008934D01*
X005942Y009033D02*
X005899Y009033D01*
X005899Y009131D02*
X005942Y009131D01*
X005899Y009230D02*
X005989Y009230D01*
X005899Y009328D02*
X006505Y009328D01*
X006505Y009427D02*
X005899Y009427D01*
X005899Y009525D02*
X006505Y009525D01*
X006505Y009624D02*
X005899Y009624D01*
X005899Y009722D02*
X006505Y009722D01*
X006505Y009821D02*
X005899Y009821D01*
X005899Y009919D02*
X006505Y009919D01*
X006506Y010018D02*
X005899Y010018D01*
X005899Y010116D02*
X006506Y010116D01*
X006506Y010215D02*
X005899Y010215D01*
X005899Y010313D02*
X006506Y010313D01*
X006506Y010412D02*
X005899Y010412D01*
X005899Y010510D02*
X006506Y010510D01*
X006506Y010609D02*
X005899Y010609D01*
X005899Y010707D02*
X006506Y010707D01*
X006506Y010806D02*
X005899Y010806D01*
X005899Y010904D02*
X006506Y010904D01*
X006506Y011003D02*
X005899Y011003D01*
X005899Y011101D02*
X006506Y011101D01*
X006506Y011200D02*
X005899Y011200D01*
X005899Y011298D02*
X006507Y011298D01*
X006507Y011397D02*
X005899Y011397D01*
X005899Y011495D02*
X006507Y011495D01*
X006507Y011594D02*
X005899Y011594D01*
X005899Y011692D02*
X006507Y011692D01*
X006507Y011791D02*
X005899Y011791D01*
X005899Y011889D02*
X006507Y011889D01*
X006507Y011988D02*
X005899Y011988D01*
X005899Y012086D02*
X006507Y012086D01*
X006507Y012185D02*
X005899Y012185D01*
X005899Y012283D02*
X006507Y012283D01*
X006507Y012382D02*
X005899Y012382D01*
X005899Y012480D02*
X006508Y012480D01*
X006508Y012579D02*
X005899Y012579D01*
X005899Y012677D02*
X006508Y012677D01*
X006508Y012776D02*
X005899Y012776D01*
X005899Y012874D02*
X006508Y012874D01*
X006508Y012973D02*
X005899Y012973D01*
X005899Y013071D02*
X006508Y013071D01*
X006508Y013170D02*
X005899Y013170D01*
X005899Y013268D02*
X006508Y013268D01*
X006508Y013367D02*
X005899Y013367D01*
X005899Y013465D02*
X006508Y013465D01*
X006508Y013564D02*
X005899Y013564D01*
X005899Y013662D02*
X006508Y013662D01*
X006509Y013761D02*
X005899Y013761D01*
X005899Y013859D02*
X006509Y013859D01*
X006509Y013958D02*
X005899Y013958D01*
X005899Y014056D02*
X006509Y014056D01*
X006568Y014155D02*
X005899Y014155D01*
X005899Y014253D02*
X006666Y014253D01*
X006765Y014352D02*
X005899Y014352D01*
X005899Y014450D02*
X006863Y014450D01*
X006962Y014549D02*
X005899Y014549D01*
X005899Y014647D02*
X007060Y014647D01*
X007159Y014746D02*
X005899Y014746D01*
X005899Y014844D02*
X007257Y014844D01*
X006563Y014626D02*
X008048Y016111D01*
X008048Y018650D01*
X007693Y018654D01*
X008028Y018686D02*
X005899Y018686D01*
X005899Y018784D02*
X007023Y018784D01*
X006925Y018883D02*
X005899Y018883D01*
X005899Y018981D02*
X006902Y018981D01*
X006902Y019080D02*
X005899Y019080D01*
X005899Y019178D02*
X006903Y019178D01*
X006904Y019277D02*
X005899Y019277D01*
X005899Y019375D02*
X006905Y019375D01*
X006905Y019474D02*
X005899Y019474D01*
X005899Y019572D02*
X006906Y019572D01*
X006906Y019671D02*
X005899Y019671D01*
X005899Y019769D02*
X006907Y019769D01*
X006907Y019868D02*
X005899Y019868D01*
X005899Y019966D02*
X006908Y019966D01*
X006908Y020065D02*
X005899Y020065D01*
X005899Y020163D02*
X006909Y020163D01*
X006910Y020262D02*
X005899Y020262D01*
X005899Y020360D02*
X006910Y020360D01*
X006911Y020459D02*
X005899Y020459D01*
X005899Y020557D02*
X006911Y020557D01*
X006912Y020656D02*
X005899Y020656D01*
X005899Y020754D02*
X006912Y020754D01*
X006913Y020853D02*
X005899Y020853D01*
X005899Y020951D02*
X006913Y020951D01*
X006914Y021050D02*
X005899Y021050D01*
X005899Y021148D02*
X006915Y021148D01*
X006915Y021247D02*
X005899Y021247D01*
X005899Y021345D02*
X006916Y021345D01*
X006916Y021444D02*
X005899Y021444D01*
X005899Y021542D02*
X006917Y021542D01*
X006917Y021641D02*
X005899Y021641D01*
X005899Y021739D02*
X006918Y021739D01*
X006918Y021838D02*
X005899Y021838D01*
X005899Y021936D02*
X006919Y021936D01*
X006920Y022035D02*
X005899Y022035D01*
X005899Y022133D02*
X006920Y022133D01*
X006921Y022232D02*
X005899Y022232D01*
X005899Y022330D02*
X006921Y022330D01*
X006922Y022429D02*
X005899Y022429D01*
X005899Y022527D02*
X006922Y022527D01*
X006923Y022626D02*
X005899Y022626D01*
X005899Y022724D02*
X006923Y022724D01*
X006924Y022823D02*
X005899Y022823D01*
X005899Y022921D02*
X006925Y022921D01*
X006925Y023020D02*
X005899Y023020D01*
X005899Y023118D02*
X006926Y023118D01*
X006926Y023217D02*
X005899Y023217D01*
X005899Y023315D02*
X006927Y023315D01*
X006927Y023414D02*
X005899Y023414D01*
X005899Y023512D02*
X006928Y023512D01*
X006928Y023611D02*
X005899Y023611D01*
X005899Y023709D02*
X006929Y023709D01*
X006929Y023808D02*
X005899Y023808D01*
X005899Y023906D02*
X006930Y023906D01*
X006929Y024005D02*
X005899Y024005D01*
X005899Y024103D02*
X006928Y024103D01*
X006927Y024202D02*
X005899Y024202D01*
X005899Y024300D02*
X006926Y024300D01*
X006926Y024399D02*
X005899Y024399D01*
X005899Y024497D02*
X006981Y024497D01*
X007150Y023898D02*
X007122Y018996D01*
X008205Y019000D01*
X008481Y018784D02*
X008497Y018784D01*
X008497Y018686D02*
X008383Y018686D01*
X008497Y018587D02*
X005899Y018587D01*
X005899Y018489D02*
X008497Y018489D01*
X008497Y018390D02*
X005899Y018390D01*
X005899Y018292D02*
X008497Y018292D01*
X008497Y018193D02*
X005899Y018193D01*
X005899Y018095D02*
X008497Y018095D01*
X008497Y017996D02*
X005899Y017996D01*
X005899Y017898D02*
X008497Y017898D01*
X008497Y017799D02*
X005899Y017799D01*
X005899Y017701D02*
X008497Y017701D01*
X008497Y017602D02*
X005899Y017602D01*
X005899Y017504D02*
X008497Y017504D01*
X008497Y017405D02*
X005899Y017405D01*
X005899Y017307D02*
X008497Y017307D01*
X008497Y017208D02*
X005899Y017208D01*
X005899Y017110D02*
X008497Y017110D01*
X008497Y017011D02*
X005899Y017011D01*
X005899Y016913D02*
X008497Y016913D01*
X008497Y016814D02*
X005899Y016814D01*
X005899Y016716D02*
X008497Y016716D01*
X008497Y016617D02*
X005899Y016617D01*
X005899Y016519D02*
X008497Y016519D01*
X008497Y016420D02*
X005899Y016420D01*
X005899Y016322D02*
X008497Y016322D01*
X008497Y016223D02*
X005899Y016223D01*
X005899Y016125D02*
X008497Y016125D01*
X008497Y016026D02*
X005899Y016026D01*
X005899Y015928D02*
X008497Y015928D01*
X008497Y015829D02*
X005899Y015829D01*
X005899Y015731D02*
X008497Y015731D01*
X008497Y015632D02*
X005899Y015632D01*
X005899Y015534D02*
X008497Y015534D01*
X008497Y015435D02*
X005899Y015435D01*
X005899Y015337D02*
X008497Y015337D01*
X008497Y015238D02*
X005899Y015238D01*
X005899Y015140D02*
X008497Y015140D01*
X009497Y015132D02*
X009532Y015107D01*
X010512Y015140D02*
X015091Y015140D01*
X015091Y015238D02*
X010512Y015238D01*
X010512Y015337D02*
X015091Y015337D01*
X015091Y015435D02*
X010512Y015435D01*
X010512Y015534D02*
X012829Y015534D01*
X012745Y015632D02*
X010512Y015632D01*
X010512Y015731D02*
X012745Y015731D01*
X012745Y015829D02*
X010512Y015829D01*
X010512Y015928D02*
X012744Y015928D01*
X012744Y016026D02*
X010512Y016026D01*
X010512Y016125D02*
X012744Y016125D01*
X012743Y016223D02*
X010512Y016223D01*
X010292Y016504D02*
X010292Y013040D01*
X010357Y012677D02*
X010094Y012677D01*
X010094Y012579D02*
X010326Y012579D01*
X010326Y012480D02*
X010094Y012480D01*
X010094Y012382D02*
X010326Y012382D01*
X010326Y012283D02*
X010094Y012283D01*
X010094Y012185D02*
X010326Y012185D01*
X010326Y012086D02*
X010094Y012086D01*
X010094Y011988D02*
X010326Y011988D01*
X010326Y011889D02*
X010094Y011889D01*
X010094Y011791D02*
X010336Y011791D01*
X010377Y011692D02*
X010139Y011692D01*
X010203Y011594D02*
X010447Y011594D01*
X011440Y009821D02*
X011507Y009821D01*
X012024Y008926D02*
X012949Y008926D01*
X013500Y008374D01*
X013500Y008059D01*
X013504Y006115D01*
X013504Y006122D01*
X013142Y006122D01*
X013142Y005133D01*
X013141Y005126D01*
X012228Y005130D01*
X011798Y004699D02*
X017758Y004699D01*
X017856Y004797D02*
X012936Y004797D01*
X012949Y004896D02*
X017955Y004896D01*
X018053Y004994D02*
X013328Y004994D01*
X013362Y005093D02*
X018152Y005093D01*
X018250Y005191D02*
X013369Y005191D01*
X013761Y005290D02*
X014681Y005290D01*
X014602Y005388D02*
X013840Y005388D01*
X013879Y005487D02*
X014563Y005487D01*
X014563Y005585D02*
X013879Y005585D01*
X013853Y005684D02*
X014589Y005684D01*
X014649Y005782D02*
X013792Y005782D01*
X013284Y006373D02*
X012937Y006373D01*
X012949Y006472D02*
X013284Y006472D01*
X013283Y006570D02*
X012949Y006570D01*
X012949Y006669D02*
X013283Y006669D01*
X013283Y006767D02*
X012949Y006767D01*
X012949Y006866D02*
X013283Y006866D01*
X013283Y006964D02*
X012949Y006964D01*
X012912Y007063D02*
X013282Y007063D01*
X013282Y007161D02*
X011436Y007161D01*
X011447Y007260D02*
X013282Y007260D01*
X013282Y007358D02*
X011447Y007358D01*
X011447Y007457D02*
X013282Y007457D01*
X013281Y007555D02*
X011447Y007555D01*
X011447Y007654D02*
X013281Y007654D01*
X013281Y007752D02*
X011447Y007752D01*
X011409Y007851D02*
X013281Y007851D01*
X013281Y007949D02*
X012939Y007949D01*
X012949Y008048D02*
X013280Y008048D01*
X013280Y008146D02*
X012949Y008146D01*
X012949Y008245D02*
X013280Y008245D01*
X013280Y008150D02*
X013280Y008150D01*
X013221Y008343D02*
X012949Y008343D01*
X012949Y008442D02*
X013122Y008442D01*
X013024Y008540D02*
X012949Y008540D01*
X012925Y008639D02*
X012911Y008639D01*
X012940Y009525D02*
X017350Y009525D01*
X017499Y009624D02*
X012949Y009624D01*
X012949Y009722D02*
X020168Y009722D01*
X020168Y009624D02*
X018234Y009624D01*
X018383Y009525D02*
X020177Y009525D01*
X020168Y009534D02*
X020268Y009435D01*
X021511Y009435D01*
X021611Y009534D01*
X021611Y010175D01*
X021511Y010275D01*
X020268Y010275D01*
X020168Y010175D01*
X020168Y009534D01*
X020069Y009427D02*
X021654Y009427D01*
X021654Y009525D02*
X021601Y009525D01*
X021611Y009624D02*
X021654Y009624D01*
X021654Y009722D02*
X021611Y009722D01*
X021611Y009821D02*
X021654Y009821D01*
X021654Y009919D02*
X021611Y009919D01*
X021611Y010018D02*
X021654Y010018D01*
X021654Y010116D02*
X021611Y010116D01*
X021571Y010215D02*
X021654Y010215D01*
X021655Y010313D02*
X020100Y010313D01*
X020108Y010412D02*
X021655Y010412D01*
X021655Y010510D02*
X020108Y010510D01*
X020108Y010609D02*
X021655Y010609D01*
X021655Y010707D02*
X020108Y010707D01*
X020108Y010806D02*
X021655Y010806D01*
X021655Y010904D02*
X020108Y010904D01*
X020068Y011003D02*
X021655Y011003D01*
X021655Y011101D02*
X013644Y011101D01*
X013546Y011003D02*
X018706Y011003D01*
X018666Y010904D02*
X013447Y010904D01*
X013743Y011200D02*
X021655Y011200D01*
X021655Y011298D02*
X013841Y011298D01*
X013940Y011397D02*
X021655Y011397D01*
X021655Y011495D02*
X015974Y011495D01*
X015968Y011492D02*
X016032Y011524D01*
X016089Y011566D01*
X016139Y011616D01*
X016181Y011673D01*
X016213Y011736D01*
X016235Y011804D01*
X016246Y011874D01*
X016246Y012159D01*
X015846Y012159D01*
X015846Y012259D01*
X016246Y012259D01*
X016246Y012544D01*
X016235Y012614D01*
X016213Y012682D01*
X016181Y012745D01*
X016139Y012802D01*
X016089Y012852D01*
X016032Y012894D01*
X015968Y012926D01*
X015901Y012948D01*
X015846Y012957D01*
X015846Y012259D01*
X015746Y012259D01*
X015746Y012159D01*
X015846Y012159D01*
X015846Y011461D01*
X015901Y011470D01*
X015968Y011492D01*
X015846Y011495D02*
X015746Y011495D01*
X015746Y011461D02*
X015746Y012159D01*
X015346Y012159D01*
X015346Y011874D01*
X015357Y011804D01*
X015379Y011736D01*
X015411Y011673D01*
X015452Y011616D01*
X015503Y011566D01*
X015560Y011524D01*
X015623Y011492D01*
X015690Y011470D01*
X015746Y011461D01*
X015746Y011594D02*
X015846Y011594D01*
X015846Y011692D02*
X015746Y011692D01*
X015746Y011791D02*
X015846Y011791D01*
X015846Y011889D02*
X015746Y011889D01*
X015746Y011988D02*
X015846Y011988D01*
X015846Y012086D02*
X015746Y012086D01*
X015746Y012185D02*
X014846Y012185D01*
X014846Y012159D02*
X014846Y012259D01*
X014746Y012259D01*
X014746Y012159D01*
X014846Y012159D01*
X015246Y012159D01*
X015246Y011874D01*
X015235Y011804D01*
X015213Y011736D01*
X015181Y011673D01*
X015139Y011616D01*
X015089Y011566D01*
X015032Y011524D01*
X014968Y011492D01*
X014901Y011470D01*
X014846Y011461D01*
X014846Y012159D01*
X014846Y012086D02*
X014746Y012086D01*
X014746Y012159D02*
X014746Y011461D01*
X014690Y011470D01*
X014623Y011492D01*
X014560Y011524D01*
X014503Y011566D01*
X014452Y011616D01*
X014411Y011673D01*
X014379Y011736D01*
X014357Y011804D01*
X014346Y011874D01*
X014346Y012159D01*
X014746Y012159D01*
X014746Y012185D02*
X014266Y012185D01*
X014266Y012283D02*
X014346Y012283D01*
X014346Y012382D02*
X014266Y012382D01*
X014266Y012480D02*
X014346Y012480D01*
X014351Y012579D02*
X014266Y012579D01*
X014235Y012677D02*
X014377Y012677D01*
X014746Y012677D02*
X014846Y012677D01*
X014846Y012579D02*
X014746Y012579D01*
X014746Y012480D02*
X014846Y012480D01*
X014846Y012382D02*
X014746Y012382D01*
X014746Y012283D02*
X014846Y012283D01*
X014846Y011988D02*
X014746Y011988D01*
X014746Y011889D02*
X014846Y011889D01*
X014846Y011791D02*
X014746Y011791D01*
X014746Y011692D02*
X014846Y011692D01*
X014846Y011594D02*
X014746Y011594D01*
X014746Y011495D02*
X014846Y011495D01*
X014974Y011495D02*
X015617Y011495D01*
X015475Y011594D02*
X015117Y011594D01*
X015190Y011692D02*
X015401Y011692D01*
X015361Y011791D02*
X015230Y011791D01*
X015246Y011889D02*
X015346Y011889D01*
X015346Y011988D02*
X015246Y011988D01*
X015246Y012086D02*
X015346Y012086D01*
X015346Y012283D02*
X015246Y012283D01*
X015246Y012382D02*
X015346Y012382D01*
X015346Y012480D02*
X015246Y012480D01*
X015240Y012579D02*
X015351Y012579D01*
X015377Y012677D02*
X015214Y012677D01*
X014846Y012776D02*
X014746Y012776D01*
X014746Y012874D02*
X014846Y012874D01*
X015311Y013158D02*
X015311Y015697D01*
X012965Y015709D01*
X012957Y018142D01*
X015658Y018154D01*
X015670Y018213D01*
X015859Y018489D02*
X015922Y018489D01*
X015922Y018587D02*
X015537Y018587D01*
X015537Y018686D02*
X015922Y018686D01*
X015922Y018784D02*
X015537Y018784D01*
X015537Y018883D02*
X015922Y018883D01*
X015922Y018981D02*
X015537Y018981D01*
X015516Y019080D02*
X015922Y019080D01*
X015922Y019178D02*
X015374Y019178D01*
X015374Y019277D02*
X015922Y019277D01*
X015922Y019375D02*
X015374Y019375D01*
X015374Y019474D02*
X015922Y019474D01*
X015922Y019572D02*
X015374Y019572D01*
X015374Y019671D02*
X015922Y019671D01*
X016001Y019769D02*
X015374Y019769D01*
X015374Y019868D02*
X021661Y019868D01*
X021662Y019966D02*
X015990Y019966D01*
X016088Y020065D02*
X021662Y020065D01*
X021662Y020163D02*
X016171Y020163D01*
X016171Y020262D02*
X021662Y020262D01*
X021662Y020360D02*
X016171Y020360D01*
X016133Y020459D02*
X021662Y020459D01*
X021662Y020557D02*
X017967Y020557D01*
X017617Y020557D02*
X016034Y020557D01*
X015843Y020284D02*
X015154Y020284D01*
X015154Y018654D01*
X015091Y018654D01*
X015091Y018634D01*
X016142Y017843D02*
X016142Y019599D01*
X018418Y019599D01*
X019107Y018910D01*
X019051Y019277D02*
X020198Y019277D01*
X020198Y019314D02*
X020198Y019214D01*
X019724Y019214D01*
X019724Y018969D01*
X019735Y018931D01*
X019754Y018896D01*
X019782Y018869D01*
X019817Y018849D01*
X019855Y018839D01*
X020198Y018839D01*
X020198Y019214D01*
X020298Y019214D01*
X020298Y018839D01*
X020642Y018839D01*
X020680Y018849D01*
X020715Y018869D01*
X020742Y018896D01*
X020762Y018931D01*
X020772Y018969D01*
X020772Y019214D01*
X020298Y019214D01*
X020298Y019314D01*
X020198Y019314D01*
X019724Y019314D01*
X019724Y019560D01*
X019735Y019598D01*
X019754Y019632D01*
X019782Y019660D01*
X019817Y019680D01*
X019855Y019690D01*
X020198Y019690D01*
X020198Y019314D01*
X020198Y019375D02*
X020298Y019375D01*
X020298Y019314D02*
X020298Y019690D01*
X020642Y019690D01*
X020680Y019680D01*
X020715Y019660D01*
X020742Y019632D01*
X020762Y019598D01*
X020772Y019560D01*
X020772Y019314D01*
X020298Y019314D01*
X020298Y019277D02*
X021661Y019277D01*
X021661Y019375D02*
X020772Y019375D01*
X020772Y019474D02*
X021661Y019474D01*
X021661Y019572D02*
X020769Y019572D01*
X020696Y019671D02*
X021661Y019671D01*
X021661Y019769D02*
X018559Y019769D01*
X018657Y019671D02*
X019801Y019671D01*
X019728Y019572D02*
X018756Y019572D01*
X018854Y019474D02*
X019724Y019474D01*
X019724Y019375D02*
X018953Y019375D01*
X019512Y019178D02*
X019724Y019178D01*
X019724Y019080D02*
X019572Y019080D01*
X019572Y018981D02*
X019724Y018981D01*
X019768Y018883D02*
X019572Y018883D01*
X019572Y018784D02*
X021661Y018784D01*
X021661Y018686D02*
X019571Y018686D01*
X019572Y018587D02*
X021661Y018587D01*
X021660Y018489D02*
X019572Y018489D01*
X019572Y018390D02*
X021660Y018390D01*
X021660Y018292D02*
X019662Y018292D01*
X019709Y018193D02*
X021660Y018193D01*
X021660Y018095D02*
X019709Y018095D01*
X019709Y017996D02*
X021660Y017996D01*
X021660Y017898D02*
X019709Y017898D01*
X019665Y017799D02*
X021660Y017799D01*
X021660Y017701D02*
X019572Y017701D01*
X019572Y017602D02*
X021660Y017602D01*
X021660Y017504D02*
X019572Y017504D01*
X019107Y017611D02*
X017906Y017611D01*
X017906Y017091D01*
X016630Y017091D01*
X016662Y017382D02*
X013304Y017382D01*
X013304Y017311D01*
X013566Y017110D02*
X013578Y017110D01*
X013589Y017120D02*
X013396Y016928D01*
X013396Y016656D01*
X013589Y016463D01*
X013861Y016463D01*
X013969Y016571D01*
X014665Y016570D01*
X014665Y016322D01*
X015041Y016322D01*
X015041Y016222D01*
X014665Y016222D01*
X014665Y015920D01*
X013184Y015928D01*
X013181Y016983D01*
X013440Y016983D01*
X013619Y017162D01*
X015566Y017162D01*
X015566Y017008D01*
X013970Y017011D01*
X013861Y017120D01*
X013589Y017120D01*
X013480Y017011D02*
X013468Y017011D01*
X013396Y016913D02*
X013181Y016913D01*
X013181Y016814D02*
X013396Y016814D01*
X013396Y016716D02*
X013182Y016716D01*
X013182Y016617D02*
X013435Y016617D01*
X013534Y016519D02*
X013182Y016519D01*
X013183Y016420D02*
X014665Y016420D01*
X014665Y016519D02*
X013916Y016519D01*
X013725Y016792D02*
X015607Y016788D01*
X016138Y016343D01*
X018918Y016343D01*
X018949Y016311D01*
X019107Y015878D02*
X019107Y015544D01*
X018855Y015292D01*
X016583Y015292D01*
X016333Y015534D02*
X015531Y015534D01*
X015531Y015632D02*
X016431Y015632D01*
X016235Y015435D02*
X015531Y015435D01*
X015531Y015337D02*
X016235Y015337D01*
X016235Y015238D02*
X015531Y015238D01*
X015531Y015140D02*
X016243Y015140D01*
X016341Y015041D02*
X015531Y015041D01*
X015531Y014943D02*
X019470Y014943D01*
X019451Y014844D02*
X015531Y014844D01*
X015531Y014746D02*
X019451Y014746D01*
X019451Y014647D02*
X015531Y014647D01*
X015531Y014549D02*
X019539Y014549D01*
X019637Y014450D02*
X015531Y014450D01*
X015531Y014352D02*
X020079Y014352D01*
X020079Y014363D02*
X020079Y014117D01*
X020553Y014117D01*
X020553Y014493D01*
X020209Y014493D01*
X020171Y014483D01*
X020137Y014463D01*
X020109Y014435D01*
X020089Y014401D01*
X020079Y014363D01*
X020124Y014450D02*
X019962Y014450D01*
X020128Y014549D02*
X021658Y014549D01*
X021658Y014647D02*
X020208Y014647D01*
X020239Y014746D02*
X021658Y014746D01*
X021658Y014844D02*
X020239Y014844D01*
X020239Y014943D02*
X021658Y014943D01*
X021658Y015041D02*
X020239Y015041D01*
X020239Y015140D02*
X021658Y015140D01*
X021658Y015238D02*
X020239Y015238D01*
X020239Y015337D02*
X021658Y015337D01*
X021658Y015435D02*
X020239Y015435D01*
X020239Y015534D02*
X021658Y015534D01*
X021658Y015632D02*
X020239Y015632D01*
X020239Y015731D02*
X021658Y015731D01*
X021659Y015829D02*
X020239Y015829D01*
X020239Y015928D02*
X021659Y015928D01*
X021659Y016026D02*
X020239Y016026D01*
X020239Y016125D02*
X021659Y016125D01*
X021659Y016223D02*
X020239Y016223D01*
X020239Y016322D02*
X021659Y016322D01*
X021659Y016420D02*
X020239Y016420D01*
X020239Y016519D02*
X021659Y016519D01*
X021659Y016617D02*
X020239Y016617D01*
X020239Y016716D02*
X021659Y016716D01*
X021659Y016814D02*
X020239Y016814D01*
X020239Y016913D02*
X021659Y016913D01*
X021659Y017011D02*
X020239Y017011D01*
X020239Y017110D02*
X021659Y017110D01*
X021660Y017208D02*
X020239Y017208D01*
X020210Y017307D02*
X021660Y017307D01*
X021660Y017405D02*
X020132Y017405D01*
X019659Y016814D02*
X019572Y016814D01*
X019572Y016716D02*
X019659Y016716D01*
X019659Y016617D02*
X019572Y016617D01*
X019554Y016519D02*
X019659Y016519D01*
X019659Y016420D02*
X019414Y016420D01*
X019414Y016322D02*
X019659Y016322D01*
X019659Y016223D02*
X019414Y016223D01*
X019534Y016125D02*
X019659Y016125D01*
X019659Y016026D02*
X019572Y016026D01*
X019572Y015928D02*
X019659Y015928D01*
X019659Y015829D02*
X019572Y015829D01*
X019572Y015731D02*
X019659Y015731D01*
X019659Y015632D02*
X019534Y015632D01*
X019659Y015534D02*
X019327Y015534D01*
X019309Y015435D02*
X019659Y015435D01*
X019659Y015337D02*
X019211Y015337D01*
X019112Y015238D02*
X019659Y015238D01*
X019659Y015140D02*
X019014Y015140D01*
X018785Y015534D02*
X016834Y015534D01*
X016735Y015632D02*
X018680Y015632D01*
X018641Y015731D02*
X015532Y015731D01*
X015491Y015829D02*
X018641Y015829D01*
X018641Y015928D02*
X015517Y015928D01*
X015517Y016026D02*
X018561Y016026D01*
X019107Y016744D02*
X019107Y016764D01*
X017178Y016764D01*
X017178Y016760D01*
X016209Y016760D01*
X016209Y017056D01*
X015894Y017056D01*
X015566Y017011D02*
X014050Y017011D01*
X013871Y017110D02*
X015566Y017110D01*
X015586Y016519D02*
X015517Y016519D01*
X015517Y016420D02*
X015703Y016420D01*
X015737Y016272D02*
X015091Y016272D01*
X015141Y016223D02*
X015939Y016223D01*
X015796Y016213D02*
X015737Y016272D01*
X015796Y016213D02*
X015796Y012209D01*
X015846Y012185D02*
X021656Y012185D01*
X021656Y012283D02*
X016246Y012283D01*
X016246Y012382D02*
X021656Y012382D01*
X021656Y012480D02*
X016246Y012480D01*
X016240Y012579D02*
X021656Y012579D01*
X021656Y012677D02*
X016214Y012677D01*
X016158Y012776D02*
X021656Y012776D01*
X021656Y012874D02*
X016059Y012874D01*
X015846Y012874D02*
X015746Y012874D01*
X015746Y012776D02*
X015846Y012776D01*
X015846Y012677D02*
X015746Y012677D01*
X015746Y012579D02*
X015846Y012579D01*
X015846Y012480D02*
X015746Y012480D01*
X015746Y012382D02*
X015846Y012382D01*
X015846Y012283D02*
X015746Y012283D01*
X016246Y012086D02*
X021656Y012086D01*
X021656Y011988D02*
X016246Y011988D01*
X016246Y011889D02*
X021656Y011889D01*
X021656Y011791D02*
X016230Y011791D01*
X016190Y011692D02*
X021656Y011692D01*
X021655Y011594D02*
X016117Y011594D01*
X014617Y011495D02*
X014024Y011495D01*
X014145Y011594D02*
X014475Y011594D01*
X014401Y011692D02*
X014215Y011692D01*
X014255Y011791D02*
X014361Y011791D01*
X014346Y011889D02*
X014266Y011889D01*
X014266Y011988D02*
X014346Y011988D01*
X014346Y012086D02*
X014266Y012086D01*
X015091Y013761D02*
X012576Y013761D01*
X012636Y013859D02*
X015091Y013859D01*
X015091Y014352D02*
X010512Y014352D01*
X010512Y014450D02*
X015091Y014450D01*
X015091Y014549D02*
X010512Y014549D01*
X010512Y014647D02*
X015091Y014647D01*
X015091Y014746D02*
X010512Y014746D01*
X010512Y014844D02*
X015091Y014844D01*
X015091Y014943D02*
X010512Y014943D01*
X010512Y015041D02*
X015091Y015041D01*
X015531Y014253D02*
X020079Y014253D01*
X020079Y014155D02*
X015531Y014155D01*
X014665Y015928D02*
X013265Y015928D01*
X013184Y016026D02*
X014665Y016026D01*
X014665Y016125D02*
X013184Y016125D01*
X013183Y016223D02*
X015041Y016223D01*
X015041Y016322D02*
X013183Y016322D01*
X012743Y016322D02*
X011936Y016322D01*
X012028Y016420D02*
X012743Y016420D01*
X012742Y016519D02*
X012027Y016519D01*
X012027Y016617D02*
X012742Y016617D01*
X012742Y016716D02*
X012027Y016716D01*
X012026Y016814D02*
X012741Y016814D01*
X012741Y016913D02*
X012026Y016913D01*
X012026Y017011D02*
X012741Y017011D01*
X012740Y017110D02*
X012026Y017110D01*
X012025Y017208D02*
X012740Y017208D01*
X012740Y017307D02*
X012025Y017307D01*
X012025Y017405D02*
X012739Y017405D01*
X012739Y017504D02*
X012024Y017504D01*
X011717Y016284D02*
X011717Y016284D01*
X013697Y017843D02*
X016142Y017843D01*
X016662Y017788D02*
X016662Y017382D01*
X016882Y017405D02*
X017686Y017405D01*
X017686Y017311D02*
X016882Y017311D01*
X016882Y017693D01*
X016886Y017697D01*
X016886Y017879D01*
X016886Y018257D01*
X018653Y018257D01*
X018741Y018169D01*
X018819Y018169D01*
X018819Y018063D01*
X019245Y018063D01*
X019245Y018025D01*
X018819Y018025D01*
X018819Y017918D01*
X018741Y017918D01*
X018653Y017831D01*
X017815Y017831D01*
X017686Y017702D01*
X017686Y017311D01*
X017686Y017504D02*
X016882Y017504D01*
X016882Y017602D02*
X017686Y017602D01*
X017686Y017701D02*
X016886Y017701D01*
X016886Y017799D02*
X017783Y017799D01*
X016886Y017898D02*
X018720Y017898D01*
X018819Y017996D02*
X016886Y017996D01*
X016886Y018095D02*
X018819Y018095D01*
X018717Y018193D02*
X016886Y018193D01*
X016666Y018477D02*
X016666Y017788D01*
X016662Y017788D01*
X016666Y018477D02*
X019107Y018477D01*
X019107Y017650D02*
X019107Y017611D01*
X020198Y018883D02*
X020298Y018883D01*
X020298Y018981D02*
X020198Y018981D01*
X020198Y019080D02*
X020298Y019080D01*
X020298Y019178D02*
X020198Y019178D01*
X020198Y019474D02*
X020298Y019474D01*
X020298Y019572D02*
X020198Y019572D01*
X020198Y019671D02*
X020298Y019671D01*
X020772Y019178D02*
X021661Y019178D01*
X021661Y019080D02*
X020772Y019080D01*
X020772Y018981D02*
X021661Y018981D01*
X021661Y018883D02*
X020729Y018883D01*
X021663Y022232D02*
X014626Y022232D01*
X014626Y022330D02*
X021663Y022330D01*
X021663Y022429D02*
X014700Y022429D01*
X014754Y022527D02*
X021663Y022527D01*
X021663Y022626D02*
X014754Y022626D01*
X014754Y022724D02*
X021663Y022724D01*
X021664Y022823D02*
X014702Y022823D01*
X014604Y022921D02*
X021664Y022921D01*
X021666Y025975D02*
X011373Y025975D01*
X011274Y026073D02*
X021666Y026073D01*
X021666Y026369D02*
X005899Y026369D01*
X005899Y026467D02*
X021666Y026467D01*
X021666Y026566D02*
X005899Y026566D01*
X005899Y026664D02*
X021666Y026664D01*
X021666Y026763D02*
X005899Y026763D01*
X005899Y026861D02*
X021666Y026861D01*
X021667Y026960D02*
X005899Y026960D01*
X005899Y027058D02*
X021667Y027058D01*
X021667Y027157D02*
X005899Y027157D01*
X005899Y027255D02*
X021667Y027255D01*
X021667Y027354D02*
X005899Y027354D01*
X005899Y027452D02*
X021667Y027452D01*
X021667Y027551D02*
X005899Y027551D01*
X005899Y027649D02*
X021667Y027649D01*
X021667Y027748D02*
X005899Y027748D01*
X005899Y027846D02*
X021667Y027846D01*
X021667Y027945D02*
X005899Y027945D01*
X005899Y028043D02*
X021667Y028043D01*
X021667Y028142D02*
X019061Y028142D01*
X019174Y028188D02*
X019399Y028413D01*
X019521Y028707D01*
X019521Y029026D01*
X019399Y029320D01*
X019174Y029545D01*
X018880Y029666D01*
X018562Y029666D01*
X018268Y029545D01*
X018043Y029320D01*
X017921Y029026D01*
X017921Y028707D01*
X018043Y028413D01*
X018268Y028188D01*
X018562Y028067D01*
X018880Y028067D01*
X019174Y028188D01*
X019226Y028240D02*
X021667Y028240D01*
X021668Y028339D02*
X019324Y028339D01*
X019409Y028437D02*
X021668Y028437D01*
X021668Y028536D02*
X019450Y028536D01*
X019490Y028634D02*
X021668Y028634D01*
X021668Y028733D02*
X019521Y028733D01*
X019521Y028831D02*
X021668Y028831D01*
X021668Y028930D02*
X019521Y028930D01*
X019520Y029028D02*
X021668Y029028D01*
X021668Y029127D02*
X019479Y029127D01*
X019438Y029225D02*
X021668Y029225D01*
X021668Y029324D02*
X019395Y029324D01*
X019297Y029422D02*
X021668Y029422D01*
X021668Y029521D02*
X019198Y029521D01*
X018994Y029619D02*
X021668Y029619D01*
X021669Y029718D02*
X011694Y029718D01*
X011776Y029816D02*
X021669Y029816D01*
X021669Y029915D02*
X011840Y029915D01*
X011825Y029874D02*
X011825Y029874D01*
X011876Y030013D02*
X021669Y030013D01*
X021669Y030112D02*
X011911Y030112D01*
X011602Y029619D02*
X018447Y029619D01*
X018244Y029521D02*
X011431Y029521D01*
X011070Y029422D02*
X018145Y029422D01*
X018047Y029324D02*
X008049Y029324D01*
X008053Y029320D02*
X007828Y029545D01*
X007534Y029666D01*
X007215Y029666D01*
X006921Y029545D01*
X006696Y029320D01*
X006574Y029026D01*
X006574Y028707D01*
X006696Y028413D01*
X006921Y028188D01*
X007215Y028067D01*
X007534Y028067D01*
X007828Y028188D01*
X008053Y028413D01*
X008174Y028707D01*
X008174Y029026D01*
X008053Y029320D01*
X008092Y029225D02*
X018004Y029225D01*
X017963Y029127D02*
X008133Y029127D01*
X008173Y029028D02*
X017922Y029028D01*
X017921Y028930D02*
X008174Y028930D01*
X008174Y028831D02*
X017921Y028831D01*
X017921Y028733D02*
X008174Y028733D01*
X008144Y028634D02*
X017951Y028634D01*
X017992Y028536D02*
X008103Y028536D01*
X008062Y028437D02*
X018033Y028437D01*
X018118Y028339D02*
X007978Y028339D01*
X007879Y028240D02*
X018216Y028240D01*
X018381Y028142D02*
X007715Y028142D01*
X007034Y028142D02*
X005899Y028142D01*
X005899Y028240D02*
X006870Y028240D01*
X006771Y028339D02*
X005899Y028339D01*
X005899Y028437D02*
X006686Y028437D01*
X006646Y028536D02*
X005899Y028536D01*
X005899Y028634D02*
X006605Y028634D01*
X006574Y028733D02*
X005899Y028733D01*
X005899Y028831D02*
X006574Y028831D01*
X006574Y028930D02*
X005899Y028930D01*
X005899Y029028D02*
X006575Y029028D01*
X006616Y029127D02*
X005899Y029127D01*
X005899Y029225D02*
X006657Y029225D01*
X006700Y029324D02*
X005899Y029324D01*
X005899Y029422D02*
X006799Y029422D01*
X006897Y029521D02*
X005899Y029521D01*
X005899Y029619D02*
X007101Y029619D01*
X007648Y029619D02*
X010459Y029619D01*
X010367Y029718D02*
X005899Y029718D01*
X005899Y029816D02*
X010284Y029816D01*
X010221Y029915D02*
X005899Y029915D01*
X005899Y030013D02*
X010185Y030013D01*
X010149Y030112D02*
X005899Y030112D01*
X007852Y029521D02*
X010630Y029521D01*
X010991Y029422D02*
X007950Y029422D01*
X009091Y025835D02*
X009091Y019437D01*
X010548Y019437D01*
X010548Y019516D01*
X010308Y019769D02*
X009311Y019769D01*
X009311Y019671D02*
X010210Y019671D01*
X009475Y020459D02*
X009311Y020459D01*
X009311Y020557D02*
X009377Y020557D01*
X009333Y020656D02*
X009311Y020656D01*
X009311Y020754D02*
X009333Y020754D01*
X009333Y020853D02*
X009311Y020853D01*
X009311Y020951D02*
X009412Y020951D01*
X012445Y022232D02*
X014186Y022232D01*
X014186Y022330D02*
X012445Y022330D01*
X012445Y022429D02*
X014111Y022429D01*
X014058Y022527D02*
X012445Y022527D01*
X014406Y022626D02*
X014406Y021111D01*
X014664Y021345D02*
X014865Y021345D01*
X014963Y021444D02*
X014626Y021444D01*
X014626Y021542D02*
X015062Y021542D01*
X015160Y021641D02*
X014626Y021641D01*
X014626Y021739D02*
X015259Y021739D01*
X015357Y021838D02*
X014626Y021838D01*
X014626Y021936D02*
X015456Y021936D01*
X015554Y022035D02*
X014626Y022035D01*
X014626Y022133D02*
X016389Y022133D01*
X016384Y021542D02*
X015684Y021542D01*
X015322Y020656D02*
X017518Y020656D01*
X015652Y020557D02*
X015173Y020557D01*
X015374Y019966D02*
X015696Y019966D01*
X014766Y021247D02*
X014754Y021247D01*
X011847Y025717D02*
X011119Y025737D01*
X010390Y025835D02*
X009091Y025835D01*
X009311Y025581D02*
X010152Y025581D01*
X015141Y016322D02*
X015821Y016322D01*
X016045Y016125D02*
X015517Y016125D01*
X016825Y015041D02*
X019568Y015041D01*
X020553Y014450D02*
X020653Y014450D01*
X020653Y014352D02*
X020553Y014352D01*
X020553Y014253D02*
X020653Y014253D01*
X020653Y014155D02*
X020553Y014155D01*
X020553Y013859D02*
X020653Y013859D01*
X020653Y013761D02*
X020553Y013761D01*
X020553Y013662D02*
X020653Y013662D01*
X021127Y014155D02*
X021657Y014155D01*
X021657Y014253D02*
X021127Y014253D01*
X021127Y014352D02*
X021657Y014352D01*
X021658Y014450D02*
X021082Y014450D01*
X020208Y010215D02*
X012910Y010215D01*
X012949Y010116D02*
X020168Y010116D01*
X020168Y010018D02*
X012949Y010018D01*
X012949Y009919D02*
X020168Y009919D01*
X020168Y009821D02*
X012949Y009821D01*
X012068Y012973D02*
X011905Y012973D01*
X008537Y009131D02*
X008377Y009131D01*
X008377Y009033D02*
X008438Y009033D01*
X007797Y009033D02*
X006945Y009033D01*
X006945Y009000D02*
X006945Y009000D01*
X006945Y009000D01*
X006879Y008934D02*
X007797Y008934D01*
X007797Y008836D02*
X007466Y008836D01*
X007647Y008737D02*
X007797Y008737D01*
X007797Y008639D02*
X007745Y008639D01*
X007797Y009131D02*
X006945Y009131D01*
X006945Y009230D02*
X007797Y009230D01*
X007797Y009328D02*
X006945Y009328D01*
X006945Y009427D02*
X007797Y009427D01*
X007797Y009525D02*
X006945Y009525D01*
X006945Y009624D02*
X007797Y009624D01*
X007797Y009722D02*
X006945Y009722D01*
X006945Y009821D02*
X007797Y009821D01*
X007797Y009919D02*
X006945Y009919D01*
X006946Y010018D02*
X007797Y010018D01*
X007797Y010116D02*
X006946Y010116D01*
X006946Y010215D02*
X007797Y010215D01*
X007797Y010313D02*
X006946Y010313D01*
X006946Y010412D02*
X007797Y010412D01*
X007251Y010510D02*
X006946Y010510D01*
X006946Y010609D02*
X007195Y010609D01*
X007187Y010707D02*
X006946Y010707D01*
X006946Y010806D02*
X007187Y010806D01*
X007187Y010904D02*
X006946Y010904D01*
X006946Y011003D02*
X007187Y011003D01*
X007187Y011101D02*
X006946Y011101D01*
X006946Y011200D02*
X007187Y011200D01*
X007187Y011298D02*
X006947Y011298D01*
X006947Y011397D02*
X007187Y011397D01*
X007187Y011495D02*
X006947Y011495D01*
X006947Y011594D02*
X007187Y011594D01*
X007187Y011692D02*
X006947Y011692D01*
X006947Y011791D02*
X007187Y011791D01*
X007187Y011889D02*
X006947Y011889D01*
X006947Y011988D02*
X007187Y011988D01*
X007187Y012086D02*
X006947Y012086D01*
X006947Y012185D02*
X007187Y012185D01*
X007187Y012283D02*
X006947Y012283D01*
X006947Y012382D02*
X007187Y012382D01*
X007187Y012480D02*
X006948Y012480D01*
X006948Y012579D02*
X007187Y012579D01*
X007187Y012677D02*
X006948Y012677D01*
X006948Y012776D02*
X007187Y012776D01*
X007187Y012874D02*
X006948Y012874D01*
X006948Y012973D02*
X007187Y012973D01*
X007187Y013071D02*
X006948Y013071D01*
X006948Y013170D02*
X007178Y013170D01*
X007148Y013268D02*
X006948Y013268D01*
X006948Y013367D02*
X007148Y013367D01*
X007148Y013465D02*
X006948Y013465D01*
X006948Y013564D02*
X007241Y013564D01*
X007339Y013662D02*
X006948Y013662D01*
X006563Y014599D02*
X006563Y014626D01*
X006816Y008871D02*
X006816Y008871D01*
X006816Y008871D01*
X006842Y008836D02*
X006382Y008836D01*
X006382Y008737D02*
X006661Y008737D01*
X006562Y008639D02*
X006382Y008639D01*
X006382Y008540D02*
X006471Y008540D01*
X006430Y008442D02*
X006382Y008442D01*
X006382Y008343D02*
X006389Y008343D01*
X006949Y007260D02*
X007797Y007260D01*
X007797Y007358D02*
X007456Y007358D01*
X007643Y007457D02*
X007797Y007457D01*
X007797Y007555D02*
X007741Y007555D01*
X007797Y007161D02*
X006949Y007161D01*
X006949Y007063D02*
X007797Y007063D01*
X007797Y006964D02*
X006949Y006964D01*
X006949Y006866D02*
X007797Y006866D01*
X007797Y006767D02*
X006949Y006767D01*
X006949Y006669D02*
X007811Y006669D01*
X007867Y006570D02*
X006949Y006570D01*
X006949Y006472D02*
X007971Y006472D01*
X010018Y004009D02*
X005899Y004009D01*
X005899Y003911D02*
X011541Y003911D01*
X011507Y003812D02*
X005899Y003812D01*
X005899Y003714D02*
X011507Y003714D01*
X011507Y003615D02*
X005899Y003615D01*
X005899Y003517D02*
X011507Y003517D01*
X011507Y003418D02*
X005899Y003418D01*
X005899Y003320D02*
X011507Y003320D01*
X011521Y003221D02*
X005899Y003221D01*
X011410Y006275D02*
X012983Y006275D01*
X012922Y006176D02*
X011447Y006176D01*
X011447Y006078D02*
X012922Y006078D01*
X012922Y005979D02*
X011447Y005979D01*
X011447Y005881D02*
X012922Y005881D01*
X012922Y005782D02*
X011447Y005782D01*
X011447Y005684D02*
X012922Y005684D01*
X012922Y005585D02*
X011434Y005585D01*
X011897Y004600D02*
X017659Y004600D01*
X017561Y004502D02*
X011995Y004502D01*
X012094Y004403D02*
X017462Y004403D01*
X017364Y004305D02*
X012192Y004305D01*
X012291Y004206D02*
X017265Y004206D01*
X017167Y004108D02*
X012389Y004108D01*
X011866Y004009D02*
X011433Y004009D01*
X011447Y004108D02*
X011767Y004108D01*
X011669Y004206D02*
X011447Y004206D01*
X011447Y004305D02*
X011570Y004305D01*
X011472Y004403D02*
X011447Y004403D01*
X012913Y005487D02*
X012922Y005487D01*
X018113Y008146D02*
X020168Y008146D01*
X020168Y008245D02*
X018332Y008245D01*
X018431Y008343D02*
X020168Y008343D01*
X020168Y008442D02*
X018529Y008442D01*
X018579Y008540D02*
X020168Y008540D01*
X020206Y008639D02*
X018620Y008639D01*
X018661Y008737D02*
X018676Y008737D01*
X018666Y009131D02*
X018641Y009131D01*
X018666Y009230D02*
X018600Y009230D01*
X018559Y009328D02*
X018666Y009328D01*
X018705Y009427D02*
X018481Y009427D01*
X020108Y009328D02*
X021654Y009328D01*
X021654Y009230D02*
X020108Y009230D01*
X020108Y009131D02*
X021654Y009131D01*
X021654Y009033D02*
X020108Y009033D01*
X020108Y008934D02*
X021654Y008934D01*
X021653Y008836D02*
X020108Y008836D01*
X020098Y008737D02*
X021653Y008737D01*
X021653Y008639D02*
X021572Y008639D01*
X021611Y008540D02*
X021653Y008540D01*
X021653Y008442D02*
X021611Y008442D01*
X021611Y008343D02*
X021653Y008343D01*
X021653Y008245D02*
X021611Y008245D01*
X021611Y008146D02*
X021653Y008146D01*
X021653Y008048D02*
X021611Y008048D01*
X021600Y007949D02*
X021653Y007949D01*
X021653Y007851D02*
X020071Y007851D01*
X020108Y007752D02*
X021653Y007752D01*
X021653Y007654D02*
X020108Y007654D01*
X020108Y007555D02*
X021653Y007555D01*
X021652Y007457D02*
X020108Y007457D01*
X020108Y007358D02*
X021652Y007358D01*
X021652Y007260D02*
X020108Y007260D01*
X020097Y007161D02*
X021652Y007161D01*
X021652Y007063D02*
X021574Y007063D01*
X021611Y006964D02*
X021652Y006964D01*
X021652Y006866D02*
X021611Y006866D01*
X021611Y006767D02*
X021652Y006767D01*
X021652Y006669D02*
X021611Y006669D01*
X021611Y006570D02*
X021652Y006570D01*
X021652Y006472D02*
X021611Y006472D01*
X021599Y006373D02*
X021652Y006373D01*
X021652Y006275D02*
X020072Y006275D01*
X020108Y006176D02*
X021652Y006176D01*
X021651Y006078D02*
X020108Y006078D01*
X020108Y005979D02*
X021651Y005979D01*
X021651Y005881D02*
X020108Y005881D01*
X020108Y005782D02*
X021651Y005782D01*
X021651Y005684D02*
X020108Y005684D01*
X020096Y005585D02*
X021651Y005585D01*
X021651Y005487D02*
X021575Y005487D01*
X021611Y005388D02*
X021651Y005388D01*
X021651Y005290D02*
X021611Y005290D01*
X021611Y005191D02*
X021651Y005191D01*
X021651Y005093D02*
X021611Y005093D01*
X021611Y004994D02*
X021651Y004994D01*
X021651Y004896D02*
X021611Y004896D01*
X021598Y004797D02*
X021651Y004797D01*
X021650Y004699D02*
X020073Y004699D01*
X020108Y004600D02*
X021650Y004600D01*
X021650Y004502D02*
X020108Y004502D01*
X020108Y004403D02*
X021650Y004403D01*
X021650Y004305D02*
X020108Y004305D01*
X020108Y004206D02*
X021650Y004206D01*
X021650Y004108D02*
X020108Y004108D01*
X020095Y004009D02*
X021650Y004009D01*
X021650Y003911D02*
X021576Y003911D01*
X021611Y003812D02*
X021650Y003812D01*
X021650Y003714D02*
X021611Y003714D01*
X021611Y003615D02*
X021650Y003615D01*
X021650Y003517D02*
X021611Y003517D01*
X021611Y003418D02*
X021650Y003418D01*
X021650Y003320D02*
X021611Y003320D01*
X021596Y003221D02*
X021649Y003221D01*
D19*
X019387Y005918D02*
X017025Y003556D01*
X012228Y003556D01*
X010390Y006721D02*
X008244Y006721D01*
X008126Y006721D01*
X008087Y006760D01*
X008087Y010678D01*
X008697Y008827D02*
X008697Y007154D01*
X014796Y012209D02*
X015796Y012209D01*
X015796Y007406D01*
X015926Y007276D01*
X015796Y012209D02*
X020591Y012201D01*
X020603Y012201D01*
X020603Y014067D01*
X021063Y014067D01*
X021063Y018276D01*
X021063Y018044D01*
X020248Y018044D01*
X020248Y019264D01*
X020248Y018044D02*
X019264Y018044D01*
X019264Y017178D02*
X019949Y017178D01*
X019949Y014780D01*
X019800Y014780D01*
D20*
X010784Y010584D02*
X010784Y010028D01*
X010784Y010584D02*
X010726Y010642D01*
X008087Y010678D02*
X007437Y010678D01*
X007437Y013335D01*
X007477Y013335D01*
D21*
X008048Y014693D03*
X008048Y016111D03*
X009225Y016083D03*
X009532Y015107D03*
X011449Y017603D03*
X012233Y018111D03*
X011898Y018512D03*
X011146Y018851D03*
X010548Y019516D03*
X009020Y018158D03*
X008205Y019000D03*
X007693Y018654D03*
X006563Y014599D03*
X008914Y010414D03*
X010784Y010028D03*
X012288Y011465D03*
X012288Y013965D03*
X015311Y013158D03*
X016583Y015292D03*
X018756Y013126D03*
X019800Y014780D03*
X021063Y018276D03*
X017792Y020874D03*
X016583Y021835D03*
X014406Y021111D03*
X013626Y021760D03*
X014406Y022626D03*
X012354Y020233D03*
X011394Y021662D03*
X012225Y022811D03*
X011119Y025737D03*
X010390Y025835D03*
X008662Y024351D03*
X007713Y023276D03*
X016363Y009382D03*
X015926Y007276D03*
X018087Y010221D03*
X019422Y008280D03*
X020772Y005902D03*
X010390Y006721D03*
D22*
X012304Y007563D03*
X010130Y003563D03*
X007658Y005154D03*
X007300Y009953D03*
X008512Y009957D03*
X006166Y010949D03*
X006398Y018918D03*
X006300Y021418D03*
X007292Y025548D03*
X007804Y025548D03*
X009504Y026945D03*
X009756Y029733D03*
X012878Y026626D03*
X014134Y029500D03*
X016146Y025248D03*
X017347Y026894D03*
X017201Y022544D03*
X018670Y020843D03*
X019241Y019607D03*
X020705Y020107D03*
X020965Y022079D03*
X020685Y029406D03*
X006335Y029713D03*
X016717Y004650D03*
M02*
