G75*
G70*
%OFA0B0*%
%FSLAX24Y24*%
%IPPOS*%
%LPD*%
%AMOC8*
5,1,8,0,0,1.08239X$1,22.5*
%
%ADD10C,0.0000*%
%ADD11C,0.0050*%
%ADD12C,0.0060*%
%ADD13C,0.0040*%
%ADD14R,0.0315X0.0197*%
%ADD15C,0.0020*%
%ADD16C,0.0030*%
%ADD17C,0.0039*%
%ADD18C,0.0020*%
%ADD19C,0.0080*%
%ADD20C,0.0100*%
%ADD21R,0.0079X0.0472*%
%ADD22R,0.0472X0.0079*%
%ADD23C,0.0005*%
%ADD24R,0.0098X0.0098*%
%ADD25C,0.0070*%
%ADD26C,0.0010*%
%ADD27C,0.0120*%
%ADD28C,0.0160*%
%ADD29C,0.0240*%
%ADD30R,0.0008X0.0032*%
%ADD31R,0.0008X0.0048*%
%ADD32R,0.0008X0.0056*%
%ADD33R,0.0008X0.0072*%
%ADD34R,0.0008X0.0080*%
%ADD35R,0.0008X0.0088*%
%ADD36R,0.0008X0.0096*%
%ADD37R,0.0008X0.0104*%
%ADD38R,0.0008X0.0112*%
%ADD39R,0.0008X0.0112*%
%ADD40R,0.0008X0.0120*%
%ADD41R,0.0008X0.0120*%
%ADD42R,0.0008X0.0112*%
%ADD43R,0.0008X0.0112*%
%ADD44R,0.0008X0.0040*%
%ADD45R,0.0008X0.0056*%
%ADD46R,0.0008X0.0072*%
%ADD47R,0.0008X0.0096*%
%ADD48R,0.0008X0.0104*%
%ADD49R,0.0008X0.0128*%
%ADD50R,0.0008X0.0128*%
%ADD51R,0.0008X0.0144*%
%ADD52R,0.0008X0.0136*%
%ADD53R,0.0008X0.0136*%
%ADD54R,0.0008X0.0144*%
%ADD55R,0.0008X0.0144*%
%ADD56R,0.0008X0.0144*%
%ADD57R,0.0008X0.0016*%
%ADD58R,0.0008X0.0040*%
%ADD59R,0.0008X0.0064*%
%ADD60R,0.0008X0.0136*%
%ADD61R,0.0008X0.0088*%
%ADD62R,0.0008X0.0160*%
%ADD63R,0.0008X0.0160*%
%ADD64R,0.0008X0.0048*%
%ADD65R,0.0008X0.0176*%
%ADD66R,0.0008X0.0176*%
%ADD67R,0.0008X0.0184*%
%ADD68R,0.0008X0.0184*%
%ADD69R,0.0008X0.0184*%
%ADD70R,0.0008X0.0192*%
%ADD71R,0.0008X0.0192*%
%ADD72R,0.0008X0.0184*%
%ADD73R,0.0008X0.0192*%
%ADD74R,0.0008X0.0136*%
%ADD75R,0.0008X0.0192*%
%ADD76R,0.0008X0.0128*%
%ADD77R,0.0008X0.0008*%
%ADD78R,0.0008X0.0128*%
%ADD79R,0.0008X0.0088*%
%ADD80R,0.0008X0.0088*%
%ADD81R,0.0008X0.0080*%
%ADD82R,0.0008X0.0104*%
%ADD83R,0.0008X0.0064*%
%ADD84R,0.0008X0.0032*%
%ADD85R,0.0008X0.0152*%
%ADD86R,0.0008X0.0200*%
%ADD87R,0.0008X0.0208*%
%ADD88R,0.0008X0.0216*%
%ADD89R,0.0008X0.0216*%
%ADD90R,0.0008X0.0224*%
%ADD91R,0.0008X0.0216*%
%ADD92R,0.0008X0.0216*%
%ADD93R,0.0008X0.0224*%
%ADD94R,0.0008X0.0168*%
%ADD95R,0.0008X0.0168*%
%ADD96R,0.0008X0.0024*%
%ADD97R,0.0008X0.0224*%
%ADD98R,0.0008X0.0064*%
%ADD99R,0.0008X0.0048*%
%ADD100R,0.0008X0.0208*%
%ADD101R,0.0008X0.0224*%
%ADD102R,0.0008X0.0232*%
%ADD103R,0.0008X0.0240*%
%ADD104R,0.0008X0.0248*%
%ADD105R,0.0008X0.0248*%
%ADD106R,0.0008X0.0256*%
%ADD107R,0.0008X0.0256*%
%ADD108R,0.0008X0.0256*%
%ADD109R,0.0008X0.0248*%
%ADD110R,0.0008X0.0208*%
%ADD111R,0.0008X0.0200*%
%ADD112R,0.0008X0.0176*%
%ADD113R,0.0008X0.0168*%
%ADD114R,0.0008X0.0152*%
%ADD115R,0.0008X0.0248*%
%ADD116R,0.0008X0.0064*%
%ADD117R,0.0008X0.0256*%
%ADD118R,0.0008X0.0048*%
%ADD119R,0.0008X0.0168*%
%ADD120R,0.0008X0.0232*%
%ADD121R,0.0008X0.0272*%
%ADD122R,0.0008X0.0280*%
%ADD123R,0.0008X0.0288*%
%ADD124R,0.0008X0.0304*%
%ADD125R,0.0008X0.0312*%
%ADD126R,0.0008X0.0328*%
%ADD127R,0.0008X0.0240*%
%ADD128R,0.0008X0.0336*%
%ADD129R,0.0008X0.0352*%
%ADD130R,0.0008X0.0360*%
%ADD131R,0.0008X0.0376*%
%ADD132R,0.0008X0.0384*%
%ADD133R,0.0008X0.0392*%
%ADD134R,0.0008X0.0408*%
%ADD135R,0.0008X0.0416*%
%ADD136R,0.0008X0.0432*%
%ADD137R,0.0008X0.0440*%
%ADD138R,0.0008X0.0456*%
%ADD139R,0.0008X0.0464*%
%ADD140R,0.0008X0.0480*%
%ADD141R,0.0008X0.0488*%
%ADD142R,0.0008X0.0496*%
%ADD143R,0.0008X0.0512*%
%ADD144R,0.0008X0.0520*%
%ADD145R,0.0008X0.0536*%
%ADD146R,0.0008X0.0544*%
%ADD147R,0.0008X0.0560*%
%ADD148R,0.0008X0.0568*%
%ADD149R,0.0008X0.0016*%
%ADD150R,0.0008X0.0576*%
%ADD151R,0.0008X0.0592*%
%ADD152R,0.0008X0.0600*%
%ADD153R,0.0008X0.0616*%
%ADD154R,0.0008X0.0624*%
%ADD155R,0.0008X0.0640*%
%ADD156R,0.0008X0.0648*%
%ADD157R,0.0008X0.0664*%
%ADD158R,0.0008X0.0672*%
%ADD159R,0.0008X0.0680*%
%ADD160R,0.0008X0.0696*%
%ADD161R,0.0008X0.0704*%
%ADD162R,0.0008X0.0720*%
%ADD163R,0.0008X0.0728*%
%ADD164R,0.0008X0.0744*%
%ADD165R,0.0008X0.0752*%
%ADD166R,0.0008X0.0768*%
%ADD167R,0.0008X0.0776*%
%ADD168R,0.0008X0.0784*%
%ADD169R,0.0008X0.0800*%
%ADD170R,0.0008X0.0808*%
%ADD171R,0.0008X0.0824*%
%ADD172R,0.0008X0.0832*%
%ADD173R,0.0008X0.0840*%
%ADD174R,0.0008X0.0856*%
%ADD175R,0.0008X0.0856*%
%ADD176R,0.0008X0.0864*%
%ADD177R,0.0008X0.0864*%
%ADD178R,0.0008X0.0872*%
%ADD179R,0.0008X0.0872*%
%ADD180R,0.0008X0.0304*%
%ADD181R,0.0008X0.0208*%
%ADD182R,0.0008X0.0560*%
%ADD183R,0.0008X0.0352*%
%ADD184R,0.0008X0.0344*%
%ADD185R,0.0008X0.0368*%
%ADD186R,0.0008X0.0384*%
%ADD187R,0.0008X0.0400*%
%ADD188R,0.0008X0.0408*%
%ADD189R,0.0008X0.0344*%
%ADD190R,0.0008X0.0072*%
%ADD191R,0.0008X0.0072*%
%ADD192R,0.0008X0.0264*%
%ADD193R,0.0008X0.0264*%
%ADD194R,0.0008X0.0448*%
%ADD195R,0.0008X0.0448*%
%ADD196R,0.0008X0.0424*%
%ADD197R,0.0008X0.0424*%
%ADD198R,0.0008X0.0360*%
%ADD199R,0.0008X0.0328*%
%ADD200R,0.0008X0.0272*%
%ADD201R,0.0008X0.0320*%
%ADD202R,0.0008X0.0336*%
%ADD203R,0.0008X0.0288*%
%ADD204R,0.0008X0.0296*%
%ADD205R,0.0008X0.0320*%
%ADD206R,0.0008X0.0264*%
%ADD207R,0.0008X0.0280*%
%ADD208R,0.0008X0.0368*%
%ADD209R,0.0008X0.0384*%
%ADD210R,0.0008X0.0392*%
%ADD211R,0.0008X0.0232*%
%ADD212R,0.0008X0.0232*%
%ADD213R,0.0008X0.0416*%
%ADD214R,0.0008X0.0400*%
%ADD215R,0.0008X0.0552*%
%ADD216R,0.0008X0.0552*%
%ADD217R,0.0008X0.0544*%
%ADD218R,0.0008X0.0544*%
%ADD219R,0.0008X0.0528*%
%ADD220R,0.0008X0.0344*%
%ADD221R,0.0008X0.0392*%
%ADD222R,0.0008X0.0352*%
%ADD223R,0.0008X0.0352*%
%ADD224R,0.0008X0.0272*%
%ADD225R,0.0008X0.0328*%
%ADD226R,0.0008X0.0528*%
%ADD227R,0.0008X0.0096*%
%ADD228R,0.0008X0.0152*%
%ADD229R,0.0008X0.0384*%
%ADD230R,0.0008X0.0368*%
%ADD231R,0.0008X0.0304*%
%ADD232R,0.0008X0.0344*%
%ADD233R,0.0008X0.0288*%
%ADD234R,0.0008X0.0312*%
%ADD235R,0.0008X0.0104*%
%ADD236R,0.0008X0.0272*%
%ADD237R,0.0008X0.0376*%
%ADD238R,0.0008X0.0392*%
%ADD239R,0.0008X0.0312*%
%ADD240R,0.0008X0.0328*%
%ADD241R,0.0008X0.0368*%
%ADD242R,0.0008X0.0432*%
%ADD243R,0.0008X0.0312*%
%ADD244R,0.0008X0.0296*%
%ADD245R,0.0008X0.0376*%
%ADD246R,0.0008X0.0416*%
%ADD247R,0.0008X0.0424*%
%ADD248R,0.0008X0.0408*%
%ADD249R,0.0008X0.0424*%
%ADD250R,0.0008X0.0416*%
%ADD251R,0.0008X0.0848*%
%ADD252R,0.0008X0.0840*%
%ADD253R,0.0008X0.0824*%
%ADD254R,0.0008X0.0816*%
%ADD255R,0.0008X0.0808*%
%ADD256R,0.0008X0.0784*%
%ADD257R,0.0008X0.0768*%
%ADD258R,0.0008X0.0760*%
%ADD259R,0.0008X0.0752*%
%ADD260R,0.0008X0.0744*%
%ADD261R,0.0008X0.0736*%
%ADD262R,0.0008X0.0728*%
%ADD263R,0.0008X0.0688*%
%ADD264R,0.0008X0.0680*%
%ADD265R,0.0008X0.0664*%
%ADD266R,0.0008X0.0656*%
%ADD267R,0.0008X0.0640*%
%ADD268R,0.0008X0.0632*%
%ADD269R,0.0008X0.0624*%
%ADD270R,0.0008X0.0616*%
%ADD271R,0.0008X0.0608*%
%ADD272R,0.0008X0.0600*%
%ADD273R,0.0008X0.0584*%
%ADD274R,0.0008X0.0568*%
%ADD275R,0.0008X0.0536*%
%ADD276R,0.0008X0.0520*%
%ADD277R,0.0008X0.0504*%
%ADD278R,0.0008X0.0504*%
%ADD279R,0.0008X0.0488*%
%ADD280R,0.0008X0.0472*%
%ADD281R,0.0008X0.0456*%
%ADD282R,0.0008X0.0440*%
%ADD283R,0.0008X0.0032*%
%ADD284R,0.0008X0.0008*%
D10*
X005729Y003024D02*
X005729Y030339D01*
X021839Y030339D01*
X021819Y003024D01*
X005729Y003024D01*
X006524Y008099D02*
X006526Y008149D01*
X006532Y008199D01*
X006542Y008248D01*
X006556Y008296D01*
X006573Y008343D01*
X006594Y008388D01*
X006619Y008432D01*
X006647Y008473D01*
X006679Y008512D01*
X006713Y008549D01*
X006750Y008583D01*
X006790Y008613D01*
X006832Y008640D01*
X006876Y008664D01*
X006922Y008685D01*
X006969Y008701D01*
X007017Y008714D01*
X007067Y008723D01*
X007116Y008728D01*
X007167Y008729D01*
X007217Y008726D01*
X007266Y008719D01*
X007315Y008708D01*
X007363Y008693D01*
X007409Y008675D01*
X007454Y008653D01*
X007497Y008627D01*
X007538Y008598D01*
X007577Y008566D01*
X007613Y008531D01*
X007645Y008493D01*
X007675Y008453D01*
X007702Y008410D01*
X007725Y008366D01*
X007744Y008320D01*
X007760Y008272D01*
X007772Y008223D01*
X007780Y008174D01*
X007784Y008124D01*
X007784Y008074D01*
X007780Y008024D01*
X007772Y007975D01*
X007760Y007926D01*
X007744Y007878D01*
X007725Y007832D01*
X007702Y007788D01*
X007675Y007745D01*
X007645Y007705D01*
X007613Y007667D01*
X007577Y007632D01*
X007538Y007600D01*
X007497Y007571D01*
X007454Y007545D01*
X007409Y007523D01*
X007363Y007505D01*
X007315Y007490D01*
X007266Y007479D01*
X007217Y007472D01*
X007167Y007469D01*
X007116Y007470D01*
X007067Y007475D01*
X007017Y007484D01*
X006969Y007497D01*
X006922Y007513D01*
X006876Y007534D01*
X006832Y007558D01*
X006790Y007585D01*
X006750Y007615D01*
X006713Y007649D01*
X006679Y007686D01*
X006647Y007725D01*
X006619Y007766D01*
X006594Y007810D01*
X006573Y007855D01*
X006556Y007902D01*
X006542Y007950D01*
X006532Y007999D01*
X006526Y008049D01*
X006524Y008099D01*
X013355Y005552D02*
X013357Y005578D01*
X013363Y005604D01*
X013373Y005629D01*
X013386Y005652D01*
X013402Y005672D01*
X013422Y005690D01*
X013444Y005705D01*
X013467Y005717D01*
X013493Y005725D01*
X013519Y005729D01*
X013545Y005729D01*
X013571Y005725D01*
X013597Y005717D01*
X013621Y005705D01*
X013642Y005690D01*
X013662Y005672D01*
X013678Y005652D01*
X013691Y005629D01*
X013701Y005604D01*
X013707Y005578D01*
X013709Y005552D01*
X013707Y005526D01*
X013701Y005500D01*
X013691Y005475D01*
X013678Y005452D01*
X013662Y005432D01*
X013642Y005414D01*
X013620Y005399D01*
X013597Y005387D01*
X013571Y005379D01*
X013545Y005375D01*
X013519Y005375D01*
X013493Y005379D01*
X013467Y005387D01*
X013443Y005399D01*
X013422Y005414D01*
X013402Y005432D01*
X013386Y005452D01*
X013373Y005475D01*
X013363Y005500D01*
X013357Y005526D01*
X013355Y005552D01*
X014733Y005552D02*
X014735Y005578D01*
X014741Y005604D01*
X014751Y005629D01*
X014764Y005652D01*
X014780Y005672D01*
X014800Y005690D01*
X014822Y005705D01*
X014845Y005717D01*
X014871Y005725D01*
X014897Y005729D01*
X014923Y005729D01*
X014949Y005725D01*
X014975Y005717D01*
X014999Y005705D01*
X015020Y005690D01*
X015040Y005672D01*
X015056Y005652D01*
X015069Y005629D01*
X015079Y005604D01*
X015085Y005578D01*
X015087Y005552D01*
X015085Y005526D01*
X015079Y005500D01*
X015069Y005475D01*
X015056Y005452D01*
X015040Y005432D01*
X015020Y005414D01*
X014998Y005399D01*
X014975Y005387D01*
X014949Y005379D01*
X014923Y005375D01*
X014897Y005375D01*
X014871Y005379D01*
X014845Y005387D01*
X014821Y005399D01*
X014800Y005414D01*
X014780Y005432D01*
X014764Y005452D01*
X014751Y005475D01*
X014741Y005500D01*
X014735Y005526D01*
X014733Y005552D01*
X017237Y008910D02*
X017239Y008960D01*
X017245Y009010D01*
X017255Y009059D01*
X017269Y009107D01*
X017286Y009154D01*
X017307Y009199D01*
X017332Y009243D01*
X017360Y009284D01*
X017392Y009323D01*
X017426Y009360D01*
X017463Y009394D01*
X017503Y009424D01*
X017545Y009451D01*
X017589Y009475D01*
X017635Y009496D01*
X017682Y009512D01*
X017730Y009525D01*
X017780Y009534D01*
X017829Y009539D01*
X017880Y009540D01*
X017930Y009537D01*
X017979Y009530D01*
X018028Y009519D01*
X018076Y009504D01*
X018122Y009486D01*
X018167Y009464D01*
X018210Y009438D01*
X018251Y009409D01*
X018290Y009377D01*
X018326Y009342D01*
X018358Y009304D01*
X018388Y009264D01*
X018415Y009221D01*
X018438Y009177D01*
X018457Y009131D01*
X018473Y009083D01*
X018485Y009034D01*
X018493Y008985D01*
X018497Y008935D01*
X018497Y008885D01*
X018493Y008835D01*
X018485Y008786D01*
X018473Y008737D01*
X018457Y008689D01*
X018438Y008643D01*
X018415Y008599D01*
X018388Y008556D01*
X018358Y008516D01*
X018326Y008478D01*
X018290Y008443D01*
X018251Y008411D01*
X018210Y008382D01*
X018167Y008356D01*
X018122Y008334D01*
X018076Y008316D01*
X018028Y008301D01*
X017979Y008290D01*
X017930Y008283D01*
X017880Y008280D01*
X017829Y008281D01*
X017780Y008286D01*
X017730Y008295D01*
X017682Y008308D01*
X017635Y008324D01*
X017589Y008345D01*
X017545Y008369D01*
X017503Y008396D01*
X017463Y008426D01*
X017426Y008460D01*
X017392Y008497D01*
X017360Y008536D01*
X017332Y008577D01*
X017307Y008621D01*
X017286Y008666D01*
X017269Y008713D01*
X017255Y008761D01*
X017245Y008810D01*
X017239Y008860D01*
X017237Y008910D01*
X018091Y028867D02*
X018093Y028917D01*
X018099Y028967D01*
X018109Y029016D01*
X018123Y029064D01*
X018140Y029111D01*
X018161Y029156D01*
X018186Y029200D01*
X018214Y029241D01*
X018246Y029280D01*
X018280Y029317D01*
X018317Y029351D01*
X018357Y029381D01*
X018399Y029408D01*
X018443Y029432D01*
X018489Y029453D01*
X018536Y029469D01*
X018584Y029482D01*
X018634Y029491D01*
X018683Y029496D01*
X018734Y029497D01*
X018784Y029494D01*
X018833Y029487D01*
X018882Y029476D01*
X018930Y029461D01*
X018976Y029443D01*
X019021Y029421D01*
X019064Y029395D01*
X019105Y029366D01*
X019144Y029334D01*
X019180Y029299D01*
X019212Y029261D01*
X019242Y029221D01*
X019269Y029178D01*
X019292Y029134D01*
X019311Y029088D01*
X019327Y029040D01*
X019339Y028991D01*
X019347Y028942D01*
X019351Y028892D01*
X019351Y028842D01*
X019347Y028792D01*
X019339Y028743D01*
X019327Y028694D01*
X019311Y028646D01*
X019292Y028600D01*
X019269Y028556D01*
X019242Y028513D01*
X019212Y028473D01*
X019180Y028435D01*
X019144Y028400D01*
X019105Y028368D01*
X019064Y028339D01*
X019021Y028313D01*
X018976Y028291D01*
X018930Y028273D01*
X018882Y028258D01*
X018833Y028247D01*
X018784Y028240D01*
X018734Y028237D01*
X018683Y028238D01*
X018634Y028243D01*
X018584Y028252D01*
X018536Y028265D01*
X018489Y028281D01*
X018443Y028302D01*
X018399Y028326D01*
X018357Y028353D01*
X018317Y028383D01*
X018280Y028417D01*
X018246Y028454D01*
X018214Y028493D01*
X018186Y028534D01*
X018161Y028578D01*
X018140Y028623D01*
X018123Y028670D01*
X018109Y028718D01*
X018099Y028767D01*
X018093Y028817D01*
X018091Y028867D01*
X006744Y028867D02*
X006746Y028917D01*
X006752Y028967D01*
X006762Y029016D01*
X006776Y029064D01*
X006793Y029111D01*
X006814Y029156D01*
X006839Y029200D01*
X006867Y029241D01*
X006899Y029280D01*
X006933Y029317D01*
X006970Y029351D01*
X007010Y029381D01*
X007052Y029408D01*
X007096Y029432D01*
X007142Y029453D01*
X007189Y029469D01*
X007237Y029482D01*
X007287Y029491D01*
X007336Y029496D01*
X007387Y029497D01*
X007437Y029494D01*
X007486Y029487D01*
X007535Y029476D01*
X007583Y029461D01*
X007629Y029443D01*
X007674Y029421D01*
X007717Y029395D01*
X007758Y029366D01*
X007797Y029334D01*
X007833Y029299D01*
X007865Y029261D01*
X007895Y029221D01*
X007922Y029178D01*
X007945Y029134D01*
X007964Y029088D01*
X007980Y029040D01*
X007992Y028991D01*
X008000Y028942D01*
X008004Y028892D01*
X008004Y028842D01*
X008000Y028792D01*
X007992Y028743D01*
X007980Y028694D01*
X007964Y028646D01*
X007945Y028600D01*
X007922Y028556D01*
X007895Y028513D01*
X007865Y028473D01*
X007833Y028435D01*
X007797Y028400D01*
X007758Y028368D01*
X007717Y028339D01*
X007674Y028313D01*
X007629Y028291D01*
X007583Y028273D01*
X007535Y028258D01*
X007486Y028247D01*
X007437Y028240D01*
X007387Y028237D01*
X007336Y028238D01*
X007287Y028243D01*
X007237Y028252D01*
X007189Y028265D01*
X007142Y028281D01*
X007096Y028302D01*
X007052Y028326D01*
X007010Y028353D01*
X006970Y028383D01*
X006933Y028417D01*
X006899Y028454D01*
X006867Y028493D01*
X006839Y028534D01*
X006814Y028578D01*
X006793Y028623D01*
X006776Y028670D01*
X006762Y028718D01*
X006752Y028767D01*
X006746Y028817D01*
X006744Y028867D01*
D11*
X006820Y027831D02*
X006764Y027801D01*
X006707Y027775D01*
X006648Y027751D01*
X006588Y027730D01*
X006527Y027712D01*
X006465Y027698D01*
X006403Y027686D01*
X006340Y027678D01*
X006277Y027673D01*
X006214Y027672D01*
X006150Y027674D01*
X006132Y027677D01*
X006113Y027683D01*
X006097Y027693D01*
X006082Y027706D01*
X006071Y027721D01*
X006062Y027738D01*
X006057Y027757D01*
X006055Y027776D01*
X006057Y027795D01*
X006062Y027813D01*
X006071Y027830D01*
X006083Y027845D01*
X006098Y027858D01*
X006115Y027867D01*
X006133Y027873D01*
X006152Y027876D01*
X006171Y027875D01*
X006190Y027870D01*
X006189Y027870D02*
X006175Y027871D01*
X006161Y027869D01*
X006148Y027863D01*
X006136Y027855D01*
X006127Y027844D01*
X006121Y027832D01*
X006117Y027818D01*
X006117Y027804D01*
X006121Y027790D01*
X006127Y027778D01*
X006136Y027767D01*
X006148Y027759D01*
X006161Y027753D01*
X006175Y027751D01*
X006189Y027752D01*
X006819Y027831D02*
X006855Y027851D01*
X006892Y027868D01*
X006931Y027882D01*
X006971Y027892D01*
X007011Y027898D01*
X007053Y027901D01*
X007094Y027900D01*
X007135Y027896D01*
X007175Y027888D01*
X007214Y027876D01*
X007253Y027861D01*
X007289Y027843D01*
X007324Y027821D01*
X007357Y027797D01*
X007388Y027769D01*
X007416Y027739D01*
X007442Y027707D01*
X007464Y027672D01*
X007483Y027636D01*
X007499Y027598D01*
X007512Y027559D01*
X007521Y027519D01*
X007526Y027478D01*
X007528Y027437D01*
X007528Y027398D01*
X007764Y027398D02*
X007764Y027437D01*
X007762Y027486D01*
X007756Y027534D01*
X007747Y027582D01*
X007734Y027629D01*
X007717Y027675D01*
X007697Y027720D01*
X007674Y027763D01*
X007647Y027804D01*
X007617Y027842D01*
X007584Y027879D01*
X007549Y027912D01*
X007511Y027943D01*
X007471Y027971D01*
X007429Y027996D01*
X007385Y028017D01*
X007339Y028035D01*
X007292Y028049D01*
X007245Y028060D01*
X007196Y028067D01*
X007147Y028070D01*
X007099Y028069D01*
X007050Y028065D01*
X007002Y028057D01*
X006954Y028045D01*
X006908Y028029D01*
X006863Y028010D01*
X006819Y027988D01*
X008158Y025154D02*
X008102Y025062D01*
X008042Y024972D01*
X007978Y024885D01*
X007910Y024801D01*
X007839Y024720D01*
X007765Y024642D01*
X007725Y024681D02*
X007646Y024681D01*
X007567Y024760D02*
X007685Y024918D01*
X007489Y024918D01*
X007449Y024918D02*
X007567Y024760D01*
X007370Y024642D02*
X007388Y024620D01*
X007408Y024599D01*
X007431Y024581D01*
X007456Y024566D01*
X007482Y024555D01*
X007510Y024546D01*
X007538Y024541D01*
X007567Y024539D01*
X007596Y024541D01*
X007624Y024546D01*
X007652Y024555D01*
X007678Y024566D01*
X007703Y024581D01*
X007726Y024599D01*
X007746Y024620D01*
X007764Y024642D01*
X007764Y024800D02*
X007804Y024800D01*
X007843Y024918D02*
X007922Y024957D01*
X008158Y025154D02*
X008433Y025626D01*
X008315Y025666D02*
X008350Y025658D01*
X008386Y025654D01*
X008422Y025654D01*
X008458Y025658D01*
X008493Y025666D01*
X008528Y025677D01*
X008560Y025692D01*
X008591Y025711D01*
X008620Y025733D01*
X008647Y025757D01*
X008670Y025784D01*
X008691Y025814D01*
X008708Y025846D01*
X008722Y025879D01*
X008732Y025914D01*
X008738Y025949D01*
X008741Y025985D01*
X008740Y026021D01*
X008735Y026057D01*
X008726Y026092D01*
X008713Y026126D01*
X008697Y026158D01*
X008677Y026188D01*
X008655Y026216D01*
X008629Y026242D01*
X008601Y026264D01*
X008571Y026284D01*
X008539Y026300D01*
X008505Y026313D01*
X008470Y026322D01*
X008434Y026327D01*
X008398Y026328D01*
X008362Y026325D01*
X008327Y026319D01*
X008292Y026309D01*
X008259Y026295D01*
X008227Y026278D01*
X008197Y026257D01*
X008170Y026234D01*
X008146Y026207D01*
X008124Y026178D01*
X008105Y026147D01*
X008090Y026115D01*
X008079Y026080D01*
X008071Y026045D01*
X008067Y026009D01*
X008067Y025973D01*
X008071Y025937D01*
X008079Y025902D01*
X007693Y025548D02*
X007695Y025568D01*
X007700Y025588D01*
X007710Y025606D01*
X007722Y025623D01*
X007737Y025637D01*
X007755Y025647D01*
X007774Y025655D01*
X007794Y025659D01*
X007814Y025659D01*
X007834Y025655D01*
X007853Y025647D01*
X007871Y025637D01*
X007886Y025623D01*
X007898Y025606D01*
X007908Y025588D01*
X007913Y025568D01*
X007915Y025548D01*
X007913Y025528D01*
X007908Y025508D01*
X007898Y025490D01*
X007886Y025473D01*
X007871Y025459D01*
X007853Y025449D01*
X007834Y025441D01*
X007814Y025437D01*
X007794Y025437D01*
X007774Y025441D01*
X007755Y025449D01*
X007737Y025459D01*
X007722Y025473D01*
X007710Y025490D01*
X007700Y025508D01*
X007695Y025528D01*
X007693Y025548D01*
X007181Y025548D02*
X007183Y025568D01*
X007188Y025588D01*
X007198Y025606D01*
X007210Y025623D01*
X007225Y025637D01*
X007243Y025647D01*
X007262Y025655D01*
X007282Y025659D01*
X007302Y025659D01*
X007322Y025655D01*
X007341Y025647D01*
X007359Y025637D01*
X007374Y025623D01*
X007386Y025606D01*
X007396Y025588D01*
X007401Y025568D01*
X007403Y025548D01*
X007401Y025528D01*
X007396Y025508D01*
X007386Y025490D01*
X007374Y025473D01*
X007359Y025459D01*
X007341Y025449D01*
X007322Y025441D01*
X007302Y025437D01*
X007282Y025437D01*
X007262Y025441D01*
X007243Y025449D01*
X007225Y025459D01*
X007210Y025473D01*
X007198Y025490D01*
X007188Y025508D01*
X007183Y025528D01*
X007181Y025548D01*
X006977Y025154D02*
X006701Y025626D01*
X006819Y025666D02*
X006784Y025658D01*
X006748Y025654D01*
X006712Y025654D01*
X006676Y025658D01*
X006641Y025666D01*
X006606Y025677D01*
X006574Y025692D01*
X006543Y025711D01*
X006514Y025733D01*
X006487Y025757D01*
X006464Y025784D01*
X006443Y025814D01*
X006426Y025846D01*
X006412Y025879D01*
X006402Y025914D01*
X006396Y025949D01*
X006393Y025985D01*
X006394Y026021D01*
X006399Y026057D01*
X006408Y026092D01*
X006421Y026126D01*
X006437Y026158D01*
X006457Y026188D01*
X006479Y026216D01*
X006505Y026242D01*
X006533Y026264D01*
X006563Y026284D01*
X006595Y026300D01*
X006629Y026313D01*
X006664Y026322D01*
X006700Y026327D01*
X006736Y026328D01*
X006772Y026325D01*
X006807Y026319D01*
X006842Y026309D01*
X006875Y026295D01*
X006907Y026278D01*
X006937Y026257D01*
X006964Y026234D01*
X006988Y026207D01*
X007010Y026178D01*
X007029Y026147D01*
X007044Y026115D01*
X007055Y026080D01*
X007063Y026045D01*
X007067Y026009D01*
X007067Y025973D01*
X007063Y025937D01*
X007055Y025902D01*
X006505Y026217D02*
X006501Y026282D01*
X006500Y026346D01*
X006504Y026411D01*
X006511Y026475D01*
X006522Y026539D01*
X006537Y026602D01*
X006556Y026663D01*
X006578Y026724D01*
X006604Y026783D01*
X006633Y026841D01*
X006666Y026897D01*
X006702Y026950D01*
X006741Y027002D01*
X006783Y027051D01*
X006828Y027097D01*
X006876Y027141D01*
X006926Y027182D01*
X006978Y027220D01*
X007033Y027254D01*
X007089Y027285D01*
X007148Y027313D01*
X007207Y027338D01*
X007269Y027358D01*
X007331Y027375D01*
X007394Y027389D01*
X007458Y027398D01*
X007522Y027404D01*
X007587Y027406D01*
X007652Y027404D01*
X007716Y027398D01*
X007780Y027389D01*
X007843Y027375D01*
X007905Y027358D01*
X007967Y027338D01*
X008026Y027313D01*
X008085Y027285D01*
X008141Y027254D01*
X008196Y027220D01*
X008248Y027182D01*
X008298Y027141D01*
X008346Y027097D01*
X008391Y027051D01*
X008433Y027002D01*
X008472Y026950D01*
X008508Y026897D01*
X008541Y026841D01*
X008570Y026783D01*
X008596Y026724D01*
X008618Y026663D01*
X008637Y026602D01*
X008652Y026539D01*
X008663Y026475D01*
X008670Y026411D01*
X008674Y026346D01*
X008673Y026282D01*
X008669Y026217D01*
X006977Y025154D02*
X007033Y025062D01*
X007093Y024972D01*
X007157Y024885D01*
X007225Y024801D01*
X007296Y024720D01*
X007370Y024642D01*
X007410Y024681D02*
X007489Y024681D01*
X007370Y024800D02*
X007331Y024800D01*
X007292Y024918D02*
X007213Y024957D01*
X007410Y024681D02*
X007375Y024679D01*
X007340Y024674D01*
X007306Y024666D01*
X007273Y024654D01*
X007242Y024639D01*
X007211Y024621D01*
X007183Y024600D01*
X007157Y024576D01*
X007134Y024550D01*
X007113Y024522D01*
X007095Y024491D01*
X007080Y024460D01*
X007069Y024427D01*
X007060Y024392D01*
X007056Y024358D01*
X007054Y024323D01*
X007056Y024288D01*
X007213Y024957D02*
X007166Y024978D01*
X007117Y024997D01*
X007067Y025012D01*
X007016Y025023D01*
X006965Y025030D01*
X006912Y025034D01*
X006860Y025035D01*
X006808Y025031D01*
X006757Y025024D01*
X006706Y025014D01*
X006655Y024999D01*
X006606Y024982D01*
X006559Y024961D01*
X006512Y024936D01*
X006468Y024909D01*
X006426Y024878D01*
X006815Y024013D02*
X006795Y023990D01*
X006772Y023970D01*
X006746Y023953D01*
X006719Y023940D01*
X006690Y023930D01*
X006660Y023923D01*
X006630Y023920D01*
X006599Y023921D01*
X006569Y023926D01*
X006540Y023934D01*
X006540Y023933D02*
X006146Y023815D01*
X006776Y023658D01*
X006760Y023639D01*
X006746Y023618D01*
X006736Y023595D01*
X006730Y023571D01*
X006727Y023546D01*
X006728Y023521D01*
X006733Y023497D01*
X006741Y023473D01*
X006753Y023451D01*
X006767Y023431D01*
X006785Y023413D01*
X006805Y023399D01*
X006827Y023387D01*
X006851Y023379D01*
X006875Y023374D01*
X006900Y023373D01*
X006925Y023376D01*
X006949Y023382D01*
X006972Y023392D01*
X006993Y023406D01*
X007012Y023422D01*
X007012Y023185D01*
X006146Y023461D01*
X006146Y023815D01*
X006304Y023421D02*
X006312Y023439D01*
X006324Y023454D01*
X006339Y023467D01*
X006356Y023477D01*
X006374Y023484D01*
X006393Y023488D01*
X006413Y023487D01*
X006432Y023484D01*
X006450Y023476D01*
X006467Y023466D01*
X006481Y023453D01*
X006493Y023437D01*
X006501Y023419D01*
X006506Y023400D01*
X006508Y023381D01*
X006506Y023361D01*
X006500Y023343D01*
X006776Y023658D02*
X006791Y023678D01*
X006808Y023696D01*
X006828Y023711D01*
X006850Y023724D01*
X006873Y023733D01*
X006898Y023739D01*
X006923Y023742D01*
X006948Y023741D01*
X006973Y023737D01*
X006933Y024052D01*
X006815Y024012D01*
X006972Y023737D02*
X006964Y023697D01*
X006960Y023657D01*
X006959Y023616D01*
X006962Y023576D01*
X006969Y023536D01*
X006980Y023497D01*
X006994Y023458D01*
X007012Y023422D01*
X006583Y024642D02*
X006662Y024674D01*
X006743Y024703D01*
X006824Y024728D01*
X006907Y024750D01*
X006991Y024768D01*
X007075Y024781D01*
X007160Y024791D01*
X007245Y024797D01*
X007331Y024799D01*
X007725Y024681D02*
X007760Y024679D01*
X007795Y024674D01*
X007829Y024666D01*
X007862Y024654D01*
X007893Y024639D01*
X007924Y024621D01*
X007952Y024600D01*
X007978Y024576D01*
X008001Y024550D01*
X008022Y024522D01*
X008040Y024491D01*
X008055Y024460D01*
X008066Y024427D01*
X008075Y024392D01*
X008079Y024358D01*
X008081Y024323D01*
X008079Y024288D01*
X007922Y024957D02*
X007969Y024978D01*
X008018Y024997D01*
X008068Y025012D01*
X008119Y025023D01*
X008170Y025030D01*
X008223Y025034D01*
X008275Y025035D01*
X008327Y025031D01*
X008378Y025024D01*
X008429Y025014D01*
X008480Y024999D01*
X008529Y024982D01*
X008576Y024961D01*
X008623Y024936D01*
X008667Y024909D01*
X008709Y024878D01*
X009533Y025659D02*
X009535Y025684D01*
X009541Y025708D01*
X009550Y025731D01*
X009563Y025752D01*
X009580Y025771D01*
X009599Y025788D01*
X009620Y025801D01*
X009643Y025810D01*
X009667Y025816D01*
X009692Y025818D01*
X009717Y025816D01*
X009741Y025810D01*
X009764Y025801D01*
X009785Y025788D01*
X009804Y025771D01*
X009821Y025752D01*
X009834Y025731D01*
X009843Y025708D01*
X009849Y025684D01*
X009851Y025659D01*
X009849Y025634D01*
X009843Y025610D01*
X009834Y025587D01*
X009821Y025566D01*
X009804Y025547D01*
X009785Y025530D01*
X009764Y025517D01*
X009741Y025508D01*
X009717Y025502D01*
X009692Y025500D01*
X009667Y025502D01*
X009643Y025508D01*
X009620Y025517D01*
X009599Y025530D01*
X009580Y025547D01*
X009563Y025566D01*
X009550Y025587D01*
X009541Y025610D01*
X009535Y025634D01*
X009533Y025659D01*
X008552Y024642D02*
X008473Y024674D01*
X008392Y024703D01*
X008311Y024728D01*
X008228Y024750D01*
X008144Y024768D01*
X008060Y024781D01*
X007975Y024791D01*
X007890Y024797D01*
X007804Y024799D01*
X010302Y028967D02*
X011286Y030333D01*
X013767Y030333D01*
X014751Y028967D01*
X014751Y030333D01*
X014751Y031404D01*
X010302Y031404D01*
X010302Y030333D01*
X010302Y028967D01*
X010302Y030333D02*
X011286Y030333D01*
X011739Y030333D02*
X011737Y030281D01*
X011731Y030230D01*
X011722Y030179D01*
X011709Y030129D01*
X011692Y030080D01*
X011672Y030032D01*
X011648Y029986D01*
X011621Y029942D01*
X011591Y029900D01*
X011558Y029860D01*
X011522Y029823D01*
X011484Y029788D01*
X011443Y029756D01*
X011399Y029728D01*
X011354Y029702D01*
X011307Y029680D01*
X011259Y029662D01*
X011209Y029647D01*
X011159Y029636D01*
X011108Y029628D01*
X011056Y029624D01*
X011004Y029624D01*
X010952Y029628D01*
X010901Y029636D01*
X010851Y029647D01*
X010801Y029662D01*
X010753Y029680D01*
X010706Y029702D01*
X010661Y029728D01*
X010617Y029756D01*
X010576Y029788D01*
X010538Y029823D01*
X010502Y029860D01*
X010469Y029900D01*
X010439Y029942D01*
X010412Y029986D01*
X010388Y030032D01*
X010368Y030080D01*
X010351Y030129D01*
X010338Y030179D01*
X010329Y030230D01*
X010323Y030281D01*
X010321Y030333D01*
X009908Y031404D02*
X009908Y032915D01*
X010302Y032915D01*
X010302Y033506D01*
X010302Y032915D02*
X014751Y032915D01*
X014751Y033506D01*
X014751Y032915D02*
X015144Y032915D01*
X015144Y031404D01*
X009908Y031404D01*
X009908Y033506D02*
X010125Y037848D01*
X010124Y037848D02*
X010126Y037915D01*
X010132Y037981D01*
X010141Y038047D01*
X010155Y038112D01*
X010172Y038177D01*
X010193Y038240D01*
X010218Y038302D01*
X010246Y038362D01*
X010278Y038421D01*
X010313Y038478D01*
X010351Y038532D01*
X010392Y038585D01*
X010436Y038634D01*
X010484Y038682D01*
X010533Y038726D01*
X010586Y038767D01*
X010640Y038805D01*
X010697Y038840D01*
X010756Y038872D01*
X010816Y038900D01*
X010878Y038925D01*
X010941Y038946D01*
X011006Y038963D01*
X011071Y038977D01*
X011137Y038986D01*
X011203Y038992D01*
X011270Y038994D01*
X013782Y038994D01*
X013849Y038992D01*
X013915Y038986D01*
X013981Y038977D01*
X014046Y038963D01*
X014111Y038946D01*
X014174Y038925D01*
X014236Y038900D01*
X014296Y038872D01*
X014355Y038840D01*
X014412Y038805D01*
X014466Y038767D01*
X014519Y038726D01*
X014568Y038682D01*
X014616Y038634D01*
X014660Y038585D01*
X014701Y038532D01*
X014739Y038478D01*
X014774Y038421D01*
X014806Y038362D01*
X014834Y038302D01*
X014859Y038240D01*
X014880Y038177D01*
X014897Y038112D01*
X014911Y038047D01*
X014920Y037981D01*
X014926Y037915D01*
X014928Y037848D01*
X015144Y033506D01*
X009908Y033506D01*
X013767Y030333D02*
X014751Y030333D01*
X015420Y028470D02*
X015851Y028038D01*
X015921Y028252D02*
X015778Y028396D01*
X015778Y028540D01*
X015921Y028684D01*
X016065Y028684D01*
X016209Y028540D01*
X016209Y028396D01*
X016065Y028252D01*
X015921Y028252D01*
X016351Y028682D02*
X016135Y028898D01*
X016351Y028682D02*
X016495Y028682D01*
X016711Y028898D01*
X016423Y029185D01*
X016637Y029255D02*
X016637Y029399D01*
X016853Y029615D01*
X017067Y029685D02*
X017067Y029829D01*
X017211Y029973D01*
X017354Y029973D01*
X017426Y029901D01*
X017139Y029613D01*
X017211Y029541D02*
X017067Y029685D01*
X017211Y029541D02*
X017354Y029541D01*
X017498Y029685D01*
X017069Y029399D02*
X017069Y029255D01*
X016853Y029040D01*
X016781Y029255D02*
X016637Y029255D01*
X016781Y029255D02*
X016925Y029399D01*
X017069Y029399D01*
X015420Y028470D02*
X015420Y028182D01*
X015132Y028182D01*
X015564Y027750D01*
X015134Y027896D02*
X015062Y027824D01*
X015062Y027536D01*
X015206Y027392D02*
X014918Y027680D01*
X014848Y027466D02*
X014704Y027466D01*
X014560Y027322D01*
X014560Y027178D01*
X014704Y027034D01*
X014848Y027034D01*
X014992Y027178D01*
X014992Y027322D01*
X014848Y027466D01*
X014562Y026893D02*
X014274Y027180D01*
X014130Y027180D01*
X013914Y026965D01*
X014346Y026533D01*
X014562Y026749D01*
X014562Y026893D01*
X012969Y021772D02*
X012971Y021786D01*
X012976Y021798D01*
X012985Y021809D01*
X012997Y021817D01*
X013010Y021822D01*
X013023Y021823D01*
X013037Y021820D01*
X013049Y021814D01*
X013060Y021804D01*
X013067Y021792D01*
X013071Y021779D01*
X013071Y021765D01*
X013067Y021752D01*
X013060Y021740D01*
X013049Y021730D01*
X013037Y021724D01*
X013023Y021721D01*
X013010Y021722D01*
X012997Y021727D01*
X012985Y021735D01*
X012976Y021746D01*
X012971Y021758D01*
X012969Y021772D01*
X008008Y018654D02*
X008008Y016213D01*
X006355Y016213D01*
X006355Y018378D01*
X006630Y018654D01*
X008008Y018654D01*
X010911Y011534D02*
X010760Y011459D01*
X010610Y011309D01*
X010835Y011309D01*
X010911Y011234D01*
X010911Y011159D01*
X010835Y011084D01*
X010685Y011084D01*
X010610Y011159D01*
X010610Y011309D01*
X015610Y012884D02*
X015911Y012884D01*
X015760Y012884D02*
X015760Y013334D01*
X015610Y013184D01*
X020932Y016262D02*
X020932Y017062D01*
X021082Y017062D01*
X021082Y016262D01*
X020932Y016262D01*
X020932Y016265D02*
X021082Y016265D01*
X021082Y016313D02*
X020932Y016313D01*
X020932Y016362D02*
X021082Y016362D01*
X021082Y016410D02*
X020932Y016410D01*
X020932Y016459D02*
X021082Y016459D01*
X021082Y016507D02*
X020932Y016507D01*
X020932Y016556D02*
X021082Y016556D01*
X021082Y016604D02*
X020932Y016604D01*
X020932Y016653D02*
X021082Y016653D01*
X021082Y016701D02*
X020932Y016701D01*
X020932Y016750D02*
X021082Y016750D01*
X021082Y016798D02*
X020932Y016798D01*
X020932Y016847D02*
X021082Y016847D01*
X021082Y016895D02*
X020932Y016895D01*
X020932Y016944D02*
X021082Y016944D01*
X021082Y016992D02*
X020932Y016992D01*
X020932Y017041D02*
X021082Y017041D01*
X019729Y023457D02*
X019729Y024048D01*
X019926Y024048D02*
X019926Y024638D01*
X020122Y024835D02*
X020122Y025426D01*
X019926Y025229D02*
X019926Y025819D01*
X019729Y025819D02*
X019729Y026410D01*
X019335Y026607D02*
X019335Y026016D01*
X019532Y026016D02*
X019532Y025426D01*
X019532Y025032D02*
X019532Y024441D01*
X019335Y024441D02*
X019335Y024048D01*
X019138Y024048D02*
X019138Y023457D01*
X018744Y023654D02*
X018744Y024244D01*
X018941Y024244D02*
X018941Y024835D01*
X019138Y025032D02*
X019138Y025622D01*
X018941Y025819D02*
X018941Y026410D01*
X018744Y025819D02*
X018744Y025229D01*
X018548Y025229D02*
X018548Y024638D01*
X018548Y026016D02*
X018548Y026607D01*
X020122Y026607D02*
X020122Y026016D01*
X006820Y027989D02*
X006735Y027943D01*
X006648Y027901D01*
X006559Y027863D01*
X006469Y027830D01*
X006377Y027800D01*
X006284Y027774D01*
X006190Y027752D01*
D12*
X007713Y021733D02*
X008033Y021733D01*
X007713Y021733D02*
X007713Y021514D01*
X007713Y020833D02*
X007713Y020614D01*
X008033Y020614D01*
X010546Y012709D02*
X011046Y012709D01*
X011296Y012459D01*
X011546Y012709D01*
X012046Y012709D01*
X012296Y012459D01*
X012546Y012709D01*
X013046Y012709D01*
X013296Y012459D01*
X013546Y012709D01*
X014046Y012709D01*
X014296Y012459D01*
X014546Y012709D01*
X015046Y012709D01*
X015296Y012459D01*
X015546Y012709D01*
X016046Y012709D01*
X016296Y012459D01*
X016296Y011959D01*
X016046Y011709D01*
X015546Y011709D01*
X015296Y011959D01*
X015046Y011709D01*
X014546Y011709D01*
X014296Y011959D01*
X014046Y011709D01*
X013546Y011709D01*
X013296Y011959D01*
X013046Y011709D01*
X012546Y011709D01*
X012296Y011959D01*
X012046Y011709D01*
X011546Y011709D01*
X011296Y011959D01*
X011046Y011709D01*
X010546Y011709D01*
X010296Y011959D01*
X010296Y012459D01*
X010546Y012709D01*
X010024Y010048D02*
X009386Y010048D01*
X009386Y010011D01*
X009386Y009694D02*
X009386Y009283D01*
X009386Y008966D02*
X009386Y008929D01*
X010024Y008929D01*
X010024Y008966D01*
X010024Y009283D02*
X010024Y009320D01*
X010024Y009657D02*
X010024Y009694D01*
X010024Y010011D02*
X010024Y010048D01*
X012094Y008793D02*
X012094Y008473D01*
X012314Y008473D01*
X012994Y008473D02*
X013214Y008473D01*
X013214Y008793D01*
X013909Y008753D02*
X013909Y008433D01*
X014129Y008433D01*
X014809Y008433D02*
X015029Y008433D01*
X015029Y008753D01*
X016134Y008442D02*
X016311Y008265D01*
X016429Y008265D01*
X016664Y008501D01*
X016664Y008619D01*
X016488Y008796D01*
X016134Y008442D01*
X016557Y008136D02*
X016675Y008136D01*
X016852Y007959D01*
X016911Y008018D02*
X016734Y007841D01*
X016557Y008018D01*
X016557Y008136D01*
X016793Y008254D02*
X016911Y008136D01*
X016911Y008018D01*
X017099Y007949D02*
X016863Y007713D01*
X017099Y007949D02*
X017276Y007772D01*
X017276Y007654D01*
X017099Y007477D01*
X017228Y007348D02*
X017345Y007230D01*
X017286Y007289D02*
X017522Y007525D01*
X017463Y007584D01*
X017640Y007643D02*
X017699Y007702D01*
X017648Y007282D02*
X017530Y007164D01*
X017530Y007046D01*
X017648Y006928D01*
X017824Y006987D02*
X017589Y007223D01*
X017648Y007282D02*
X017765Y007282D01*
X017883Y007164D01*
X017883Y007046D01*
X017824Y006987D01*
X017835Y006740D02*
X017953Y006622D01*
X017894Y006681D02*
X018248Y007035D01*
X018189Y007094D01*
X018797Y006487D02*
X018974Y006310D01*
X018974Y006192D01*
X018856Y006074D01*
X018738Y006074D01*
X018561Y006251D01*
X018679Y006133D02*
X018679Y005897D01*
X018807Y005768D02*
X018925Y005650D01*
X018866Y005709D02*
X019102Y005945D01*
X019043Y006004D01*
X019220Y006063D02*
X019279Y006122D01*
X019227Y005702D02*
X019110Y005584D01*
X019110Y005466D01*
X019286Y005289D01*
X019415Y005160D02*
X019769Y005514D01*
X019710Y005337D02*
X019828Y005219D01*
X019828Y005101D01*
X019651Y004925D01*
X019780Y004796D02*
X020016Y005032D01*
X020075Y004973D01*
X020075Y004855D01*
X020193Y004855D01*
X020193Y004737D01*
X020016Y004560D01*
X019898Y004678D02*
X020075Y004855D01*
X020203Y004490D02*
X020321Y004490D01*
X020498Y004313D01*
X020557Y004372D02*
X020380Y004195D01*
X020203Y004372D01*
X020203Y004490D01*
X020439Y004608D02*
X020557Y004490D01*
X020557Y004372D01*
X020745Y004302D02*
X020509Y004067D01*
X020745Y004302D02*
X020922Y004126D01*
X020922Y004008D01*
X020745Y003831D01*
X020387Y003473D02*
X020210Y003650D01*
X020092Y003650D01*
X020092Y003532D01*
X020210Y003414D01*
X020210Y003296D01*
X020092Y003296D01*
X019915Y003473D01*
X019790Y003598D02*
X019790Y003716D01*
X020026Y003952D01*
X019908Y003952D02*
X020026Y003834D01*
X019781Y004078D02*
X019722Y004137D01*
X019486Y004137D01*
X019368Y004020D02*
X019604Y004255D01*
X019416Y004325D02*
X019357Y004266D01*
X019121Y004502D01*
X019062Y004443D02*
X019180Y004561D01*
X019298Y004561D01*
X019416Y004443D01*
X019416Y004325D01*
X019180Y004207D02*
X019062Y004325D01*
X019062Y004443D01*
X018934Y004572D02*
X019052Y004690D01*
X019052Y004808D01*
X018875Y004985D01*
X018993Y005103D02*
X018639Y004749D01*
X018816Y004572D01*
X018934Y004572D01*
X018569Y004936D02*
X018687Y005054D01*
X018687Y005172D01*
X018569Y005290D01*
X018451Y005290D01*
X018333Y005172D01*
X018333Y005054D01*
X018451Y004936D01*
X018569Y004936D01*
X018146Y005242D02*
X018146Y005478D01*
X018205Y005419D02*
X018028Y005596D01*
X017910Y005478D02*
X018264Y005832D01*
X018440Y005655D01*
X018440Y005537D01*
X018323Y005419D01*
X018205Y005419D01*
X018443Y006133D02*
X018797Y006487D01*
X019227Y005702D02*
X019345Y005702D01*
X019522Y005525D01*
X019592Y005337D02*
X019710Y005337D01*
X017593Y006148D02*
X017534Y006089D01*
X017298Y006325D01*
X017239Y006266D02*
X017357Y006384D01*
X017475Y006384D01*
X017593Y006266D01*
X017593Y006148D01*
X017357Y006030D02*
X017239Y006148D01*
X017239Y006266D01*
X017111Y006395D02*
X017229Y006513D01*
X017229Y006631D01*
X017111Y006749D01*
X016993Y006749D01*
X016875Y006631D01*
X016875Y006513D01*
X016993Y006395D01*
X017111Y006395D01*
X016687Y006818D02*
X016982Y007113D01*
X016923Y007172D02*
X017041Y007054D01*
X016687Y006818D02*
X016569Y006818D01*
X016510Y006877D01*
X016510Y006995D01*
D13*
X016150Y006495D02*
X016150Y006495D01*
X016149Y006508D01*
X016144Y006521D01*
X016137Y006533D01*
X016127Y006543D01*
X016115Y006550D01*
X016102Y006555D01*
X016089Y006556D01*
X015719Y006556D01*
X015719Y004475D01*
X016089Y004475D01*
X016089Y004476D02*
X016102Y004475D01*
X016115Y004470D01*
X016127Y004463D01*
X016137Y004453D01*
X016144Y004441D01*
X016149Y004428D01*
X016150Y004415D01*
X016150Y004414D02*
X016150Y004414D01*
X016148Y004399D01*
X016143Y004385D01*
X016136Y004373D01*
X016125Y004362D01*
X016113Y004355D01*
X016099Y004350D01*
X016084Y004348D01*
X016023Y004348D01*
X016006Y004346D01*
X015989Y004341D01*
X015974Y004333D01*
X015961Y004322D01*
X015950Y004309D01*
X015942Y004294D01*
X015937Y004277D01*
X015935Y004260D01*
X015935Y004249D01*
X015937Y004232D01*
X015942Y004215D01*
X015950Y004200D01*
X015961Y004187D01*
X015974Y004176D01*
X015989Y004168D01*
X016006Y004163D01*
X016023Y004161D01*
X016089Y004161D01*
X016103Y004159D01*
X016115Y004155D01*
X016127Y004148D01*
X016137Y004138D01*
X016144Y004126D01*
X016148Y004114D01*
X016150Y004100D01*
X016148Y004085D01*
X016143Y004071D01*
X016136Y004059D01*
X016125Y004048D01*
X016113Y004041D01*
X016099Y004036D01*
X016084Y004034D01*
X015742Y004034D01*
X015719Y004475D02*
X015719Y003051D01*
X012722Y003051D01*
X012722Y006556D01*
X013219Y006556D01*
X013219Y006555D02*
X013241Y006553D01*
X013263Y006548D01*
X013284Y006539D01*
X013303Y006528D01*
X013320Y006513D01*
X013335Y006496D01*
X013346Y006477D01*
X013355Y006456D01*
X013360Y006434D01*
X013362Y006412D01*
X013363Y006412D02*
X013363Y006203D01*
X013926Y005298D02*
X014505Y005298D01*
X014528Y005296D01*
X014549Y005291D01*
X014570Y005282D01*
X014590Y005270D01*
X014607Y005256D01*
X014621Y005239D01*
X014633Y005219D01*
X014642Y005198D01*
X014647Y005177D01*
X014649Y005154D01*
X014731Y003581D01*
X014729Y003568D01*
X014723Y003555D01*
X014714Y003544D01*
X014703Y003536D01*
X014690Y003531D01*
X014676Y003529D01*
X014662Y003531D01*
X014649Y003536D01*
X014638Y003544D01*
X014629Y003555D01*
X014623Y003568D01*
X014621Y003581D01*
X014566Y004779D01*
X014566Y004806D01*
X014564Y004830D01*
X014559Y004853D01*
X014551Y004875D01*
X014540Y004896D01*
X014525Y004915D01*
X014509Y004931D01*
X014490Y004946D01*
X014469Y004957D01*
X014447Y004965D01*
X014424Y004970D01*
X014400Y004972D01*
X014053Y004972D01*
X014029Y004970D01*
X014005Y004965D01*
X013982Y004957D01*
X013961Y004945D01*
X013941Y004930D01*
X013924Y004913D01*
X013909Y004893D01*
X013897Y004872D01*
X013889Y004849D01*
X013884Y004825D01*
X013882Y004801D01*
X013815Y003576D01*
X013816Y003575D02*
X013813Y003562D01*
X013807Y003549D01*
X013798Y003539D01*
X013787Y003531D01*
X013774Y003526D01*
X013760Y003525D01*
X013747Y003528D01*
X013734Y003534D01*
X013724Y003543D01*
X013716Y003554D01*
X013711Y003567D01*
X013710Y003581D01*
X013793Y005165D01*
X013795Y005186D01*
X013800Y005206D01*
X013808Y005225D01*
X013818Y005243D01*
X013832Y005259D01*
X013848Y005273D01*
X013866Y005283D01*
X013885Y005291D01*
X013905Y005296D01*
X013926Y005298D01*
X013556Y005121D02*
X013490Y003675D01*
X013490Y003658D01*
X013488Y003636D01*
X013483Y003615D01*
X013475Y003595D01*
X013464Y003577D01*
X013450Y003560D01*
X013433Y003546D01*
X013415Y003535D01*
X013395Y003527D01*
X013374Y003522D01*
X013352Y003520D01*
X012745Y003520D01*
X013159Y003796D02*
X013070Y005137D01*
X013068Y005149D01*
X013062Y005160D01*
X013054Y005169D01*
X013044Y005176D01*
X013033Y005180D01*
X013021Y005181D01*
X013021Y005182D02*
X012745Y005182D01*
X012700Y004475D02*
X012358Y004475D01*
X012343Y004473D01*
X012329Y004468D01*
X012317Y004461D01*
X012306Y004450D01*
X012299Y004438D01*
X012294Y004424D01*
X012292Y004409D01*
X012294Y004395D01*
X012298Y004383D01*
X012305Y004371D01*
X012315Y004361D01*
X012327Y004354D01*
X012339Y004350D01*
X012353Y004348D01*
X012419Y004348D01*
X012436Y004346D01*
X012453Y004341D01*
X012468Y004333D01*
X012481Y004322D01*
X012492Y004309D01*
X012500Y004294D01*
X012505Y004277D01*
X012507Y004260D01*
X012507Y004249D01*
X012505Y004232D01*
X012500Y004215D01*
X012492Y004200D01*
X012481Y004187D01*
X012468Y004176D01*
X012453Y004168D01*
X012436Y004163D01*
X012419Y004161D01*
X012358Y004161D01*
X012358Y004160D02*
X012343Y004158D01*
X012329Y004153D01*
X012317Y004146D01*
X012306Y004135D01*
X012299Y004123D01*
X012294Y004109D01*
X012292Y004094D01*
X012292Y004094D01*
X012293Y004081D01*
X012298Y004068D01*
X012305Y004056D01*
X012315Y004046D01*
X012327Y004039D01*
X012340Y004034D01*
X012353Y004033D01*
X012353Y004034D02*
X012723Y004034D01*
X013158Y003796D02*
X013160Y003778D01*
X013165Y003760D01*
X013174Y003744D01*
X013186Y003729D01*
X013200Y003717D01*
X013216Y003708D01*
X013234Y003702D01*
X013252Y003700D01*
X013271Y003701D01*
X013289Y003706D01*
X013305Y003714D01*
X013320Y003725D01*
X013333Y003739D01*
X013342Y003755D01*
X013349Y003772D01*
X013352Y003791D01*
X013440Y005126D01*
X013440Y005127D02*
X013442Y005141D01*
X013448Y005153D01*
X013457Y005165D01*
X013467Y005173D01*
X013480Y005179D01*
X013494Y005182D01*
X013508Y005181D01*
X013521Y005177D01*
X013533Y005170D01*
X013543Y005160D01*
X013551Y005149D01*
X013555Y005135D01*
X013556Y005121D01*
X012723Y006114D02*
X012353Y006114D01*
X012340Y006116D01*
X012327Y006120D01*
X012315Y006127D01*
X012305Y006137D01*
X012298Y006149D01*
X012293Y006162D01*
X012292Y006175D01*
X012292Y006175D01*
X012294Y006190D01*
X012299Y006204D01*
X012306Y006216D01*
X012317Y006227D01*
X012329Y006234D01*
X012343Y006239D01*
X012358Y006241D01*
X012419Y006241D01*
X012419Y006242D02*
X012436Y006244D01*
X012453Y006249D01*
X012468Y006257D01*
X012481Y006268D01*
X012492Y006281D01*
X012500Y006296D01*
X012505Y006313D01*
X012507Y006330D01*
X012507Y006341D01*
X012505Y006358D01*
X012500Y006375D01*
X012492Y006390D01*
X012481Y006403D01*
X012468Y006414D01*
X012453Y006422D01*
X012436Y006427D01*
X012419Y006429D01*
X012353Y006429D01*
X012339Y006431D01*
X012327Y006435D01*
X012315Y006442D01*
X012305Y006452D01*
X012298Y006464D01*
X012294Y006476D01*
X012292Y006490D01*
X012294Y006505D01*
X012299Y006519D01*
X012306Y006531D01*
X012317Y006542D01*
X012329Y006549D01*
X012343Y006554D01*
X012358Y006556D01*
X012728Y006556D01*
X010714Y007859D02*
X010714Y008139D01*
X010574Y007999D01*
X010760Y007999D01*
X010366Y005439D02*
X010272Y005439D01*
X010225Y005393D01*
X010319Y005299D02*
X010366Y005299D01*
X010412Y005252D01*
X010412Y005206D01*
X010366Y005159D01*
X010272Y005159D01*
X010225Y005206D01*
X010366Y005299D02*
X010412Y005346D01*
X010412Y005393D01*
X010366Y005439D01*
X009502Y005389D02*
X009456Y005436D01*
X009362Y005436D01*
X009315Y005389D01*
X009502Y005389D02*
X009502Y005342D01*
X009315Y005155D01*
X009502Y005155D01*
X008651Y005159D02*
X008464Y005159D01*
X008558Y005159D02*
X008558Y005439D01*
X008464Y005346D01*
X014886Y005121D02*
X014952Y003675D01*
X014952Y003658D01*
X014954Y003636D01*
X014959Y003615D01*
X014967Y003595D01*
X014978Y003577D01*
X014992Y003560D01*
X015009Y003546D01*
X015027Y003535D01*
X015047Y003527D01*
X015068Y003522D01*
X015090Y003520D01*
X015697Y003520D01*
X015283Y003796D02*
X015372Y005138D01*
X015372Y005137D02*
X015374Y005149D01*
X015380Y005160D01*
X015388Y005169D01*
X015398Y005176D01*
X015409Y005180D01*
X015421Y005181D01*
X015421Y005182D02*
X015697Y005182D01*
X015742Y006114D02*
X016084Y006114D01*
X016084Y006115D02*
X016099Y006117D01*
X016113Y006122D01*
X016125Y006129D01*
X016136Y006140D01*
X016143Y006152D01*
X016148Y006166D01*
X016150Y006181D01*
X016148Y006195D01*
X016144Y006207D01*
X016137Y006219D01*
X016127Y006229D01*
X016115Y006236D01*
X016103Y006240D01*
X016089Y006242D01*
X016089Y006241D02*
X016023Y006241D01*
X016023Y006242D02*
X016006Y006244D01*
X015989Y006249D01*
X015974Y006257D01*
X015961Y006268D01*
X015950Y006281D01*
X015942Y006296D01*
X015937Y006313D01*
X015935Y006330D01*
X015935Y006341D01*
X015937Y006358D01*
X015942Y006375D01*
X015950Y006390D01*
X015961Y006403D01*
X015974Y006414D01*
X015989Y006422D01*
X016006Y006427D01*
X016023Y006429D01*
X016084Y006429D01*
X016099Y006431D01*
X016113Y006436D01*
X016125Y006443D01*
X016136Y006454D01*
X016143Y006466D01*
X016148Y006480D01*
X016150Y006495D01*
X015719Y006556D02*
X015217Y006556D01*
X015195Y006554D01*
X015174Y006549D01*
X015154Y006541D01*
X015136Y006530D01*
X015119Y006516D01*
X015105Y006499D01*
X015094Y006481D01*
X015086Y006461D01*
X015081Y006440D01*
X015079Y006418D01*
X015079Y006186D01*
X015002Y005126D02*
X015090Y003791D01*
X015093Y003772D01*
X015100Y003755D01*
X015109Y003739D01*
X015122Y003725D01*
X015137Y003714D01*
X015153Y003706D01*
X015171Y003701D01*
X015190Y003700D01*
X015208Y003702D01*
X015226Y003708D01*
X015242Y003717D01*
X015256Y003729D01*
X015268Y003744D01*
X015277Y003760D01*
X015282Y003778D01*
X015284Y003796D01*
X015002Y005127D02*
X015000Y005141D01*
X014994Y005153D01*
X014985Y005165D01*
X014975Y005173D01*
X014962Y005179D01*
X014948Y005182D01*
X014934Y005181D01*
X014921Y005177D01*
X014909Y005170D01*
X014899Y005160D01*
X014891Y005149D01*
X014887Y005135D01*
X014886Y005121D01*
X015170Y026412D02*
X014844Y026737D01*
X015387Y026629D01*
X015061Y026954D01*
X015333Y027008D02*
X015333Y026900D01*
X015441Y026791D01*
X015550Y026791D01*
X015658Y026900D01*
X015658Y027008D01*
X015550Y027117D01*
X015441Y027117D01*
X015333Y027008D01*
X015604Y027280D02*
X015930Y027171D01*
X015821Y027497D01*
X015930Y027605D02*
X015930Y027822D01*
X016255Y027497D01*
X016147Y027388D02*
X016364Y027605D01*
X016472Y027714D02*
X016472Y028148D01*
X016418Y028202D01*
X016309Y028202D01*
X016201Y028094D01*
X016201Y027985D01*
X016472Y027714D02*
X016689Y027931D01*
X017123Y028365D02*
X016906Y028582D01*
X017015Y028690D02*
X017015Y028473D01*
X017015Y028690D02*
X017069Y028745D01*
X017178Y028853D02*
X017178Y029070D01*
X017503Y028745D01*
X017395Y028636D02*
X017612Y028853D01*
D14*
X008906Y012768D03*
X008906Y012276D03*
X008906Y011784D03*
X008906Y011292D03*
X008119Y011292D03*
X008119Y011784D03*
X008119Y012276D03*
X008119Y012768D03*
D15*
X007823Y013024D02*
X007823Y010996D01*
X009201Y010996D01*
X009201Y013044D01*
X007823Y013044D01*
D16*
X007276Y011537D02*
X007276Y011344D01*
X007566Y011344D01*
X007566Y011243D02*
X007373Y011243D01*
X007421Y011344D02*
X007421Y011441D01*
X007566Y011243D02*
X007566Y011098D01*
X007518Y011049D01*
X007373Y011049D01*
X007566Y010948D02*
X007566Y010755D01*
X007566Y010851D02*
X007276Y010851D01*
X007373Y010755D01*
X007518Y010656D02*
X007566Y010656D01*
X007566Y010607D01*
X007518Y010607D01*
X007518Y010656D01*
X007518Y010506D02*
X007324Y010506D01*
X007518Y010313D01*
X007566Y010361D01*
X007566Y010458D01*
X007518Y010506D01*
X007518Y010313D02*
X007324Y010313D01*
X007276Y010361D01*
X007276Y010458D01*
X007324Y010506D01*
X007457Y009466D02*
X007457Y009272D01*
X007747Y009272D01*
X007747Y009171D02*
X007554Y009171D01*
X007602Y009272D02*
X007602Y009369D01*
X007747Y009171D02*
X007747Y009026D01*
X007699Y008977D01*
X007554Y008977D01*
X007747Y008876D02*
X007747Y008683D01*
X007747Y008779D02*
X007457Y008779D01*
X007554Y008683D01*
X007501Y007735D02*
X007501Y007542D01*
X007792Y007542D01*
X007792Y007440D02*
X007598Y007440D01*
X007646Y007542D02*
X007646Y007638D01*
X007792Y007440D02*
X007792Y007295D01*
X007743Y007247D01*
X007598Y007247D01*
X007598Y007146D02*
X007550Y007146D01*
X007501Y007097D01*
X007501Y007001D01*
X007550Y006952D01*
X007550Y006851D02*
X007501Y006803D01*
X007501Y006706D01*
X007550Y006658D01*
X007550Y006851D02*
X007598Y006851D01*
X007792Y006658D01*
X007792Y006851D01*
X007792Y006952D02*
X007598Y007146D01*
X007792Y007146D02*
X007792Y006952D01*
X007792Y006559D02*
X007792Y006510D01*
X007743Y006510D01*
X007743Y006559D01*
X007792Y006559D01*
X007743Y006409D02*
X007792Y006361D01*
X007792Y006264D01*
X007743Y006216D01*
X007550Y006409D01*
X007743Y006409D01*
X007550Y006409D02*
X007501Y006361D01*
X007501Y006264D01*
X007550Y006216D01*
X007743Y006216D01*
X009277Y010746D02*
X009471Y010746D01*
X009374Y010746D02*
X009374Y011036D01*
X009277Y010939D01*
X009572Y010988D02*
X009620Y011036D01*
X009717Y011036D01*
X009765Y010988D01*
X009572Y010794D01*
X009620Y010746D01*
X009717Y010746D01*
X009765Y010794D01*
X009765Y010988D01*
X009867Y010988D02*
X009915Y011036D01*
X010012Y011036D01*
X010060Y010988D01*
X009867Y010794D01*
X009915Y010746D01*
X010012Y010746D01*
X010060Y010794D01*
X010060Y010988D01*
X010161Y011036D02*
X010161Y010746D01*
X010161Y010842D02*
X010306Y010939D01*
X010161Y010842D02*
X010306Y010746D01*
X009867Y010794D02*
X009867Y010988D01*
X009572Y010988D02*
X009572Y010794D01*
X011705Y010661D02*
X011753Y010710D01*
X011947Y010516D01*
X011995Y010564D01*
X011995Y010661D01*
X011947Y010710D01*
X011753Y010710D01*
X011705Y010661D02*
X011705Y010564D01*
X011753Y010516D01*
X011947Y010516D01*
X011947Y010415D02*
X011898Y010415D01*
X011850Y010367D01*
X011850Y010221D01*
X011947Y010221D01*
X011995Y010270D01*
X011995Y010367D01*
X011947Y010415D01*
X011753Y010318D02*
X011850Y010221D01*
X011753Y010318D02*
X011705Y010415D01*
X011705Y010024D02*
X011995Y010024D01*
X011995Y010120D02*
X011995Y009927D01*
X011802Y009927D02*
X011705Y010024D01*
X012113Y008024D02*
X012065Y007976D01*
X012065Y007927D01*
X012113Y007879D01*
X012210Y007879D01*
X012258Y007831D01*
X012258Y007782D01*
X012210Y007734D01*
X012113Y007734D01*
X012065Y007782D01*
X012113Y008024D02*
X012210Y008024D01*
X012258Y007976D01*
X012359Y008024D02*
X012504Y008024D01*
X012553Y007976D01*
X012553Y007782D01*
X012504Y007734D01*
X012359Y007734D01*
X012359Y008024D01*
X012654Y007879D02*
X012847Y007879D01*
X012949Y007976D02*
X012949Y007782D01*
X012997Y007734D01*
X013094Y007734D01*
X013142Y007782D01*
X013142Y007976D02*
X013094Y008024D01*
X012997Y008024D01*
X012949Y007976D01*
X012879Y007103D02*
X013073Y007103D01*
X012976Y006958D02*
X012879Y006958D01*
X012778Y007006D02*
X012778Y006813D01*
X012633Y006813D01*
X012585Y006861D01*
X012585Y007006D01*
X012484Y006813D02*
X012290Y006813D01*
X012387Y006813D02*
X012387Y007103D01*
X012290Y007006D01*
X012191Y006861D02*
X012191Y006813D01*
X012143Y006813D01*
X012143Y006861D01*
X012191Y006861D01*
X012042Y006861D02*
X011993Y006813D01*
X011896Y006813D01*
X011848Y006861D01*
X012042Y007055D01*
X012042Y006861D01*
X012042Y007055D02*
X011993Y007103D01*
X011896Y007103D01*
X011848Y007055D01*
X011848Y006861D01*
X012879Y006813D02*
X012879Y007103D01*
X013785Y007802D02*
X013833Y007754D01*
X013930Y007754D01*
X013979Y007802D01*
X013979Y007850D01*
X013930Y007899D01*
X013833Y007899D01*
X013785Y007947D01*
X013785Y007995D01*
X013833Y008044D01*
X013930Y008044D01*
X013979Y007995D01*
X014080Y007947D02*
X014176Y007947D01*
X014128Y007995D02*
X014128Y007802D01*
X014176Y007754D01*
X014276Y007802D02*
X014325Y007850D01*
X014470Y007850D01*
X014470Y007899D02*
X014470Y007754D01*
X014325Y007754D01*
X014276Y007802D01*
X014325Y007947D02*
X014421Y007947D01*
X014470Y007899D01*
X014571Y007947D02*
X014668Y007947D01*
X014619Y007995D02*
X014619Y007802D01*
X014668Y007754D01*
X014767Y007802D02*
X014767Y007947D01*
X014767Y007802D02*
X014816Y007754D01*
X014961Y007754D01*
X014961Y007947D01*
X015062Y007899D02*
X015110Y007947D01*
X015255Y007947D01*
X015207Y007850D02*
X015110Y007850D01*
X015062Y007899D01*
X015062Y007754D02*
X015207Y007754D01*
X015255Y007802D01*
X015207Y007850D01*
X016506Y010635D02*
X016410Y010732D01*
X016700Y010732D01*
X016700Y010635D02*
X016700Y010829D01*
X016652Y010930D02*
X016458Y011124D01*
X016652Y011124D01*
X016700Y011075D01*
X016700Y010978D01*
X016652Y010930D01*
X016458Y010930D01*
X016410Y010978D01*
X016410Y011075D01*
X016458Y011124D01*
X016410Y011225D02*
X016700Y011225D01*
X016603Y011225D02*
X016506Y011370D01*
X016603Y011225D02*
X016700Y011370D01*
X015598Y011423D02*
X015598Y011229D01*
X015404Y011423D01*
X015356Y011423D01*
X015307Y011374D01*
X015307Y011278D01*
X015356Y011229D01*
X015356Y011128D02*
X015307Y011080D01*
X015307Y010983D01*
X015356Y010935D01*
X015356Y011128D02*
X015404Y011128D01*
X015598Y010935D01*
X015598Y011128D01*
X014352Y014155D02*
X014352Y014445D01*
X014545Y014445D01*
X014449Y014300D02*
X014352Y014300D01*
X014251Y014349D02*
X014251Y014155D01*
X014106Y014155D01*
X014057Y014204D01*
X014057Y014349D01*
X013956Y014155D02*
X013762Y014155D01*
X013859Y014155D02*
X013859Y014445D01*
X013762Y014349D01*
X013664Y014204D02*
X013664Y014155D01*
X013615Y014155D01*
X013615Y014204D01*
X013664Y014204D01*
X013514Y014204D02*
X013466Y014155D01*
X013369Y014155D01*
X013321Y014204D01*
X013514Y014397D01*
X013514Y014204D01*
X013514Y014397D02*
X013466Y014445D01*
X013369Y014445D01*
X013321Y014397D01*
X013321Y014204D01*
X011540Y016255D02*
X011334Y016460D01*
X011471Y016460D01*
X011471Y016597D01*
X011677Y016392D01*
X011714Y016497D02*
X011782Y016497D01*
X011851Y016566D01*
X011851Y016634D01*
X011816Y016668D01*
X011748Y016668D01*
X011714Y016634D01*
X011748Y016668D02*
X011748Y016737D01*
X011714Y016771D01*
X011645Y016771D01*
X011577Y016703D01*
X011577Y016634D01*
X011785Y016842D02*
X011785Y016911D01*
X011854Y016979D01*
X011922Y016979D01*
X011956Y016945D01*
X011956Y016671D01*
X012093Y016808D01*
X012165Y016880D02*
X011960Y017085D01*
X012096Y017222D01*
X012236Y017225D02*
X012236Y017362D01*
X012441Y017157D01*
X012373Y017088D02*
X012510Y017225D01*
X012547Y017331D02*
X012410Y017467D01*
X012410Y017536D01*
X012479Y017604D01*
X012547Y017604D01*
X012547Y017331D01*
X012616Y017331D01*
X012684Y017399D01*
X012684Y017467D01*
X012547Y017604D01*
X012585Y017710D02*
X012927Y017642D01*
X012998Y017713D02*
X012793Y017918D01*
X012896Y018021D01*
X012964Y018021D01*
X013032Y017953D01*
X013032Y017884D01*
X012930Y017782D01*
X012998Y017850D02*
X013135Y017850D01*
X013206Y017922D02*
X013138Y018264D01*
X013210Y018335D02*
X013346Y018472D01*
X013278Y018404D02*
X013483Y018198D01*
X013343Y018058D02*
X013001Y018127D01*
X012721Y017847D02*
X012790Y017505D01*
X012131Y017051D02*
X012062Y016982D01*
X011263Y016388D02*
X011126Y016252D01*
X011195Y016320D02*
X011400Y016115D01*
X011226Y016009D02*
X011191Y016043D01*
X011123Y016043D01*
X011055Y015975D01*
X010986Y015975D01*
X010952Y016009D01*
X010952Y016077D01*
X011020Y016146D01*
X011089Y016146D01*
X011226Y016009D02*
X011226Y015941D01*
X011157Y015872D01*
X011089Y015872D01*
X010993Y014095D02*
X010800Y014095D01*
X010800Y013805D01*
X010698Y013805D02*
X010698Y013998D01*
X010800Y013950D02*
X010896Y013950D01*
X010698Y013805D02*
X010553Y013805D01*
X010505Y013853D01*
X010505Y013998D01*
X010404Y013805D02*
X010210Y013805D01*
X010307Y013805D02*
X010307Y014095D01*
X010210Y013998D01*
X009575Y015785D02*
X009430Y015882D01*
X009575Y015979D01*
X009430Y016075D02*
X009430Y015785D01*
X009328Y015833D02*
X009280Y015785D01*
X009183Y015785D01*
X009135Y015833D01*
X009328Y016027D01*
X009328Y015833D01*
X009135Y015833D02*
X009135Y016027D01*
X009183Y016075D01*
X009280Y016075D01*
X009328Y016027D01*
X009034Y015785D02*
X008840Y015785D01*
X008937Y015785D02*
X008937Y016075D01*
X008840Y015979D01*
X007581Y015386D02*
X007387Y015386D01*
X007387Y015096D01*
X007286Y015096D02*
X007286Y015290D01*
X007387Y015241D02*
X007484Y015241D01*
X007286Y015096D02*
X007141Y015096D01*
X007093Y015144D01*
X007093Y015290D01*
X006991Y015096D02*
X006798Y015096D01*
X006895Y015096D02*
X006895Y015386D01*
X006798Y015290D01*
X006699Y015144D02*
X006651Y015144D01*
X006651Y015096D01*
X006699Y015096D01*
X006699Y015144D01*
X006549Y015144D02*
X006549Y015338D01*
X006356Y015144D01*
X006404Y015096D01*
X006501Y015096D01*
X006549Y015144D01*
X006356Y015144D02*
X006356Y015338D01*
X006404Y015386D01*
X006501Y015386D01*
X006549Y015338D01*
X006234Y012735D02*
X006234Y012542D01*
X006524Y012542D01*
X006524Y012440D02*
X006330Y012440D01*
X006379Y012542D02*
X006379Y012638D01*
X006524Y012440D02*
X006524Y012295D01*
X006476Y012247D01*
X006330Y012247D01*
X006524Y012146D02*
X006524Y011952D01*
X006524Y012049D02*
X006234Y012049D01*
X006330Y011952D01*
X008611Y019376D02*
X008708Y019376D01*
X008756Y019424D01*
X008857Y019376D02*
X008857Y019666D01*
X008756Y019618D02*
X008708Y019666D01*
X008611Y019666D01*
X008563Y019618D01*
X008563Y019424D01*
X008611Y019376D01*
X008857Y019521D02*
X009051Y019521D01*
X009152Y019472D02*
X009297Y019472D01*
X009345Y019521D01*
X009345Y019618D01*
X009297Y019666D01*
X009152Y019666D01*
X009152Y019376D01*
X009051Y019376D02*
X009051Y019666D01*
X009249Y019472D02*
X009345Y019376D01*
X009447Y019424D02*
X009495Y019376D01*
X009592Y019376D01*
X009640Y019424D01*
X009640Y019521D01*
X009543Y019521D01*
X009447Y019618D02*
X009447Y019424D01*
X009447Y019618D02*
X009495Y019666D01*
X009592Y019666D01*
X009640Y019618D01*
X007074Y020815D02*
X007074Y020939D01*
X007012Y021000D01*
X006889Y021000D01*
X006889Y020877D01*
X007012Y020754D02*
X006765Y020754D01*
X006704Y020815D01*
X006704Y020939D01*
X006765Y021000D01*
X006704Y021122D02*
X006704Y021307D01*
X006765Y021369D01*
X006889Y021369D01*
X006951Y021307D01*
X006951Y021122D01*
X007074Y021122D02*
X006704Y021122D01*
X006765Y021490D02*
X006827Y021490D01*
X006889Y021552D01*
X006889Y021675D01*
X006951Y021737D01*
X007012Y021737D01*
X007074Y021675D01*
X007074Y021552D01*
X007012Y021490D01*
X006765Y021490D02*
X006704Y021552D01*
X006704Y021675D01*
X006765Y021737D01*
X007074Y020815D02*
X007012Y020754D01*
X013323Y025851D02*
X013371Y025802D01*
X013468Y025802D01*
X013516Y025851D01*
X013516Y025899D01*
X013468Y025948D01*
X013420Y025948D01*
X013468Y025948D02*
X013516Y025996D01*
X013516Y026044D01*
X013468Y026093D01*
X013371Y026093D01*
X013323Y026044D01*
X013618Y026093D02*
X013618Y025802D01*
X013618Y025899D02*
X013763Y025996D01*
X013863Y026044D02*
X013911Y026093D01*
X014008Y026093D01*
X014057Y026044D01*
X014057Y025996D01*
X014008Y025948D01*
X014057Y025899D01*
X014057Y025851D01*
X014008Y025802D01*
X013911Y025802D01*
X013863Y025851D01*
X013763Y025802D02*
X013618Y025899D01*
X013960Y025948D02*
X014008Y025948D01*
X014313Y025618D02*
X014361Y025666D01*
X014458Y025666D01*
X014506Y025618D01*
X014506Y025569D01*
X014313Y025376D01*
X014506Y025376D01*
X014607Y025376D02*
X014801Y025569D01*
X014801Y025618D01*
X014752Y025666D01*
X014656Y025666D01*
X014607Y025618D01*
X014607Y025376D02*
X014801Y025376D01*
X014902Y025376D02*
X015047Y025376D01*
X015095Y025424D01*
X015095Y025521D01*
X015047Y025569D01*
X014902Y025569D01*
X014902Y025279D01*
X015245Y025376D02*
X015245Y025618D01*
X015293Y025666D01*
X015293Y025521D02*
X015197Y025521D01*
X017069Y025558D02*
X017117Y025607D01*
X017214Y025607D01*
X017262Y025558D01*
X017262Y025510D01*
X017069Y025317D01*
X017262Y025317D01*
X017363Y025317D02*
X017557Y025510D01*
X017557Y025558D01*
X017508Y025607D01*
X017412Y025607D01*
X017363Y025558D01*
X017363Y025317D02*
X017557Y025317D01*
X017658Y025317D02*
X017803Y025317D01*
X017851Y025365D01*
X017851Y025462D01*
X017803Y025510D01*
X017658Y025510D01*
X017658Y025220D01*
X018001Y025317D02*
X018001Y025558D01*
X018049Y025607D01*
X018049Y025462D02*
X017952Y025462D01*
X017165Y018500D02*
X017068Y018355D01*
X016971Y018500D01*
X016874Y018355D02*
X017165Y018355D01*
X017116Y018254D02*
X017165Y018205D01*
X017165Y018108D01*
X017116Y018060D01*
X016923Y018254D01*
X017116Y018254D01*
X016923Y018254D02*
X016874Y018205D01*
X016874Y018108D01*
X016923Y018060D01*
X017116Y018060D01*
X017165Y017959D02*
X017165Y017765D01*
X017165Y017862D02*
X016874Y017862D01*
X016971Y017765D01*
X013726Y018441D02*
X013657Y018372D01*
X013589Y018372D01*
X013521Y018441D01*
X013623Y018543D01*
X013692Y018543D01*
X013726Y018509D01*
X013726Y018441D01*
X013521Y018441D02*
X013521Y018578D01*
X013555Y018680D01*
D17*
X013196Y024793D02*
X013137Y024793D01*
X013196Y024793D02*
X013196Y028612D01*
X013137Y028612D01*
X009318Y028612D02*
X009219Y028612D01*
X009219Y024793D01*
X009318Y024793D01*
D18*
X009758Y025532D02*
X009721Y025568D01*
X009721Y025678D01*
X009868Y025678D02*
X009868Y025532D01*
X009758Y025532D01*
X009942Y025532D02*
X010052Y025532D01*
X010089Y025568D01*
X010089Y025642D01*
X010052Y025678D01*
X009942Y025678D01*
X009942Y025752D02*
X009942Y025532D01*
X010163Y025532D02*
X010237Y025532D01*
X010200Y025532D02*
X010200Y025752D01*
X010163Y025752D01*
X010311Y025642D02*
X010311Y025568D01*
X010347Y025532D01*
X010421Y025532D01*
X010458Y025568D01*
X010458Y025642D01*
X010421Y025678D01*
X010347Y025678D01*
X010311Y025642D01*
X010532Y025678D02*
X010678Y025532D01*
X010532Y025532D02*
X010678Y025678D01*
X010706Y026654D02*
X010706Y026874D01*
X010779Y026800D01*
X010852Y026874D01*
X010852Y026654D01*
X010927Y026654D02*
X010927Y026800D01*
X011000Y026874D01*
X011073Y026800D01*
X011073Y026654D01*
X011148Y026654D02*
X011294Y026874D01*
X011369Y026764D02*
X011515Y026764D01*
X011590Y026764D02*
X011700Y026764D01*
X011736Y026727D01*
X011736Y026690D01*
X011700Y026654D01*
X011626Y026654D01*
X011590Y026690D01*
X011590Y026764D01*
X011663Y026837D01*
X011736Y026874D01*
X011294Y026654D02*
X011148Y026874D01*
X011073Y026764D02*
X010927Y026764D01*
X010659Y024250D02*
X010659Y024103D01*
X010879Y024103D01*
X010879Y024029D02*
X010732Y024029D01*
X010769Y024103D02*
X010769Y024177D01*
X010879Y024029D02*
X010879Y023919D01*
X010842Y023882D01*
X010732Y023882D01*
X010879Y023808D02*
X010879Y023661D01*
X010879Y023587D02*
X010879Y023551D01*
X010842Y023551D01*
X010842Y023587D01*
X010879Y023587D01*
X010842Y023477D02*
X010879Y023440D01*
X010879Y023366D01*
X010842Y023330D01*
X010695Y023477D01*
X010842Y023477D01*
X010695Y023477D02*
X010659Y023440D01*
X010659Y023366D01*
X010695Y023330D01*
X010842Y023330D01*
X010789Y023243D02*
X010642Y023096D01*
X010679Y023060D01*
X010752Y023060D01*
X010789Y023096D01*
X010789Y023243D01*
X010752Y023280D01*
X010679Y023280D01*
X010642Y023243D01*
X010642Y023096D01*
X010863Y023096D02*
X010863Y023060D01*
X010900Y023060D01*
X010900Y023096D01*
X010863Y023096D01*
X010974Y023096D02*
X011121Y023243D01*
X011121Y023096D01*
X011084Y023060D01*
X011010Y023060D01*
X010974Y023096D01*
X010974Y023243D01*
X011010Y023280D01*
X011084Y023280D01*
X011121Y023243D01*
X011195Y023206D02*
X011268Y023280D01*
X011268Y023060D01*
X011195Y023060D02*
X011342Y023060D01*
X011416Y023096D02*
X011452Y023060D01*
X011563Y023060D01*
X011563Y023206D01*
X011637Y023170D02*
X011710Y023170D01*
X011637Y023280D02*
X011784Y023280D01*
X011637Y023280D02*
X011637Y023060D01*
X011416Y023096D02*
X011416Y023206D01*
X011441Y023696D02*
X011478Y023696D01*
X011478Y023733D01*
X011441Y023733D01*
X011441Y023696D01*
X011367Y023733D02*
X011367Y023879D01*
X011220Y023733D01*
X011257Y023696D01*
X011330Y023696D01*
X011367Y023733D01*
X011367Y023879D02*
X011330Y023916D01*
X011257Y023916D01*
X011220Y023879D01*
X011220Y023733D01*
X011552Y023696D02*
X011699Y023696D01*
X011625Y023696D02*
X011625Y023916D01*
X011552Y023843D01*
X011773Y023843D02*
X011773Y023733D01*
X011809Y023696D01*
X011920Y023696D01*
X011920Y023843D01*
X011994Y023806D02*
X012067Y023806D01*
X011994Y023696D02*
X011994Y023916D01*
X012141Y023916D01*
X010879Y023735D02*
X010659Y023735D01*
X010732Y023661D01*
X010752Y022583D02*
X010789Y022546D01*
X010642Y022399D01*
X010679Y022363D01*
X010752Y022363D01*
X010789Y022399D01*
X010789Y022546D01*
X010752Y022583D02*
X010679Y022583D01*
X010642Y022546D01*
X010642Y022399D01*
X010863Y022399D02*
X010900Y022399D01*
X010900Y022363D01*
X010863Y022363D01*
X010863Y022399D01*
X010974Y022399D02*
X011121Y022546D01*
X011121Y022399D01*
X011084Y022363D01*
X011010Y022363D01*
X010974Y022399D01*
X010974Y022546D01*
X011010Y022583D01*
X011084Y022583D01*
X011121Y022546D01*
X011195Y022510D02*
X011268Y022583D01*
X011268Y022363D01*
X011195Y022363D02*
X011342Y022363D01*
X011416Y022399D02*
X011452Y022363D01*
X011563Y022363D01*
X011563Y022510D01*
X011637Y022473D02*
X011710Y022473D01*
X011637Y022583D02*
X011784Y022583D01*
X011637Y022583D02*
X011637Y022363D01*
X011416Y022399D02*
X011416Y022510D01*
X012249Y022538D02*
X012285Y022575D01*
X012359Y022575D01*
X012395Y022538D01*
X012249Y022392D01*
X012285Y022355D01*
X012359Y022355D01*
X012395Y022392D01*
X012395Y022538D01*
X012249Y022538D02*
X012249Y022392D01*
X012470Y022392D02*
X012506Y022392D01*
X012506Y022355D01*
X012470Y022355D01*
X012470Y022392D01*
X012580Y022392D02*
X012727Y022538D01*
X012727Y022392D01*
X012690Y022355D01*
X012617Y022355D01*
X012580Y022392D01*
X012580Y022538D01*
X012617Y022575D01*
X012690Y022575D01*
X012727Y022538D01*
X012801Y022502D02*
X012874Y022575D01*
X012874Y022355D01*
X012801Y022355D02*
X012948Y022355D01*
X013022Y022392D02*
X013059Y022355D01*
X013169Y022355D01*
X013169Y022502D01*
X013243Y022465D02*
X013316Y022465D01*
X013243Y022575D02*
X013390Y022575D01*
X013243Y022575D02*
X013243Y022355D01*
X013022Y022392D02*
X013022Y022502D01*
X013986Y021563D02*
X014059Y021563D01*
X014096Y021527D01*
X013949Y021380D01*
X013986Y021343D01*
X014059Y021343D01*
X014096Y021380D01*
X014096Y021527D01*
X013986Y021563D02*
X013949Y021527D01*
X013949Y021380D01*
X014170Y021380D02*
X014207Y021380D01*
X014207Y021343D01*
X014170Y021343D01*
X014170Y021380D01*
X014281Y021343D02*
X014428Y021343D01*
X014354Y021343D02*
X014354Y021563D01*
X014281Y021490D01*
X014502Y021490D02*
X014502Y021380D01*
X014539Y021343D01*
X014649Y021343D01*
X014649Y021490D01*
X014723Y021453D02*
X014796Y021453D01*
X014723Y021343D02*
X014723Y021563D01*
X014870Y021563D01*
X015607Y019362D02*
X015607Y019215D01*
X015827Y019215D01*
X015827Y019141D02*
X015680Y019141D01*
X015717Y019215D02*
X015717Y019288D01*
X015827Y019141D02*
X015827Y019031D01*
X015790Y018994D01*
X015680Y018994D01*
X015827Y018920D02*
X015827Y018773D01*
X015827Y018846D02*
X015607Y018846D01*
X015680Y018773D01*
X015790Y018699D02*
X015827Y018699D01*
X015827Y018662D01*
X015790Y018662D01*
X015790Y018699D01*
X015790Y018588D02*
X015827Y018552D01*
X015827Y018478D01*
X015790Y018441D01*
X015644Y018588D01*
X015790Y018588D01*
X015644Y018588D02*
X015607Y018552D01*
X015607Y018478D01*
X015644Y018441D01*
X015790Y018441D01*
X011361Y021366D02*
X011214Y021366D01*
X011214Y021146D01*
X011140Y021146D02*
X011140Y021293D01*
X011214Y021256D02*
X011288Y021256D01*
X011140Y021146D02*
X011030Y021146D01*
X010993Y021183D01*
X010993Y021293D01*
X010919Y021146D02*
X010772Y021146D01*
X010846Y021146D02*
X010846Y021366D01*
X010772Y021293D01*
X010032Y021116D02*
X010032Y021042D01*
X009995Y021006D01*
X009848Y021152D01*
X009995Y021152D01*
X010032Y021116D01*
X009995Y021006D02*
X009848Y021006D01*
X009812Y021042D01*
X009812Y021116D01*
X009848Y021152D01*
X009812Y020931D02*
X009848Y020858D01*
X009922Y020785D01*
X009922Y020895D01*
X009958Y020931D01*
X009995Y020931D01*
X010032Y020895D01*
X010032Y020821D01*
X009995Y020785D01*
X009922Y020785D01*
X010032Y020710D02*
X010032Y020564D01*
X010032Y020637D02*
X009812Y020637D01*
X009885Y020564D01*
X009812Y021780D02*
X009739Y021780D01*
X009702Y021817D01*
X009849Y021964D01*
X009849Y021817D01*
X009812Y021780D01*
X009702Y021817D02*
X009702Y021964D01*
X009739Y022000D01*
X009812Y022000D01*
X009849Y021964D01*
X009628Y022000D02*
X009555Y021964D01*
X009481Y021890D01*
X009591Y021890D01*
X009628Y021853D01*
X009628Y021817D01*
X009591Y021780D01*
X009518Y021780D01*
X009481Y021817D01*
X009481Y021890D01*
X009407Y021780D02*
X009260Y021780D01*
X009334Y021780D02*
X009334Y022000D01*
X009260Y021927D01*
X008072Y019705D02*
X008109Y019668D01*
X007962Y019522D01*
X007999Y019485D01*
X008072Y019485D01*
X008109Y019522D01*
X008109Y019668D01*
X008072Y019705D02*
X007999Y019705D01*
X007962Y019668D01*
X007962Y019522D01*
X007888Y019522D02*
X007888Y019558D01*
X007851Y019595D01*
X007741Y019595D01*
X007741Y019522D01*
X007778Y019485D01*
X007851Y019485D01*
X007888Y019522D01*
X007815Y019668D02*
X007741Y019595D01*
X007815Y019668D02*
X007888Y019705D01*
X007594Y019705D02*
X007594Y019485D01*
X007667Y019485D02*
X007520Y019485D01*
X007520Y019632D02*
X007594Y019705D01*
X008627Y019042D02*
X008663Y019079D01*
X008737Y019079D01*
X008773Y019042D01*
X008627Y018896D01*
X008663Y018859D01*
X008737Y018859D01*
X008773Y018896D01*
X008773Y019042D01*
X008627Y019042D02*
X008627Y018896D01*
X008848Y018896D02*
X008884Y018896D01*
X008884Y018859D01*
X008848Y018859D01*
X008848Y018896D01*
X008958Y018859D02*
X009105Y018859D01*
X009031Y018859D02*
X009031Y019079D01*
X008958Y019006D01*
X009179Y019006D02*
X009179Y018896D01*
X009216Y018859D01*
X009326Y018859D01*
X009326Y019006D01*
X009400Y018969D02*
X009473Y018969D01*
X009400Y019079D02*
X009547Y019079D01*
X009400Y019079D02*
X009400Y018859D01*
X008205Y015960D02*
X008205Y015813D01*
X008425Y015813D01*
X008425Y015739D02*
X008279Y015739D01*
X008315Y015813D02*
X008315Y015887D01*
X008425Y015739D02*
X008425Y015629D01*
X008389Y015592D01*
X008279Y015592D01*
X008425Y015518D02*
X008425Y015371D01*
X008425Y015298D02*
X008425Y015261D01*
X008389Y015261D01*
X008389Y015298D01*
X008425Y015298D01*
X008389Y015187D02*
X008242Y015187D01*
X008389Y015040D01*
X008425Y015077D01*
X008425Y015150D01*
X008389Y015187D01*
X008242Y015187D02*
X008205Y015150D01*
X008205Y015077D01*
X008242Y015040D01*
X008389Y015040D01*
X008279Y015371D02*
X008205Y015445D01*
X008425Y015445D01*
X012612Y010511D02*
X012759Y010364D01*
X012796Y010400D01*
X012796Y010474D01*
X012759Y010511D01*
X012612Y010511D01*
X012575Y010474D01*
X012575Y010400D01*
X012612Y010364D01*
X012759Y010364D01*
X012759Y010290D02*
X012722Y010290D01*
X012685Y010253D01*
X012685Y010143D01*
X012759Y010143D01*
X012796Y010179D01*
X012796Y010253D01*
X012759Y010290D01*
X012612Y010216D02*
X012685Y010143D01*
X012612Y010216D02*
X012575Y010290D01*
X012575Y009995D02*
X012796Y009995D01*
X012796Y009922D02*
X012796Y010069D01*
X012649Y009922D02*
X012575Y009995D01*
X013591Y010023D02*
X013811Y010023D01*
X013811Y010096D02*
X013811Y009949D01*
X013664Y009949D02*
X013591Y010023D01*
X013701Y010170D02*
X013628Y010244D01*
X013591Y010317D01*
X013628Y010391D02*
X013591Y010428D01*
X013591Y010501D01*
X013628Y010538D01*
X013775Y010391D01*
X013811Y010428D01*
X013811Y010501D01*
X013775Y010538D01*
X013628Y010538D01*
X013628Y010391D02*
X013775Y010391D01*
X013775Y010317D02*
X013738Y010317D01*
X013701Y010280D01*
X013701Y010170D01*
X013775Y010170D01*
X013811Y010207D01*
X013811Y010280D01*
X013775Y010317D01*
X014375Y010337D02*
X014375Y010411D01*
X014411Y010448D01*
X014558Y010301D01*
X014595Y010337D01*
X014595Y010411D01*
X014558Y010448D01*
X014411Y010448D01*
X014375Y010337D02*
X014411Y010301D01*
X014558Y010301D01*
X014558Y010227D02*
X014521Y010227D01*
X014485Y010190D01*
X014485Y010080D01*
X014558Y010080D01*
X014595Y010117D01*
X014595Y010190D01*
X014558Y010227D01*
X014411Y010153D02*
X014485Y010080D01*
X014411Y010153D02*
X014375Y010227D01*
X014375Y009932D02*
X014595Y009932D01*
X014595Y009859D02*
X014595Y010006D01*
X014448Y009859D02*
X014375Y009932D01*
X015977Y010966D02*
X016014Y010930D01*
X015977Y010966D02*
X015977Y011040D01*
X016014Y011076D01*
X016050Y011076D01*
X016197Y010930D01*
X016197Y011076D01*
X016197Y011151D02*
X016050Y011297D01*
X016014Y011297D01*
X015977Y011261D01*
X015977Y011187D01*
X016014Y011151D01*
X016197Y011151D02*
X016197Y011297D01*
D19*
X018154Y014587D02*
X020910Y014587D01*
X020910Y016268D01*
X021107Y016268D01*
X021107Y017056D01*
X020910Y017056D01*
X020910Y016268D01*
X020910Y017056D02*
X020910Y018737D01*
X018154Y018737D01*
X018154Y014587D01*
X016741Y019674D02*
X015528Y019674D01*
X015134Y020185D02*
X015134Y021174D01*
X015528Y021674D02*
X016741Y021674D01*
X017134Y021162D02*
X017134Y020185D01*
X015634Y020674D02*
X015636Y020718D01*
X015642Y020762D01*
X015652Y020805D01*
X015665Y020847D01*
X015682Y020888D01*
X015703Y020927D01*
X015727Y020964D01*
X015754Y020999D01*
X015784Y021031D01*
X015817Y021061D01*
X015853Y021087D01*
X015890Y021111D01*
X015930Y021130D01*
X015971Y021147D01*
X016014Y021159D01*
X016057Y021168D01*
X016101Y021173D01*
X016145Y021174D01*
X016189Y021171D01*
X016233Y021164D01*
X016276Y021153D01*
X016318Y021139D01*
X016358Y021121D01*
X016397Y021099D01*
X016433Y021075D01*
X016467Y021047D01*
X016499Y021016D01*
X016528Y020982D01*
X016554Y020946D01*
X016576Y020908D01*
X016595Y020868D01*
X016610Y020826D01*
X016622Y020784D01*
X016630Y020740D01*
X016634Y020696D01*
X016634Y020652D01*
X016630Y020608D01*
X016622Y020564D01*
X016610Y020522D01*
X016595Y020480D01*
X016576Y020440D01*
X016554Y020402D01*
X016528Y020366D01*
X016499Y020332D01*
X016467Y020301D01*
X016433Y020273D01*
X016397Y020249D01*
X016358Y020227D01*
X016318Y020209D01*
X016276Y020195D01*
X016233Y020184D01*
X016189Y020177D01*
X016145Y020174D01*
X016101Y020175D01*
X016057Y020180D01*
X016014Y020189D01*
X015971Y020201D01*
X015930Y020218D01*
X015890Y020237D01*
X015853Y020261D01*
X015817Y020287D01*
X015784Y020317D01*
X015754Y020349D01*
X015727Y020384D01*
X015703Y020421D01*
X015682Y020460D01*
X015665Y020501D01*
X015652Y020543D01*
X015642Y020586D01*
X015636Y020630D01*
X015634Y020674D01*
X014079Y019122D02*
X014237Y018965D01*
X014237Y015500D01*
X014079Y015343D01*
X010615Y015343D01*
X010457Y015500D01*
X010457Y018965D01*
X010615Y019122D01*
X014079Y019122D01*
X013653Y022339D02*
X013653Y022839D01*
X013653Y022339D02*
X018253Y022339D01*
X018253Y022839D01*
X018253Y023839D02*
X018253Y024339D01*
X013653Y024339D01*
X013653Y023839D01*
X009707Y023641D02*
X009707Y022664D01*
X009313Y022152D02*
X008100Y022152D01*
X007707Y022664D02*
X007707Y023652D01*
X008100Y024152D02*
X009313Y024152D01*
X008207Y023152D02*
X008209Y023196D01*
X008215Y023240D01*
X008225Y023283D01*
X008238Y023325D01*
X008255Y023366D01*
X008276Y023405D01*
X008300Y023442D01*
X008327Y023477D01*
X008357Y023509D01*
X008390Y023539D01*
X008426Y023565D01*
X008463Y023589D01*
X008503Y023608D01*
X008544Y023625D01*
X008587Y023637D01*
X008630Y023646D01*
X008674Y023651D01*
X008718Y023652D01*
X008762Y023649D01*
X008806Y023642D01*
X008849Y023631D01*
X008891Y023617D01*
X008931Y023599D01*
X008970Y023577D01*
X009006Y023553D01*
X009040Y023525D01*
X009072Y023494D01*
X009101Y023460D01*
X009127Y023424D01*
X009149Y023386D01*
X009168Y023346D01*
X009183Y023304D01*
X009195Y023262D01*
X009203Y023218D01*
X009207Y023174D01*
X009207Y023130D01*
X009203Y023086D01*
X009195Y023042D01*
X009183Y023000D01*
X009168Y022958D01*
X009149Y022918D01*
X009127Y022880D01*
X009101Y022844D01*
X009072Y022810D01*
X009040Y022779D01*
X009006Y022751D01*
X008970Y022727D01*
X008931Y022705D01*
X008891Y022687D01*
X008849Y022673D01*
X008806Y022662D01*
X008762Y022655D01*
X008718Y022652D01*
X008674Y022653D01*
X008630Y022658D01*
X008587Y022667D01*
X008544Y022679D01*
X008503Y022696D01*
X008463Y022715D01*
X008426Y022739D01*
X008390Y022765D01*
X008357Y022795D01*
X008327Y022827D01*
X008300Y022862D01*
X008276Y022899D01*
X008255Y022938D01*
X008238Y022979D01*
X008225Y023021D01*
X008215Y023064D01*
X008209Y023108D01*
X008207Y023152D01*
X008514Y007539D02*
X011094Y007539D01*
X011094Y006139D01*
X008514Y006139D01*
X008514Y007539D01*
X008493Y005819D02*
X008143Y005819D01*
X008493Y005819D02*
X008493Y005019D01*
X008043Y004119D02*
X007343Y004119D01*
X006893Y005019D02*
X006893Y005819D01*
X007243Y005819D01*
D20*
X013811Y018807D02*
X013813Y018827D01*
X013818Y018847D01*
X013828Y018865D01*
X013840Y018882D01*
X013855Y018896D01*
X013873Y018906D01*
X013892Y018914D01*
X013912Y018918D01*
X013932Y018918D01*
X013952Y018914D01*
X013971Y018906D01*
X013989Y018896D01*
X014004Y018882D01*
X014016Y018865D01*
X014026Y018847D01*
X014031Y018827D01*
X014033Y018807D01*
X014031Y018787D01*
X014026Y018767D01*
X014016Y018749D01*
X014004Y018732D01*
X013989Y018718D01*
X013971Y018708D01*
X013952Y018700D01*
X013932Y018696D01*
X013912Y018696D01*
X013892Y018700D01*
X013873Y018708D01*
X013855Y018718D01*
X013840Y018732D01*
X013828Y018749D01*
X013818Y018767D01*
X013813Y018787D01*
X013811Y018807D01*
D21*
X013823Y019359D03*
X013626Y019359D03*
X013430Y019359D03*
X013233Y019359D03*
X013036Y019359D03*
X012839Y019359D03*
X012642Y019359D03*
X012445Y019359D03*
X012248Y019359D03*
X012052Y019359D03*
X011855Y019359D03*
X011658Y019359D03*
X011461Y019359D03*
X011264Y019359D03*
X011067Y019359D03*
X010870Y019359D03*
X010870Y015107D03*
X011067Y015107D03*
X011264Y015107D03*
X011461Y015107D03*
X011658Y015107D03*
X011855Y015107D03*
X012052Y015107D03*
X012248Y015107D03*
X012445Y015107D03*
X012642Y015107D03*
X012839Y015107D03*
X013036Y015107D03*
X013233Y015107D03*
X013430Y015107D03*
X013626Y015107D03*
X013823Y015107D03*
D22*
X014473Y015756D03*
X014473Y015953D03*
X014473Y016150D03*
X014473Y016347D03*
X014473Y016544D03*
X014473Y016741D03*
X014473Y016937D03*
X014473Y017134D03*
X014473Y017331D03*
X014473Y017528D03*
X014473Y017725D03*
X014473Y017922D03*
X014473Y018119D03*
X014473Y018315D03*
X014473Y018512D03*
X014473Y018709D03*
X010221Y018709D03*
X010221Y018512D03*
X010221Y018315D03*
X010221Y018119D03*
X010221Y017922D03*
X010221Y017725D03*
X010221Y017528D03*
X010221Y017331D03*
X010221Y017134D03*
X010221Y016937D03*
X010221Y016741D03*
X010221Y016544D03*
X010221Y016347D03*
X010221Y016150D03*
X010221Y015953D03*
X010221Y015756D03*
D23*
X011910Y020662D02*
X013130Y020662D01*
X013130Y021882D01*
X011910Y021882D01*
X011910Y020662D01*
D24*
X009046Y019933D03*
D25*
X006835Y006359D02*
X006835Y006032D01*
X006672Y006196D02*
X006999Y006196D01*
X008147Y006196D02*
X008474Y006196D01*
D26*
X010815Y020429D02*
X010815Y020579D01*
X010740Y020504D01*
X010840Y020504D01*
X010887Y020454D02*
X010912Y020454D01*
X010912Y020429D01*
X010887Y020429D01*
X010887Y020454D01*
X010961Y020454D02*
X010961Y020429D01*
X010961Y020454D02*
X011061Y020554D01*
X011061Y020579D01*
X010961Y020579D01*
X011108Y020529D02*
X011108Y020454D01*
X011133Y020429D01*
X011208Y020429D01*
X011208Y020529D01*
X011255Y020504D02*
X011305Y020504D01*
X011255Y020579D02*
X011355Y020579D01*
X011255Y020579D02*
X011255Y020429D01*
D27*
X017957Y026607D02*
X017959Y026683D01*
X017965Y026759D01*
X017975Y026834D01*
X017988Y026909D01*
X018006Y026983D01*
X018027Y027056D01*
X018052Y027128D01*
X018080Y027198D01*
X018113Y027267D01*
X018148Y027334D01*
X018188Y027399D01*
X018230Y027462D01*
X018276Y027523D01*
X018324Y027581D01*
X018376Y027637D01*
X018430Y027690D01*
X018487Y027740D01*
X018547Y027787D01*
X018609Y027832D01*
X018673Y027872D01*
X018739Y027910D01*
X018807Y027944D01*
X018877Y027974D01*
X018948Y028001D01*
X019020Y028024D01*
X019094Y028043D01*
X019168Y028059D01*
X019243Y028071D01*
X019319Y028079D01*
X019395Y028083D01*
X019471Y028083D01*
X019547Y028079D01*
X019622Y028071D01*
X019697Y028059D01*
X019772Y028044D01*
X019845Y028024D01*
X019918Y028001D01*
X019989Y027974D01*
X020058Y027944D01*
X020126Y027910D01*
X020193Y027873D01*
X020257Y027832D01*
X020319Y027788D01*
D28*
X020378Y027741D01*
X020435Y027690D01*
X020490Y027637D01*
X020541Y027582D01*
X020590Y027523D01*
X020636Y027462D01*
X020678Y027399D01*
X020717Y027334D01*
X020753Y027267D01*
X020785Y027198D01*
X020814Y027128D01*
X020839Y027056D01*
X020860Y026983D01*
X020878Y026909D01*
X020891Y026834D01*
X020901Y026759D01*
X020907Y026683D01*
X020909Y026607D01*
X020319Y027787D02*
X020387Y027839D01*
X020456Y027887D01*
X020528Y027932D01*
X020602Y027973D01*
X020678Y028011D01*
X020756Y028045D01*
X020835Y028076D01*
X020915Y028103D01*
X020997Y028126D01*
X021079Y028145D01*
X021163Y028160D01*
X021247Y028171D01*
X021331Y028179D01*
X021416Y028182D01*
X021500Y028181D01*
X020909Y026607D02*
X020744Y026541D01*
X020575Y026482D01*
X020404Y026432D01*
X020230Y026390D01*
X020055Y026356D01*
X019878Y026331D01*
X019701Y026314D01*
X019522Y026305D01*
X019344Y026305D01*
X019165Y026314D01*
X018988Y026331D01*
X018811Y026356D01*
X018636Y026390D01*
X018462Y026432D01*
X018291Y026482D01*
X018122Y026541D01*
X017957Y026607D01*
X017956Y026607D02*
X018161Y026675D01*
X018368Y026732D01*
X018578Y026779D01*
X018790Y026816D01*
X019003Y026842D01*
X019218Y026858D01*
X019433Y026863D01*
X019648Y026858D01*
X019863Y026842D01*
X020076Y026816D01*
X020288Y026779D01*
X020498Y026732D01*
X020705Y026675D01*
X020910Y026607D01*
D29*
X021500Y028378D02*
X021500Y023063D01*
D30*
X017635Y014054D03*
X016739Y014062D03*
X016099Y013222D03*
D31*
X016107Y013230D03*
X016363Y013230D03*
D32*
X016115Y013234D03*
X016635Y013234D03*
X016995Y014050D03*
X021555Y013642D03*
D33*
X020771Y012874D03*
X020763Y012874D03*
X020747Y012882D03*
X020707Y012898D03*
X020667Y012914D03*
X020651Y012914D03*
X020643Y012922D03*
X020627Y012922D03*
X020587Y012938D03*
X020547Y012954D03*
X020531Y012962D03*
X020523Y012962D03*
X020491Y012978D03*
X020483Y012978D03*
X020411Y013002D03*
X020371Y013018D03*
X020363Y013018D03*
X020331Y013034D03*
X020323Y013034D03*
X020307Y013042D03*
X020083Y012914D03*
X019771Y012722D03*
X019731Y012698D03*
X019691Y012674D03*
X019403Y012658D03*
X019227Y012658D03*
X019131Y012202D03*
X019123Y012202D03*
X019147Y012194D03*
X019187Y012178D03*
X019227Y012162D03*
X019243Y012162D03*
X019251Y012154D03*
X019267Y012154D03*
X019307Y012138D03*
X019347Y012122D03*
X019363Y012114D03*
X019371Y012114D03*
X019347Y012002D03*
X019331Y011994D03*
X019323Y011994D03*
X019291Y011978D03*
X019283Y011978D03*
X019243Y011962D03*
X019171Y011938D03*
X019131Y011922D03*
X019107Y011914D03*
X019027Y011882D03*
X019011Y011874D03*
X019003Y011874D03*
X018963Y011858D03*
X018707Y011738D03*
X018683Y012114D03*
X018627Y012122D03*
X018611Y012122D03*
X018603Y012122D03*
X018587Y012122D03*
X018571Y012122D03*
X018563Y012122D03*
X018443Y012122D03*
X018427Y012122D03*
X018427Y012434D03*
X018411Y012434D03*
X018403Y012434D03*
X018387Y012434D03*
X018371Y012434D03*
X018363Y012434D03*
X018347Y012434D03*
X018331Y012434D03*
X018323Y012434D03*
X018307Y012434D03*
X018291Y012434D03*
X018283Y012434D03*
X018267Y012434D03*
X018251Y012434D03*
X018243Y012434D03*
X018443Y012434D03*
X018451Y012434D03*
X018467Y012434D03*
X018483Y012434D03*
X018491Y012434D03*
X018507Y012434D03*
X018523Y012434D03*
X018531Y012434D03*
X018547Y012434D03*
X018563Y012434D03*
X018571Y012434D03*
X018587Y012434D03*
X018603Y012434D03*
X018611Y012434D03*
X018627Y012434D03*
X018643Y012434D03*
X018651Y012434D03*
X018667Y012434D03*
X018683Y012434D03*
X018691Y012434D03*
X018707Y012434D03*
X018723Y012434D03*
X018731Y012434D03*
X018747Y012434D03*
X018763Y012434D03*
X018771Y012434D03*
X018787Y012434D03*
X018931Y012274D03*
X018963Y012258D03*
X018971Y012258D03*
X019011Y012242D03*
X019627Y012258D03*
X019643Y012258D03*
X019651Y012258D03*
X019667Y012258D03*
X019683Y012258D03*
X019691Y012258D03*
X019707Y012258D03*
X019723Y012258D03*
X019731Y012258D03*
X019747Y012258D03*
X019763Y012258D03*
X019771Y012258D03*
X019787Y012258D03*
X019803Y012258D03*
X019811Y012258D03*
X019827Y012258D03*
X019843Y012258D03*
X019851Y012258D03*
X019867Y012258D03*
X019883Y012258D03*
X019891Y012258D03*
X019907Y012258D03*
X019923Y012258D03*
X019931Y012258D03*
X019947Y012258D03*
X019963Y012258D03*
X019971Y012258D03*
X019987Y012258D03*
X020003Y012258D03*
X020011Y012258D03*
X020027Y012258D03*
X020043Y012258D03*
X020051Y012258D03*
X020067Y012258D03*
X020083Y012258D03*
X020091Y012258D03*
X020107Y012258D03*
X020123Y012258D03*
X020131Y012258D03*
X020147Y012258D03*
X020163Y012258D03*
X020307Y012058D03*
X020403Y012018D03*
X020443Y012002D03*
X020467Y011994D03*
X020491Y011978D03*
X020507Y011978D03*
X020531Y011962D03*
X020563Y011954D03*
X020603Y011938D03*
X020643Y011922D03*
X020651Y011914D03*
X020691Y011898D03*
X020731Y011882D03*
X020747Y011874D03*
X020627Y012194D03*
X020643Y012202D03*
X020651Y012202D03*
X020683Y012218D03*
X020691Y012218D03*
X020723Y012234D03*
X020731Y012242D03*
X020747Y012242D03*
X020587Y012178D03*
X020547Y012162D03*
X020531Y012154D03*
X020523Y012154D03*
X020491Y012138D03*
X020483Y012138D03*
X020451Y012122D03*
X020427Y012114D03*
X020163Y011978D03*
X020123Y011962D03*
X020107Y011962D03*
X020091Y011954D03*
X020083Y011954D03*
X020051Y011938D03*
X020043Y011938D03*
X020011Y011922D03*
X020003Y011922D03*
X019987Y011914D03*
X019971Y011914D03*
X019931Y011898D03*
X019891Y011882D03*
X019883Y011882D03*
X019867Y011874D03*
X019827Y011858D03*
X019771Y011842D03*
X019763Y011834D03*
X019747Y011834D03*
X019707Y011818D03*
X019787Y011698D03*
X019827Y011682D03*
X019851Y011674D03*
X019891Y011658D03*
X019907Y011658D03*
X019947Y011642D03*
X019963Y011634D03*
X019971Y011634D03*
X020003Y011618D03*
X020011Y011618D03*
X020051Y011602D03*
X020067Y011602D03*
X020083Y011594D03*
X020091Y011594D03*
X020123Y011578D03*
X020131Y011578D03*
X020363Y011458D03*
X020371Y011458D03*
X020387Y011458D03*
X020403Y011458D03*
X020411Y011458D03*
X020427Y011458D03*
X020443Y011458D03*
X020451Y011458D03*
X020467Y011458D03*
X020483Y011458D03*
X020491Y011458D03*
X020507Y011458D03*
X020523Y011458D03*
X020531Y011458D03*
X020547Y011458D03*
X020611Y011458D03*
X020627Y011458D03*
X020643Y011458D03*
X020651Y011458D03*
X020667Y011458D03*
X020683Y011458D03*
X020691Y011458D03*
X020707Y011458D03*
X020723Y011458D03*
X020731Y011458D03*
X020747Y011458D03*
X020763Y011458D03*
X020771Y011458D03*
X020787Y011458D03*
X020771Y011122D03*
X020747Y011114D03*
X020667Y011114D03*
X020403Y011098D03*
X020491Y010442D03*
X020467Y010434D03*
X020603Y010434D03*
X020771Y010434D03*
X020083Y010362D03*
X020067Y010354D03*
X019947Y010354D03*
X019923Y010362D03*
X019787Y010362D03*
X019771Y010362D03*
X019771Y010058D03*
X019763Y010058D03*
X019747Y010058D03*
X019731Y010058D03*
X019723Y010058D03*
X019947Y010042D03*
X020091Y010042D03*
X020083Y009722D03*
X020067Y009722D03*
X020067Y009402D03*
X020051Y009402D03*
X020043Y009402D03*
X020027Y009402D03*
X020011Y009402D03*
X020003Y009402D03*
X019987Y009402D03*
X019971Y009402D03*
X019963Y009402D03*
X019947Y009402D03*
X019931Y009402D03*
X019923Y009402D03*
X019907Y009402D03*
X019891Y009402D03*
X019883Y009402D03*
X019867Y009402D03*
X019851Y009402D03*
X019843Y009402D03*
X019827Y009402D03*
X019811Y009402D03*
X019803Y009402D03*
X019787Y009402D03*
X019771Y009402D03*
X019763Y009402D03*
X019747Y009402D03*
X019731Y009402D03*
X019723Y009402D03*
X019707Y009402D03*
X019691Y009402D03*
X019683Y009402D03*
X019667Y009402D03*
X019651Y009402D03*
X019643Y009402D03*
X019627Y009402D03*
X019691Y009714D03*
X019683Y009722D03*
X020083Y009402D03*
X020091Y009402D03*
X020107Y009402D03*
X020123Y009402D03*
X020131Y009402D03*
X020147Y009402D03*
X020387Y009402D03*
X020403Y009394D03*
X020683Y009378D03*
X020691Y009378D03*
X020763Y009402D03*
X020723Y009082D03*
X020747Y008698D03*
X020763Y008698D03*
X020403Y008698D03*
X020091Y008178D03*
X020003Y008234D03*
X019931Y008282D03*
X018731Y010578D03*
X018723Y010578D03*
X018707Y010578D03*
X018691Y010578D03*
X018683Y010578D03*
X018667Y010578D03*
X018651Y010578D03*
X018643Y010578D03*
X018627Y010578D03*
X018611Y010578D03*
X018603Y010578D03*
X018587Y010578D03*
X018571Y010578D03*
X018563Y010578D03*
X018547Y010578D03*
X018531Y010578D03*
X018523Y010578D03*
X018507Y010578D03*
X018491Y010578D03*
X018483Y010578D03*
X018467Y010578D03*
X018451Y010578D03*
X018443Y010578D03*
X018427Y010578D03*
X018411Y010578D03*
X018403Y010578D03*
X018387Y010578D03*
X018371Y010578D03*
X018363Y010578D03*
X018347Y010578D03*
X018331Y010578D03*
X018323Y010578D03*
X018307Y010578D03*
X018291Y010578D03*
X018283Y010578D03*
X018267Y010578D03*
X018251Y010578D03*
X018243Y010578D03*
X019043Y011082D03*
X019051Y011082D03*
X019067Y011082D03*
X019083Y011082D03*
X019091Y011082D03*
X019107Y011082D03*
X019387Y011098D03*
X019403Y011098D03*
X019371Y011458D03*
X019363Y011458D03*
X019347Y011458D03*
X019331Y011458D03*
X019171Y011458D03*
X019163Y011458D03*
X019147Y011458D03*
X019131Y011458D03*
X019123Y011458D03*
X019107Y011458D03*
X019091Y011458D03*
X019083Y011458D03*
X019067Y011458D03*
X019011Y011442D03*
X018331Y011738D03*
X018323Y011738D03*
X017963Y014042D03*
X017611Y014042D03*
X017283Y014042D03*
X016651Y013242D03*
X016123Y013242D03*
X020307Y012618D03*
X020347Y012634D03*
X020363Y012642D03*
X020371Y012642D03*
X020411Y012658D03*
X020467Y012682D03*
X020483Y012682D03*
X020523Y012698D03*
X020563Y012714D03*
X020587Y012722D03*
X020627Y012738D03*
X020667Y012754D03*
X020691Y012762D03*
X020731Y012778D03*
D34*
X020091Y012918D03*
X020067Y012902D03*
X020051Y012894D03*
X020027Y012878D03*
X020011Y012870D03*
X019987Y012854D03*
X019971Y012846D03*
X019963Y012838D03*
X019947Y012830D03*
X019931Y012822D03*
X019923Y012814D03*
X019907Y012806D03*
X019891Y012798D03*
X019883Y012790D03*
X019867Y012782D03*
X019851Y012774D03*
X019843Y012766D03*
X019827Y012758D03*
X019811Y012750D03*
X019803Y012742D03*
X019787Y012734D03*
X019763Y012718D03*
X019747Y012710D03*
X019723Y012694D03*
X019707Y012686D03*
X019683Y012670D03*
X019411Y012670D03*
X018723Y012094D03*
X018723Y011742D03*
X019003Y011438D03*
X019003Y011094D03*
X019403Y011446D03*
X019811Y010374D03*
X019907Y010374D03*
X020091Y010366D03*
X020483Y010438D03*
X020507Y010454D03*
X020371Y011110D03*
X019683Y010046D03*
X019843Y009718D03*
X020371Y009062D03*
X020363Y009054D03*
X020363Y008718D03*
X020147Y008518D03*
X020131Y008510D03*
X020107Y008494D03*
X020091Y008486D03*
X020083Y008478D03*
X020067Y008470D03*
X020051Y008462D03*
X020043Y008454D03*
X020027Y008446D03*
X020011Y008438D03*
X020003Y008430D03*
X019987Y008422D03*
X019963Y008406D03*
X019947Y008398D03*
X019931Y008382D03*
X019923Y008382D03*
X019851Y008334D03*
X019923Y008286D03*
X019947Y008270D03*
X019963Y008262D03*
X019971Y008254D03*
X019987Y008246D03*
X020011Y008230D03*
X020027Y008222D03*
X020043Y008206D03*
X020051Y008206D03*
X020067Y008190D03*
X020083Y008182D03*
X020107Y008166D03*
X020123Y008158D03*
X020131Y008150D03*
X020147Y008142D03*
X020163Y008134D03*
X020771Y009406D03*
X018307Y011750D03*
X017283Y013246D03*
X016963Y013246D03*
X016387Y013246D03*
X016131Y013246D03*
X016707Y014038D03*
X021531Y013646D03*
D35*
X016659Y013250D03*
X016139Y013250D03*
D36*
X016147Y013262D03*
X016667Y013254D03*
X016691Y014022D03*
X016963Y014030D03*
X017267Y014030D03*
X017947Y014030D03*
X017651Y013254D03*
X018731Y012086D03*
X019467Y012062D03*
X018987Y011110D03*
X019827Y010390D03*
X019851Y009734D03*
X019867Y008334D03*
X020787Y011134D03*
X020331Y012062D03*
X020843Y012830D03*
D37*
X020835Y012834D03*
X021515Y013642D03*
X019619Y011770D03*
X020515Y010466D03*
X020355Y008730D03*
X018299Y011762D03*
X017939Y014026D03*
X016155Y013266D03*
D38*
X016163Y013278D03*
X016211Y013342D03*
X016251Y013398D03*
X016267Y013422D03*
X016323Y013502D03*
X016483Y013734D03*
X016611Y013918D03*
X016667Y013998D03*
X016987Y013262D03*
X017307Y013262D03*
X017587Y014022D03*
X017931Y014022D03*
X019443Y012062D03*
X019451Y012062D03*
X019627Y012614D03*
X020147Y012974D03*
X020843Y011814D03*
X020851Y011814D03*
X019667Y010022D03*
D39*
X020787Y009430D03*
X020851Y012310D03*
X020827Y012830D03*
X016523Y013790D03*
X016467Y013710D03*
X016451Y013686D03*
X016411Y013630D03*
X016283Y013446D03*
X016171Y013286D03*
X016411Y013270D03*
D40*
X016419Y013274D03*
X016259Y013410D03*
X016275Y013434D03*
X016299Y013466D03*
X016315Y013490D03*
X016379Y013586D03*
X016419Y013642D03*
X016435Y013666D03*
X016459Y013698D03*
X016475Y013722D03*
X016499Y013754D03*
X016515Y013778D03*
X016579Y013874D03*
X016619Y013930D03*
X016635Y013954D03*
X016659Y013986D03*
X016235Y013378D03*
X016219Y013354D03*
X016179Y013298D03*
X017315Y013266D03*
X017579Y014018D03*
X019635Y012618D03*
X020139Y012970D03*
X020819Y012834D03*
X020835Y012306D03*
X020835Y011818D03*
X020579Y010474D03*
X020795Y008738D03*
X021499Y013642D03*
D41*
X020811Y012834D03*
X020843Y012306D03*
X020827Y011818D03*
X020363Y012058D03*
X020611Y011170D03*
X019931Y010010D03*
X019667Y009746D03*
X019883Y008330D03*
X019651Y011770D03*
X019643Y011770D03*
X019203Y012690D03*
X017667Y013266D03*
X017251Y014018D03*
X016947Y014018D03*
X016651Y013978D03*
X016643Y013962D03*
X016627Y013938D03*
X016603Y013906D03*
X016587Y013882D03*
X016571Y013858D03*
X016563Y013850D03*
X016547Y013826D03*
X016531Y013802D03*
X016507Y013770D03*
X016491Y013746D03*
X016443Y013674D03*
X016427Y013650D03*
X016403Y013618D03*
X016387Y013594D03*
X016371Y013570D03*
X016363Y013562D03*
X016347Y013538D03*
X016331Y013514D03*
X016307Y013482D03*
X016291Y013458D03*
X016243Y013386D03*
X016227Y013362D03*
X016203Y013330D03*
X016187Y013306D03*
X016683Y013266D03*
D42*
X016675Y013262D03*
X016195Y013318D03*
X016539Y013814D03*
X016555Y013838D03*
X016595Y013894D03*
X016955Y014022D03*
X017259Y014022D03*
X017659Y013262D03*
X019459Y012062D03*
X019635Y011774D03*
X019619Y012614D03*
X020155Y012974D03*
X020355Y012062D03*
X020355Y009038D03*
X019875Y008334D03*
D43*
X018299Y012070D03*
X019419Y012686D03*
X016675Y014006D03*
X016395Y013606D03*
X016355Y013550D03*
X016339Y013526D03*
D44*
X016355Y013226D03*
X016939Y013234D03*
X017259Y013226D03*
X017979Y014050D03*
D45*
X017971Y014050D03*
X017267Y013234D03*
X016947Y013234D03*
X016371Y013234D03*
X016723Y014050D03*
X019307Y011090D03*
X020171Y009882D03*
X020011Y009714D03*
D46*
X020019Y009714D03*
X020075Y009722D03*
X019835Y009714D03*
X019699Y009714D03*
X019699Y009402D03*
X019715Y009402D03*
X019739Y009402D03*
X019755Y009402D03*
X019779Y009402D03*
X019795Y009402D03*
X019819Y009402D03*
X019835Y009402D03*
X019859Y009402D03*
X019875Y009402D03*
X019899Y009402D03*
X019915Y009402D03*
X019939Y009402D03*
X019955Y009402D03*
X019979Y009402D03*
X019995Y009402D03*
X020019Y009402D03*
X020035Y009402D03*
X020059Y009402D03*
X020075Y009402D03*
X020099Y009402D03*
X020115Y009402D03*
X020139Y009402D03*
X020155Y009402D03*
X020395Y009394D03*
X020675Y009378D03*
X020755Y009394D03*
X020755Y009074D03*
X020395Y009074D03*
X020739Y008698D03*
X020755Y008698D03*
X019779Y010058D03*
X019755Y010058D03*
X019739Y010058D03*
X019715Y010058D03*
X019779Y010362D03*
X019939Y010354D03*
X020059Y010354D03*
X020459Y010434D03*
X020475Y010434D03*
X020499Y011098D03*
X020539Y011114D03*
X020755Y011114D03*
X020755Y011458D03*
X020739Y011458D03*
X020715Y011458D03*
X020699Y011458D03*
X020675Y011458D03*
X020659Y011458D03*
X020635Y011458D03*
X020619Y011458D03*
X020539Y011458D03*
X020515Y011458D03*
X020499Y011458D03*
X020475Y011458D03*
X020459Y011458D03*
X020435Y011458D03*
X020419Y011458D03*
X020395Y011458D03*
X020379Y011458D03*
X020355Y011458D03*
X020075Y011594D03*
X020059Y011602D03*
X020019Y011618D03*
X019939Y011642D03*
X019899Y011658D03*
X019859Y011674D03*
X019835Y011682D03*
X019779Y011698D03*
X019739Y011714D03*
X019715Y011722D03*
X019715Y011818D03*
X019755Y011834D03*
X019779Y011842D03*
X019819Y011858D03*
X019859Y011874D03*
X019875Y011874D03*
X019899Y011882D03*
X019939Y011898D03*
X019979Y011914D03*
X019995Y011922D03*
X020099Y011954D03*
X020115Y011962D03*
X020155Y011978D03*
X020299Y012058D03*
X020395Y012018D03*
X020435Y012002D03*
X020459Y011994D03*
X020499Y011978D03*
X020539Y011962D03*
X020555Y011954D03*
X020595Y011938D03*
X020635Y011922D03*
X020659Y011914D03*
X020699Y011898D03*
X020739Y011882D03*
X020755Y011874D03*
X020619Y012194D03*
X020635Y012202D03*
X020675Y012218D03*
X020715Y012234D03*
X020739Y012242D03*
X020579Y012178D03*
X020555Y012162D03*
X020435Y012114D03*
X020395Y012098D03*
X020155Y012258D03*
X020139Y012258D03*
X020115Y012258D03*
X020099Y012258D03*
X020075Y012258D03*
X020059Y012258D03*
X020035Y012258D03*
X020019Y012258D03*
X019995Y012258D03*
X019979Y012258D03*
X019955Y012258D03*
X019939Y012258D03*
X019915Y012258D03*
X019899Y012258D03*
X019875Y012258D03*
X019859Y012258D03*
X019835Y012258D03*
X019819Y012258D03*
X019795Y012258D03*
X019779Y012258D03*
X019755Y012258D03*
X019739Y012258D03*
X019715Y012258D03*
X019699Y012258D03*
X019675Y012258D03*
X019659Y012258D03*
X019635Y012258D03*
X019619Y012258D03*
X019339Y012122D03*
X019299Y012138D03*
X019259Y012154D03*
X019235Y012162D03*
X019195Y012178D03*
X019155Y012194D03*
X019139Y012194D03*
X019115Y012202D03*
X019035Y012234D03*
X019019Y012242D03*
X018979Y012258D03*
X018939Y012274D03*
X018779Y012434D03*
X018755Y012434D03*
X018739Y012434D03*
X018715Y012434D03*
X018699Y012434D03*
X018675Y012434D03*
X018659Y012434D03*
X018635Y012434D03*
X018619Y012434D03*
X018595Y012434D03*
X018579Y012434D03*
X018555Y012434D03*
X018539Y012434D03*
X018515Y012434D03*
X018499Y012434D03*
X018475Y012434D03*
X018459Y012434D03*
X018435Y012434D03*
X018419Y012434D03*
X018395Y012434D03*
X018379Y012434D03*
X018355Y012434D03*
X018339Y012434D03*
X018315Y012434D03*
X018299Y012434D03*
X018275Y012434D03*
X018259Y012434D03*
X018315Y012098D03*
X018419Y012122D03*
X018435Y012122D03*
X018555Y012122D03*
X018579Y012122D03*
X018595Y012122D03*
X018619Y012122D03*
X018715Y012098D03*
X018955Y011858D03*
X019019Y011882D03*
X019115Y011914D03*
X019139Y011922D03*
X019179Y011938D03*
X019219Y011954D03*
X019235Y011962D03*
X019355Y012002D03*
X019395Y012018D03*
X019355Y011458D03*
X019339Y011458D03*
X019155Y011458D03*
X019139Y011458D03*
X019115Y011458D03*
X019099Y011458D03*
X019075Y011458D03*
X019019Y011442D03*
X019059Y011082D03*
X019075Y011082D03*
X019099Y011082D03*
X019395Y011098D03*
X018715Y010578D03*
X018699Y010578D03*
X018675Y010578D03*
X018659Y010578D03*
X018635Y010578D03*
X018619Y010578D03*
X018595Y010578D03*
X018579Y010578D03*
X018555Y010578D03*
X018539Y010578D03*
X018515Y010578D03*
X018499Y010578D03*
X018475Y010578D03*
X018459Y010578D03*
X018435Y010578D03*
X018419Y010578D03*
X018395Y010578D03*
X018379Y010578D03*
X018355Y010578D03*
X018339Y010578D03*
X018315Y010578D03*
X018299Y010578D03*
X018275Y010578D03*
X018259Y010578D03*
X018715Y011738D03*
X019235Y012658D03*
X019395Y012658D03*
X019755Y012714D03*
X019795Y012738D03*
X019835Y012762D03*
X019899Y012802D03*
X020299Y012618D03*
X020339Y012634D03*
X020355Y012634D03*
X020475Y012682D03*
X020515Y012698D03*
X020555Y012714D03*
X020579Y012722D03*
X020675Y012754D03*
X020699Y012762D03*
X020739Y012778D03*
X020779Y012794D03*
X020739Y012882D03*
X020699Y012898D03*
X020659Y012914D03*
X020635Y012922D03*
X020595Y012938D03*
X020555Y012954D03*
X020539Y012954D03*
X020515Y012962D03*
X020475Y012978D03*
X020379Y013018D03*
X020339Y013034D03*
X020315Y013042D03*
X020299Y013042D03*
X020779Y011458D03*
X021539Y013642D03*
X019675Y009402D03*
X019659Y009402D03*
X019635Y009402D03*
X019619Y009402D03*
X017635Y013242D03*
X016955Y013242D03*
X016379Y013242D03*
X016715Y014042D03*
D47*
X016395Y013254D03*
X017299Y013254D03*
X017595Y014030D03*
X019475Y012062D03*
X019899Y010382D03*
X019859Y008334D03*
D48*
X020107Y010018D03*
X020547Y011138D03*
X020347Y012058D03*
X020163Y012978D03*
X018987Y011418D03*
X016683Y014018D03*
X016403Y013258D03*
D49*
X016427Y013286D03*
X016923Y013990D03*
X020123Y012966D03*
X020131Y012966D03*
X020803Y012830D03*
X021491Y013646D03*
D50*
X020819Y012302D03*
X020819Y011822D03*
X019659Y011774D03*
X019435Y012062D03*
X016435Y013294D03*
D51*
X016443Y013302D03*
X016467Y013334D03*
X016507Y013390D03*
X016523Y013414D03*
X016563Y013470D03*
X016571Y013486D03*
X016611Y013542D03*
X016627Y013566D03*
X016667Y013622D03*
X016683Y013646D03*
X016723Y013702D03*
X016811Y013830D03*
X016827Y013854D03*
X016867Y013910D03*
X016883Y013934D03*
X016707Y013286D03*
X017563Y014006D03*
X019411Y012062D03*
X020387Y012062D03*
X020771Y012294D03*
X020787Y012294D03*
X020387Y013646D03*
D52*
X020107Y012962D03*
X019667Y012626D03*
X019667Y011770D03*
X019483Y011250D03*
X020107Y010402D03*
X020787Y011826D03*
X020787Y012834D03*
X021483Y013642D03*
X017571Y014010D03*
X017243Y014010D03*
X016907Y013970D03*
X016891Y013946D03*
X016851Y013890D03*
X016843Y013874D03*
X016787Y013794D03*
X016771Y013770D03*
X016763Y013762D03*
X016731Y013714D03*
X016707Y013682D03*
X016643Y013586D03*
X016603Y013530D03*
X016587Y013506D03*
X016547Y013450D03*
X016531Y013426D03*
X016491Y013370D03*
X016451Y013314D03*
X016691Y013274D03*
X017003Y013274D03*
X017323Y013274D03*
D53*
X016715Y013690D03*
X016675Y013634D03*
X016659Y013610D03*
X016619Y013554D03*
X016515Y013402D03*
X016475Y013346D03*
X016459Y013322D03*
X016779Y013786D03*
X016819Y013842D03*
X016835Y013866D03*
X016875Y013922D03*
X016899Y013954D03*
X017915Y014010D03*
X018235Y011922D03*
X018979Y011394D03*
X019659Y012626D03*
X020115Y012962D03*
X020795Y012834D03*
X020795Y011826D03*
X019699Y013650D03*
D54*
X017683Y013278D03*
X017331Y013278D03*
X016651Y013598D03*
X016483Y013358D03*
D55*
X016499Y013382D03*
X016555Y013462D03*
X016579Y013494D03*
X016635Y013574D03*
X016699Y013670D03*
X016739Y013726D03*
X016755Y013750D03*
X016795Y013806D03*
X017235Y014006D03*
X018739Y011782D03*
X019419Y012062D03*
X019675Y012630D03*
X020779Y012294D03*
X020355Y011150D03*
X020355Y009454D03*
X019899Y008334D03*
X021475Y013646D03*
D56*
X020099Y012958D03*
X016699Y013278D03*
X016539Y013438D03*
X016595Y013518D03*
D57*
X016619Y013222D03*
D58*
X016627Y013226D03*
X017003Y014058D03*
X021563Y013642D03*
D59*
X020683Y012758D03*
X020571Y012718D03*
X020091Y012998D03*
X020083Y012998D03*
X020067Y012998D03*
X020051Y012998D03*
X020043Y012998D03*
X020027Y012998D03*
X020011Y012998D03*
X020003Y012998D03*
X019987Y012998D03*
X019971Y012998D03*
X019963Y012998D03*
X019947Y012998D03*
X019931Y012998D03*
X019923Y012998D03*
X019907Y012998D03*
X019891Y012998D03*
X019883Y012998D03*
X019867Y012998D03*
X019851Y012998D03*
X019843Y012998D03*
X019827Y012998D03*
X019811Y012998D03*
X019803Y012998D03*
X019787Y012998D03*
X019771Y012998D03*
X019763Y012998D03*
X019747Y012998D03*
X019731Y012998D03*
X019723Y012998D03*
X019707Y012998D03*
X019691Y012998D03*
X019683Y012998D03*
X019667Y012998D03*
X019651Y012998D03*
X019643Y012998D03*
X019627Y012998D03*
X019611Y012998D03*
X019411Y012998D03*
X019403Y012998D03*
X019387Y012998D03*
X019371Y012998D03*
X019363Y012998D03*
X019347Y012998D03*
X019331Y012998D03*
X019323Y012998D03*
X019307Y012998D03*
X019291Y012998D03*
X019283Y012998D03*
X019267Y012998D03*
X019251Y012998D03*
X019243Y012998D03*
X019227Y012998D03*
X019211Y012998D03*
X019203Y012998D03*
X019131Y012998D03*
X019123Y012998D03*
X019107Y012998D03*
X019091Y012998D03*
X019083Y012998D03*
X019067Y012998D03*
X019051Y012998D03*
X019043Y012998D03*
X019027Y012998D03*
X019011Y012998D03*
X019003Y012998D03*
X018987Y012998D03*
X018971Y012998D03*
X018963Y012998D03*
X018947Y012998D03*
X018931Y012998D03*
X018787Y012998D03*
X018771Y012998D03*
X018763Y012998D03*
X018747Y012998D03*
X018731Y012998D03*
X018723Y012998D03*
X018707Y012998D03*
X018691Y012998D03*
X018683Y012998D03*
X018667Y012998D03*
X018651Y012998D03*
X018643Y012998D03*
X018627Y012998D03*
X018611Y012998D03*
X018603Y012998D03*
X018587Y012998D03*
X018571Y012998D03*
X018563Y012998D03*
X018547Y012998D03*
X018531Y012998D03*
X018523Y012998D03*
X018507Y012998D03*
X018491Y012998D03*
X018483Y012998D03*
X018467Y012998D03*
X018451Y012998D03*
X018443Y012998D03*
X018427Y012998D03*
X018411Y012998D03*
X018403Y012998D03*
X018387Y012998D03*
X018371Y012998D03*
X018363Y012998D03*
X018347Y012998D03*
X018331Y012998D03*
X018323Y012998D03*
X018307Y012998D03*
X017627Y013238D03*
X018363Y012118D03*
X018371Y012118D03*
X018387Y012118D03*
X018403Y012118D03*
X018411Y012118D03*
X018643Y012118D03*
X018651Y012118D03*
X018667Y012118D03*
X019027Y012238D03*
X019123Y011918D03*
X019227Y011958D03*
X019723Y011718D03*
X019731Y011718D03*
X019843Y011678D03*
X020451Y011998D03*
X020547Y011958D03*
X020443Y012118D03*
X020643Y011118D03*
X020651Y011118D03*
X020763Y011118D03*
X019931Y010358D03*
X019763Y010358D03*
X019747Y010358D03*
X019731Y010358D03*
X019723Y010358D03*
X019707Y010358D03*
X019691Y010358D03*
X019683Y010358D03*
X019667Y010358D03*
X019651Y010358D03*
X019643Y010358D03*
X019627Y010358D03*
X019611Y010358D03*
X020027Y009718D03*
X020043Y009718D03*
X020051Y009718D03*
X020403Y009078D03*
X020411Y009078D03*
X020731Y009078D03*
X020747Y009078D03*
X018787Y011038D03*
X018771Y011038D03*
X018763Y011038D03*
X018747Y011038D03*
X018731Y011038D03*
X018723Y011038D03*
X018707Y011038D03*
X018691Y011038D03*
X018683Y011038D03*
X018667Y011038D03*
X018651Y011038D03*
X018643Y011038D03*
X018627Y011038D03*
X018611Y011038D03*
X018603Y011038D03*
X018587Y011038D03*
X018571Y011038D03*
X018563Y011038D03*
X018491Y011038D03*
X018483Y011038D03*
X018467Y011038D03*
X018451Y011038D03*
X018443Y011038D03*
X018427Y011038D03*
X018411Y011038D03*
X018403Y011038D03*
X018387Y011038D03*
X018371Y011038D03*
X018363Y011038D03*
X018347Y011038D03*
X018331Y011038D03*
X018323Y011038D03*
X018307Y011038D03*
X018291Y011038D03*
X018283Y011038D03*
X018267Y011038D03*
X018251Y011038D03*
X018243Y011038D03*
X016643Y013238D03*
D60*
X016691Y013658D03*
X016747Y013738D03*
X016803Y013818D03*
X020803Y012298D03*
D61*
X020099Y010378D03*
X019819Y010378D03*
X019939Y010034D03*
X020099Y010034D03*
X020779Y009418D03*
X017275Y014034D03*
X016699Y014034D03*
D62*
X016715Y013294D03*
X017019Y013286D03*
X017339Y013286D03*
X017899Y013998D03*
D63*
X016723Y013302D03*
D64*
X016731Y014054D03*
X017627Y014054D03*
D65*
X017891Y013990D03*
X017707Y013294D03*
X017027Y013294D03*
X016731Y013310D03*
X017203Y013974D03*
X019011Y013646D03*
X019387Y013646D03*
X019707Y013646D03*
D66*
X016739Y013318D03*
D67*
X016747Y013330D03*
X016763Y013346D03*
X016771Y013362D03*
X016827Y013442D03*
X016851Y013474D03*
X016883Y013522D03*
X016907Y013554D03*
X016963Y013634D03*
X017011Y013706D03*
X017051Y013762D03*
X017067Y013786D03*
X017083Y013810D03*
X017107Y013842D03*
X017123Y013866D03*
X017163Y013922D03*
X017883Y013986D03*
X018923Y011266D03*
X021443Y013642D03*
D68*
X017355Y013298D03*
X017035Y013298D03*
X016755Y013338D03*
X016979Y013658D03*
D69*
X016995Y013682D03*
X016955Y013626D03*
X016939Y013602D03*
X016835Y013450D03*
X016795Y013394D03*
X016779Y013370D03*
X017139Y013890D03*
X017155Y013914D03*
X017179Y013946D03*
X017195Y013970D03*
X020395Y013642D03*
D70*
X017531Y013982D03*
X017523Y013974D03*
X017187Y013958D03*
X017147Y013902D03*
X017131Y013878D03*
X017091Y013822D03*
X017003Y013694D03*
X016947Y013614D03*
X016891Y013534D03*
X016843Y013462D03*
X016787Y013382D03*
X017363Y013302D03*
D71*
X016987Y013670D03*
X016971Y013646D03*
X016931Y013590D03*
X017027Y013726D03*
X017043Y013750D03*
X016803Y013406D03*
X020747Y013646D03*
D72*
X017171Y013938D03*
X016923Y013578D03*
X016867Y013498D03*
X016811Y013418D03*
D73*
X016819Y013430D03*
X016859Y013486D03*
X016875Y013510D03*
X016915Y013566D03*
X017099Y013830D03*
X021435Y013646D03*
D74*
X020795Y012298D03*
X020379Y012058D03*
X018739Y012058D03*
X016859Y013898D03*
X016915Y013978D03*
D75*
X017115Y013854D03*
X017075Y013798D03*
X017059Y013774D03*
X017035Y013742D03*
X017019Y013718D03*
X016899Y013542D03*
X017715Y013302D03*
X017875Y013982D03*
X018795Y011918D03*
D76*
X019427Y012062D03*
X019643Y012622D03*
X019651Y012622D03*
X020371Y012062D03*
X020803Y011822D03*
X020811Y011822D03*
X020811Y012302D03*
X020827Y012302D03*
X017923Y014014D03*
X016931Y013998D03*
X019891Y008334D03*
D77*
X016931Y013226D03*
D78*
X016995Y013270D03*
X017675Y013270D03*
X016939Y014006D03*
X019395Y013646D03*
X020795Y009030D03*
D79*
X020787Y008714D03*
X020371Y009418D03*
X020363Y011122D03*
X020323Y012058D03*
X020851Y012834D03*
X021523Y013642D03*
X019211Y012674D03*
X018731Y011754D03*
X019411Y011434D03*
X017603Y014034D03*
X016971Y014034D03*
D80*
X016971Y013250D03*
X017291Y013250D03*
X017643Y013250D03*
X018307Y012090D03*
X019611Y011770D03*
X020587Y010450D03*
X020787Y010450D03*
X020787Y009050D03*
D81*
X020779Y009062D03*
X020779Y008710D03*
X020155Y008526D03*
X020139Y008518D03*
X020115Y008502D03*
X020099Y008494D03*
X020075Y008478D03*
X020059Y008462D03*
X020035Y008454D03*
X020019Y008438D03*
X019995Y008422D03*
X019979Y008414D03*
X019955Y008398D03*
X019939Y008390D03*
X019915Y008374D03*
X019939Y008278D03*
X019995Y008238D03*
X020019Y008222D03*
X020035Y008214D03*
X020059Y008198D03*
X020075Y008190D03*
X020099Y008174D03*
X020115Y008166D03*
X020139Y008150D03*
X020155Y008134D03*
X020379Y009406D03*
X020099Y009734D03*
X019675Y009726D03*
X019675Y010038D03*
X019795Y010366D03*
X019915Y010366D03*
X020499Y010446D03*
X020595Y010438D03*
X020779Y010438D03*
X020779Y011126D03*
X020619Y011142D03*
X020139Y011574D03*
X020315Y012062D03*
X019859Y012774D03*
X019875Y012790D03*
X019915Y012814D03*
X019955Y012838D03*
X019979Y012854D03*
X019995Y012862D03*
X020019Y012878D03*
X020035Y012886D03*
X020059Y012902D03*
X020075Y012910D03*
X019819Y012750D03*
X019779Y012726D03*
X019739Y012702D03*
X019715Y012686D03*
X019699Y012678D03*
X019219Y012662D03*
X019379Y011454D03*
X019395Y011446D03*
X018995Y011430D03*
X018995Y011102D03*
X017955Y014038D03*
X016979Y014038D03*
D82*
X016979Y013258D03*
X019419Y011418D03*
X020339Y012058D03*
D83*
X020403Y012102D03*
X020411Y012014D03*
X020587Y011942D03*
X020627Y011926D03*
X020723Y011886D03*
X020763Y011870D03*
X020763Y011790D03*
X020771Y011790D03*
X020747Y011790D03*
X020731Y011790D03*
X020723Y011790D03*
X020707Y011790D03*
X020691Y011790D03*
X020683Y011790D03*
X020667Y011790D03*
X020651Y011790D03*
X020643Y011790D03*
X020627Y011790D03*
X020611Y011790D03*
X020603Y011790D03*
X020587Y011790D03*
X020571Y011790D03*
X020563Y011790D03*
X020547Y011790D03*
X020531Y011790D03*
X020523Y011790D03*
X020507Y011790D03*
X020491Y011790D03*
X020483Y011790D03*
X020467Y011790D03*
X020451Y011790D03*
X020443Y011790D03*
X020427Y011790D03*
X020411Y011790D03*
X020403Y011790D03*
X020387Y011790D03*
X020371Y011790D03*
X020363Y011790D03*
X020347Y011790D03*
X020331Y011790D03*
X020323Y011790D03*
X020307Y011790D03*
X020163Y011566D03*
X020107Y011310D03*
X020091Y011310D03*
X020083Y011310D03*
X020067Y011310D03*
X020051Y011310D03*
X020043Y011310D03*
X020027Y011310D03*
X020011Y011310D03*
X020003Y011310D03*
X019987Y011310D03*
X019971Y011310D03*
X019963Y011310D03*
X019947Y011310D03*
X019931Y011310D03*
X019867Y011310D03*
X019851Y011310D03*
X019843Y011310D03*
X019827Y011310D03*
X019811Y011310D03*
X019803Y011310D03*
X019787Y011310D03*
X019771Y011310D03*
X019763Y011310D03*
X019747Y011310D03*
X019731Y011310D03*
X019723Y011310D03*
X019707Y011310D03*
X019691Y011310D03*
X019683Y011310D03*
X019323Y011462D03*
X019307Y011462D03*
X019291Y011462D03*
X019283Y011462D03*
X019267Y011462D03*
X019251Y011462D03*
X019243Y011462D03*
X019227Y011462D03*
X019187Y011462D03*
X018787Y011422D03*
X018771Y011422D03*
X018763Y011422D03*
X018747Y011422D03*
X018731Y011422D03*
X018723Y011422D03*
X018707Y011422D03*
X018691Y011422D03*
X018683Y011422D03*
X018667Y011422D03*
X018651Y011422D03*
X018643Y011422D03*
X018627Y011422D03*
X018611Y011422D03*
X018603Y011422D03*
X018587Y011422D03*
X018571Y011422D03*
X018563Y011422D03*
X018491Y011422D03*
X018483Y011422D03*
X018467Y011422D03*
X018451Y011422D03*
X018443Y011422D03*
X018427Y011422D03*
X018411Y011422D03*
X018403Y011422D03*
X018387Y011422D03*
X018371Y011422D03*
X018363Y011422D03*
X018347Y011422D03*
X018331Y011422D03*
X018323Y011422D03*
X018307Y011422D03*
X018291Y011422D03*
X018283Y011422D03*
X018267Y011422D03*
X018251Y011422D03*
X018243Y011422D03*
X018347Y011734D03*
X018363Y011734D03*
X018387Y011726D03*
X018403Y011726D03*
X018411Y011726D03*
X018427Y011726D03*
X018443Y011726D03*
X018451Y011726D03*
X018347Y012110D03*
X018451Y012126D03*
X018467Y012126D03*
X018483Y012126D03*
X018491Y012126D03*
X018507Y012126D03*
X018523Y012126D03*
X018531Y012126D03*
X018547Y012126D03*
X018691Y012110D03*
X018971Y011862D03*
X019163Y011934D03*
X019187Y011942D03*
X019211Y011950D03*
X019251Y011966D03*
X019363Y012006D03*
X019387Y012014D03*
X019403Y012022D03*
X019403Y012102D03*
X019291Y012142D03*
X019203Y012174D03*
X019267Y012646D03*
X019283Y012646D03*
X019291Y012646D03*
X019307Y012646D03*
X019323Y012646D03*
X019331Y012646D03*
X019347Y012646D03*
X019371Y012654D03*
X019387Y012654D03*
X019243Y012654D03*
X019683Y012590D03*
X019691Y012590D03*
X019707Y012590D03*
X019723Y012590D03*
X019731Y012590D03*
X019747Y012590D03*
X019763Y012590D03*
X019771Y012590D03*
X019787Y012590D03*
X019803Y012590D03*
X019811Y012590D03*
X019827Y012590D03*
X019843Y012590D03*
X019851Y012590D03*
X019867Y012590D03*
X019883Y012590D03*
X019891Y012590D03*
X019907Y012590D03*
X019923Y012590D03*
X019931Y012590D03*
X019947Y012590D03*
X019963Y012590D03*
X019971Y012590D03*
X019987Y012590D03*
X020003Y012590D03*
X020011Y012590D03*
X020027Y012590D03*
X020043Y012590D03*
X020051Y012590D03*
X020067Y012590D03*
X020083Y012590D03*
X020091Y012590D03*
X020107Y012590D03*
X020123Y012590D03*
X020131Y012590D03*
X020147Y012590D03*
X020163Y012590D03*
X020403Y012654D03*
X020507Y012694D03*
X020531Y012702D03*
X020707Y012766D03*
X020723Y012774D03*
X020747Y012782D03*
X020771Y012790D03*
X020691Y012902D03*
X020603Y012934D03*
X021547Y013646D03*
X019923Y011894D03*
X019811Y011854D03*
X019787Y011846D03*
X019723Y011822D03*
X019683Y011734D03*
X019707Y011726D03*
X019747Y011710D03*
X019771Y011702D03*
X019611Y012262D03*
X019027Y011086D03*
X019611Y010710D03*
X019627Y010710D03*
X019643Y010710D03*
X019651Y010710D03*
X019667Y010710D03*
X019683Y010710D03*
X019691Y010710D03*
X019707Y010710D03*
X019723Y010710D03*
X019731Y010710D03*
X019747Y010710D03*
X019763Y010710D03*
X019771Y010710D03*
X019787Y010710D03*
X019803Y010710D03*
X019811Y010710D03*
X019827Y010710D03*
X019907Y010710D03*
X019923Y010710D03*
X019931Y010710D03*
X019947Y010710D03*
X019963Y010710D03*
X019971Y010710D03*
X019987Y010710D03*
X020003Y010710D03*
X020011Y010710D03*
X020027Y010710D03*
X020043Y010710D03*
X020051Y010710D03*
X020067Y010710D03*
X020083Y010710D03*
X020091Y010710D03*
X020107Y010710D03*
X020307Y010782D03*
X020323Y010782D03*
X020331Y010782D03*
X020347Y010782D03*
X020363Y010782D03*
X020371Y010782D03*
X020387Y010782D03*
X020403Y010782D03*
X020411Y010782D03*
X020427Y010782D03*
X020443Y010782D03*
X020451Y010782D03*
X020467Y010782D03*
X020483Y010782D03*
X020491Y010782D03*
X020507Y010782D03*
X020587Y010782D03*
X020603Y010782D03*
X020611Y010782D03*
X020627Y010782D03*
X020643Y010782D03*
X020651Y010782D03*
X020667Y010782D03*
X020683Y010782D03*
X020691Y010782D03*
X020707Y010782D03*
X020723Y010782D03*
X020731Y010782D03*
X020747Y010782D03*
X020763Y010782D03*
X020771Y010782D03*
X020787Y010782D03*
X020731Y011110D03*
X020723Y011110D03*
X020707Y011110D03*
X020691Y011110D03*
X020683Y011110D03*
X020531Y011110D03*
X020523Y011102D03*
X020507Y011102D03*
X020491Y011094D03*
X020483Y011094D03*
X020467Y011094D03*
X020451Y011094D03*
X020443Y011094D03*
X020427Y011094D03*
X020411Y011094D03*
X020387Y011102D03*
X020387Y010430D03*
X020371Y010430D03*
X020363Y010430D03*
X020347Y010430D03*
X020331Y010430D03*
X020323Y010430D03*
X020307Y010430D03*
X020403Y010430D03*
X020411Y010430D03*
X020427Y010430D03*
X020443Y010430D03*
X020451Y010430D03*
X020611Y010430D03*
X020643Y010422D03*
X020651Y010422D03*
X020667Y010422D03*
X020683Y010422D03*
X020691Y010422D03*
X020707Y010422D03*
X020723Y010422D03*
X020731Y010422D03*
X020763Y010430D03*
X020763Y010102D03*
X020771Y010102D03*
X020787Y010102D03*
X020803Y010102D03*
X020811Y010102D03*
X020827Y010102D03*
X020843Y010102D03*
X020851Y010102D03*
X020747Y010102D03*
X020731Y010102D03*
X020723Y010102D03*
X020707Y010102D03*
X020691Y010102D03*
X020683Y010102D03*
X020667Y010102D03*
X020651Y010102D03*
X020643Y010102D03*
X020627Y010102D03*
X020611Y010102D03*
X020603Y010102D03*
X020587Y010102D03*
X020571Y010102D03*
X020563Y010102D03*
X020547Y010102D03*
X020531Y010102D03*
X020523Y010102D03*
X020507Y010102D03*
X020491Y010102D03*
X020483Y010102D03*
X020467Y010102D03*
X020451Y010102D03*
X020443Y010102D03*
X020427Y010102D03*
X020411Y010102D03*
X020403Y010102D03*
X020387Y010102D03*
X020371Y010102D03*
X020363Y010102D03*
X020347Y010102D03*
X020331Y010102D03*
X020323Y010102D03*
X020307Y010102D03*
X020083Y010046D03*
X020067Y010054D03*
X020051Y010054D03*
X020043Y010054D03*
X020027Y010054D03*
X020011Y010054D03*
X020003Y010054D03*
X019987Y010054D03*
X019971Y010054D03*
X019707Y010054D03*
X019707Y009710D03*
X019723Y009710D03*
X019763Y009702D03*
X019771Y009702D03*
X019787Y009702D03*
X019827Y009710D03*
X019611Y009406D03*
X019611Y008942D03*
X019627Y008942D03*
X019643Y008942D03*
X019651Y008942D03*
X019667Y008942D03*
X019683Y008942D03*
X019691Y008942D03*
X019707Y008942D03*
X019723Y008942D03*
X019731Y008942D03*
X019747Y008942D03*
X019763Y008942D03*
X019771Y008942D03*
X019787Y008942D03*
X019803Y008942D03*
X019811Y008942D03*
X019827Y008942D03*
X019843Y008942D03*
X019851Y008942D03*
X019867Y008942D03*
X019883Y008942D03*
X019891Y008942D03*
X019907Y008942D03*
X019923Y008942D03*
X019931Y008942D03*
X019947Y008942D03*
X019963Y008942D03*
X019971Y008942D03*
X019987Y008942D03*
X020003Y008942D03*
X020011Y008942D03*
X020027Y008942D03*
X020043Y008942D03*
X020051Y008942D03*
X020067Y008942D03*
X020083Y008942D03*
X020091Y008942D03*
X020387Y009070D03*
X020427Y009086D03*
X020443Y009086D03*
X020451Y009086D03*
X020467Y009086D03*
X020483Y009086D03*
X020491Y009086D03*
X020507Y009086D03*
X020523Y009086D03*
X020531Y009086D03*
X020547Y009086D03*
X020563Y009086D03*
X020571Y009086D03*
X020587Y009086D03*
X020603Y009086D03*
X020611Y009086D03*
X020627Y009086D03*
X020643Y009086D03*
X020651Y009086D03*
X020667Y009086D03*
X020683Y009086D03*
X020691Y009086D03*
X020707Y009086D03*
X020763Y009070D03*
X020707Y009382D03*
X020667Y009374D03*
X020651Y009374D03*
X020643Y009374D03*
X020627Y009374D03*
X020611Y009374D03*
X020603Y009374D03*
X020587Y009374D03*
X020571Y009374D03*
X020563Y009374D03*
X020547Y009374D03*
X020531Y009374D03*
X020523Y009374D03*
X020507Y009374D03*
X020491Y009374D03*
X020483Y009374D03*
X020467Y009382D03*
X020451Y009382D03*
X020443Y009382D03*
X020411Y009390D03*
X020163Y009406D03*
X020747Y009390D03*
X020731Y008694D03*
X020723Y008694D03*
X020707Y008694D03*
X020691Y008694D03*
X020507Y008694D03*
X020491Y008694D03*
X020483Y008694D03*
X020467Y008694D03*
X020451Y008694D03*
X020443Y008694D03*
X020427Y008694D03*
X020411Y008694D03*
X020387Y008702D03*
X019843Y008334D03*
X019827Y008334D03*
X019811Y008334D03*
X019803Y008334D03*
X019787Y008334D03*
X019771Y008334D03*
X019763Y008334D03*
X019747Y008334D03*
X019731Y008334D03*
X019723Y008334D03*
X019707Y008334D03*
X019691Y008334D03*
X019683Y008334D03*
X019667Y008334D03*
X019651Y008334D03*
X019643Y008334D03*
X019627Y008334D03*
X019611Y008334D03*
X019963Y010350D03*
X019971Y010350D03*
X019987Y010350D03*
X020003Y010350D03*
X020011Y010350D03*
X020027Y010350D03*
X020043Y010350D03*
X020051Y010350D03*
X017291Y014046D03*
X016987Y014046D03*
D84*
X017011Y014062D03*
X019003Y013638D03*
D85*
X017907Y014002D03*
X017691Y013282D03*
X017011Y013282D03*
X017227Y014002D03*
X021467Y013642D03*
D86*
X021427Y013642D03*
X020403Y013642D03*
X019371Y013650D03*
X017723Y013306D03*
X017051Y013314D03*
X017043Y013306D03*
D87*
X017059Y013326D03*
X017499Y013950D03*
X019019Y013646D03*
X019715Y013646D03*
X020739Y013646D03*
X021419Y013646D03*
D88*
X021411Y013642D03*
X020731Y013642D03*
X020411Y013642D03*
X020427Y013314D03*
X020443Y013314D03*
X020451Y013314D03*
X020467Y013314D03*
X020483Y013314D03*
X020491Y013314D03*
X020491Y013970D03*
X020483Y013970D03*
X020467Y013970D03*
X020451Y013970D03*
X020507Y013970D03*
X020523Y013970D03*
X020531Y013970D03*
X020547Y013970D03*
X020563Y013970D03*
X020667Y013970D03*
X020683Y013970D03*
X020691Y013970D03*
X020707Y013970D03*
X020723Y013970D03*
X019747Y013970D03*
X019731Y013970D03*
X019723Y013970D03*
X019707Y013970D03*
X019723Y013650D03*
X019363Y013650D03*
X019347Y013650D03*
X019027Y013650D03*
X019027Y013970D03*
X019011Y013970D03*
X019043Y013970D03*
X019051Y013970D03*
X019267Y013970D03*
X019283Y013970D03*
X019291Y013970D03*
X019307Y013970D03*
X019323Y013970D03*
X019331Y013970D03*
X019347Y013970D03*
X019363Y013970D03*
X019371Y013970D03*
X017483Y013930D03*
X017467Y013906D03*
X017451Y013882D03*
X017427Y013850D03*
X017411Y013826D03*
X017403Y013810D03*
X017387Y013794D03*
X017371Y013770D03*
X017363Y013754D03*
X017347Y013730D03*
X017331Y013706D03*
X017307Y013674D03*
X017291Y013650D03*
X017283Y013642D03*
X017251Y013594D03*
X017243Y013586D03*
X017227Y013562D03*
X017171Y013482D03*
X017163Y013466D03*
X017147Y013442D03*
X017123Y013410D03*
X017107Y013386D03*
X017091Y013362D03*
X017083Y013354D03*
X017067Y013330D03*
X020163Y009882D03*
D89*
X017379Y013778D03*
X017435Y013858D03*
X017155Y013458D03*
X017099Y013378D03*
X017075Y013338D03*
D90*
X017115Y013398D03*
X017739Y013318D03*
X018715Y013318D03*
X018739Y013318D03*
X018755Y013318D03*
X018779Y013318D03*
X019035Y013318D03*
X019059Y013318D03*
X019075Y013318D03*
X019099Y013318D03*
X019115Y013318D03*
X019139Y013318D03*
X019155Y013318D03*
X019739Y013318D03*
X019755Y013318D03*
X019779Y013318D03*
X019795Y013318D03*
X019819Y013318D03*
X019835Y013318D03*
X019859Y013318D03*
X019875Y013318D03*
X019899Y013318D03*
X019915Y013318D03*
X019939Y013318D03*
X019955Y013318D03*
X019979Y013318D03*
X019995Y013318D03*
X020019Y013318D03*
X020035Y013318D03*
X020059Y013318D03*
X020075Y013318D03*
X020099Y013318D03*
X020115Y013318D03*
X020139Y013318D03*
X020155Y013318D03*
X020395Y013318D03*
X020419Y013318D03*
X020675Y013318D03*
X020699Y013318D03*
X020715Y013318D03*
X020739Y013318D03*
D91*
X017491Y013938D03*
X017323Y013698D03*
X017267Y013618D03*
X017211Y013538D03*
X017131Y013418D03*
D92*
X017139Y013434D03*
X017179Y013490D03*
X017195Y013514D03*
X017219Y013546D03*
X017235Y013570D03*
X017275Y013626D03*
X017299Y013666D03*
X017315Y013690D03*
X017339Y013722D03*
X017355Y013746D03*
X017395Y013802D03*
X017419Y013834D03*
X017459Y013890D03*
X017475Y013914D03*
X017379Y013314D03*
X017859Y013970D03*
X019019Y013970D03*
X019035Y013970D03*
X019059Y013970D03*
X019259Y013970D03*
X019275Y013970D03*
X019299Y013970D03*
X019315Y013970D03*
X019339Y013970D03*
X019355Y013970D03*
X019379Y013970D03*
X019355Y013650D03*
X019715Y013970D03*
X019739Y013970D03*
X019755Y013970D03*
X020459Y013970D03*
X020475Y013970D03*
X020499Y013970D03*
X020515Y013970D03*
X020539Y013970D03*
X020555Y013970D03*
X020675Y013970D03*
X020699Y013970D03*
X020715Y013970D03*
X020419Y013642D03*
X020435Y013314D03*
X020459Y013314D03*
X020475Y013314D03*
D93*
X020723Y013646D03*
X020731Y013966D03*
X020747Y013966D03*
X020443Y013966D03*
X020427Y013966D03*
X020411Y013966D03*
X020403Y013966D03*
X019691Y013966D03*
X019683Y013966D03*
X019403Y013966D03*
X019387Y013966D03*
X019251Y013966D03*
X019243Y013966D03*
X019003Y013966D03*
X018987Y013966D03*
X019323Y013654D03*
X019331Y013654D03*
X019731Y013646D03*
X017203Y013526D03*
X017187Y013502D03*
D94*
X017347Y013290D03*
X017211Y013986D03*
D95*
X017219Y013994D03*
X020755Y013642D03*
X021459Y013642D03*
D96*
X017611Y013234D03*
X017251Y013226D03*
X017307Y014050D03*
D97*
X017259Y013606D03*
X018995Y013966D03*
X019235Y013966D03*
X019395Y013966D03*
X019699Y013966D03*
X019739Y013646D03*
X019339Y013654D03*
X019035Y013646D03*
X020419Y013966D03*
X020435Y013966D03*
X020739Y013966D03*
X020755Y013966D03*
X020715Y013646D03*
D98*
X020755Y012878D03*
X020539Y012158D03*
X019955Y011638D03*
X019339Y011998D03*
X019355Y012118D03*
X018675Y012118D03*
X018659Y012118D03*
X018635Y012118D03*
X018395Y012118D03*
X018379Y012118D03*
X018355Y012118D03*
X018355Y011038D03*
X018339Y011038D03*
X018315Y011038D03*
X018299Y011038D03*
X018275Y011038D03*
X018259Y011038D03*
X018379Y011038D03*
X018395Y011038D03*
X018419Y011038D03*
X018435Y011038D03*
X018459Y011038D03*
X018475Y011038D03*
X018555Y011038D03*
X018579Y011038D03*
X018595Y011038D03*
X018619Y011038D03*
X018635Y011038D03*
X018659Y011038D03*
X018675Y011038D03*
X018699Y011038D03*
X018715Y011038D03*
X018739Y011038D03*
X018755Y011038D03*
X018779Y011038D03*
X019619Y010358D03*
X019635Y010358D03*
X019659Y010358D03*
X019675Y010358D03*
X019699Y010358D03*
X019715Y010358D03*
X019739Y010358D03*
X019755Y010358D03*
X020075Y010358D03*
X020059Y009718D03*
X020035Y009718D03*
X020419Y009078D03*
X020739Y009078D03*
X020659Y011118D03*
X020075Y012998D03*
X020059Y012998D03*
X020035Y012998D03*
X020019Y012998D03*
X019995Y012998D03*
X019979Y012998D03*
X019955Y012998D03*
X019939Y012998D03*
X019915Y012998D03*
X019899Y012998D03*
X019875Y012998D03*
X019859Y012998D03*
X019835Y012998D03*
X019819Y012998D03*
X019795Y012998D03*
X019779Y012998D03*
X019755Y012998D03*
X019739Y012998D03*
X019715Y012998D03*
X019699Y012998D03*
X019675Y012998D03*
X019659Y012998D03*
X019635Y012998D03*
X019619Y012998D03*
X019419Y012998D03*
X019395Y012998D03*
X019379Y012998D03*
X019355Y012998D03*
X019339Y012998D03*
X019315Y012998D03*
X019299Y012998D03*
X019275Y012998D03*
X019259Y012998D03*
X019235Y012998D03*
X019219Y012998D03*
X019139Y012998D03*
X019115Y012998D03*
X019099Y012998D03*
X019075Y012998D03*
X019059Y012998D03*
X019035Y012998D03*
X019019Y012998D03*
X018995Y012998D03*
X018979Y012998D03*
X018955Y012998D03*
X018939Y012998D03*
X018779Y012998D03*
X018755Y012998D03*
X018739Y012998D03*
X018715Y012998D03*
X018699Y012998D03*
X018675Y012998D03*
X018659Y012998D03*
X018635Y012998D03*
X018619Y012998D03*
X018595Y012998D03*
X018579Y012998D03*
X018555Y012998D03*
X018539Y012998D03*
X018515Y012998D03*
X018499Y012998D03*
X018475Y012998D03*
X018459Y012998D03*
X018435Y012998D03*
X018419Y012998D03*
X018395Y012998D03*
X018379Y012998D03*
X018355Y012998D03*
X018339Y012998D03*
X018315Y012998D03*
X017275Y013238D03*
D99*
X017299Y014054D03*
D100*
X017443Y013870D03*
X017371Y013310D03*
X017731Y013310D03*
X019427Y011366D03*
X019611Y009886D03*
D101*
X019923Y009958D03*
X019923Y013318D03*
X019931Y013318D03*
X019947Y013318D03*
X019963Y013318D03*
X019971Y013318D03*
X019987Y013318D03*
X020003Y013318D03*
X020011Y013318D03*
X020027Y013318D03*
X020043Y013318D03*
X020051Y013318D03*
X020067Y013318D03*
X020083Y013318D03*
X020091Y013318D03*
X020107Y013318D03*
X020123Y013318D03*
X020131Y013318D03*
X020147Y013318D03*
X019907Y013318D03*
X019891Y013318D03*
X019883Y013318D03*
X019867Y013318D03*
X019851Y013318D03*
X019843Y013318D03*
X019827Y013318D03*
X019811Y013318D03*
X019803Y013318D03*
X019787Y013318D03*
X019771Y013318D03*
X019763Y013318D03*
X019747Y013318D03*
X019731Y013318D03*
X019723Y013318D03*
X019147Y013318D03*
X019131Y013318D03*
X019123Y013318D03*
X019107Y013318D03*
X019091Y013318D03*
X019083Y013318D03*
X019067Y013318D03*
X019051Y013318D03*
X019043Y013318D03*
X019027Y013318D03*
X018787Y013318D03*
X018771Y013318D03*
X018763Y013318D03*
X018747Y013318D03*
X018731Y013318D03*
X018723Y013318D03*
X018707Y013318D03*
X017851Y013958D03*
X017387Y013318D03*
X020387Y013318D03*
X020403Y013318D03*
X020411Y013318D03*
X020683Y013318D03*
X020691Y013318D03*
X020707Y013318D03*
X020723Y013318D03*
X020731Y013318D03*
D102*
X017395Y013330D03*
D103*
X017403Y013334D03*
X017827Y013934D03*
X018963Y013958D03*
X018971Y013958D03*
X019211Y013958D03*
X019427Y013958D03*
X019091Y013646D03*
X019083Y013646D03*
X019067Y013646D03*
X019051Y013646D03*
X018987Y013326D03*
X019187Y013326D03*
X019371Y013326D03*
X019387Y013326D03*
X019403Y013326D03*
X019683Y013326D03*
X019763Y013646D03*
X019771Y013646D03*
X019787Y013646D03*
X019803Y013646D03*
X019811Y013646D03*
X019827Y013646D03*
X019843Y013646D03*
X019851Y013646D03*
X019867Y013646D03*
X019883Y013646D03*
X019891Y013646D03*
X019907Y013646D03*
X019923Y013646D03*
X019931Y013646D03*
X019947Y013646D03*
X019963Y013646D03*
X019971Y013646D03*
X019987Y013646D03*
X020003Y013646D03*
X020011Y013646D03*
X020027Y013646D03*
X020043Y013646D03*
X020051Y013646D03*
X020067Y013646D03*
X020083Y013646D03*
X020091Y013646D03*
X020107Y013646D03*
X020123Y013646D03*
X020131Y013646D03*
X020147Y013646D03*
X020491Y013646D03*
X020371Y013958D03*
X020363Y013958D03*
X020787Y013958D03*
X020787Y013326D03*
X020347Y013326D03*
X018507Y011814D03*
X018491Y011814D03*
X018483Y011814D03*
X018467Y011814D03*
X020523Y008782D03*
X020531Y008782D03*
X020547Y008782D03*
X020563Y008782D03*
X020571Y008782D03*
D104*
X020803Y013330D03*
X019667Y013330D03*
X019411Y013330D03*
X019203Y013330D03*
X018971Y013330D03*
X017803Y013906D03*
X017411Y013346D03*
D105*
X017419Y013354D03*
X017475Y013434D03*
X017675Y013722D03*
X020355Y013954D03*
X020795Y013954D03*
X021379Y013642D03*
D106*
X020811Y013334D03*
X020331Y013334D03*
X020803Y013950D03*
X019643Y013950D03*
X019651Y013334D03*
X019427Y013334D03*
X019211Y013334D03*
X018963Y013334D03*
X017763Y013334D03*
X017523Y013502D03*
X017547Y013534D03*
X017571Y013574D03*
X017611Y013630D03*
X017627Y013654D03*
X017651Y013686D03*
X017667Y013710D03*
X017683Y013734D03*
X017691Y013742D03*
X017707Y013766D03*
X017723Y013790D03*
X017747Y013822D03*
X017763Y013846D03*
X017491Y013454D03*
X017483Y013446D03*
X017467Y013422D03*
X017443Y013390D03*
X017427Y013366D03*
D107*
X017435Y013374D03*
X017499Y013470D03*
X017515Y013494D03*
X017539Y013526D03*
X017555Y013550D03*
X017579Y013582D03*
X017595Y013606D03*
X017635Y013662D03*
X017659Y013702D03*
X017715Y013782D03*
X017739Y013814D03*
X017779Y013870D03*
X017795Y013894D03*
X018955Y013950D03*
X019195Y013950D03*
X020339Y013950D03*
D108*
X018243Y011918D03*
X017451Y013398D03*
X017507Y013478D03*
X017531Y013518D03*
X017563Y013558D03*
X017587Y013598D03*
X017643Y013678D03*
D109*
X017459Y013410D03*
X017755Y013330D03*
X019419Y013330D03*
X019659Y013330D03*
X020339Y013330D03*
X020795Y013330D03*
D110*
X020651Y013974D03*
X020643Y013974D03*
X020627Y013974D03*
X020611Y013974D03*
X020603Y013974D03*
X020587Y013974D03*
X020571Y013974D03*
X020147Y013974D03*
X020131Y013974D03*
X020123Y013974D03*
X020107Y013974D03*
X020091Y013974D03*
X020083Y013974D03*
X020067Y013974D03*
X020051Y013974D03*
X020043Y013974D03*
X020027Y013974D03*
X020011Y013974D03*
X020003Y013974D03*
X019987Y013974D03*
X019971Y013974D03*
X019963Y013974D03*
X019947Y013974D03*
X019931Y013974D03*
X019923Y013974D03*
X019907Y013974D03*
X019891Y013974D03*
X019883Y013974D03*
X019867Y013974D03*
X019851Y013974D03*
X019843Y013974D03*
X019827Y013974D03*
X019811Y013974D03*
X019803Y013974D03*
X019787Y013974D03*
X019771Y013974D03*
X019763Y013974D03*
X019091Y013974D03*
X019083Y013974D03*
X019067Y013974D03*
X018787Y013974D03*
X018771Y013974D03*
X018763Y013974D03*
X018747Y013974D03*
X018731Y013974D03*
X018723Y013974D03*
X018707Y013974D03*
X018691Y013974D03*
X018683Y013974D03*
X018667Y013974D03*
X018651Y013974D03*
X018643Y013974D03*
X018627Y013974D03*
X018611Y013974D03*
X018603Y013974D03*
X018587Y013974D03*
X018571Y013974D03*
X018563Y013974D03*
X018547Y013974D03*
X018531Y013974D03*
X018523Y013974D03*
X018507Y013974D03*
X018491Y013974D03*
X018483Y013974D03*
X018467Y013974D03*
X018451Y013974D03*
X018443Y013974D03*
X018427Y013974D03*
X018411Y013974D03*
X018403Y013974D03*
X018387Y013974D03*
X018371Y013974D03*
X018363Y013974D03*
X018347Y013974D03*
X018331Y013974D03*
X018323Y013974D03*
X018307Y013974D03*
X018291Y013974D03*
X018283Y013974D03*
X018267Y013974D03*
X018251Y013974D03*
X017867Y013974D03*
X017507Y013958D03*
X020851Y008878D03*
D111*
X019379Y013650D03*
X017515Y013962D03*
D112*
X017539Y013990D03*
X019859Y009774D03*
D113*
X021451Y013642D03*
X017547Y013994D03*
D114*
X017555Y014002D03*
X018979Y011138D03*
D115*
X017603Y013618D03*
X017731Y013802D03*
X017771Y013858D03*
X017787Y013882D03*
X017811Y013914D03*
X019203Y013954D03*
X019443Y013954D03*
X019651Y013954D03*
X020347Y013954D03*
X021387Y013642D03*
D116*
X020779Y012870D03*
X020715Y012894D03*
X020659Y012750D03*
X020635Y012742D03*
X020619Y012734D03*
X020595Y012726D03*
X020379Y012646D03*
X020315Y012622D03*
X020155Y012590D03*
X020139Y012590D03*
X020115Y012590D03*
X020099Y012590D03*
X020075Y012590D03*
X020059Y012590D03*
X020035Y012590D03*
X020019Y012590D03*
X019995Y012590D03*
X019979Y012590D03*
X019955Y012590D03*
X019939Y012590D03*
X019915Y012590D03*
X019899Y012590D03*
X019875Y012590D03*
X019859Y012590D03*
X019835Y012590D03*
X019819Y012590D03*
X019795Y012590D03*
X019779Y012590D03*
X019755Y012590D03*
X019739Y012590D03*
X019715Y012590D03*
X019699Y012590D03*
X019379Y012654D03*
X019355Y012646D03*
X019339Y012646D03*
X019315Y012646D03*
X019299Y012646D03*
X019275Y012646D03*
X019315Y012134D03*
X019379Y012110D03*
X019379Y012014D03*
X019315Y011990D03*
X019299Y011982D03*
X019275Y011974D03*
X019099Y011910D03*
X019035Y011886D03*
X018995Y011870D03*
X018699Y011734D03*
X018635Y011726D03*
X018459Y011726D03*
X018435Y011726D03*
X018419Y011726D03*
X018395Y011726D03*
X018379Y011726D03*
X018355Y011734D03*
X018339Y011734D03*
X018339Y011422D03*
X018355Y011422D03*
X018379Y011422D03*
X018395Y011422D03*
X018419Y011422D03*
X018435Y011422D03*
X018459Y011422D03*
X018475Y011422D03*
X018555Y011422D03*
X018579Y011422D03*
X018595Y011422D03*
X018619Y011422D03*
X018635Y011422D03*
X018659Y011422D03*
X018675Y011422D03*
X018699Y011422D03*
X018715Y011422D03*
X018739Y011422D03*
X018755Y011422D03*
X018779Y011422D03*
X019059Y011454D03*
X019179Y011462D03*
X019235Y011462D03*
X019259Y011462D03*
X019275Y011462D03*
X019299Y011462D03*
X019315Y011462D03*
X019379Y011094D03*
X019035Y011086D03*
X019675Y011310D03*
X019699Y011310D03*
X019715Y011310D03*
X019739Y011310D03*
X019755Y011310D03*
X019779Y011310D03*
X019795Y011310D03*
X019819Y011310D03*
X019835Y011310D03*
X019859Y011310D03*
X019939Y011310D03*
X019955Y011310D03*
X019979Y011310D03*
X019995Y011310D03*
X020019Y011310D03*
X020035Y011310D03*
X020059Y011310D03*
X020075Y011310D03*
X020099Y011310D03*
X019979Y011630D03*
X019819Y011686D03*
X019795Y011694D03*
X019699Y011726D03*
X019675Y011734D03*
X019675Y011806D03*
X019699Y011814D03*
X020299Y011790D03*
X020315Y011790D03*
X020339Y011790D03*
X020355Y011790D03*
X020379Y011790D03*
X020395Y011790D03*
X020419Y011790D03*
X020435Y011790D03*
X020459Y011790D03*
X020475Y011790D03*
X020499Y011790D03*
X020515Y011790D03*
X020539Y011790D03*
X020555Y011790D03*
X020579Y011790D03*
X020595Y011790D03*
X020619Y011790D03*
X020635Y011790D03*
X020659Y011790D03*
X020675Y011790D03*
X020699Y011790D03*
X020715Y011790D03*
X020739Y011790D03*
X020755Y011790D03*
X020779Y011790D03*
X020595Y012182D03*
X020499Y012142D03*
X020459Y012126D03*
X020419Y012110D03*
X020635Y011126D03*
X020675Y011110D03*
X020699Y011110D03*
X020715Y011110D03*
X020739Y011110D03*
X020515Y011102D03*
X020475Y011094D03*
X020459Y011094D03*
X020435Y011094D03*
X020419Y011094D03*
X020395Y011102D03*
X020395Y010782D03*
X020379Y010782D03*
X020355Y010782D03*
X020339Y010782D03*
X020315Y010782D03*
X020299Y010782D03*
X020419Y010782D03*
X020435Y010782D03*
X020459Y010782D03*
X020475Y010782D03*
X020499Y010782D03*
X020515Y010782D03*
X020579Y010782D03*
X020595Y010782D03*
X020619Y010782D03*
X020635Y010782D03*
X020659Y010782D03*
X020675Y010782D03*
X020699Y010782D03*
X020715Y010782D03*
X020739Y010782D03*
X020755Y010782D03*
X020779Y010782D03*
X020739Y010422D03*
X020715Y010422D03*
X020699Y010422D03*
X020675Y010422D03*
X020659Y010422D03*
X020635Y010422D03*
X020435Y010430D03*
X020419Y010430D03*
X020395Y010430D03*
X020379Y010430D03*
X020355Y010430D03*
X020339Y010430D03*
X020315Y010430D03*
X020299Y010430D03*
X020035Y010350D03*
X020019Y010350D03*
X019995Y010350D03*
X019979Y010350D03*
X019955Y010350D03*
X019979Y010054D03*
X019995Y010054D03*
X020019Y010054D03*
X020035Y010054D03*
X020059Y010054D03*
X019955Y010046D03*
X020299Y010102D03*
X020315Y010102D03*
X020339Y010102D03*
X020355Y010102D03*
X020379Y010102D03*
X020395Y010102D03*
X020419Y010102D03*
X020435Y010102D03*
X020459Y010102D03*
X020475Y010102D03*
X020499Y010102D03*
X020515Y010102D03*
X020539Y010102D03*
X020555Y010102D03*
X020579Y010102D03*
X020595Y010102D03*
X020619Y010102D03*
X020635Y010102D03*
X020659Y010102D03*
X020675Y010102D03*
X020699Y010102D03*
X020715Y010102D03*
X020739Y010102D03*
X020755Y010102D03*
X020779Y010102D03*
X020795Y010102D03*
X020819Y010102D03*
X020835Y010102D03*
X020739Y009390D03*
X020715Y009382D03*
X020699Y009382D03*
X020659Y009374D03*
X020635Y009374D03*
X020619Y009374D03*
X020595Y009374D03*
X020579Y009374D03*
X020555Y009374D03*
X020539Y009374D03*
X020515Y009374D03*
X020499Y009374D03*
X020475Y009382D03*
X020459Y009382D03*
X020435Y009382D03*
X020419Y009390D03*
X020435Y009086D03*
X020459Y009086D03*
X020475Y009086D03*
X020499Y009086D03*
X020515Y009086D03*
X020539Y009086D03*
X020555Y009086D03*
X020579Y009086D03*
X020595Y009086D03*
X020619Y009086D03*
X020635Y009086D03*
X020659Y009086D03*
X020675Y009086D03*
X020699Y009086D03*
X020715Y009086D03*
X020715Y008694D03*
X020699Y008694D03*
X020515Y008694D03*
X020499Y008694D03*
X020475Y008694D03*
X020459Y008694D03*
X020435Y008694D03*
X020419Y008694D03*
X020395Y008702D03*
X020099Y008942D03*
X020075Y008942D03*
X020059Y008942D03*
X020035Y008942D03*
X020019Y008942D03*
X019995Y008942D03*
X019979Y008942D03*
X019955Y008942D03*
X019939Y008942D03*
X019915Y008942D03*
X019899Y008942D03*
X019875Y008942D03*
X019859Y008942D03*
X019835Y008942D03*
X019819Y008942D03*
X019795Y008942D03*
X019779Y008942D03*
X019755Y008942D03*
X019739Y008942D03*
X019715Y008942D03*
X019699Y008942D03*
X019675Y008942D03*
X019659Y008942D03*
X019635Y008942D03*
X019619Y008942D03*
X019619Y008334D03*
X019635Y008334D03*
X019659Y008334D03*
X019675Y008334D03*
X019699Y008334D03*
X019715Y008334D03*
X019739Y008334D03*
X019755Y008334D03*
X019779Y008334D03*
X019795Y008334D03*
X019819Y008334D03*
X019835Y008334D03*
X019779Y009702D03*
X019755Y009702D03*
X019715Y009710D03*
X019819Y009710D03*
X019819Y010710D03*
X019795Y010710D03*
X019779Y010710D03*
X019755Y010710D03*
X019739Y010710D03*
X019715Y010710D03*
X019699Y010710D03*
X019675Y010710D03*
X019659Y010710D03*
X019635Y010710D03*
X019619Y010710D03*
X019899Y010710D03*
X019915Y010710D03*
X019939Y010710D03*
X019955Y010710D03*
X019979Y010710D03*
X019995Y010710D03*
X020019Y010710D03*
X020035Y010710D03*
X020059Y010710D03*
X020075Y010710D03*
X020099Y010710D03*
X018699Y012110D03*
X018539Y012126D03*
X018515Y012126D03*
X018499Y012126D03*
X018475Y012126D03*
X018459Y012126D03*
X018339Y012110D03*
X018315Y011422D03*
X018299Y011422D03*
X018275Y011422D03*
X018259Y011422D03*
X017619Y014046D03*
D117*
X017755Y013838D03*
X017699Y013758D03*
X017619Y013638D03*
D118*
X017619Y013230D03*
D119*
X017699Y013290D03*
D120*
X017747Y013322D03*
X017843Y013954D03*
X019003Y013322D03*
X019011Y013322D03*
X019163Y013322D03*
X019171Y013322D03*
X019323Y013322D03*
X019331Y013322D03*
X019347Y013322D03*
X019363Y013322D03*
X019691Y013322D03*
X019707Y013322D03*
X019667Y013962D03*
X019411Y013962D03*
X019227Y013962D03*
X020387Y013962D03*
X020427Y013642D03*
X020443Y013642D03*
X020451Y013642D03*
X020467Y013642D03*
X020483Y013642D03*
X020683Y013642D03*
X020691Y013642D03*
X020707Y013642D03*
X020747Y013322D03*
X020763Y013322D03*
X020771Y013322D03*
X020371Y013322D03*
X020363Y013322D03*
X020763Y013962D03*
X020771Y013962D03*
X021403Y013642D03*
D121*
X020323Y013942D03*
X019187Y013942D03*
X017771Y013342D03*
X018931Y011262D03*
D122*
X019635Y013346D03*
X019459Y013938D03*
X020315Y013346D03*
X020819Y013938D03*
X021355Y013642D03*
X017779Y013346D03*
D123*
X017787Y013350D03*
X019227Y013350D03*
X019867Y009830D03*
D124*
X017795Y013358D03*
X020835Y013918D03*
D125*
X020307Y013922D03*
X020307Y013362D03*
X021323Y013642D03*
X021331Y013642D03*
X019147Y012874D03*
X017803Y013362D03*
X019627Y009882D03*
X019907Y009898D03*
X020147Y009882D03*
D126*
X017811Y013370D03*
D127*
X017819Y013926D03*
X017835Y013942D03*
X019059Y013646D03*
X019075Y013646D03*
X018979Y013326D03*
X019195Y013326D03*
X019379Y013326D03*
X019395Y013326D03*
X019675Y013326D03*
X019755Y013646D03*
X019779Y013646D03*
X019795Y013646D03*
X019819Y013646D03*
X019835Y013646D03*
X019859Y013646D03*
X019875Y013646D03*
X019899Y013646D03*
X019915Y013646D03*
X019939Y013646D03*
X019955Y013646D03*
X019979Y013646D03*
X019995Y013646D03*
X020019Y013646D03*
X020035Y013646D03*
X020059Y013646D03*
X020075Y013646D03*
X020099Y013646D03*
X020115Y013646D03*
X020139Y013646D03*
X020155Y013646D03*
X020355Y013326D03*
X020779Y013326D03*
X020675Y013646D03*
X020779Y013958D03*
X019659Y013958D03*
X019435Y013958D03*
X018515Y011814D03*
X018499Y011814D03*
X018475Y011814D03*
X019475Y011254D03*
X020299Y008886D03*
X020539Y008782D03*
X020555Y008782D03*
D128*
X017819Y013374D03*
D129*
X017827Y013382D03*
X018243Y012854D03*
X018251Y012854D03*
X018267Y012854D03*
X018283Y012854D03*
X018291Y012854D03*
X018947Y011262D03*
X020587Y011318D03*
X020827Y008878D03*
X020851Y008262D03*
D130*
X020835Y008266D03*
X020819Y008266D03*
X020795Y008266D03*
X020339Y008266D03*
X020315Y008266D03*
X020299Y008266D03*
X019475Y010546D03*
X019459Y010546D03*
X019435Y010546D03*
X018979Y010546D03*
X018955Y010546D03*
X018939Y010546D03*
X019619Y011162D03*
X019635Y011162D03*
X019659Y011162D03*
X020115Y011162D03*
X020139Y011162D03*
X020155Y011162D03*
X020835Y010634D03*
X019459Y012850D03*
X019475Y013386D03*
X020299Y013386D03*
X020299Y013898D03*
X017835Y013386D03*
D131*
X017843Y013394D03*
X019171Y012842D03*
X019451Y012842D03*
X018763Y011914D03*
X019651Y009882D03*
X020827Y010626D03*
X020827Y011306D03*
X020603Y011306D03*
X021267Y013642D03*
D132*
X019443Y012838D03*
X019243Y013398D03*
X017851Y013398D03*
D133*
X017859Y013402D03*
X019195Y012834D03*
X019435Y012834D03*
X019075Y012058D03*
X018755Y011914D03*
X021259Y013642D03*
D134*
X020347Y011290D03*
X017867Y013410D03*
D135*
X017875Y013414D03*
X020419Y012830D03*
D136*
X019163Y013862D03*
X017883Y013422D03*
X020123Y008942D03*
X020131Y008942D03*
X020147Y008942D03*
D137*
X021211Y013642D03*
X017891Y013426D03*
D138*
X017899Y013434D03*
X021195Y013642D03*
D139*
X017907Y013438D03*
D140*
X017915Y013446D03*
X021179Y013638D03*
D141*
X019251Y013450D03*
X017923Y013450D03*
D142*
X017931Y013454D03*
D143*
X017939Y013462D03*
X019155Y013822D03*
D144*
X017947Y013466D03*
X021147Y013642D03*
D145*
X017955Y013474D03*
D146*
X017963Y013478D03*
X019267Y013478D03*
X021123Y013638D03*
D147*
X021107Y013638D03*
X020667Y013486D03*
X020651Y013486D03*
X020643Y013486D03*
X020627Y013486D03*
X020611Y013486D03*
X020603Y013486D03*
X020587Y013486D03*
X020571Y013486D03*
X020563Y013486D03*
X020547Y013486D03*
X020531Y013486D03*
X020523Y013486D03*
X020507Y013486D03*
X019307Y013486D03*
X018691Y013486D03*
X018683Y013486D03*
X018667Y013486D03*
X018651Y013486D03*
X018643Y013486D03*
X018627Y013486D03*
X018611Y013486D03*
X018603Y013486D03*
X018587Y013486D03*
X018571Y013486D03*
X018563Y013486D03*
X018467Y013486D03*
X018451Y013486D03*
X018443Y013486D03*
X018427Y013486D03*
X018411Y013486D03*
X018403Y013486D03*
X018387Y013486D03*
X018371Y013486D03*
X018363Y013486D03*
X018347Y013486D03*
X018331Y013486D03*
X018323Y013486D03*
X018307Y013486D03*
X018291Y013486D03*
X018283Y013486D03*
X018267Y013486D03*
X018251Y013486D03*
X017971Y013486D03*
D148*
X017979Y013490D03*
D149*
X017987Y014054D03*
D150*
X017987Y013494D03*
D151*
X017995Y013502D03*
D152*
X018003Y013506D03*
D153*
X018011Y013514D03*
D154*
X018019Y013518D03*
D155*
X018027Y013526D03*
D156*
X018035Y013530D03*
D157*
X018043Y013538D03*
D158*
X018051Y013542D03*
X021011Y013638D03*
D159*
X018059Y013546D03*
D160*
X018067Y013554D03*
X020987Y013642D03*
D161*
X020979Y013638D03*
X018075Y013558D03*
D162*
X018083Y013566D03*
X020971Y013638D03*
D163*
X018091Y013570D03*
D164*
X018099Y013578D03*
D165*
X018107Y013582D03*
D166*
X018115Y013590D03*
D167*
X018123Y013594D03*
D168*
X018131Y013598D03*
X020907Y013638D03*
D169*
X020899Y013638D03*
X018139Y013606D03*
D170*
X018147Y013610D03*
D171*
X018155Y013618D03*
D172*
X018163Y013622D03*
X020867Y013638D03*
D173*
X018171Y013626D03*
D174*
X018179Y013634D03*
D175*
X018187Y013634D03*
D176*
X018195Y013638D03*
D177*
X018203Y013638D03*
D178*
X018211Y013642D03*
X018227Y013642D03*
X018243Y013642D03*
X018803Y013642D03*
X018811Y013642D03*
X018827Y013642D03*
X018843Y013642D03*
X018851Y013642D03*
X018867Y013642D03*
X018883Y013642D03*
X018891Y013642D03*
X018907Y013642D03*
X018923Y013642D03*
X019483Y013642D03*
X019491Y013642D03*
X019507Y013642D03*
X019523Y013642D03*
X019531Y013642D03*
X019547Y013642D03*
X019563Y013642D03*
X019571Y013642D03*
X019587Y013642D03*
X019603Y013642D03*
X020163Y013642D03*
X020171Y013642D03*
X020187Y013642D03*
X020203Y013642D03*
X020211Y013642D03*
X020227Y013642D03*
X020243Y013642D03*
X020251Y013642D03*
X020267Y013642D03*
X020283Y013642D03*
X020291Y013642D03*
D179*
X020275Y013642D03*
X020259Y013642D03*
X020235Y013642D03*
X020219Y013642D03*
X020195Y013642D03*
X020179Y013642D03*
X019595Y013642D03*
X019579Y013642D03*
X019555Y013642D03*
X019539Y013642D03*
X019515Y013642D03*
X019499Y013642D03*
X018915Y013642D03*
X018899Y013642D03*
X018875Y013642D03*
X018859Y013642D03*
X018835Y013642D03*
X018819Y013642D03*
X018795Y013642D03*
X018235Y013642D03*
X018219Y013642D03*
D180*
X018251Y011918D03*
X019627Y013358D03*
D181*
X019779Y013974D03*
X019795Y013974D03*
X019819Y013974D03*
X019835Y013974D03*
X019859Y013974D03*
X019875Y013974D03*
X019899Y013974D03*
X019915Y013974D03*
X019939Y013974D03*
X019955Y013974D03*
X019979Y013974D03*
X019995Y013974D03*
X020019Y013974D03*
X020035Y013974D03*
X020059Y013974D03*
X020075Y013974D03*
X020099Y013974D03*
X020115Y013974D03*
X020139Y013974D03*
X020155Y013974D03*
X020579Y013974D03*
X020595Y013974D03*
X020619Y013974D03*
X020635Y013974D03*
X020659Y013974D03*
X019075Y013974D03*
X018779Y013974D03*
X018755Y013974D03*
X018739Y013974D03*
X018715Y013974D03*
X018699Y013974D03*
X018675Y013974D03*
X018659Y013974D03*
X018635Y013974D03*
X018619Y013974D03*
X018595Y013974D03*
X018579Y013974D03*
X018555Y013974D03*
X018539Y013974D03*
X018515Y013974D03*
X018499Y013974D03*
X018475Y013974D03*
X018459Y013974D03*
X018435Y013974D03*
X018419Y013974D03*
X018395Y013974D03*
X018379Y013974D03*
X018355Y013974D03*
X018339Y013974D03*
X018315Y013974D03*
X018299Y013974D03*
X018275Y013974D03*
X018259Y013974D03*
D182*
X018259Y013486D03*
X018275Y013486D03*
X018299Y013486D03*
X018315Y013486D03*
X018339Y013486D03*
X018355Y013486D03*
X018379Y013486D03*
X018395Y013486D03*
X018419Y013486D03*
X018435Y013486D03*
X018459Y013486D03*
X018555Y013486D03*
X018579Y013486D03*
X018595Y013486D03*
X018619Y013486D03*
X018635Y013486D03*
X018659Y013486D03*
X018675Y013486D03*
X018699Y013486D03*
X019315Y013486D03*
X020499Y013486D03*
X020515Y013486D03*
X020539Y013486D03*
X020555Y013486D03*
X020579Y013486D03*
X020595Y013486D03*
X020619Y013486D03*
X020635Y013486D03*
X020659Y013486D03*
D183*
X018275Y012854D03*
X018259Y012854D03*
D184*
X018259Y011914D03*
X019475Y013906D03*
X021299Y013642D03*
X019915Y011170D03*
X019899Y011170D03*
X019875Y011170D03*
X020155Y010570D03*
X019635Y009882D03*
X020315Y008882D03*
X020555Y008274D03*
D185*
X020147Y010558D03*
X019851Y010558D03*
X018267Y011918D03*
D186*
X018275Y011918D03*
X019179Y012838D03*
X020819Y008878D03*
D187*
X019891Y010542D03*
X020331Y011294D03*
X020803Y011294D03*
X020803Y010614D03*
X019067Y012062D03*
X018283Y011918D03*
X019611Y013406D03*
D188*
X020427Y012834D03*
X021243Y013642D03*
X019051Y012058D03*
X018747Y011914D03*
X018291Y011922D03*
X020331Y009602D03*
X020811Y009602D03*
X020803Y008882D03*
X020347Y008882D03*
D189*
X019155Y012858D03*
X018299Y012858D03*
D190*
X018315Y011746D03*
X018659Y011730D03*
X018675Y011730D03*
X018939Y011850D03*
X018979Y011866D03*
X019155Y011930D03*
X019195Y011946D03*
X019259Y011970D03*
X019275Y012146D03*
X019219Y012170D03*
X019179Y012186D03*
X019099Y012210D03*
X018995Y012250D03*
X018955Y012266D03*
X019395Y012106D03*
X019739Y011826D03*
X019795Y011850D03*
X019835Y011866D03*
X019915Y011890D03*
X019955Y011906D03*
X020019Y011930D03*
X020035Y011930D03*
X020059Y011946D03*
X020075Y011946D03*
X020139Y011970D03*
X020419Y012010D03*
X020475Y011986D03*
X020515Y011970D03*
X020579Y011946D03*
X020619Y011930D03*
X020675Y011906D03*
X020715Y011890D03*
X020779Y011866D03*
X020659Y012210D03*
X020699Y012226D03*
X020755Y012250D03*
X020755Y012330D03*
X020739Y012330D03*
X020715Y012330D03*
X020699Y012330D03*
X020675Y012330D03*
X020659Y012330D03*
X020635Y012330D03*
X020619Y012330D03*
X020595Y012330D03*
X020579Y012330D03*
X020555Y012330D03*
X020539Y012330D03*
X020515Y012330D03*
X020499Y012330D03*
X020475Y012330D03*
X020459Y012330D03*
X020435Y012330D03*
X020419Y012330D03*
X020395Y012330D03*
X020379Y012330D03*
X020355Y012330D03*
X020339Y012330D03*
X020315Y012330D03*
X020299Y012330D03*
X020475Y012130D03*
X020515Y012146D03*
X020395Y012650D03*
X020499Y012690D03*
X020539Y012706D03*
X020715Y012770D03*
X020755Y012786D03*
X020675Y012906D03*
X020619Y012930D03*
X020579Y012946D03*
X020499Y012970D03*
X020395Y013010D03*
X020355Y013026D03*
X019939Y012826D03*
X019259Y012650D03*
X019755Y011706D03*
X019875Y011666D03*
X019915Y011650D03*
X019995Y011626D03*
X020035Y011610D03*
X020099Y011586D03*
X020115Y011586D03*
X020155Y011570D03*
X020379Y011106D03*
X020619Y010426D03*
X020755Y010426D03*
X020755Y009770D03*
X020739Y009770D03*
X020715Y009770D03*
X020699Y009770D03*
X020675Y009770D03*
X020659Y009770D03*
X020635Y009770D03*
X020619Y009770D03*
X020595Y009770D03*
X020579Y009770D03*
X020555Y009770D03*
X020539Y009770D03*
X020515Y009770D03*
X020499Y009770D03*
X020475Y009770D03*
X020459Y009770D03*
X020435Y009770D03*
X020419Y009770D03*
X020395Y009770D03*
X020379Y009770D03*
X020355Y009770D03*
X020075Y010050D03*
X019795Y009706D03*
X019739Y009706D03*
X019699Y010050D03*
X019419Y010690D03*
X019395Y010690D03*
X019379Y010690D03*
X019355Y010690D03*
X019339Y010690D03*
X019315Y010690D03*
X019299Y010690D03*
X019275Y010690D03*
X019259Y010690D03*
X019179Y010690D03*
X019155Y010690D03*
X019139Y010690D03*
X019115Y010690D03*
X019099Y010690D03*
X019075Y010690D03*
X019059Y010690D03*
X019035Y010690D03*
X019019Y010690D03*
X018995Y010690D03*
X019019Y011090D03*
X019315Y011090D03*
X019339Y011090D03*
X019355Y011090D03*
X019219Y011466D03*
X019195Y011466D03*
X019035Y011450D03*
X020779Y009770D03*
X020379Y009066D03*
X020379Y008706D03*
X020379Y008410D03*
X020395Y008410D03*
X020419Y008410D03*
X020435Y008410D03*
X020459Y008410D03*
X020475Y008410D03*
X020499Y008410D03*
X020515Y008410D03*
X020539Y008410D03*
X020619Y008410D03*
X020635Y008410D03*
X020659Y008410D03*
X020675Y008410D03*
X020699Y008410D03*
X020715Y008410D03*
X020739Y008410D03*
X020755Y008410D03*
X020779Y008410D03*
X020355Y008410D03*
X019979Y008250D03*
X019955Y008266D03*
X019915Y008290D03*
D191*
X019971Y008410D03*
X020123Y008506D03*
X020163Y008530D03*
X020363Y008410D03*
X020371Y008410D03*
X020387Y008410D03*
X020403Y008410D03*
X020411Y008410D03*
X020427Y008410D03*
X020443Y008410D03*
X020451Y008410D03*
X020467Y008410D03*
X020483Y008410D03*
X020491Y008410D03*
X020507Y008410D03*
X020523Y008410D03*
X020531Y008410D03*
X020547Y008410D03*
X020627Y008410D03*
X020643Y008410D03*
X020651Y008410D03*
X020667Y008410D03*
X020683Y008410D03*
X020691Y008410D03*
X020707Y008410D03*
X020723Y008410D03*
X020731Y008410D03*
X020747Y008410D03*
X020763Y008410D03*
X020771Y008410D03*
X020787Y008410D03*
X020771Y008706D03*
X020771Y009066D03*
X020731Y009386D03*
X020723Y009386D03*
X020427Y009386D03*
X020427Y009770D03*
X020411Y009770D03*
X020403Y009770D03*
X020387Y009770D03*
X020371Y009770D03*
X020363Y009770D03*
X020443Y009770D03*
X020451Y009770D03*
X020467Y009770D03*
X020483Y009770D03*
X020491Y009770D03*
X020507Y009770D03*
X020523Y009770D03*
X020531Y009770D03*
X020547Y009770D03*
X020563Y009770D03*
X020571Y009770D03*
X020587Y009770D03*
X020603Y009770D03*
X020611Y009770D03*
X020627Y009770D03*
X020643Y009770D03*
X020651Y009770D03*
X020667Y009770D03*
X020683Y009770D03*
X020691Y009770D03*
X020707Y009770D03*
X020723Y009770D03*
X020731Y009770D03*
X020747Y009770D03*
X020763Y009770D03*
X020771Y009770D03*
X020787Y009770D03*
X020747Y010426D03*
X020627Y010426D03*
X020627Y011130D03*
X020147Y011570D03*
X020107Y011586D03*
X020043Y011610D03*
X020027Y011610D03*
X019987Y011626D03*
X019931Y011650D03*
X019923Y011650D03*
X019883Y011666D03*
X019867Y011666D03*
X019811Y011690D03*
X019803Y011690D03*
X019763Y011706D03*
X019691Y011730D03*
X019691Y011810D03*
X019683Y011810D03*
X019731Y011826D03*
X019803Y011850D03*
X019843Y011866D03*
X019851Y011866D03*
X019907Y011890D03*
X019947Y011906D03*
X019963Y011906D03*
X020027Y011930D03*
X020067Y011946D03*
X020131Y011970D03*
X020147Y011970D03*
X020427Y012010D03*
X020483Y011986D03*
X020523Y011970D03*
X020571Y011946D03*
X020611Y011930D03*
X020667Y011906D03*
X020683Y011906D03*
X020707Y011890D03*
X020771Y011866D03*
X020611Y012186D03*
X020603Y012186D03*
X020571Y012170D03*
X020563Y012170D03*
X020507Y012146D03*
X020467Y012130D03*
X020411Y012106D03*
X020411Y012330D03*
X020403Y012330D03*
X020387Y012330D03*
X020371Y012330D03*
X020363Y012330D03*
X020347Y012330D03*
X020331Y012330D03*
X020323Y012330D03*
X020307Y012330D03*
X020427Y012330D03*
X020443Y012330D03*
X020451Y012330D03*
X020467Y012330D03*
X020483Y012330D03*
X020491Y012330D03*
X020507Y012330D03*
X020523Y012330D03*
X020531Y012330D03*
X020547Y012330D03*
X020563Y012330D03*
X020571Y012330D03*
X020587Y012330D03*
X020603Y012330D03*
X020611Y012330D03*
X020627Y012330D03*
X020643Y012330D03*
X020651Y012330D03*
X020667Y012330D03*
X020683Y012330D03*
X020691Y012330D03*
X020707Y012330D03*
X020723Y012330D03*
X020731Y012330D03*
X020747Y012330D03*
X020763Y012330D03*
X020763Y012250D03*
X020707Y012226D03*
X020667Y012210D03*
X020547Y012706D03*
X020491Y012690D03*
X020387Y012650D03*
X020331Y012626D03*
X020323Y012626D03*
X020603Y012730D03*
X020611Y012730D03*
X020643Y012746D03*
X020651Y012746D03*
X020763Y012786D03*
X020731Y012890D03*
X020723Y012890D03*
X020683Y012906D03*
X020611Y012930D03*
X020571Y012946D03*
X020563Y012946D03*
X020507Y012970D03*
X020467Y012986D03*
X020403Y013010D03*
X020387Y013010D03*
X020347Y013026D03*
X020043Y012890D03*
X020003Y012866D03*
X019363Y012650D03*
X019251Y012650D03*
X019107Y012210D03*
X019163Y012186D03*
X019171Y012186D03*
X019211Y012170D03*
X019283Y012146D03*
X019323Y012130D03*
X019331Y012130D03*
X019387Y012106D03*
X019371Y012010D03*
X019307Y011986D03*
X019267Y011970D03*
X019203Y011946D03*
X019147Y011930D03*
X018987Y011866D03*
X018947Y011850D03*
X018931Y011850D03*
X018691Y011730D03*
X018683Y011730D03*
X018667Y011730D03*
X018651Y011730D03*
X018643Y011730D03*
X018371Y011730D03*
X018331Y012106D03*
X018323Y012106D03*
X018707Y012106D03*
X018947Y012266D03*
X018987Y012250D03*
X019003Y012250D03*
X019027Y011450D03*
X019043Y011450D03*
X019051Y011450D03*
X019203Y011466D03*
X019211Y011466D03*
X019387Y011450D03*
X019411Y011106D03*
X019371Y011090D03*
X019363Y011090D03*
X019347Y011090D03*
X019331Y011090D03*
X019323Y011090D03*
X019011Y011090D03*
X019011Y010690D03*
X019003Y010690D03*
X018987Y010690D03*
X019027Y010690D03*
X019043Y010690D03*
X019051Y010690D03*
X019067Y010690D03*
X019083Y010690D03*
X019091Y010690D03*
X019107Y010690D03*
X019123Y010690D03*
X019131Y010690D03*
X019147Y010690D03*
X019163Y010690D03*
X019171Y010690D03*
X019243Y010690D03*
X019251Y010690D03*
X019267Y010690D03*
X019283Y010690D03*
X019291Y010690D03*
X019307Y010690D03*
X019323Y010690D03*
X019331Y010690D03*
X019347Y010690D03*
X019363Y010690D03*
X019371Y010690D03*
X019387Y010690D03*
X019403Y010690D03*
X019411Y010690D03*
X019803Y010370D03*
X019691Y010050D03*
X019963Y010050D03*
X020091Y009730D03*
X019811Y009706D03*
X019803Y009706D03*
X019747Y009706D03*
X019731Y009706D03*
X020371Y008706D03*
D192*
X020819Y013338D03*
X019435Y013338D03*
X018955Y013338D03*
X018539Y013338D03*
X018515Y013338D03*
X018499Y013338D03*
X018475Y013338D03*
D193*
X018483Y013338D03*
X018491Y013338D03*
X018507Y013338D03*
X018523Y013338D03*
X018531Y013338D03*
X018547Y013338D03*
X019443Y013338D03*
X019643Y013338D03*
X020323Y013338D03*
D194*
X018539Y011230D03*
X018515Y011230D03*
X018499Y011230D03*
D195*
X018507Y011230D03*
X018523Y011230D03*
X018531Y011230D03*
X018547Y011230D03*
D196*
X018739Y010578D03*
X018755Y010578D03*
X018779Y010578D03*
D197*
X018771Y010578D03*
X018763Y010578D03*
X018747Y010578D03*
X018787Y010578D03*
X020107Y008938D03*
X020163Y008938D03*
D198*
X020307Y008266D03*
X020323Y008266D03*
X020331Y008266D03*
X020347Y008266D03*
X020803Y008266D03*
X020811Y008266D03*
X020827Y008266D03*
X020843Y008266D03*
X020307Y009626D03*
X020123Y009882D03*
X019643Y009882D03*
X019467Y010546D03*
X019451Y010546D03*
X019443Y010546D03*
X019427Y010546D03*
X018971Y010546D03*
X018963Y010546D03*
X018947Y010546D03*
X018931Y010546D03*
X019627Y011162D03*
X019643Y011162D03*
X019651Y011162D03*
X019867Y010562D03*
X020123Y011162D03*
X020131Y011162D03*
X020147Y011162D03*
X020163Y011162D03*
X020307Y011314D03*
X019163Y012850D03*
X018771Y011914D03*
X021283Y013642D03*
X021291Y013642D03*
D199*
X021315Y013642D03*
X018779Y011914D03*
X019899Y009882D03*
X020139Y009882D03*
X020299Y009642D03*
X020835Y008874D03*
D200*
X018787Y011910D03*
X021363Y013646D03*
D201*
X020843Y013374D03*
X019467Y013366D03*
X018931Y013918D03*
X019883Y009862D03*
D202*
X020843Y010646D03*
X018931Y013374D03*
X020843Y013894D03*
D203*
X020835Y013358D03*
X020315Y013934D03*
X018939Y013934D03*
X019915Y009918D03*
D204*
X019459Y013354D03*
X018939Y013354D03*
X019179Y013930D03*
X021339Y013642D03*
D205*
X018939Y011262D03*
D206*
X020851Y011354D03*
X021371Y013642D03*
X020811Y013946D03*
X020331Y013946D03*
X019451Y013946D03*
X018947Y013946D03*
D207*
X018947Y013346D03*
X019451Y013346D03*
X020827Y013346D03*
X020827Y013930D03*
X020851Y010674D03*
X020851Y009658D03*
D208*
X020835Y009622D03*
X018955Y011262D03*
D209*
X018963Y011262D03*
X019083Y012062D03*
X019091Y012062D03*
X019843Y010550D03*
X020131Y010550D03*
X020531Y010622D03*
X020563Y010622D03*
X020571Y011302D03*
X020323Y011302D03*
X020451Y012830D03*
X019611Y013886D03*
X020827Y009614D03*
X020331Y008886D03*
D210*
X020323Y009610D03*
X020123Y010546D03*
X019883Y010546D03*
X018971Y011266D03*
D211*
X018995Y013322D03*
X019019Y013322D03*
X019179Y013322D03*
X019339Y013322D03*
X019355Y013322D03*
X019699Y013322D03*
X019715Y013322D03*
X019675Y013962D03*
X019419Y013962D03*
X019219Y013962D03*
X018979Y013962D03*
X020379Y013962D03*
X020395Y013962D03*
X020435Y013642D03*
X020459Y013642D03*
X020475Y013642D03*
X020699Y013642D03*
X020755Y013322D03*
X020379Y013322D03*
X021395Y013642D03*
D212*
X019747Y013650D03*
X019043Y013650D03*
D213*
X019043Y012062D03*
D214*
X019059Y012062D03*
X020115Y010542D03*
X020339Y011294D03*
X020555Y011294D03*
X020795Y011294D03*
X020435Y012830D03*
X020819Y009606D03*
X020339Y008886D03*
D215*
X019299Y013482D03*
X019275Y013482D03*
X019115Y013802D03*
X019099Y013802D03*
X021115Y013642D03*
D216*
X019291Y013482D03*
X019283Y013482D03*
X019123Y013802D03*
X019107Y013802D03*
D217*
X019131Y013806D03*
D218*
X019139Y013806D03*
D219*
X019147Y013814D03*
D220*
X019171Y013906D03*
X019451Y011266D03*
X019883Y011170D03*
X019891Y011170D03*
X019907Y011170D03*
X019923Y011170D03*
X020547Y010642D03*
X020843Y011322D03*
X020131Y009882D03*
X020843Y009634D03*
X020611Y008274D03*
D221*
X020811Y008882D03*
X020811Y010618D03*
X020571Y010618D03*
X020523Y010618D03*
X020563Y011298D03*
X020811Y011298D03*
X020443Y012834D03*
X021251Y013642D03*
X019427Y012834D03*
X019187Y012834D03*
D222*
X019611Y011166D03*
X019667Y011166D03*
X019227Y010550D03*
X019211Y010550D03*
X019203Y010550D03*
X019187Y010550D03*
X020563Y008270D03*
X020571Y008270D03*
X020587Y008270D03*
X020603Y008270D03*
D223*
X020595Y008270D03*
X020579Y008270D03*
X019235Y010550D03*
X019219Y010550D03*
X019195Y010550D03*
X019859Y010566D03*
D224*
X020155Y009878D03*
X019219Y013342D03*
X019635Y013942D03*
D225*
X019619Y013370D03*
X019235Y013370D03*
X019459Y011266D03*
X020299Y011330D03*
D226*
X019259Y013470D03*
D227*
X019419Y011118D03*
D228*
X019427Y011146D03*
X019907Y008330D03*
D229*
X019875Y010550D03*
X019435Y011270D03*
X020459Y012830D03*
X020819Y011302D03*
X020819Y010622D03*
D230*
X019443Y011270D03*
X020323Y008886D03*
D231*
X019467Y013926D03*
D232*
X019467Y012858D03*
D233*
X019627Y013934D03*
X019467Y011262D03*
X020843Y008878D03*
D234*
X019475Y012874D03*
X019619Y013922D03*
D235*
X019611Y012610D03*
X019627Y011770D03*
X020763Y013642D03*
X021507Y013642D03*
X020107Y009746D03*
X020363Y009426D03*
X020291Y008882D03*
D236*
X019619Y009886D03*
D237*
X019659Y009882D03*
X020139Y010554D03*
X020315Y011306D03*
X021275Y013642D03*
D238*
X019835Y010546D03*
D239*
X019875Y009850D03*
D240*
X019891Y009874D03*
X021307Y013642D03*
D241*
X020835Y011310D03*
X020595Y011310D03*
X020579Y011310D03*
X020555Y010630D03*
X020539Y010630D03*
X020115Y009886D03*
D242*
X020115Y008942D03*
X020139Y008942D03*
X020155Y008942D03*
D243*
X020163Y010586D03*
D244*
X020307Y008882D03*
X021347Y013642D03*
D245*
X020315Y009618D03*
D246*
X020339Y009598D03*
X021235Y013638D03*
D247*
X021227Y013642D03*
X020347Y009594D03*
D248*
X020795Y010610D03*
D249*
X020795Y009594D03*
D250*
X020803Y009598D03*
D251*
X020851Y013638D03*
D252*
X020859Y013642D03*
D253*
X020875Y013642D03*
D254*
X020883Y013638D03*
D255*
X020891Y013642D03*
D256*
X020915Y013638D03*
D257*
X020923Y013638D03*
D258*
X020931Y013642D03*
D259*
X020939Y013638D03*
D260*
X020947Y013642D03*
D261*
X020955Y013638D03*
D262*
X020963Y013642D03*
D263*
X020995Y013638D03*
D264*
X021003Y013642D03*
D265*
X021019Y013642D03*
D266*
X021027Y013638D03*
D267*
X021035Y013638D03*
D268*
X021043Y013642D03*
D269*
X021051Y013638D03*
D270*
X021059Y013642D03*
D271*
X021067Y013638D03*
D272*
X021075Y013642D03*
D273*
X021083Y013642D03*
X021091Y013642D03*
D274*
X021099Y013642D03*
D275*
X021131Y013642D03*
D276*
X021139Y013642D03*
D277*
X021155Y013642D03*
D278*
X021163Y013642D03*
D279*
X021171Y013642D03*
D280*
X021187Y013642D03*
D281*
X021203Y013642D03*
D282*
X021219Y013642D03*
D283*
X021571Y013646D03*
D284*
X021579Y013642D03*
M02*
