G75*
G70*
%OFA0B0*%
%FSLAX24Y24*%
%IPPOS*%
%LPD*%
%AMOC8*
5,1,8,0,0,1.08239X$1,22.5*
%
%ADD10C,0.0000*%
%ADD11C,0.0050*%
%ADD12C,0.0120*%
%ADD13C,0.0040*%
%ADD14C,0.0060*%
%ADD15R,0.0315X0.0197*%
%ADD16C,0.0020*%
%ADD17C,0.0030*%
%ADD18C,0.0039*%
%ADD19C,0.0020*%
%ADD20C,0.0080*%
%ADD21C,0.0100*%
%ADD22R,0.0079X0.0472*%
%ADD23R,0.0472X0.0079*%
%ADD24C,0.0005*%
%ADD25R,0.0098X0.0098*%
%ADD26C,0.0070*%
%ADD27C,0.0010*%
%ADD28C,0.0160*%
%ADD29C,0.0240*%
D10*
X005729Y003024D02*
X005729Y030339D01*
X021839Y030339D01*
X021819Y003024D01*
X005729Y003024D01*
X013355Y005552D02*
X013357Y005578D01*
X013363Y005604D01*
X013373Y005629D01*
X013386Y005652D01*
X013402Y005672D01*
X013422Y005690D01*
X013444Y005705D01*
X013467Y005717D01*
X013493Y005725D01*
X013519Y005729D01*
X013545Y005729D01*
X013571Y005725D01*
X013597Y005717D01*
X013621Y005705D01*
X013642Y005690D01*
X013662Y005672D01*
X013678Y005652D01*
X013691Y005629D01*
X013701Y005604D01*
X013707Y005578D01*
X013709Y005552D01*
X013707Y005526D01*
X013701Y005500D01*
X013691Y005475D01*
X013678Y005452D01*
X013662Y005432D01*
X013642Y005414D01*
X013620Y005399D01*
X013597Y005387D01*
X013571Y005379D01*
X013545Y005375D01*
X013519Y005375D01*
X013493Y005379D01*
X013467Y005387D01*
X013443Y005399D01*
X013422Y005414D01*
X013402Y005432D01*
X013386Y005452D01*
X013373Y005475D01*
X013363Y005500D01*
X013357Y005526D01*
X013355Y005552D01*
X014733Y005552D02*
X014735Y005578D01*
X014741Y005604D01*
X014751Y005629D01*
X014764Y005652D01*
X014780Y005672D01*
X014800Y005690D01*
X014822Y005705D01*
X014845Y005717D01*
X014871Y005725D01*
X014897Y005729D01*
X014923Y005729D01*
X014949Y005725D01*
X014975Y005717D01*
X014999Y005705D01*
X015020Y005690D01*
X015040Y005672D01*
X015056Y005652D01*
X015069Y005629D01*
X015079Y005604D01*
X015085Y005578D01*
X015087Y005552D01*
X015085Y005526D01*
X015079Y005500D01*
X015069Y005475D01*
X015056Y005452D01*
X015040Y005432D01*
X015020Y005414D01*
X014998Y005399D01*
X014975Y005387D01*
X014949Y005379D01*
X014923Y005375D01*
X014897Y005375D01*
X014871Y005379D01*
X014845Y005387D01*
X014821Y005399D01*
X014800Y005414D01*
X014780Y005432D01*
X014764Y005452D01*
X014751Y005475D01*
X014741Y005500D01*
X014735Y005526D01*
X014733Y005552D01*
D11*
X010835Y011084D02*
X010911Y011159D01*
X010911Y011234D01*
X010835Y011309D01*
X010610Y011309D01*
X010610Y011159D01*
X010685Y011084D01*
X010835Y011084D01*
X010610Y011309D02*
X010760Y011459D01*
X010911Y011534D01*
X008008Y016213D02*
X008008Y018654D01*
X006630Y018654D01*
X006355Y018378D01*
X006355Y016213D01*
X008008Y016213D01*
X012969Y021772D02*
X012971Y021786D01*
X012976Y021798D01*
X012985Y021809D01*
X012997Y021817D01*
X013010Y021822D01*
X013023Y021823D01*
X013037Y021820D01*
X013049Y021814D01*
X013060Y021804D01*
X013067Y021792D01*
X013071Y021779D01*
X013071Y021765D01*
X013067Y021752D01*
X013060Y021740D01*
X013049Y021730D01*
X013037Y021724D01*
X013023Y021721D01*
X013010Y021722D01*
X012997Y021727D01*
X012985Y021735D01*
X012976Y021746D01*
X012971Y021758D01*
X012969Y021772D01*
X014669Y026410D02*
X014885Y026626D01*
X014885Y026770D01*
X014597Y027058D01*
X014453Y027058D01*
X014238Y026842D01*
X014669Y026410D01*
X015027Y026912D02*
X015171Y026912D01*
X015315Y027056D01*
X015315Y027200D01*
X015171Y027344D01*
X015027Y027344D01*
X014883Y027200D01*
X014883Y027056D01*
X015027Y026912D01*
X015385Y027414D02*
X015385Y027702D01*
X015457Y027773D01*
X015455Y028060D02*
X015743Y028060D01*
X015743Y028347D01*
X016175Y027916D01*
X016245Y028130D02*
X016389Y028130D01*
X016532Y028274D01*
X016532Y028417D01*
X016389Y028561D01*
X016245Y028561D01*
X016101Y028417D01*
X016101Y028274D01*
X016245Y028130D01*
X015887Y027628D02*
X015455Y028060D01*
X015241Y027558D02*
X015529Y027270D01*
X016371Y027287D02*
X016659Y027000D01*
X016515Y027143D02*
X016515Y027431D01*
X016587Y027503D01*
X016729Y027645D02*
X016729Y027933D01*
X017161Y027502D01*
X017304Y027645D02*
X017017Y027358D01*
X016818Y028559D02*
X016674Y028559D01*
X016458Y028775D01*
X016746Y029063D02*
X017034Y028775D01*
X016818Y028559D01*
X017176Y028917D02*
X017392Y029133D01*
X017392Y029277D01*
X017248Y029277D01*
X017104Y029133D01*
X016960Y029133D01*
X016960Y029277D01*
X017176Y029493D01*
X017390Y029563D02*
X017390Y029707D01*
X017534Y029850D01*
X017678Y029850D01*
X017750Y029779D01*
X017462Y029491D01*
X017534Y029419D02*
X017390Y029563D01*
X017534Y029419D02*
X017678Y029419D01*
X017822Y029563D01*
X018583Y028142D02*
X018583Y027552D01*
X018780Y027355D02*
X018780Y026764D01*
X018583Y026764D02*
X018583Y026174D01*
X018780Y025780D02*
X018780Y025189D01*
X019174Y024993D02*
X019174Y025583D01*
X019370Y025583D02*
X019370Y025977D01*
X019567Y025977D02*
X019567Y026567D01*
X019567Y026961D02*
X019567Y027552D01*
X019370Y027552D02*
X019370Y028142D01*
X018977Y027945D02*
X018977Y027355D01*
X019174Y027158D02*
X019174Y026567D01*
X018977Y026370D02*
X018977Y025780D01*
X019764Y025583D02*
X019764Y024993D01*
X019961Y025583D02*
X019961Y026174D01*
X020158Y026370D02*
X020158Y026961D01*
X019961Y026764D02*
X019961Y027355D01*
X019764Y027355D02*
X019764Y027945D01*
X020158Y028142D02*
X020158Y027552D01*
X015144Y031404D02*
X015144Y032915D01*
X014751Y032915D01*
X014751Y033506D01*
X014751Y032915D02*
X010302Y032915D01*
X010302Y033506D01*
X010302Y032915D02*
X009908Y032915D01*
X009908Y031404D01*
X015144Y031404D01*
X014751Y031404D02*
X014751Y030333D01*
X014751Y028967D01*
X013767Y030333D01*
X014751Y030333D01*
X013767Y030333D02*
X011286Y030333D01*
X010302Y028967D01*
X010302Y030333D01*
X010302Y031404D01*
X014751Y031404D01*
X015144Y033506D02*
X014928Y037848D01*
X014926Y037915D01*
X014920Y037981D01*
X014911Y038047D01*
X014897Y038112D01*
X014880Y038177D01*
X014859Y038240D01*
X014834Y038302D01*
X014806Y038362D01*
X014774Y038421D01*
X014739Y038478D01*
X014701Y038532D01*
X014660Y038585D01*
X014616Y038634D01*
X014568Y038682D01*
X014519Y038726D01*
X014466Y038767D01*
X014412Y038805D01*
X014355Y038840D01*
X014296Y038872D01*
X014236Y038900D01*
X014174Y038925D01*
X014111Y038946D01*
X014046Y038963D01*
X013981Y038977D01*
X013915Y038986D01*
X013849Y038992D01*
X013782Y038994D01*
X011270Y038994D01*
X011203Y038992D01*
X011137Y038986D01*
X011071Y038977D01*
X011006Y038963D01*
X010941Y038946D01*
X010878Y038925D01*
X010816Y038900D01*
X010756Y038872D01*
X010697Y038840D01*
X010640Y038805D01*
X010586Y038767D01*
X010533Y038726D01*
X010484Y038682D01*
X010436Y038634D01*
X010392Y038585D01*
X010351Y038532D01*
X010313Y038478D01*
X010278Y038421D01*
X010246Y038362D01*
X010218Y038302D01*
X010193Y038240D01*
X010172Y038177D01*
X010155Y038112D01*
X010141Y038047D01*
X010132Y037981D01*
X010126Y037915D01*
X010124Y037848D01*
X010125Y037848D02*
X009908Y033506D01*
X015144Y033506D01*
X011286Y030333D02*
X010302Y030333D01*
X010321Y030333D02*
X010323Y030281D01*
X010329Y030230D01*
X010338Y030179D01*
X010351Y030129D01*
X010368Y030080D01*
X010388Y030032D01*
X010412Y029986D01*
X010439Y029942D01*
X010469Y029900D01*
X010502Y029860D01*
X010538Y029823D01*
X010576Y029788D01*
X010617Y029756D01*
X010661Y029728D01*
X010706Y029702D01*
X010753Y029680D01*
X010801Y029662D01*
X010851Y029647D01*
X010901Y029636D01*
X010952Y029628D01*
X011004Y029624D01*
X011056Y029624D01*
X011108Y029628D01*
X011159Y029636D01*
X011209Y029647D01*
X011259Y029662D01*
X011307Y029680D01*
X011354Y029702D01*
X011399Y029728D01*
X011443Y029756D01*
X011484Y029788D01*
X011522Y029823D01*
X011558Y029860D01*
X011591Y029900D01*
X011621Y029942D01*
X011648Y029986D01*
X011672Y030032D01*
X011692Y030080D01*
X011709Y030129D01*
X011722Y030179D01*
X011731Y030230D01*
X011737Y030281D01*
X011739Y030333D01*
X006922Y026808D02*
X006978Y026716D01*
X007038Y026626D01*
X007102Y026539D01*
X007170Y026455D01*
X007241Y026374D01*
X007315Y026296D01*
X007355Y026335D02*
X007433Y026335D01*
X007512Y026414D02*
X007630Y026571D01*
X007433Y026571D01*
X007394Y026571D02*
X007512Y026414D01*
X007315Y026295D02*
X007333Y026273D01*
X007353Y026252D01*
X007376Y026234D01*
X007401Y026219D01*
X007427Y026208D01*
X007455Y026199D01*
X007483Y026194D01*
X007512Y026192D01*
X007541Y026194D01*
X007569Y026199D01*
X007597Y026208D01*
X007623Y026219D01*
X007648Y026234D01*
X007671Y026252D01*
X007691Y026273D01*
X007709Y026295D01*
X007670Y026335D02*
X007591Y026335D01*
X007709Y026453D02*
X007748Y026453D01*
X007788Y026571D02*
X007867Y026611D01*
X008103Y026807D02*
X008378Y027280D01*
X008260Y027319D02*
X008295Y027311D01*
X008331Y027307D01*
X008367Y027307D01*
X008403Y027311D01*
X008438Y027319D01*
X008473Y027330D01*
X008505Y027345D01*
X008536Y027364D01*
X008565Y027386D01*
X008592Y027410D01*
X008615Y027437D01*
X008636Y027467D01*
X008653Y027499D01*
X008667Y027532D01*
X008677Y027567D01*
X008683Y027602D01*
X008686Y027638D01*
X008685Y027674D01*
X008680Y027710D01*
X008671Y027745D01*
X008658Y027779D01*
X008642Y027811D01*
X008622Y027841D01*
X008600Y027869D01*
X008574Y027895D01*
X008546Y027917D01*
X008516Y027937D01*
X008484Y027953D01*
X008450Y027966D01*
X008415Y027975D01*
X008379Y027980D01*
X008343Y027981D01*
X008307Y027978D01*
X008272Y027972D01*
X008237Y027962D01*
X008204Y027948D01*
X008172Y027931D01*
X008142Y027910D01*
X008115Y027887D01*
X008091Y027860D01*
X008069Y027831D01*
X008050Y027800D01*
X008035Y027768D01*
X008024Y027733D01*
X008016Y027698D01*
X008012Y027662D01*
X008012Y027626D01*
X008016Y027590D01*
X008024Y027555D01*
X007637Y027201D02*
X007639Y027221D01*
X007644Y027241D01*
X007654Y027259D01*
X007666Y027276D01*
X007681Y027290D01*
X007699Y027300D01*
X007718Y027308D01*
X007738Y027312D01*
X007758Y027312D01*
X007778Y027308D01*
X007797Y027300D01*
X007815Y027290D01*
X007830Y027276D01*
X007842Y027259D01*
X007852Y027241D01*
X007857Y027221D01*
X007859Y027201D01*
X007857Y027181D01*
X007852Y027161D01*
X007842Y027143D01*
X007830Y027126D01*
X007815Y027112D01*
X007797Y027102D01*
X007778Y027094D01*
X007758Y027090D01*
X007738Y027090D01*
X007718Y027094D01*
X007699Y027102D01*
X007681Y027112D01*
X007666Y027126D01*
X007654Y027143D01*
X007644Y027161D01*
X007639Y027181D01*
X007637Y027201D01*
X007126Y027201D02*
X007128Y027221D01*
X007133Y027241D01*
X007143Y027259D01*
X007155Y027276D01*
X007170Y027290D01*
X007188Y027300D01*
X007207Y027308D01*
X007227Y027312D01*
X007247Y027312D01*
X007267Y027308D01*
X007286Y027300D01*
X007304Y027290D01*
X007319Y027276D01*
X007331Y027259D01*
X007341Y027241D01*
X007346Y027221D01*
X007348Y027201D01*
X007346Y027181D01*
X007341Y027161D01*
X007331Y027143D01*
X007319Y027126D01*
X007304Y027112D01*
X007286Y027102D01*
X007267Y027094D01*
X007247Y027090D01*
X007227Y027090D01*
X007207Y027094D01*
X007188Y027102D01*
X007170Y027112D01*
X007155Y027126D01*
X007143Y027143D01*
X007133Y027161D01*
X007128Y027181D01*
X007126Y027201D01*
X006922Y026807D02*
X006646Y027280D01*
X006764Y027319D02*
X006729Y027311D01*
X006693Y027307D01*
X006657Y027307D01*
X006621Y027311D01*
X006586Y027319D01*
X006551Y027330D01*
X006519Y027345D01*
X006488Y027364D01*
X006459Y027386D01*
X006432Y027410D01*
X006409Y027437D01*
X006388Y027467D01*
X006371Y027499D01*
X006357Y027532D01*
X006347Y027567D01*
X006341Y027602D01*
X006338Y027638D01*
X006339Y027674D01*
X006344Y027710D01*
X006353Y027745D01*
X006366Y027779D01*
X006382Y027811D01*
X006402Y027841D01*
X006424Y027869D01*
X006450Y027895D01*
X006478Y027917D01*
X006508Y027937D01*
X006540Y027953D01*
X006574Y027966D01*
X006609Y027975D01*
X006645Y027980D01*
X006681Y027981D01*
X006717Y027978D01*
X006752Y027972D01*
X006787Y027962D01*
X006820Y027948D01*
X006852Y027931D01*
X006882Y027910D01*
X006909Y027887D01*
X006933Y027860D01*
X006955Y027831D01*
X006974Y027800D01*
X006989Y027768D01*
X007000Y027733D01*
X007008Y027698D01*
X007012Y027662D01*
X007012Y027626D01*
X007008Y027590D01*
X007000Y027555D01*
X006450Y027870D02*
X006446Y027935D01*
X006445Y027999D01*
X006449Y028064D01*
X006456Y028128D01*
X006467Y028192D01*
X006482Y028255D01*
X006501Y028316D01*
X006523Y028377D01*
X006549Y028436D01*
X006578Y028494D01*
X006611Y028550D01*
X006647Y028603D01*
X006686Y028655D01*
X006728Y028704D01*
X006773Y028750D01*
X006821Y028794D01*
X006871Y028835D01*
X006923Y028873D01*
X006978Y028907D01*
X007034Y028938D01*
X007093Y028966D01*
X007152Y028991D01*
X007214Y029011D01*
X007276Y029028D01*
X007339Y029042D01*
X007403Y029051D01*
X007467Y029057D01*
X007532Y029059D01*
X007597Y029057D01*
X007661Y029051D01*
X007725Y029042D01*
X007788Y029028D01*
X007850Y029011D01*
X007912Y028991D01*
X007971Y028966D01*
X008030Y028938D01*
X008086Y028907D01*
X008141Y028873D01*
X008193Y028835D01*
X008243Y028794D01*
X008291Y028750D01*
X008336Y028704D01*
X008378Y028655D01*
X008417Y028603D01*
X008453Y028550D01*
X008486Y028494D01*
X008515Y028436D01*
X008541Y028377D01*
X008563Y028316D01*
X008582Y028255D01*
X008597Y028192D01*
X008608Y028128D01*
X008615Y028064D01*
X008619Y027999D01*
X008618Y027935D01*
X008614Y027870D01*
X007709Y029052D02*
X007709Y029091D01*
X007473Y029091D02*
X007473Y029052D01*
X007709Y029091D02*
X007707Y029140D01*
X007701Y029188D01*
X007692Y029236D01*
X007679Y029283D01*
X007662Y029329D01*
X007642Y029374D01*
X007619Y029417D01*
X007592Y029458D01*
X007562Y029496D01*
X007529Y029533D01*
X007494Y029566D01*
X007456Y029597D01*
X007416Y029625D01*
X007374Y029650D01*
X007330Y029671D01*
X007284Y029689D01*
X007237Y029703D01*
X007190Y029714D01*
X007141Y029721D01*
X007092Y029724D01*
X007044Y029723D01*
X006995Y029719D01*
X006947Y029711D01*
X006899Y029699D01*
X006853Y029683D01*
X006808Y029664D01*
X006764Y029642D01*
X006764Y029485D02*
X006800Y029505D01*
X006837Y029522D01*
X006876Y029536D01*
X006916Y029546D01*
X006956Y029552D01*
X006998Y029555D01*
X007039Y029554D01*
X007080Y029550D01*
X007120Y029542D01*
X007159Y029530D01*
X007198Y029515D01*
X007234Y029497D01*
X007269Y029475D01*
X007302Y029451D01*
X007333Y029423D01*
X007361Y029393D01*
X007387Y029361D01*
X007409Y029326D01*
X007428Y029290D01*
X007444Y029252D01*
X007457Y029213D01*
X007466Y029173D01*
X007471Y029132D01*
X007473Y029091D01*
X006764Y029484D02*
X006708Y029454D01*
X006651Y029428D01*
X006592Y029404D01*
X006532Y029383D01*
X006471Y029365D01*
X006409Y029351D01*
X006347Y029339D01*
X006284Y029331D01*
X006221Y029326D01*
X006158Y029325D01*
X006094Y029327D01*
X006076Y029330D01*
X006057Y029336D01*
X006041Y029346D01*
X006026Y029359D01*
X006015Y029374D01*
X006006Y029391D01*
X006001Y029410D01*
X005999Y029429D01*
X006001Y029448D01*
X006006Y029466D01*
X006015Y029483D01*
X006027Y029498D01*
X006042Y029511D01*
X006059Y029520D01*
X006077Y029526D01*
X006096Y029529D01*
X006115Y029528D01*
X006134Y029523D01*
X006134Y029524D02*
X006120Y029525D01*
X006106Y029523D01*
X006093Y029517D01*
X006081Y029509D01*
X006072Y029498D01*
X006066Y029486D01*
X006062Y029472D01*
X006062Y029458D01*
X006066Y029444D01*
X006072Y029432D01*
X006081Y029421D01*
X006093Y029413D01*
X006106Y029407D01*
X006120Y029405D01*
X006134Y029406D01*
X008103Y026808D02*
X008047Y026716D01*
X007987Y026626D01*
X007923Y026539D01*
X007855Y026455D01*
X007784Y026374D01*
X007710Y026296D01*
X007670Y026335D02*
X007705Y026333D01*
X007740Y026328D01*
X007774Y026320D01*
X007807Y026308D01*
X007838Y026293D01*
X007869Y026275D01*
X007897Y026254D01*
X007923Y026230D01*
X007946Y026204D01*
X007967Y026176D01*
X007985Y026145D01*
X008000Y026114D01*
X008011Y026081D01*
X008020Y026046D01*
X008024Y026012D01*
X008026Y025977D01*
X008024Y025942D01*
X007985Y025587D02*
X008014Y025579D01*
X008044Y025574D01*
X008075Y025573D01*
X008105Y025576D01*
X008135Y025583D01*
X008164Y025593D01*
X008191Y025606D01*
X008217Y025623D01*
X008240Y025643D01*
X008260Y025666D01*
X008378Y025705D01*
X008418Y025390D01*
X008418Y025391D02*
X008393Y025395D01*
X008368Y025396D01*
X008343Y025393D01*
X008318Y025387D01*
X008295Y025378D01*
X008273Y025365D01*
X008253Y025350D01*
X008236Y025332D01*
X008221Y025312D01*
X008221Y025311D02*
X007591Y025469D01*
X007985Y025587D01*
X007591Y025469D02*
X007591Y025115D01*
X008457Y024839D01*
X008457Y025075D01*
X008438Y025059D01*
X008417Y025045D01*
X008394Y025035D01*
X008370Y025029D01*
X008345Y025026D01*
X008320Y025027D01*
X008296Y025032D01*
X008272Y025040D01*
X008250Y025052D01*
X008230Y025066D01*
X008212Y025084D01*
X008198Y025104D01*
X008186Y025126D01*
X008178Y025150D01*
X008173Y025174D01*
X008172Y025199D01*
X008175Y025224D01*
X008181Y025248D01*
X008191Y025271D01*
X008205Y025292D01*
X008221Y025311D01*
X007945Y024997D02*
X007951Y025015D01*
X007953Y025035D01*
X007951Y025054D01*
X007946Y025073D01*
X007938Y025091D01*
X007926Y025107D01*
X007912Y025120D01*
X007895Y025130D01*
X007877Y025138D01*
X007858Y025141D01*
X007838Y025142D01*
X007819Y025138D01*
X007801Y025131D01*
X007784Y025121D01*
X007769Y025108D01*
X007757Y025093D01*
X007749Y025075D01*
X007748Y026453D02*
X007834Y026451D01*
X007919Y026445D01*
X008004Y026435D01*
X008088Y026422D01*
X008172Y026404D01*
X008255Y026382D01*
X008336Y026357D01*
X008417Y026328D01*
X008496Y026296D01*
X008654Y026532D02*
X008612Y026563D01*
X008568Y026590D01*
X008521Y026615D01*
X008474Y026636D01*
X008425Y026653D01*
X008374Y026668D01*
X008323Y026678D01*
X008272Y026685D01*
X008220Y026689D01*
X008168Y026688D01*
X008115Y026684D01*
X008064Y026677D01*
X008013Y026666D01*
X007963Y026651D01*
X007914Y026632D01*
X007867Y026611D01*
X007315Y026453D02*
X007276Y026453D01*
X007237Y026571D02*
X007158Y026611D01*
X007355Y026335D02*
X007320Y026333D01*
X007285Y026328D01*
X007251Y026320D01*
X007218Y026308D01*
X007187Y026293D01*
X007156Y026275D01*
X007128Y026254D01*
X007102Y026230D01*
X007079Y026204D01*
X007058Y026176D01*
X007040Y026145D01*
X007025Y026114D01*
X007014Y026081D01*
X007005Y026046D01*
X007001Y026012D01*
X006999Y025977D01*
X007001Y025942D01*
X007158Y026611D02*
X007111Y026632D01*
X007062Y026651D01*
X007012Y026666D01*
X006961Y026677D01*
X006910Y026684D01*
X006857Y026688D01*
X006805Y026689D01*
X006753Y026685D01*
X006702Y026678D01*
X006651Y026668D01*
X006600Y026653D01*
X006551Y026636D01*
X006504Y026615D01*
X006457Y026590D01*
X006413Y026563D01*
X006371Y026532D01*
X006528Y026296D02*
X006607Y026328D01*
X006688Y026357D01*
X006769Y026382D01*
X006852Y026404D01*
X006936Y026422D01*
X007020Y026435D01*
X007105Y026445D01*
X007190Y026451D01*
X007276Y026453D01*
X008417Y025390D02*
X008409Y025350D01*
X008405Y025310D01*
X008404Y025269D01*
X008407Y025229D01*
X008414Y025189D01*
X008425Y025150D01*
X008439Y025111D01*
X008457Y025075D01*
X009533Y025659D02*
X009535Y025684D01*
X009541Y025708D01*
X009550Y025731D01*
X009563Y025752D01*
X009580Y025771D01*
X009599Y025788D01*
X009620Y025801D01*
X009643Y025810D01*
X009667Y025816D01*
X009692Y025818D01*
X009717Y025816D01*
X009741Y025810D01*
X009764Y025801D01*
X009785Y025788D01*
X009804Y025771D01*
X009821Y025752D01*
X009834Y025731D01*
X009843Y025708D01*
X009849Y025684D01*
X009851Y025659D01*
X009849Y025634D01*
X009843Y025610D01*
X009834Y025587D01*
X009821Y025566D01*
X009804Y025547D01*
X009785Y025530D01*
X009764Y025517D01*
X009741Y025508D01*
X009717Y025502D01*
X009692Y025500D01*
X009667Y025502D01*
X009643Y025508D01*
X009620Y025517D01*
X009599Y025530D01*
X009580Y025547D01*
X009563Y025566D01*
X009550Y025587D01*
X009541Y025610D01*
X009535Y025634D01*
X009533Y025659D01*
X006765Y029642D02*
X006680Y029596D01*
X006593Y029554D01*
X006504Y029516D01*
X006414Y029483D01*
X006322Y029453D01*
X006229Y029427D01*
X006135Y029405D01*
X015760Y013334D02*
X015760Y012884D01*
X015610Y012884D02*
X015911Y012884D01*
X015610Y013184D02*
X015760Y013334D01*
X020932Y016262D02*
X020932Y017062D01*
X021082Y017062D01*
X021082Y016262D01*
X020932Y016262D01*
X020932Y016265D02*
X021082Y016265D01*
X021082Y016313D02*
X020932Y016313D01*
X020932Y016362D02*
X021082Y016362D01*
X021082Y016410D02*
X020932Y016410D01*
X020932Y016459D02*
X021082Y016459D01*
X021082Y016507D02*
X020932Y016507D01*
X020932Y016556D02*
X021082Y016556D01*
X021082Y016604D02*
X020932Y016604D01*
X020932Y016653D02*
X021082Y016653D01*
X021082Y016701D02*
X020932Y016701D01*
X020932Y016750D02*
X021082Y016750D01*
X021082Y016798D02*
X020932Y016798D01*
X020932Y016847D02*
X021082Y016847D01*
X021082Y016895D02*
X020932Y016895D01*
X020932Y016944D02*
X021082Y016944D01*
X021082Y016992D02*
X020932Y016992D01*
X020932Y017041D02*
X021082Y017041D01*
D12*
X017993Y028142D02*
X017995Y028218D01*
X018001Y028294D01*
X018011Y028369D01*
X018024Y028444D01*
X018042Y028518D01*
X018063Y028591D01*
X018088Y028663D01*
X018116Y028733D01*
X018149Y028802D01*
X018184Y028869D01*
X018224Y028934D01*
X018266Y028997D01*
X018312Y029058D01*
X018360Y029116D01*
X018412Y029172D01*
X018466Y029225D01*
X018523Y029275D01*
X018583Y029322D01*
X018645Y029367D01*
X018709Y029407D01*
X018775Y029445D01*
X018843Y029479D01*
X018913Y029509D01*
X018984Y029536D01*
X019056Y029559D01*
X019130Y029578D01*
X019204Y029594D01*
X019279Y029606D01*
X019355Y029614D01*
X019431Y029618D01*
X019507Y029618D01*
X019583Y029614D01*
X019658Y029606D01*
X019733Y029594D01*
X019808Y029579D01*
X019881Y029559D01*
X019954Y029536D01*
X020025Y029509D01*
X020094Y029479D01*
X020162Y029445D01*
X020229Y029408D01*
X020293Y029367D01*
X020355Y029323D01*
X019856Y004034D02*
X019856Y003647D01*
X020436Y003647D01*
X020146Y003647D02*
X020146Y003841D01*
X019386Y003937D02*
X019386Y003744D01*
X019290Y003647D01*
X019096Y003744D02*
X019096Y003937D01*
X019193Y004034D01*
X019290Y004034D01*
X019386Y003937D01*
X019096Y003744D02*
X018999Y003647D01*
X018903Y003647D01*
X018806Y003744D01*
X018806Y003937D01*
X018903Y004034D01*
X018336Y003937D02*
X018336Y003744D01*
X018240Y003647D01*
X017756Y003647D01*
X017756Y004034D02*
X018240Y004034D01*
X018336Y003937D01*
X017286Y003937D02*
X017286Y003744D01*
X017190Y003647D01*
X016803Y003647D01*
X016706Y003744D01*
X016706Y003937D01*
X016803Y004034D01*
X017190Y004034D02*
X017286Y003937D01*
D13*
X017244Y004245D02*
X017157Y004332D01*
X017157Y004592D01*
X017071Y004592D02*
X017331Y004592D01*
X017331Y004332D01*
X017244Y004245D01*
X016984Y004332D02*
X016984Y004505D01*
X017071Y004592D01*
X016984Y004760D02*
X016984Y004847D01*
X017071Y004934D01*
X016984Y005021D01*
X017071Y005107D01*
X017331Y005107D01*
X017331Y005276D02*
X017331Y005536D01*
X017244Y005623D01*
X017071Y005623D01*
X016984Y005536D01*
X016984Y005276D01*
X016810Y005276D02*
X017331Y005276D01*
X017331Y004934D02*
X017071Y004934D01*
X016984Y004760D02*
X017331Y004760D01*
X017767Y004839D02*
X017854Y004839D01*
X018027Y004839D02*
X018374Y004839D01*
X018374Y004753D02*
X018374Y004926D01*
X018374Y004584D02*
X018114Y004584D01*
X018027Y004497D01*
X018027Y004237D01*
X018374Y004237D01*
X018027Y004753D02*
X018027Y004839D01*
X018027Y005096D02*
X018374Y005270D01*
X018027Y005443D01*
X018114Y005612D02*
X018027Y005699D01*
X018027Y005872D01*
X018114Y005959D01*
X018201Y005959D01*
X018201Y005612D01*
X018287Y005612D02*
X018114Y005612D01*
X018287Y005612D02*
X018374Y005699D01*
X018374Y005872D01*
X018374Y006128D02*
X018027Y006128D01*
X018027Y006301D02*
X018027Y006388D01*
X018027Y006301D02*
X018201Y006128D01*
X018114Y006557D02*
X018027Y006644D01*
X018027Y006904D01*
X018027Y007073D02*
X018027Y007160D01*
X018374Y007160D01*
X018374Y007246D02*
X018374Y007073D01*
X018287Y006904D02*
X018201Y006818D01*
X018201Y006644D01*
X018114Y006557D01*
X018374Y006557D02*
X018374Y006818D01*
X018287Y006904D01*
X017854Y007160D02*
X017767Y007160D01*
X017504Y007254D02*
X017504Y007341D01*
X017418Y007428D01*
X016984Y007428D01*
X016984Y007168D01*
X017071Y007081D01*
X017244Y007081D01*
X017331Y007168D01*
X017331Y007428D01*
X017244Y007596D02*
X017071Y007596D01*
X016984Y007683D01*
X016984Y007857D01*
X017071Y007943D01*
X017157Y007943D01*
X017157Y007596D01*
X017244Y007596D02*
X017331Y007683D01*
X017331Y007857D01*
X018027Y007760D02*
X018287Y007760D01*
X018374Y007847D01*
X018374Y008107D01*
X018461Y008107D02*
X018548Y008021D01*
X018548Y007934D01*
X018461Y008107D02*
X018027Y008107D01*
X018027Y007590D02*
X018027Y007417D01*
X017940Y007503D02*
X018287Y007503D01*
X018374Y007590D01*
X017331Y006912D02*
X017331Y006652D01*
X017244Y006565D01*
X017071Y006565D01*
X016984Y006652D01*
X016984Y006912D01*
X016810Y006912D02*
X017331Y006912D01*
X017331Y006395D02*
X017331Y006221D01*
X017331Y006308D02*
X016984Y006308D01*
X016984Y006221D01*
X016984Y006052D02*
X016984Y005965D01*
X017157Y005792D01*
X016984Y005792D02*
X017331Y005792D01*
X016810Y006308D02*
X016724Y006308D01*
X016150Y006495D02*
X016150Y006495D01*
X016149Y006508D01*
X016144Y006521D01*
X016137Y006533D01*
X016127Y006543D01*
X016115Y006550D01*
X016102Y006555D01*
X016089Y006556D01*
X015719Y006556D01*
X015719Y004475D01*
X016089Y004475D01*
X016089Y004476D02*
X016102Y004475D01*
X016115Y004470D01*
X016127Y004463D01*
X016137Y004453D01*
X016144Y004441D01*
X016149Y004428D01*
X016150Y004415D01*
X016150Y004414D02*
X016150Y004414D01*
X016148Y004399D01*
X016143Y004385D01*
X016136Y004373D01*
X016125Y004362D01*
X016113Y004355D01*
X016099Y004350D01*
X016084Y004348D01*
X016023Y004348D01*
X016006Y004346D01*
X015989Y004341D01*
X015974Y004333D01*
X015961Y004322D01*
X015950Y004309D01*
X015942Y004294D01*
X015937Y004277D01*
X015935Y004260D01*
X015935Y004249D01*
X015937Y004232D01*
X015942Y004215D01*
X015950Y004200D01*
X015961Y004187D01*
X015974Y004176D01*
X015989Y004168D01*
X016006Y004163D01*
X016023Y004161D01*
X016089Y004161D01*
X016103Y004159D01*
X016115Y004155D01*
X016127Y004148D01*
X016137Y004138D01*
X016144Y004126D01*
X016148Y004114D01*
X016150Y004100D01*
X016148Y004085D01*
X016143Y004071D01*
X016136Y004059D01*
X016125Y004048D01*
X016113Y004041D01*
X016099Y004036D01*
X016084Y004034D01*
X015742Y004034D01*
X015719Y004475D02*
X015719Y003051D01*
X012722Y003051D01*
X012722Y006556D01*
X013219Y006556D01*
X013219Y006555D02*
X013241Y006553D01*
X013263Y006548D01*
X013284Y006539D01*
X013303Y006528D01*
X013320Y006513D01*
X013335Y006496D01*
X013346Y006477D01*
X013355Y006456D01*
X013360Y006434D01*
X013362Y006412D01*
X013363Y006412D02*
X013363Y006203D01*
X013926Y005298D02*
X014505Y005298D01*
X014528Y005296D01*
X014549Y005291D01*
X014570Y005282D01*
X014590Y005270D01*
X014607Y005256D01*
X014621Y005239D01*
X014633Y005219D01*
X014642Y005198D01*
X014647Y005177D01*
X014649Y005154D01*
X014731Y003581D01*
X014729Y003568D01*
X014723Y003555D01*
X014714Y003544D01*
X014703Y003536D01*
X014690Y003531D01*
X014676Y003529D01*
X014662Y003531D01*
X014649Y003536D01*
X014638Y003544D01*
X014629Y003555D01*
X014623Y003568D01*
X014621Y003581D01*
X014566Y004779D01*
X014566Y004806D01*
X014564Y004830D01*
X014559Y004853D01*
X014551Y004875D01*
X014540Y004896D01*
X014525Y004915D01*
X014509Y004931D01*
X014490Y004946D01*
X014469Y004957D01*
X014447Y004965D01*
X014424Y004970D01*
X014400Y004972D01*
X014053Y004972D01*
X014029Y004970D01*
X014005Y004965D01*
X013982Y004957D01*
X013961Y004945D01*
X013941Y004930D01*
X013924Y004913D01*
X013909Y004893D01*
X013897Y004872D01*
X013889Y004849D01*
X013884Y004825D01*
X013882Y004801D01*
X013815Y003576D01*
X013816Y003575D02*
X013813Y003562D01*
X013807Y003549D01*
X013798Y003539D01*
X013787Y003531D01*
X013774Y003526D01*
X013760Y003525D01*
X013747Y003528D01*
X013734Y003534D01*
X013724Y003543D01*
X013716Y003554D01*
X013711Y003567D01*
X013710Y003581D01*
X013793Y005165D01*
X013795Y005186D01*
X013800Y005206D01*
X013808Y005225D01*
X013818Y005243D01*
X013832Y005259D01*
X013848Y005273D01*
X013866Y005283D01*
X013885Y005291D01*
X013905Y005296D01*
X013926Y005298D01*
X013556Y005121D02*
X013490Y003675D01*
X013490Y003658D01*
X013488Y003636D01*
X013483Y003615D01*
X013475Y003595D01*
X013464Y003577D01*
X013450Y003560D01*
X013433Y003546D01*
X013415Y003535D01*
X013395Y003527D01*
X013374Y003522D01*
X013352Y003520D01*
X012745Y003520D01*
X013159Y003796D02*
X013070Y005137D01*
X013068Y005149D01*
X013062Y005160D01*
X013054Y005169D01*
X013044Y005176D01*
X013033Y005180D01*
X013021Y005181D01*
X013021Y005182D02*
X012745Y005182D01*
X012700Y004475D02*
X012358Y004475D01*
X012343Y004473D01*
X012329Y004468D01*
X012317Y004461D01*
X012306Y004450D01*
X012299Y004438D01*
X012294Y004424D01*
X012292Y004409D01*
X012294Y004395D01*
X012298Y004383D01*
X012305Y004371D01*
X012315Y004361D01*
X012327Y004354D01*
X012339Y004350D01*
X012353Y004348D01*
X012419Y004348D01*
X012436Y004346D01*
X012453Y004341D01*
X012468Y004333D01*
X012481Y004322D01*
X012492Y004309D01*
X012500Y004294D01*
X012505Y004277D01*
X012507Y004260D01*
X012507Y004249D01*
X012505Y004232D01*
X012500Y004215D01*
X012492Y004200D01*
X012481Y004187D01*
X012468Y004176D01*
X012453Y004168D01*
X012436Y004163D01*
X012419Y004161D01*
X012358Y004161D01*
X012358Y004160D02*
X012343Y004158D01*
X012329Y004153D01*
X012317Y004146D01*
X012306Y004135D01*
X012299Y004123D01*
X012294Y004109D01*
X012292Y004094D01*
X012292Y004094D01*
X012293Y004081D01*
X012298Y004068D01*
X012305Y004056D01*
X012315Y004046D01*
X012327Y004039D01*
X012340Y004034D01*
X012353Y004033D01*
X012353Y004034D02*
X012723Y004034D01*
X013158Y003796D02*
X013160Y003778D01*
X013165Y003760D01*
X013174Y003744D01*
X013186Y003729D01*
X013200Y003717D01*
X013216Y003708D01*
X013234Y003702D01*
X013252Y003700D01*
X013271Y003701D01*
X013289Y003706D01*
X013305Y003714D01*
X013320Y003725D01*
X013333Y003739D01*
X013342Y003755D01*
X013349Y003772D01*
X013352Y003791D01*
X013440Y005126D01*
X013440Y005127D02*
X013442Y005141D01*
X013448Y005153D01*
X013457Y005165D01*
X013467Y005173D01*
X013480Y005179D01*
X013494Y005182D01*
X013508Y005181D01*
X013521Y005177D01*
X013533Y005170D01*
X013543Y005160D01*
X013551Y005149D01*
X013555Y005135D01*
X013556Y005121D01*
X012723Y006114D02*
X012353Y006114D01*
X012340Y006116D01*
X012327Y006120D01*
X012315Y006127D01*
X012305Y006137D01*
X012298Y006149D01*
X012293Y006162D01*
X012292Y006175D01*
X012292Y006175D01*
X012294Y006190D01*
X012299Y006204D01*
X012306Y006216D01*
X012317Y006227D01*
X012329Y006234D01*
X012343Y006239D01*
X012358Y006241D01*
X012419Y006241D01*
X012419Y006242D02*
X012436Y006244D01*
X012453Y006249D01*
X012468Y006257D01*
X012481Y006268D01*
X012492Y006281D01*
X012500Y006296D01*
X012505Y006313D01*
X012507Y006330D01*
X012507Y006341D01*
X012505Y006358D01*
X012500Y006375D01*
X012492Y006390D01*
X012481Y006403D01*
X012468Y006414D01*
X012453Y006422D01*
X012436Y006427D01*
X012419Y006429D01*
X012353Y006429D01*
X012339Y006431D01*
X012327Y006435D01*
X012315Y006442D01*
X012305Y006452D01*
X012298Y006464D01*
X012294Y006476D01*
X012292Y006490D01*
X012294Y006505D01*
X012299Y006519D01*
X012306Y006531D01*
X012317Y006542D01*
X012329Y006549D01*
X012343Y006554D01*
X012358Y006556D01*
X012728Y006556D01*
X010714Y007859D02*
X010714Y008139D01*
X010574Y007999D01*
X010760Y007999D01*
X010366Y005439D02*
X010272Y005439D01*
X010225Y005393D01*
X010319Y005299D02*
X010366Y005299D01*
X010412Y005252D01*
X010412Y005206D01*
X010366Y005159D01*
X010272Y005159D01*
X010225Y005206D01*
X010366Y005299D02*
X010412Y005346D01*
X010412Y005393D01*
X010366Y005439D01*
X009502Y005389D02*
X009456Y005436D01*
X009362Y005436D01*
X009315Y005389D01*
X009502Y005389D02*
X009502Y005342D01*
X009315Y005155D01*
X009502Y005155D01*
X008651Y005159D02*
X008464Y005159D01*
X008558Y005159D02*
X008558Y005439D01*
X008464Y005346D01*
X014886Y005121D02*
X014952Y003675D01*
X014952Y003658D01*
X014954Y003636D01*
X014959Y003615D01*
X014967Y003595D01*
X014978Y003577D01*
X014992Y003560D01*
X015009Y003546D01*
X015027Y003535D01*
X015047Y003527D01*
X015068Y003522D01*
X015090Y003520D01*
X015697Y003520D01*
X015283Y003796D02*
X015372Y005138D01*
X015372Y005137D02*
X015374Y005149D01*
X015380Y005160D01*
X015388Y005169D01*
X015398Y005176D01*
X015409Y005180D01*
X015421Y005181D01*
X015421Y005182D02*
X015697Y005182D01*
X015742Y006114D02*
X016084Y006114D01*
X016084Y006115D02*
X016099Y006117D01*
X016113Y006122D01*
X016125Y006129D01*
X016136Y006140D01*
X016143Y006152D01*
X016148Y006166D01*
X016150Y006181D01*
X016148Y006195D01*
X016144Y006207D01*
X016137Y006219D01*
X016127Y006229D01*
X016115Y006236D01*
X016103Y006240D01*
X016089Y006242D01*
X016089Y006241D02*
X016023Y006241D01*
X016023Y006242D02*
X016006Y006244D01*
X015989Y006249D01*
X015974Y006257D01*
X015961Y006268D01*
X015950Y006281D01*
X015942Y006296D01*
X015937Y006313D01*
X015935Y006330D01*
X015935Y006341D01*
X015937Y006358D01*
X015942Y006375D01*
X015950Y006390D01*
X015961Y006403D01*
X015974Y006414D01*
X015989Y006422D01*
X016006Y006427D01*
X016023Y006429D01*
X016084Y006429D01*
X016099Y006431D01*
X016113Y006436D01*
X016125Y006443D01*
X016136Y006454D01*
X016143Y006466D01*
X016148Y006480D01*
X016150Y006495D01*
X015719Y006556D02*
X015217Y006556D01*
X015195Y006554D01*
X015174Y006549D01*
X015154Y006541D01*
X015136Y006530D01*
X015119Y006516D01*
X015105Y006499D01*
X015094Y006481D01*
X015086Y006461D01*
X015081Y006440D01*
X015079Y006418D01*
X015079Y006186D01*
X015002Y005126D02*
X015090Y003791D01*
X015093Y003772D01*
X015100Y003755D01*
X015109Y003739D01*
X015122Y003725D01*
X015137Y003714D01*
X015153Y003706D01*
X015171Y003701D01*
X015190Y003700D01*
X015208Y003702D01*
X015226Y003708D01*
X015242Y003717D01*
X015256Y003729D01*
X015268Y003744D01*
X015277Y003760D01*
X015282Y003778D01*
X015284Y003796D01*
X015002Y005127D02*
X015000Y005141D01*
X014994Y005153D01*
X014985Y005165D01*
X014975Y005173D01*
X014962Y005179D01*
X014948Y005182D01*
X014934Y005181D01*
X014921Y005177D01*
X014909Y005170D01*
X014899Y005160D01*
X014891Y005149D01*
X014887Y005135D01*
X014886Y005121D01*
X019086Y005001D02*
X019173Y005088D01*
X019433Y005088D01*
X019433Y004827D01*
X019346Y004741D01*
X019260Y004827D01*
X019260Y005088D01*
X019346Y005256D02*
X019433Y005343D01*
X019433Y005603D01*
X019346Y005772D02*
X019173Y005772D01*
X019086Y005859D01*
X019086Y006032D01*
X019173Y006119D01*
X019260Y006119D01*
X019260Y005772D01*
X019346Y005772D02*
X019433Y005859D01*
X019433Y006032D01*
X019086Y005603D02*
X019086Y005343D01*
X019173Y005256D01*
X019346Y005256D01*
X019086Y005001D02*
X019086Y004827D01*
X019173Y004572D02*
X019346Y004572D01*
X019433Y004485D01*
X019433Y004225D01*
X019607Y004225D02*
X019086Y004225D01*
X019086Y004485D01*
X019173Y004572D01*
X019850Y004648D02*
X019936Y004648D01*
X020110Y004648D02*
X020457Y004648D01*
X020457Y004734D02*
X020457Y004561D01*
X020457Y004391D02*
X020457Y004217D01*
X020457Y004304D02*
X019936Y004304D01*
X019936Y004217D01*
X020110Y004561D02*
X020110Y004648D01*
X020197Y004905D02*
X020370Y004905D01*
X020457Y004992D01*
X020457Y005252D01*
X020544Y005252D02*
X020110Y005252D01*
X020110Y004992D01*
X020197Y004905D01*
X020544Y005252D02*
X020630Y005165D01*
X020630Y005078D01*
X020457Y005420D02*
X019936Y005420D01*
X020110Y005507D02*
X020110Y005681D01*
X020197Y005767D01*
X020457Y005767D01*
X020370Y006023D02*
X020457Y006110D01*
X020370Y006023D02*
X020023Y006023D01*
X020110Y005936D02*
X020110Y006110D01*
X020110Y005507D02*
X020197Y005420D01*
D14*
X020363Y007315D02*
X019862Y007315D01*
X019862Y007565D01*
X019946Y007649D01*
X020279Y007649D01*
X020363Y007565D01*
X020363Y007315D01*
X020279Y007831D02*
X020196Y007914D01*
X020196Y008165D01*
X020112Y008165D02*
X020363Y008165D01*
X020363Y007914D01*
X020279Y007831D01*
X020029Y007914D02*
X020029Y008081D01*
X020112Y008165D01*
X020029Y008347D02*
X020029Y008597D01*
X020112Y008680D01*
X020363Y008680D01*
X020363Y008862D02*
X020363Y009029D01*
X020363Y008946D02*
X020029Y008946D01*
X020029Y008862D01*
X019862Y008946D02*
X019779Y008946D01*
X020112Y009206D02*
X020029Y009289D01*
X020029Y009456D01*
X020112Y009540D01*
X020196Y009540D01*
X020196Y009206D01*
X020279Y009206D02*
X020112Y009206D01*
X020279Y009206D02*
X020363Y009289D01*
X020363Y009456D01*
X020363Y009722D02*
X020363Y009888D01*
X020363Y009805D02*
X019862Y009805D01*
X019862Y009722D01*
X019862Y010581D02*
X019862Y010831D01*
X019946Y010915D01*
X020112Y010915D01*
X020196Y010831D01*
X020196Y010581D01*
X020363Y010581D02*
X019862Y010581D01*
X020196Y010748D02*
X020363Y010915D01*
X020363Y011097D02*
X020363Y011263D01*
X020363Y011180D02*
X020029Y011180D01*
X020029Y011097D01*
X019862Y011180D02*
X019779Y011180D01*
X020112Y011440D02*
X020029Y011524D01*
X020029Y011774D01*
X020112Y011956D02*
X020029Y012039D01*
X020029Y012206D01*
X020112Y012290D01*
X020363Y012290D01*
X020363Y012472D02*
X020029Y012472D01*
X020029Y012555D01*
X020112Y012638D01*
X020029Y012722D01*
X020112Y012805D01*
X020363Y012805D01*
X020363Y012638D02*
X020112Y012638D01*
X020279Y012987D02*
X020196Y013071D01*
X020196Y013321D01*
X020112Y013321D02*
X020363Y013321D01*
X020363Y013071D01*
X020279Y012987D01*
X020029Y013071D02*
X020029Y013238D01*
X020112Y013321D01*
X020029Y013503D02*
X020029Y013753D01*
X020112Y013837D01*
X020363Y013837D01*
X020363Y013503D02*
X020029Y013503D01*
X020786Y013243D02*
X021119Y013243D01*
X021203Y013326D01*
X021203Y013503D02*
X021203Y013753D01*
X021119Y013837D01*
X021036Y013753D01*
X021036Y013586D01*
X020952Y013503D01*
X020869Y013586D01*
X020869Y013837D01*
X020869Y013326D02*
X020869Y013159D01*
X020869Y012980D02*
X020869Y012896D01*
X021036Y012729D01*
X021203Y012729D02*
X020869Y012729D01*
X020952Y012547D02*
X020869Y012464D01*
X020869Y012297D01*
X020952Y012214D01*
X021119Y012214D01*
X021203Y012297D01*
X021203Y012464D01*
X021036Y012547D02*
X021036Y012214D01*
X021119Y012032D02*
X020952Y012032D01*
X020869Y011948D01*
X020869Y011698D01*
X020702Y011698D02*
X021203Y011698D01*
X021203Y011948D01*
X021119Y012032D01*
X021119Y011516D02*
X020952Y011516D01*
X020869Y011433D01*
X020869Y011266D01*
X020952Y011183D01*
X021119Y011183D01*
X021203Y011266D01*
X021203Y011433D01*
X021119Y011516D01*
X021203Y011001D02*
X021036Y010834D01*
X021036Y010917D02*
X021036Y010667D01*
X021203Y010667D02*
X020702Y010667D01*
X020702Y010917D01*
X020786Y011001D01*
X020952Y011001D01*
X021036Y010917D01*
X020363Y011524D02*
X020363Y011774D01*
X020363Y011956D02*
X019862Y011956D01*
X020112Y011440D02*
X020279Y011440D01*
X020363Y011524D01*
X020952Y012547D02*
X021036Y012547D01*
X021036Y009969D02*
X021036Y009636D01*
X021119Y009636D02*
X020952Y009636D01*
X020869Y009719D01*
X020869Y009886D01*
X020952Y009969D01*
X021036Y009969D01*
X021203Y009886D02*
X021203Y009719D01*
X021119Y009636D01*
X021119Y009454D02*
X020952Y009454D01*
X020869Y009370D01*
X020869Y009203D01*
X020952Y009120D01*
X021119Y009120D01*
X021203Y009203D01*
X021203Y009370D01*
X021119Y009454D01*
X021119Y008855D02*
X020702Y008855D01*
X020702Y008938D02*
X020702Y008771D01*
X021119Y008855D02*
X021203Y008771D01*
X021203Y008688D01*
X021119Y008604D01*
X020363Y008347D02*
X020029Y008347D01*
X016296Y011959D02*
X016046Y011709D01*
X015546Y011709D01*
X015296Y011959D01*
X015046Y011709D01*
X014546Y011709D01*
X014296Y011959D01*
X014046Y011709D01*
X013546Y011709D01*
X013296Y011959D01*
X013046Y011709D01*
X012546Y011709D01*
X012296Y011959D01*
X012046Y011709D01*
X011546Y011709D01*
X011296Y011959D01*
X011046Y011709D01*
X010546Y011709D01*
X010296Y011959D01*
X010296Y012459D01*
X010546Y012709D01*
X011046Y012709D01*
X011296Y012459D01*
X011546Y012709D01*
X012046Y012709D01*
X012296Y012459D01*
X012546Y012709D01*
X013046Y012709D01*
X013296Y012459D01*
X013546Y012709D01*
X014046Y012709D01*
X014296Y012459D01*
X014546Y012709D01*
X015046Y012709D01*
X015296Y012459D01*
X015546Y012709D01*
X016046Y012709D01*
X016296Y012459D01*
X016296Y011959D01*
X015029Y008753D02*
X015029Y008433D01*
X014809Y008433D01*
X014129Y008433D02*
X013909Y008433D01*
X013909Y008753D01*
X013214Y008793D02*
X013214Y008473D01*
X012994Y008473D01*
X012314Y008473D02*
X012094Y008473D01*
X012094Y008793D01*
X010024Y008929D02*
X010024Y008966D01*
X010024Y008929D02*
X009386Y008929D01*
X009386Y008966D01*
X009386Y009283D02*
X009386Y009694D01*
X009386Y010011D02*
X009386Y010048D01*
X010024Y010048D01*
X010024Y010011D01*
X010024Y009694D02*
X010024Y009657D01*
X010024Y009320D02*
X010024Y009283D01*
X008033Y020614D02*
X007713Y020614D01*
X007713Y020833D01*
X007713Y021514D02*
X007713Y021733D01*
X008033Y021733D01*
D15*
X008119Y012768D03*
X008119Y012276D03*
X008119Y011784D03*
X008119Y011292D03*
X008906Y011292D03*
X008906Y011784D03*
X008906Y012276D03*
X008906Y012768D03*
D16*
X009201Y013044D02*
X009201Y010996D01*
X007823Y010996D01*
X007823Y013024D01*
X007823Y013044D02*
X009201Y013044D01*
D17*
X010210Y013805D02*
X010404Y013805D01*
X010307Y013805D02*
X010307Y014095D01*
X010210Y013998D01*
X010505Y013998D02*
X010505Y013853D01*
X010553Y013805D01*
X010698Y013805D01*
X010698Y013998D01*
X010800Y013950D02*
X010896Y013950D01*
X010800Y014095D02*
X010993Y014095D01*
X010800Y014095D02*
X010800Y013805D01*
X011089Y015872D02*
X011157Y015872D01*
X011226Y015941D01*
X011226Y016009D01*
X011191Y016043D01*
X011123Y016043D01*
X011055Y015975D01*
X010986Y015975D01*
X010952Y016009D01*
X010952Y016077D01*
X011020Y016146D01*
X011089Y016146D01*
X011126Y016252D02*
X011263Y016388D01*
X011195Y016320D02*
X011400Y016115D01*
X011540Y016255D02*
X011334Y016460D01*
X011471Y016460D01*
X011471Y016597D01*
X011677Y016392D01*
X011714Y016497D02*
X011782Y016497D01*
X011851Y016566D01*
X011851Y016634D01*
X011816Y016668D01*
X011748Y016668D01*
X011714Y016634D01*
X011748Y016668D02*
X011748Y016737D01*
X011714Y016771D01*
X011645Y016771D01*
X011577Y016703D01*
X011577Y016634D01*
X011785Y016842D02*
X011785Y016911D01*
X011854Y016979D01*
X011922Y016979D01*
X011956Y016945D01*
X011956Y016671D01*
X012093Y016808D01*
X012165Y016880D02*
X011960Y017085D01*
X012096Y017222D01*
X012236Y017225D02*
X012236Y017362D01*
X012441Y017157D01*
X012373Y017088D02*
X012510Y017225D01*
X012547Y017331D02*
X012410Y017467D01*
X012410Y017536D01*
X012479Y017604D01*
X012547Y017604D01*
X012547Y017331D01*
X012616Y017331D01*
X012684Y017399D01*
X012684Y017467D01*
X012547Y017604D01*
X012585Y017710D02*
X012927Y017642D01*
X012998Y017713D02*
X012793Y017918D01*
X012896Y018021D01*
X012964Y018021D01*
X013032Y017953D01*
X013032Y017884D01*
X012930Y017782D01*
X012998Y017850D02*
X013135Y017850D01*
X013206Y017922D02*
X013138Y018264D01*
X013210Y018335D02*
X013346Y018472D01*
X013278Y018404D02*
X013483Y018198D01*
X013343Y018058D02*
X013001Y018127D01*
X012721Y017847D02*
X012790Y017505D01*
X012131Y017051D02*
X012062Y016982D01*
X013521Y018441D02*
X013589Y018372D01*
X013657Y018372D01*
X013726Y018441D01*
X013726Y018509D01*
X013692Y018543D01*
X013623Y018543D01*
X013521Y018441D01*
X013521Y018578D01*
X013555Y018680D01*
X013466Y014445D02*
X013514Y014397D01*
X013321Y014204D01*
X013369Y014155D01*
X013466Y014155D01*
X013514Y014204D01*
X013514Y014397D01*
X013466Y014445D02*
X013369Y014445D01*
X013321Y014397D01*
X013321Y014204D01*
X013615Y014204D02*
X013664Y014204D01*
X013664Y014155D01*
X013615Y014155D01*
X013615Y014204D01*
X013762Y014155D02*
X013956Y014155D01*
X013859Y014155D02*
X013859Y014445D01*
X013762Y014349D01*
X014057Y014349D02*
X014057Y014204D01*
X014106Y014155D01*
X014251Y014155D01*
X014251Y014349D01*
X014352Y014300D02*
X014449Y014300D01*
X014545Y014445D02*
X014352Y014445D01*
X014352Y014155D01*
X015356Y011423D02*
X015307Y011374D01*
X015307Y011278D01*
X015356Y011229D01*
X015356Y011128D02*
X015307Y011080D01*
X015307Y010983D01*
X015356Y010935D01*
X015356Y011128D02*
X015404Y011128D01*
X015598Y010935D01*
X015598Y011128D01*
X015598Y011229D02*
X015404Y011423D01*
X015356Y011423D01*
X015598Y011423D02*
X015598Y011229D01*
X016506Y008980D02*
X016603Y008835D01*
X016700Y008980D01*
X016700Y008835D02*
X016410Y008835D01*
X016458Y008734D02*
X016410Y008685D01*
X016410Y008589D01*
X016458Y008540D01*
X016652Y008540D01*
X016458Y008734D01*
X016652Y008734D01*
X016700Y008685D01*
X016700Y008589D01*
X016652Y008540D01*
X016700Y008439D02*
X016700Y008246D01*
X016700Y008342D02*
X016410Y008342D01*
X016506Y008246D01*
X013152Y007233D02*
X012958Y007233D01*
X012958Y006943D01*
X012857Y006943D02*
X012857Y007136D01*
X012958Y007088D02*
X013055Y007088D01*
X012857Y006943D02*
X012712Y006943D01*
X012663Y006991D01*
X012663Y007136D01*
X012562Y006943D02*
X012369Y006943D01*
X012466Y006943D02*
X012466Y007233D01*
X012369Y007136D01*
X012270Y006991D02*
X012221Y006991D01*
X012221Y006943D01*
X012270Y006943D01*
X012270Y006991D01*
X012120Y006991D02*
X012120Y007184D01*
X011927Y006991D01*
X011975Y006943D01*
X012072Y006943D01*
X012120Y006991D01*
X011927Y006991D02*
X011927Y007184D01*
X011975Y007233D01*
X012072Y007233D01*
X012120Y007184D01*
X011995Y009927D02*
X011995Y010120D01*
X011995Y010024D02*
X011705Y010024D01*
X011802Y009927D01*
X011850Y010221D02*
X011850Y010367D01*
X011898Y010415D01*
X011947Y010415D01*
X011995Y010367D01*
X011995Y010270D01*
X011947Y010221D01*
X011850Y010221D01*
X011753Y010318D01*
X011705Y010415D01*
X011753Y010516D02*
X011705Y010564D01*
X011705Y010661D01*
X011753Y010710D01*
X011947Y010516D01*
X011995Y010564D01*
X011995Y010661D01*
X011947Y010710D01*
X011753Y010710D01*
X011753Y010516D02*
X011947Y010516D01*
X010306Y010746D02*
X010161Y010842D01*
X010306Y010939D01*
X010161Y011036D02*
X010161Y010746D01*
X010060Y010794D02*
X010012Y010746D01*
X009915Y010746D01*
X009867Y010794D01*
X010060Y010988D01*
X010060Y010794D01*
X009867Y010794D02*
X009867Y010988D01*
X009915Y011036D01*
X010012Y011036D01*
X010060Y010988D01*
X009765Y010988D02*
X009765Y010794D01*
X009717Y010746D01*
X009620Y010746D01*
X009572Y010794D01*
X009765Y010988D01*
X009717Y011036D01*
X009620Y011036D01*
X009572Y010988D01*
X009572Y010794D01*
X009471Y010746D02*
X009277Y010746D01*
X009374Y010746D02*
X009374Y011036D01*
X009277Y010939D01*
X007566Y010948D02*
X007566Y010755D01*
X007566Y010851D02*
X007276Y010851D01*
X007373Y010755D01*
X007518Y010656D02*
X007566Y010656D01*
X007566Y010607D01*
X007518Y010607D01*
X007518Y010656D01*
X007518Y010506D02*
X007324Y010506D01*
X007518Y010313D01*
X007566Y010361D01*
X007566Y010458D01*
X007518Y010506D01*
X007518Y010313D02*
X007324Y010313D01*
X007276Y010361D01*
X007276Y010458D01*
X007324Y010506D01*
X007373Y011049D02*
X007518Y011049D01*
X007566Y011098D01*
X007566Y011243D01*
X007373Y011243D01*
X007421Y011344D02*
X007421Y011441D01*
X007276Y011537D02*
X007276Y011344D01*
X007566Y011344D01*
X006524Y011952D02*
X006524Y012146D01*
X006524Y012049D02*
X006234Y012049D01*
X006330Y011952D01*
X006330Y012247D02*
X006476Y012247D01*
X006524Y012295D01*
X006524Y012440D01*
X006330Y012440D01*
X006379Y012542D02*
X006379Y012638D01*
X006524Y012542D02*
X006234Y012542D01*
X006234Y012735D01*
X006404Y015096D02*
X006356Y015144D01*
X006549Y015338D01*
X006549Y015144D01*
X006501Y015096D01*
X006404Y015096D01*
X006356Y015144D02*
X006356Y015338D01*
X006404Y015386D01*
X006501Y015386D01*
X006549Y015338D01*
X006651Y015144D02*
X006699Y015144D01*
X006699Y015096D01*
X006651Y015096D01*
X006651Y015144D01*
X006798Y015096D02*
X006991Y015096D01*
X006895Y015096D02*
X006895Y015386D01*
X006798Y015290D01*
X007093Y015290D02*
X007093Y015144D01*
X007141Y015096D01*
X007286Y015096D01*
X007286Y015290D01*
X007387Y015241D02*
X007484Y015241D01*
X007387Y015096D02*
X007387Y015386D01*
X007581Y015386D01*
X008840Y015785D02*
X009034Y015785D01*
X008937Y015785D02*
X008937Y016075D01*
X008840Y015979D01*
X009135Y016027D02*
X009183Y016075D01*
X009280Y016075D01*
X009328Y016027D01*
X009135Y015833D01*
X009183Y015785D01*
X009280Y015785D01*
X009328Y015833D01*
X009328Y016027D01*
X009430Y016075D02*
X009430Y015785D01*
X009430Y015882D02*
X009575Y015979D01*
X009430Y015882D02*
X009575Y015785D01*
X009135Y015833D02*
X009135Y016027D01*
X007457Y009466D02*
X007457Y009272D01*
X007747Y009272D01*
X007747Y009171D02*
X007554Y009171D01*
X007602Y009272D02*
X007602Y009369D01*
X007747Y009171D02*
X007747Y009026D01*
X007699Y008977D01*
X007554Y008977D01*
X007747Y008876D02*
X007747Y008683D01*
X007747Y008779D02*
X007457Y008779D01*
X007554Y008683D01*
X007501Y007735D02*
X007501Y007542D01*
X007792Y007542D01*
X007792Y007440D02*
X007598Y007440D01*
X007646Y007542D02*
X007646Y007638D01*
X007792Y007440D02*
X007792Y007295D01*
X007743Y007247D01*
X007598Y007247D01*
X007598Y007146D02*
X007550Y007146D01*
X007501Y007097D01*
X007501Y007001D01*
X007550Y006952D01*
X007550Y006851D02*
X007501Y006803D01*
X007501Y006706D01*
X007550Y006658D01*
X007550Y006851D02*
X007598Y006851D01*
X007792Y006658D01*
X007792Y006851D01*
X007792Y006952D02*
X007598Y007146D01*
X007792Y007146D02*
X007792Y006952D01*
X007792Y006559D02*
X007792Y006510D01*
X007743Y006510D01*
X007743Y006559D01*
X007792Y006559D01*
X007743Y006409D02*
X007792Y006361D01*
X007792Y006264D01*
X007743Y006216D01*
X007550Y006409D01*
X007743Y006409D01*
X007550Y006409D02*
X007501Y006361D01*
X007501Y006264D01*
X007550Y006216D01*
X007743Y006216D01*
X016971Y017765D02*
X016874Y017862D01*
X017165Y017862D01*
X017165Y017765D02*
X017165Y017959D01*
X017116Y018060D02*
X016923Y018254D01*
X017116Y018254D01*
X017165Y018205D01*
X017165Y018108D01*
X017116Y018060D01*
X016923Y018060D01*
X016874Y018108D01*
X016874Y018205D01*
X016923Y018254D01*
X016874Y018355D02*
X017165Y018355D01*
X017068Y018355D02*
X016971Y018500D01*
X017068Y018355D02*
X017165Y018500D01*
X017658Y025220D02*
X017658Y025510D01*
X017803Y025510D01*
X017851Y025462D01*
X017851Y025365D01*
X017803Y025317D01*
X017658Y025317D01*
X017557Y025317D02*
X017363Y025317D01*
X017557Y025510D01*
X017557Y025558D01*
X017508Y025607D01*
X017412Y025607D01*
X017363Y025558D01*
X017262Y025558D02*
X017214Y025607D01*
X017117Y025607D01*
X017069Y025558D01*
X017262Y025558D02*
X017262Y025510D01*
X017069Y025317D01*
X017262Y025317D01*
X017952Y025462D02*
X018049Y025462D01*
X018001Y025558D02*
X018049Y025607D01*
X018001Y025558D02*
X018001Y025317D01*
X015293Y025521D02*
X015197Y025521D01*
X015095Y025521D02*
X015095Y025424D01*
X015047Y025376D01*
X014902Y025376D01*
X014902Y025279D02*
X014902Y025569D01*
X015047Y025569D01*
X015095Y025521D01*
X015245Y025618D02*
X015293Y025666D01*
X015245Y025618D02*
X015245Y025376D01*
X014801Y025376D02*
X014607Y025376D01*
X014801Y025569D01*
X014801Y025618D01*
X014752Y025666D01*
X014656Y025666D01*
X014607Y025618D01*
X014506Y025618D02*
X014458Y025666D01*
X014361Y025666D01*
X014313Y025618D01*
X014506Y025618D02*
X014506Y025569D01*
X014313Y025376D01*
X014506Y025376D01*
X014057Y025851D02*
X014008Y025802D01*
X013911Y025802D01*
X013863Y025851D01*
X013763Y025802D02*
X013618Y025899D01*
X013763Y025996D01*
X013863Y026044D02*
X013911Y026093D01*
X014008Y026093D01*
X014057Y026044D01*
X014057Y025996D01*
X014008Y025948D01*
X014057Y025899D01*
X014057Y025851D01*
X014008Y025948D02*
X013960Y025948D01*
X013618Y025802D02*
X013618Y026093D01*
X013516Y026044D02*
X013516Y025996D01*
X013468Y025948D01*
X013516Y025899D01*
X013516Y025851D01*
X013468Y025802D01*
X013371Y025802D01*
X013323Y025851D01*
X013420Y025948D02*
X013468Y025948D01*
X013516Y026044D02*
X013468Y026093D01*
X013371Y026093D01*
X013323Y026044D01*
D18*
X013196Y024793D02*
X013137Y024793D01*
X013196Y024793D02*
X013196Y028612D01*
X013137Y028612D01*
X009318Y028612D02*
X009219Y028612D01*
X009219Y024793D01*
X009318Y024793D01*
D19*
X009758Y025532D02*
X009721Y025568D01*
X009721Y025678D01*
X009868Y025678D02*
X009868Y025532D01*
X009758Y025532D01*
X009942Y025532D02*
X010052Y025532D01*
X010089Y025568D01*
X010089Y025642D01*
X010052Y025678D01*
X009942Y025678D01*
X009942Y025752D02*
X009942Y025532D01*
X010163Y025532D02*
X010237Y025532D01*
X010200Y025532D02*
X010200Y025752D01*
X010163Y025752D01*
X010311Y025642D02*
X010311Y025568D01*
X010347Y025532D01*
X010421Y025532D01*
X010458Y025568D01*
X010458Y025642D01*
X010421Y025678D01*
X010347Y025678D01*
X010311Y025642D01*
X010532Y025678D02*
X010678Y025532D01*
X010532Y025532D02*
X010678Y025678D01*
X010706Y026654D02*
X010706Y026874D01*
X010779Y026800D01*
X010852Y026874D01*
X010852Y026654D01*
X010927Y026654D02*
X010927Y026800D01*
X011000Y026874D01*
X011073Y026800D01*
X011073Y026654D01*
X011148Y026654D02*
X011294Y026874D01*
X011369Y026764D02*
X011515Y026764D01*
X011590Y026764D02*
X011700Y026764D01*
X011736Y026727D01*
X011736Y026690D01*
X011700Y026654D01*
X011626Y026654D01*
X011590Y026690D01*
X011590Y026764D01*
X011663Y026837D01*
X011736Y026874D01*
X011294Y026654D02*
X011148Y026874D01*
X011073Y026764D02*
X010927Y026764D01*
X010659Y024250D02*
X010659Y024103D01*
X010879Y024103D01*
X010879Y024029D02*
X010732Y024029D01*
X010769Y024103D02*
X010769Y024177D01*
X010879Y024029D02*
X010879Y023919D01*
X010842Y023882D01*
X010732Y023882D01*
X010879Y023808D02*
X010879Y023661D01*
X010879Y023587D02*
X010879Y023551D01*
X010842Y023551D01*
X010842Y023587D01*
X010879Y023587D01*
X010842Y023477D02*
X010879Y023440D01*
X010879Y023366D01*
X010842Y023330D01*
X010695Y023477D01*
X010842Y023477D01*
X010695Y023477D02*
X010659Y023440D01*
X010659Y023366D01*
X010695Y023330D01*
X010842Y023330D01*
X010789Y023243D02*
X010642Y023096D01*
X010679Y023060D01*
X010752Y023060D01*
X010789Y023096D01*
X010789Y023243D01*
X010752Y023280D01*
X010679Y023280D01*
X010642Y023243D01*
X010642Y023096D01*
X010863Y023096D02*
X010863Y023060D01*
X010900Y023060D01*
X010900Y023096D01*
X010863Y023096D01*
X010974Y023096D02*
X011121Y023243D01*
X011121Y023096D01*
X011084Y023060D01*
X011010Y023060D01*
X010974Y023096D01*
X010974Y023243D01*
X011010Y023280D01*
X011084Y023280D01*
X011121Y023243D01*
X011195Y023206D02*
X011268Y023280D01*
X011268Y023060D01*
X011195Y023060D02*
X011342Y023060D01*
X011416Y023096D02*
X011452Y023060D01*
X011563Y023060D01*
X011563Y023206D01*
X011637Y023170D02*
X011710Y023170D01*
X011637Y023280D02*
X011784Y023280D01*
X011637Y023280D02*
X011637Y023060D01*
X011416Y023096D02*
X011416Y023206D01*
X011441Y023696D02*
X011478Y023696D01*
X011478Y023733D01*
X011441Y023733D01*
X011441Y023696D01*
X011367Y023733D02*
X011367Y023879D01*
X011220Y023733D01*
X011257Y023696D01*
X011330Y023696D01*
X011367Y023733D01*
X011367Y023879D02*
X011330Y023916D01*
X011257Y023916D01*
X011220Y023879D01*
X011220Y023733D01*
X011552Y023696D02*
X011699Y023696D01*
X011625Y023696D02*
X011625Y023916D01*
X011552Y023843D01*
X011773Y023843D02*
X011773Y023733D01*
X011809Y023696D01*
X011920Y023696D01*
X011920Y023843D01*
X011994Y023806D02*
X012067Y023806D01*
X011994Y023696D02*
X011994Y023916D01*
X012141Y023916D01*
X010879Y023735D02*
X010659Y023735D01*
X010732Y023661D01*
X010752Y022583D02*
X010789Y022546D01*
X010642Y022399D01*
X010679Y022363D01*
X010752Y022363D01*
X010789Y022399D01*
X010789Y022546D01*
X010752Y022583D02*
X010679Y022583D01*
X010642Y022546D01*
X010642Y022399D01*
X010863Y022399D02*
X010900Y022399D01*
X010900Y022363D01*
X010863Y022363D01*
X010863Y022399D01*
X010974Y022399D02*
X011121Y022546D01*
X011121Y022399D01*
X011084Y022363D01*
X011010Y022363D01*
X010974Y022399D01*
X010974Y022546D01*
X011010Y022583D01*
X011084Y022583D01*
X011121Y022546D01*
X011195Y022510D02*
X011268Y022583D01*
X011268Y022363D01*
X011195Y022363D02*
X011342Y022363D01*
X011416Y022399D02*
X011452Y022363D01*
X011563Y022363D01*
X011563Y022510D01*
X011637Y022473D02*
X011710Y022473D01*
X011637Y022583D02*
X011784Y022583D01*
X011637Y022583D02*
X011637Y022363D01*
X011416Y022399D02*
X011416Y022510D01*
X012249Y022538D02*
X012285Y022575D01*
X012359Y022575D01*
X012395Y022538D01*
X012249Y022392D01*
X012285Y022355D01*
X012359Y022355D01*
X012395Y022392D01*
X012395Y022538D01*
X012249Y022538D02*
X012249Y022392D01*
X012470Y022392D02*
X012506Y022392D01*
X012506Y022355D01*
X012470Y022355D01*
X012470Y022392D01*
X012580Y022392D02*
X012727Y022538D01*
X012727Y022392D01*
X012690Y022355D01*
X012617Y022355D01*
X012580Y022392D01*
X012580Y022538D01*
X012617Y022575D01*
X012690Y022575D01*
X012727Y022538D01*
X012801Y022502D02*
X012874Y022575D01*
X012874Y022355D01*
X012801Y022355D02*
X012948Y022355D01*
X013022Y022392D02*
X013059Y022355D01*
X013169Y022355D01*
X013169Y022502D01*
X013243Y022465D02*
X013316Y022465D01*
X013243Y022575D02*
X013390Y022575D01*
X013243Y022575D02*
X013243Y022355D01*
X013022Y022392D02*
X013022Y022502D01*
X013986Y021563D02*
X014059Y021563D01*
X014096Y021527D01*
X013949Y021380D01*
X013986Y021343D01*
X014059Y021343D01*
X014096Y021380D01*
X014096Y021527D01*
X013986Y021563D02*
X013949Y021527D01*
X013949Y021380D01*
X014170Y021380D02*
X014207Y021380D01*
X014207Y021343D01*
X014170Y021343D01*
X014170Y021380D01*
X014281Y021343D02*
X014428Y021343D01*
X014354Y021343D02*
X014354Y021563D01*
X014281Y021490D01*
X014502Y021490D02*
X014502Y021380D01*
X014539Y021343D01*
X014649Y021343D01*
X014649Y021490D01*
X014723Y021453D02*
X014796Y021453D01*
X014723Y021343D02*
X014723Y021563D01*
X014870Y021563D01*
X015607Y019362D02*
X015607Y019215D01*
X015827Y019215D01*
X015827Y019141D02*
X015680Y019141D01*
X015717Y019215D02*
X015717Y019288D01*
X015827Y019141D02*
X015827Y019031D01*
X015790Y018994D01*
X015680Y018994D01*
X015827Y018920D02*
X015827Y018773D01*
X015827Y018846D02*
X015607Y018846D01*
X015680Y018773D01*
X015790Y018699D02*
X015827Y018699D01*
X015827Y018662D01*
X015790Y018662D01*
X015790Y018699D01*
X015790Y018588D02*
X015827Y018552D01*
X015827Y018478D01*
X015790Y018441D01*
X015644Y018588D01*
X015790Y018588D01*
X015644Y018588D02*
X015607Y018552D01*
X015607Y018478D01*
X015644Y018441D01*
X015790Y018441D01*
X011361Y021366D02*
X011214Y021366D01*
X011214Y021146D01*
X011140Y021146D02*
X011140Y021293D01*
X011214Y021256D02*
X011288Y021256D01*
X011140Y021146D02*
X011030Y021146D01*
X010993Y021183D01*
X010993Y021293D01*
X010919Y021146D02*
X010772Y021146D01*
X010846Y021146D02*
X010846Y021366D01*
X010772Y021293D01*
X010032Y021116D02*
X010032Y021042D01*
X009995Y021006D01*
X009848Y021152D01*
X009995Y021152D01*
X010032Y021116D01*
X009995Y021006D02*
X009848Y021006D01*
X009812Y021042D01*
X009812Y021116D01*
X009848Y021152D01*
X009812Y020931D02*
X009848Y020858D01*
X009922Y020785D01*
X009922Y020895D01*
X009958Y020931D01*
X009995Y020931D01*
X010032Y020895D01*
X010032Y020821D01*
X009995Y020785D01*
X009922Y020785D01*
X010032Y020710D02*
X010032Y020564D01*
X010032Y020637D02*
X009812Y020637D01*
X009885Y020564D01*
X009812Y021780D02*
X009739Y021780D01*
X009702Y021817D01*
X009849Y021964D01*
X009849Y021817D01*
X009812Y021780D01*
X009702Y021817D02*
X009702Y021964D01*
X009739Y022000D01*
X009812Y022000D01*
X009849Y021964D01*
X009628Y022000D02*
X009555Y021964D01*
X009481Y021890D01*
X009591Y021890D01*
X009628Y021853D01*
X009628Y021817D01*
X009591Y021780D01*
X009518Y021780D01*
X009481Y021817D01*
X009481Y021890D01*
X009407Y021780D02*
X009260Y021780D01*
X009334Y021780D02*
X009334Y022000D01*
X009260Y021927D01*
X008072Y019705D02*
X008109Y019668D01*
X007962Y019522D01*
X007999Y019485D01*
X008072Y019485D01*
X008109Y019522D01*
X008109Y019668D01*
X008072Y019705D02*
X007999Y019705D01*
X007962Y019668D01*
X007962Y019522D01*
X007888Y019522D02*
X007888Y019558D01*
X007851Y019595D01*
X007741Y019595D01*
X007741Y019522D01*
X007778Y019485D01*
X007851Y019485D01*
X007888Y019522D01*
X007815Y019668D02*
X007741Y019595D01*
X007815Y019668D02*
X007888Y019705D01*
X007594Y019705D02*
X007594Y019485D01*
X007667Y019485D02*
X007520Y019485D01*
X007520Y019632D02*
X007594Y019705D01*
X008627Y019042D02*
X008663Y019079D01*
X008737Y019079D01*
X008773Y019042D01*
X008627Y018896D01*
X008663Y018859D01*
X008737Y018859D01*
X008773Y018896D01*
X008773Y019042D01*
X008627Y019042D02*
X008627Y018896D01*
X008848Y018896D02*
X008884Y018896D01*
X008884Y018859D01*
X008848Y018859D01*
X008848Y018896D01*
X008958Y018859D02*
X009105Y018859D01*
X009031Y018859D02*
X009031Y019079D01*
X008958Y019006D01*
X009179Y019006D02*
X009179Y018896D01*
X009216Y018859D01*
X009326Y018859D01*
X009326Y019006D01*
X009400Y018969D02*
X009473Y018969D01*
X009400Y019079D02*
X009547Y019079D01*
X009400Y019079D02*
X009400Y018859D01*
X008205Y015960D02*
X008205Y015813D01*
X008425Y015813D01*
X008425Y015739D02*
X008279Y015739D01*
X008315Y015813D02*
X008315Y015887D01*
X008425Y015739D02*
X008425Y015629D01*
X008389Y015592D01*
X008279Y015592D01*
X008425Y015518D02*
X008425Y015371D01*
X008425Y015298D02*
X008425Y015261D01*
X008389Y015261D01*
X008389Y015298D01*
X008425Y015298D01*
X008389Y015187D02*
X008242Y015187D01*
X008389Y015040D01*
X008425Y015077D01*
X008425Y015150D01*
X008389Y015187D01*
X008242Y015187D02*
X008205Y015150D01*
X008205Y015077D01*
X008242Y015040D01*
X008389Y015040D01*
X008279Y015371D02*
X008205Y015445D01*
X008425Y015445D01*
X012612Y010511D02*
X012759Y010364D01*
X012796Y010400D01*
X012796Y010474D01*
X012759Y010511D01*
X012612Y010511D01*
X012575Y010474D01*
X012575Y010400D01*
X012612Y010364D01*
X012759Y010364D01*
X012759Y010290D02*
X012722Y010290D01*
X012685Y010253D01*
X012685Y010143D01*
X012759Y010143D01*
X012796Y010179D01*
X012796Y010253D01*
X012759Y010290D01*
X012612Y010216D02*
X012685Y010143D01*
X012612Y010216D02*
X012575Y010290D01*
X012575Y009995D02*
X012796Y009995D01*
X012796Y009922D02*
X012796Y010069D01*
X012649Y009922D02*
X012575Y009995D01*
X013591Y010023D02*
X013811Y010023D01*
X013811Y010096D02*
X013811Y009949D01*
X013664Y009949D02*
X013591Y010023D01*
X013701Y010170D02*
X013628Y010244D01*
X013591Y010317D01*
X013628Y010391D02*
X013591Y010428D01*
X013591Y010501D01*
X013628Y010538D01*
X013775Y010391D01*
X013811Y010428D01*
X013811Y010501D01*
X013775Y010538D01*
X013628Y010538D01*
X013628Y010391D02*
X013775Y010391D01*
X013775Y010317D02*
X013738Y010317D01*
X013701Y010280D01*
X013701Y010170D01*
X013775Y010170D01*
X013811Y010207D01*
X013811Y010280D01*
X013775Y010317D01*
X014375Y010337D02*
X014375Y010411D01*
X014411Y010448D01*
X014558Y010301D01*
X014595Y010337D01*
X014595Y010411D01*
X014558Y010448D01*
X014411Y010448D01*
X014375Y010337D02*
X014411Y010301D01*
X014558Y010301D01*
X014558Y010227D02*
X014521Y010227D01*
X014485Y010190D01*
X014485Y010080D01*
X014558Y010080D01*
X014595Y010117D01*
X014595Y010190D01*
X014558Y010227D01*
X014411Y010153D02*
X014485Y010080D01*
X014411Y010153D02*
X014375Y010227D01*
X014375Y009932D02*
X014595Y009932D01*
X014595Y009859D02*
X014595Y010006D01*
X014448Y009859D02*
X014375Y009932D01*
X015977Y010966D02*
X016014Y010930D01*
X015977Y010966D02*
X015977Y011040D01*
X016014Y011076D01*
X016050Y011076D01*
X016197Y010930D01*
X016197Y011076D01*
X016197Y011151D02*
X016050Y011297D01*
X016014Y011297D01*
X015977Y011261D01*
X015977Y011187D01*
X016014Y011151D01*
X016197Y011151D02*
X016197Y011297D01*
D20*
X018154Y014587D02*
X020910Y014587D01*
X020910Y016268D01*
X021107Y016268D01*
X021107Y017056D01*
X020910Y017056D01*
X020910Y016268D01*
X020910Y017056D02*
X020910Y018737D01*
X018154Y018737D01*
X018154Y014587D01*
X016741Y019674D02*
X015528Y019674D01*
X015134Y020185D02*
X015134Y021174D01*
X015528Y021674D02*
X016741Y021674D01*
X017134Y021162D02*
X017134Y020185D01*
X015634Y020674D02*
X015636Y020718D01*
X015642Y020762D01*
X015652Y020805D01*
X015665Y020847D01*
X015682Y020888D01*
X015703Y020927D01*
X015727Y020964D01*
X015754Y020999D01*
X015784Y021031D01*
X015817Y021061D01*
X015853Y021087D01*
X015890Y021111D01*
X015930Y021130D01*
X015971Y021147D01*
X016014Y021159D01*
X016057Y021168D01*
X016101Y021173D01*
X016145Y021174D01*
X016189Y021171D01*
X016233Y021164D01*
X016276Y021153D01*
X016318Y021139D01*
X016358Y021121D01*
X016397Y021099D01*
X016433Y021075D01*
X016467Y021047D01*
X016499Y021016D01*
X016528Y020982D01*
X016554Y020946D01*
X016576Y020908D01*
X016595Y020868D01*
X016610Y020826D01*
X016622Y020784D01*
X016630Y020740D01*
X016634Y020696D01*
X016634Y020652D01*
X016630Y020608D01*
X016622Y020564D01*
X016610Y020522D01*
X016595Y020480D01*
X016576Y020440D01*
X016554Y020402D01*
X016528Y020366D01*
X016499Y020332D01*
X016467Y020301D01*
X016433Y020273D01*
X016397Y020249D01*
X016358Y020227D01*
X016318Y020209D01*
X016276Y020195D01*
X016233Y020184D01*
X016189Y020177D01*
X016145Y020174D01*
X016101Y020175D01*
X016057Y020180D01*
X016014Y020189D01*
X015971Y020201D01*
X015930Y020218D01*
X015890Y020237D01*
X015853Y020261D01*
X015817Y020287D01*
X015784Y020317D01*
X015754Y020349D01*
X015727Y020384D01*
X015703Y020421D01*
X015682Y020460D01*
X015665Y020501D01*
X015652Y020543D01*
X015642Y020586D01*
X015636Y020630D01*
X015634Y020674D01*
X014079Y019122D02*
X014237Y018965D01*
X014237Y015500D01*
X014079Y015343D01*
X010615Y015343D01*
X010457Y015500D01*
X010457Y018965D01*
X010615Y019122D01*
X014079Y019122D01*
X013653Y022339D02*
X013653Y022839D01*
X013653Y022339D02*
X018253Y022339D01*
X018253Y022839D01*
X018253Y023839D02*
X018253Y024339D01*
X013653Y024339D01*
X013653Y023839D01*
X009707Y023641D02*
X009707Y022664D01*
X009313Y022152D02*
X008100Y022152D01*
X007707Y022664D02*
X007707Y023652D01*
X008100Y024152D02*
X009313Y024152D01*
X008207Y023152D02*
X008209Y023196D01*
X008215Y023240D01*
X008225Y023283D01*
X008238Y023325D01*
X008255Y023366D01*
X008276Y023405D01*
X008300Y023442D01*
X008327Y023477D01*
X008357Y023509D01*
X008390Y023539D01*
X008426Y023565D01*
X008463Y023589D01*
X008503Y023608D01*
X008544Y023625D01*
X008587Y023637D01*
X008630Y023646D01*
X008674Y023651D01*
X008718Y023652D01*
X008762Y023649D01*
X008806Y023642D01*
X008849Y023631D01*
X008891Y023617D01*
X008931Y023599D01*
X008970Y023577D01*
X009006Y023553D01*
X009040Y023525D01*
X009072Y023494D01*
X009101Y023460D01*
X009127Y023424D01*
X009149Y023386D01*
X009168Y023346D01*
X009183Y023304D01*
X009195Y023262D01*
X009203Y023218D01*
X009207Y023174D01*
X009207Y023130D01*
X009203Y023086D01*
X009195Y023042D01*
X009183Y023000D01*
X009168Y022958D01*
X009149Y022918D01*
X009127Y022880D01*
X009101Y022844D01*
X009072Y022810D01*
X009040Y022779D01*
X009006Y022751D01*
X008970Y022727D01*
X008931Y022705D01*
X008891Y022687D01*
X008849Y022673D01*
X008806Y022662D01*
X008762Y022655D01*
X008718Y022652D01*
X008674Y022653D01*
X008630Y022658D01*
X008587Y022667D01*
X008544Y022679D01*
X008503Y022696D01*
X008463Y022715D01*
X008426Y022739D01*
X008390Y022765D01*
X008357Y022795D01*
X008327Y022827D01*
X008300Y022862D01*
X008276Y022899D01*
X008255Y022938D01*
X008238Y022979D01*
X008225Y023021D01*
X008215Y023064D01*
X008209Y023108D01*
X008207Y023152D01*
X008514Y007539D02*
X011094Y007539D01*
X011094Y006139D01*
X008514Y006139D01*
X008514Y007539D01*
X008493Y005819D02*
X008143Y005819D01*
X008493Y005819D02*
X008493Y005019D01*
X008043Y004119D02*
X007343Y004119D01*
X006893Y005019D02*
X006893Y005819D01*
X007243Y005819D01*
D21*
X013811Y018807D02*
X013813Y018827D01*
X013818Y018847D01*
X013828Y018865D01*
X013840Y018882D01*
X013855Y018896D01*
X013873Y018906D01*
X013892Y018914D01*
X013912Y018918D01*
X013932Y018918D01*
X013952Y018914D01*
X013971Y018906D01*
X013989Y018896D01*
X014004Y018882D01*
X014016Y018865D01*
X014026Y018847D01*
X014031Y018827D01*
X014033Y018807D01*
X014031Y018787D01*
X014026Y018767D01*
X014016Y018749D01*
X014004Y018732D01*
X013989Y018718D01*
X013971Y018708D01*
X013952Y018700D01*
X013932Y018696D01*
X013912Y018696D01*
X013892Y018700D01*
X013873Y018708D01*
X013855Y018718D01*
X013840Y018732D01*
X013828Y018749D01*
X013818Y018767D01*
X013813Y018787D01*
X013811Y018807D01*
D22*
X013823Y019359D03*
X013626Y019359D03*
X013430Y019359D03*
X013233Y019359D03*
X013036Y019359D03*
X012839Y019359D03*
X012642Y019359D03*
X012445Y019359D03*
X012248Y019359D03*
X012052Y019359D03*
X011855Y019359D03*
X011658Y019359D03*
X011461Y019359D03*
X011264Y019359D03*
X011067Y019359D03*
X010870Y019359D03*
X010870Y015107D03*
X011067Y015107D03*
X011264Y015107D03*
X011461Y015107D03*
X011658Y015107D03*
X011855Y015107D03*
X012052Y015107D03*
X012248Y015107D03*
X012445Y015107D03*
X012642Y015107D03*
X012839Y015107D03*
X013036Y015107D03*
X013233Y015107D03*
X013430Y015107D03*
X013626Y015107D03*
X013823Y015107D03*
D23*
X014473Y015756D03*
X014473Y015953D03*
X014473Y016150D03*
X014473Y016347D03*
X014473Y016544D03*
X014473Y016741D03*
X014473Y016937D03*
X014473Y017134D03*
X014473Y017331D03*
X014473Y017528D03*
X014473Y017725D03*
X014473Y017922D03*
X014473Y018119D03*
X014473Y018315D03*
X014473Y018512D03*
X014473Y018709D03*
X010221Y018709D03*
X010221Y018512D03*
X010221Y018315D03*
X010221Y018119D03*
X010221Y017922D03*
X010221Y017725D03*
X010221Y017528D03*
X010221Y017331D03*
X010221Y017134D03*
X010221Y016937D03*
X010221Y016741D03*
X010221Y016544D03*
X010221Y016347D03*
X010221Y016150D03*
X010221Y015953D03*
X010221Y015756D03*
D24*
X011910Y020662D02*
X013130Y020662D01*
X013130Y021882D01*
X011910Y021882D01*
X011910Y020662D01*
D25*
X009046Y019933D03*
D26*
X006835Y006359D02*
X006835Y006032D01*
X006672Y006196D02*
X006999Y006196D01*
X008147Y006196D02*
X008474Y006196D01*
D27*
X010815Y020429D02*
X010815Y020579D01*
X010740Y020504D01*
X010840Y020504D01*
X010887Y020454D02*
X010912Y020454D01*
X010912Y020429D01*
X010887Y020429D01*
X010887Y020454D01*
X010961Y020454D02*
X010961Y020429D01*
X010961Y020454D02*
X011061Y020554D01*
X011061Y020579D01*
X010961Y020579D01*
X011108Y020529D02*
X011108Y020454D01*
X011133Y020429D01*
X011208Y020429D01*
X011208Y020529D01*
X011255Y020504D02*
X011305Y020504D01*
X011255Y020579D02*
X011355Y020579D01*
X011255Y020579D02*
X011255Y020429D01*
D28*
X017992Y028142D02*
X018197Y028210D01*
X018404Y028267D01*
X018614Y028314D01*
X018826Y028351D01*
X019039Y028377D01*
X019254Y028393D01*
X019469Y028398D01*
X019684Y028393D01*
X019899Y028377D01*
X020112Y028351D01*
X020324Y028314D01*
X020534Y028267D01*
X020741Y028210D01*
X020946Y028142D01*
X020354Y029323D02*
X020422Y029375D01*
X020491Y029423D01*
X020563Y029468D01*
X020637Y029509D01*
X020713Y029547D01*
X020791Y029581D01*
X020870Y029612D01*
X020950Y029639D01*
X021032Y029662D01*
X021114Y029681D01*
X021198Y029696D01*
X021282Y029707D01*
X021366Y029715D01*
X021451Y029718D01*
X021535Y029717D01*
X020355Y029323D02*
X020414Y029276D01*
X020471Y029225D01*
X020526Y029172D01*
X020577Y029117D01*
X020626Y029058D01*
X020672Y028997D01*
X020714Y028934D01*
X020753Y028869D01*
X020789Y028802D01*
X020821Y028733D01*
X020850Y028663D01*
X020875Y028591D01*
X020896Y028518D01*
X020914Y028444D01*
X020927Y028369D01*
X020937Y028294D01*
X020943Y028218D01*
X020945Y028142D01*
X020780Y028076D01*
X020611Y028017D01*
X020440Y027967D01*
X020266Y027925D01*
X020091Y027891D01*
X019914Y027866D01*
X019737Y027849D01*
X019558Y027840D01*
X019380Y027840D01*
X019201Y027849D01*
X019024Y027866D01*
X018847Y027891D01*
X018672Y027925D01*
X018498Y027967D01*
X018327Y028017D01*
X018158Y028076D01*
X017993Y028142D01*
D29*
X021536Y029914D02*
X021536Y024599D01*
M02*
