G75*
G70*
%OFA0B0*%
%FSLAX24Y24*%
%IPPOS*%
%LPD*%
%AMOC8*
5,1,8,0,0,1.08239X$1,22.5*
%
%ADD10C,0.0000*%
%ADD11C,0.1300*%
%ADD12R,0.0788X0.0591*%
%ADD13R,0.0591X0.0749*%
%ADD14R,0.0631X0.0316*%
%ADD15C,0.0394*%
%ADD16C,0.0640*%
%ADD17R,0.1142X0.0540*%
%ADD18C,0.0050*%
D10*
X005729Y003024D02*
X005729Y030339D01*
X021839Y030339D01*
X021819Y003024D01*
X005729Y003024D01*
X006524Y008099D02*
X006526Y008149D01*
X006532Y008199D01*
X006542Y008248D01*
X006556Y008296D01*
X006573Y008343D01*
X006594Y008388D01*
X006619Y008432D01*
X006647Y008473D01*
X006679Y008512D01*
X006713Y008549D01*
X006750Y008583D01*
X006790Y008613D01*
X006832Y008640D01*
X006876Y008664D01*
X006922Y008685D01*
X006969Y008701D01*
X007017Y008714D01*
X007067Y008723D01*
X007116Y008728D01*
X007167Y008729D01*
X007217Y008726D01*
X007266Y008719D01*
X007315Y008708D01*
X007363Y008693D01*
X007409Y008675D01*
X007454Y008653D01*
X007497Y008627D01*
X007538Y008598D01*
X007577Y008566D01*
X007613Y008531D01*
X007645Y008493D01*
X007675Y008453D01*
X007702Y008410D01*
X007725Y008366D01*
X007744Y008320D01*
X007760Y008272D01*
X007772Y008223D01*
X007780Y008174D01*
X007784Y008124D01*
X007784Y008074D01*
X007780Y008024D01*
X007772Y007975D01*
X007760Y007926D01*
X007744Y007878D01*
X007725Y007832D01*
X007702Y007788D01*
X007675Y007745D01*
X007645Y007705D01*
X007613Y007667D01*
X007577Y007632D01*
X007538Y007600D01*
X007497Y007571D01*
X007454Y007545D01*
X007409Y007523D01*
X007363Y007505D01*
X007315Y007490D01*
X007266Y007479D01*
X007217Y007472D01*
X007167Y007469D01*
X007116Y007470D01*
X007067Y007475D01*
X007017Y007484D01*
X006969Y007497D01*
X006922Y007513D01*
X006876Y007534D01*
X006832Y007558D01*
X006790Y007585D01*
X006750Y007615D01*
X006713Y007649D01*
X006679Y007686D01*
X006647Y007725D01*
X006619Y007766D01*
X006594Y007810D01*
X006573Y007855D01*
X006556Y007902D01*
X006542Y007950D01*
X006532Y007999D01*
X006526Y008049D01*
X006524Y008099D01*
X013355Y005552D02*
X013357Y005578D01*
X013363Y005604D01*
X013373Y005629D01*
X013386Y005652D01*
X013402Y005672D01*
X013422Y005690D01*
X013444Y005705D01*
X013467Y005717D01*
X013493Y005725D01*
X013519Y005729D01*
X013545Y005729D01*
X013571Y005725D01*
X013597Y005717D01*
X013621Y005705D01*
X013642Y005690D01*
X013662Y005672D01*
X013678Y005652D01*
X013691Y005629D01*
X013701Y005604D01*
X013707Y005578D01*
X013709Y005552D01*
X013707Y005526D01*
X013701Y005500D01*
X013691Y005475D01*
X013678Y005452D01*
X013662Y005432D01*
X013642Y005414D01*
X013620Y005399D01*
X013597Y005387D01*
X013571Y005379D01*
X013545Y005375D01*
X013519Y005375D01*
X013493Y005379D01*
X013467Y005387D01*
X013443Y005399D01*
X013422Y005414D01*
X013402Y005432D01*
X013386Y005452D01*
X013373Y005475D01*
X013363Y005500D01*
X013357Y005526D01*
X013355Y005552D01*
X014733Y005552D02*
X014735Y005578D01*
X014741Y005604D01*
X014751Y005629D01*
X014764Y005652D01*
X014780Y005672D01*
X014800Y005690D01*
X014822Y005705D01*
X014845Y005717D01*
X014871Y005725D01*
X014897Y005729D01*
X014923Y005729D01*
X014949Y005725D01*
X014975Y005717D01*
X014999Y005705D01*
X015020Y005690D01*
X015040Y005672D01*
X015056Y005652D01*
X015069Y005629D01*
X015079Y005604D01*
X015085Y005578D01*
X015087Y005552D01*
X015085Y005526D01*
X015079Y005500D01*
X015069Y005475D01*
X015056Y005452D01*
X015040Y005432D01*
X015020Y005414D01*
X014998Y005399D01*
X014975Y005387D01*
X014949Y005379D01*
X014923Y005375D01*
X014897Y005375D01*
X014871Y005379D01*
X014845Y005387D01*
X014821Y005399D01*
X014800Y005414D01*
X014780Y005432D01*
X014764Y005452D01*
X014751Y005475D01*
X014741Y005500D01*
X014735Y005526D01*
X014733Y005552D01*
X017237Y008910D02*
X017239Y008960D01*
X017245Y009010D01*
X017255Y009059D01*
X017269Y009107D01*
X017286Y009154D01*
X017307Y009199D01*
X017332Y009243D01*
X017360Y009284D01*
X017392Y009323D01*
X017426Y009360D01*
X017463Y009394D01*
X017503Y009424D01*
X017545Y009451D01*
X017589Y009475D01*
X017635Y009496D01*
X017682Y009512D01*
X017730Y009525D01*
X017780Y009534D01*
X017829Y009539D01*
X017880Y009540D01*
X017930Y009537D01*
X017979Y009530D01*
X018028Y009519D01*
X018076Y009504D01*
X018122Y009486D01*
X018167Y009464D01*
X018210Y009438D01*
X018251Y009409D01*
X018290Y009377D01*
X018326Y009342D01*
X018358Y009304D01*
X018388Y009264D01*
X018415Y009221D01*
X018438Y009177D01*
X018457Y009131D01*
X018473Y009083D01*
X018485Y009034D01*
X018493Y008985D01*
X018497Y008935D01*
X018497Y008885D01*
X018493Y008835D01*
X018485Y008786D01*
X018473Y008737D01*
X018457Y008689D01*
X018438Y008643D01*
X018415Y008599D01*
X018388Y008556D01*
X018358Y008516D01*
X018326Y008478D01*
X018290Y008443D01*
X018251Y008411D01*
X018210Y008382D01*
X018167Y008356D01*
X018122Y008334D01*
X018076Y008316D01*
X018028Y008301D01*
X017979Y008290D01*
X017930Y008283D01*
X017880Y008280D01*
X017829Y008281D01*
X017780Y008286D01*
X017730Y008295D01*
X017682Y008308D01*
X017635Y008324D01*
X017589Y008345D01*
X017545Y008369D01*
X017503Y008396D01*
X017463Y008426D01*
X017426Y008460D01*
X017392Y008497D01*
X017360Y008536D01*
X017332Y008577D01*
X017307Y008621D01*
X017286Y008666D01*
X017269Y008713D01*
X017255Y008761D01*
X017245Y008810D01*
X017239Y008860D01*
X017237Y008910D01*
X018091Y028867D02*
X018093Y028917D01*
X018099Y028967D01*
X018109Y029016D01*
X018123Y029064D01*
X018140Y029111D01*
X018161Y029156D01*
X018186Y029200D01*
X018214Y029241D01*
X018246Y029280D01*
X018280Y029317D01*
X018317Y029351D01*
X018357Y029381D01*
X018399Y029408D01*
X018443Y029432D01*
X018489Y029453D01*
X018536Y029469D01*
X018584Y029482D01*
X018634Y029491D01*
X018683Y029496D01*
X018734Y029497D01*
X018784Y029494D01*
X018833Y029487D01*
X018882Y029476D01*
X018930Y029461D01*
X018976Y029443D01*
X019021Y029421D01*
X019064Y029395D01*
X019105Y029366D01*
X019144Y029334D01*
X019180Y029299D01*
X019212Y029261D01*
X019242Y029221D01*
X019269Y029178D01*
X019292Y029134D01*
X019311Y029088D01*
X019327Y029040D01*
X019339Y028991D01*
X019347Y028942D01*
X019351Y028892D01*
X019351Y028842D01*
X019347Y028792D01*
X019339Y028743D01*
X019327Y028694D01*
X019311Y028646D01*
X019292Y028600D01*
X019269Y028556D01*
X019242Y028513D01*
X019212Y028473D01*
X019180Y028435D01*
X019144Y028400D01*
X019105Y028368D01*
X019064Y028339D01*
X019021Y028313D01*
X018976Y028291D01*
X018930Y028273D01*
X018882Y028258D01*
X018833Y028247D01*
X018784Y028240D01*
X018734Y028237D01*
X018683Y028238D01*
X018634Y028243D01*
X018584Y028252D01*
X018536Y028265D01*
X018489Y028281D01*
X018443Y028302D01*
X018399Y028326D01*
X018357Y028353D01*
X018317Y028383D01*
X018280Y028417D01*
X018246Y028454D01*
X018214Y028493D01*
X018186Y028534D01*
X018161Y028578D01*
X018140Y028623D01*
X018123Y028670D01*
X018109Y028718D01*
X018099Y028767D01*
X018093Y028817D01*
X018091Y028867D01*
X006744Y028867D02*
X006746Y028917D01*
X006752Y028967D01*
X006762Y029016D01*
X006776Y029064D01*
X006793Y029111D01*
X006814Y029156D01*
X006839Y029200D01*
X006867Y029241D01*
X006899Y029280D01*
X006933Y029317D01*
X006970Y029351D01*
X007010Y029381D01*
X007052Y029408D01*
X007096Y029432D01*
X007142Y029453D01*
X007189Y029469D01*
X007237Y029482D01*
X007287Y029491D01*
X007336Y029496D01*
X007387Y029497D01*
X007437Y029494D01*
X007486Y029487D01*
X007535Y029476D01*
X007583Y029461D01*
X007629Y029443D01*
X007674Y029421D01*
X007717Y029395D01*
X007758Y029366D01*
X007797Y029334D01*
X007833Y029299D01*
X007865Y029261D01*
X007895Y029221D01*
X007922Y029178D01*
X007945Y029134D01*
X007964Y029088D01*
X007980Y029040D01*
X007992Y028991D01*
X008000Y028942D01*
X008004Y028892D01*
X008004Y028842D01*
X008000Y028792D01*
X007992Y028743D01*
X007980Y028694D01*
X007964Y028646D01*
X007945Y028600D01*
X007922Y028556D01*
X007895Y028513D01*
X007865Y028473D01*
X007833Y028435D01*
X007797Y028400D01*
X007758Y028368D01*
X007717Y028339D01*
X007674Y028313D01*
X007629Y028291D01*
X007583Y028273D01*
X007535Y028258D01*
X007486Y028247D01*
X007437Y028240D01*
X007387Y028237D01*
X007336Y028238D01*
X007287Y028243D01*
X007237Y028252D01*
X007189Y028265D01*
X007142Y028281D01*
X007096Y028302D01*
X007052Y028326D01*
X007010Y028353D01*
X006970Y028383D01*
X006933Y028417D01*
X006899Y028454D01*
X006867Y028493D01*
X006839Y028534D01*
X006814Y028578D01*
X006793Y028623D01*
X006776Y028670D01*
X006762Y028718D01*
X006752Y028767D01*
X006746Y028817D01*
X006744Y028867D01*
D11*
X007374Y028867D03*
X018721Y028867D03*
X017867Y008910D03*
X007154Y008099D03*
D12*
X020248Y019264D03*
X020603Y014067D03*
D13*
X015091Y016272D03*
X015091Y018634D03*
D14*
X019107Y018477D03*
X019107Y018910D03*
X019264Y018044D03*
X019107Y017611D03*
X019264Y017178D03*
X019107Y016744D03*
X018949Y016311D03*
X019107Y015878D03*
D15*
X014910Y005552D03*
X013532Y005552D03*
D16*
X013796Y011909D02*
X013796Y012509D01*
X014796Y012509D02*
X014796Y011909D01*
X015796Y011909D02*
X015796Y012509D01*
X012796Y012509D02*
X012796Y011909D01*
X011796Y011909D02*
X011796Y012509D01*
X010796Y012509D02*
X010796Y011909D01*
D17*
X010726Y010642D03*
X010726Y009067D03*
X010726Y007493D03*
X010726Y005918D03*
X010726Y004343D03*
X012228Y005130D03*
X012228Y003556D03*
X012228Y006705D03*
X012228Y008280D03*
X012228Y009855D03*
X019387Y010642D03*
X019387Y009067D03*
X019387Y007493D03*
X019387Y005918D03*
X019387Y004343D03*
X020889Y005130D03*
X020889Y003556D03*
X020889Y006705D03*
X020889Y008280D03*
X020889Y009855D03*
D18*
X011739Y030333D02*
X011737Y030281D01*
X011731Y030230D01*
X011722Y030179D01*
X011709Y030129D01*
X011692Y030080D01*
X011672Y030032D01*
X011648Y029986D01*
X011621Y029942D01*
X011591Y029900D01*
X011558Y029860D01*
X011522Y029823D01*
X011484Y029788D01*
X011443Y029756D01*
X011399Y029728D01*
X011354Y029702D01*
X011307Y029680D01*
X011259Y029662D01*
X011209Y029647D01*
X011159Y029636D01*
X011108Y029628D01*
X011056Y029624D01*
X011004Y029624D01*
X010952Y029628D01*
X010901Y029636D01*
X010851Y029647D01*
X010801Y029662D01*
X010753Y029680D01*
X010706Y029702D01*
X010661Y029728D01*
X010617Y029756D01*
X010576Y029788D01*
X010538Y029823D01*
X010502Y029860D01*
X010469Y029900D01*
X010439Y029942D01*
X010412Y029986D01*
X010388Y030032D01*
X010368Y030080D01*
X010351Y030129D01*
X010338Y030179D01*
X010329Y030230D01*
X010323Y030281D01*
X010321Y030333D01*
M02*
