G75*
G70*
%OFA0B0*%
%FSLAX24Y24*%
%IPPOS*%
%LPD*%
%AMOC8*
5,1,8,0,0,1.08239X$1,22.5*
%
%ADD10C,0.0000*%
%ADD11R,0.0788X0.0591*%
%ADD12R,0.0591X0.0749*%
%ADD13R,0.0631X0.0316*%
%ADD14C,0.0394*%
%ADD15C,0.0640*%
%ADD16R,0.1142X0.0540*%
%ADD17C,0.0050*%
D10*
X005729Y003024D02*
X005729Y030339D01*
X021839Y030339D01*
X021819Y003024D01*
X005729Y003024D01*
X013355Y005552D02*
X013357Y005578D01*
X013363Y005604D01*
X013373Y005629D01*
X013386Y005652D01*
X013402Y005672D01*
X013422Y005690D01*
X013444Y005705D01*
X013467Y005717D01*
X013493Y005725D01*
X013519Y005729D01*
X013545Y005729D01*
X013571Y005725D01*
X013597Y005717D01*
X013621Y005705D01*
X013642Y005690D01*
X013662Y005672D01*
X013678Y005652D01*
X013691Y005629D01*
X013701Y005604D01*
X013707Y005578D01*
X013709Y005552D01*
X013707Y005526D01*
X013701Y005500D01*
X013691Y005475D01*
X013678Y005452D01*
X013662Y005432D01*
X013642Y005414D01*
X013620Y005399D01*
X013597Y005387D01*
X013571Y005379D01*
X013545Y005375D01*
X013519Y005375D01*
X013493Y005379D01*
X013467Y005387D01*
X013443Y005399D01*
X013422Y005414D01*
X013402Y005432D01*
X013386Y005452D01*
X013373Y005475D01*
X013363Y005500D01*
X013357Y005526D01*
X013355Y005552D01*
X014733Y005552D02*
X014735Y005578D01*
X014741Y005604D01*
X014751Y005629D01*
X014764Y005652D01*
X014780Y005672D01*
X014800Y005690D01*
X014822Y005705D01*
X014845Y005717D01*
X014871Y005725D01*
X014897Y005729D01*
X014923Y005729D01*
X014949Y005725D01*
X014975Y005717D01*
X014999Y005705D01*
X015020Y005690D01*
X015040Y005672D01*
X015056Y005652D01*
X015069Y005629D01*
X015079Y005604D01*
X015085Y005578D01*
X015087Y005552D01*
X015085Y005526D01*
X015079Y005500D01*
X015069Y005475D01*
X015056Y005452D01*
X015040Y005432D01*
X015020Y005414D01*
X014998Y005399D01*
X014975Y005387D01*
X014949Y005379D01*
X014923Y005375D01*
X014897Y005375D01*
X014871Y005379D01*
X014845Y005387D01*
X014821Y005399D01*
X014800Y005414D01*
X014780Y005432D01*
X014764Y005452D01*
X014751Y005475D01*
X014741Y005500D01*
X014735Y005526D01*
X014733Y005552D01*
D11*
X020603Y014067D03*
X020248Y019264D03*
D12*
X015091Y018634D03*
X015091Y016272D03*
D13*
X018949Y016311D03*
X019107Y015878D03*
X019107Y016744D03*
X019264Y017178D03*
X019107Y017611D03*
X019264Y018044D03*
X019107Y018477D03*
X019107Y018910D03*
D14*
X014910Y005552D03*
X013532Y005552D03*
D15*
X013796Y011909D02*
X013796Y012509D01*
X014796Y012509D02*
X014796Y011909D01*
X015796Y011909D02*
X015796Y012509D01*
X012796Y012509D02*
X012796Y011909D01*
X011796Y011909D02*
X011796Y012509D01*
X010796Y012509D02*
X010796Y011909D01*
D16*
X010726Y010642D03*
X010726Y009067D03*
X010726Y007493D03*
X010726Y005918D03*
X010726Y004343D03*
X012228Y005130D03*
X012228Y003556D03*
X012228Y006705D03*
X012228Y008280D03*
X012228Y009855D03*
X019387Y010642D03*
X019387Y009067D03*
X019387Y007493D03*
X019387Y005918D03*
X019387Y004343D03*
X020889Y005130D03*
X020889Y003556D03*
X020889Y006705D03*
X020889Y008280D03*
X020889Y009855D03*
D17*
X011739Y030333D02*
X011737Y030281D01*
X011731Y030230D01*
X011722Y030179D01*
X011709Y030129D01*
X011692Y030080D01*
X011672Y030032D01*
X011648Y029986D01*
X011621Y029942D01*
X011591Y029900D01*
X011558Y029860D01*
X011522Y029823D01*
X011484Y029788D01*
X011443Y029756D01*
X011399Y029728D01*
X011354Y029702D01*
X011307Y029680D01*
X011259Y029662D01*
X011209Y029647D01*
X011159Y029636D01*
X011108Y029628D01*
X011056Y029624D01*
X011004Y029624D01*
X010952Y029628D01*
X010901Y029636D01*
X010851Y029647D01*
X010801Y029662D01*
X010753Y029680D01*
X010706Y029702D01*
X010661Y029728D01*
X010617Y029756D01*
X010576Y029788D01*
X010538Y029823D01*
X010502Y029860D01*
X010469Y029900D01*
X010439Y029942D01*
X010412Y029986D01*
X010388Y030032D01*
X010368Y030080D01*
X010351Y030129D01*
X010338Y030179D01*
X010329Y030230D01*
X010323Y030281D01*
X010321Y030333D01*
M02*
